G04 ================== begin FILE IDENTIFICATION RECORD ==================*
G04 Layout Name:  C:/cygwin/home/konkers/play/flg/input/worklib/toplevel/physical/input.brd*
G04 Film Name:    BOTTOM*
G04 File Format:  Gerber RS274X*
G04 File Origin:  15.7-p007*
G04 Origin Date:  Tue Jun 23 23:00:07 2009*
G04 *
G04 Layer:  ETCH/BOTTOM*
G04 Layer:  PIN/BOTTOM*
G04 Layer:  VIA CLASS/BOTTOM*
G04 *
G04 Offset:    (0 0)*
G04 Mirror:    No*
G04 Mode:      Positive*
G04 Rotation:  0*
G04 FullContactRelief:  No*
G04 UndefLineWidth:     5*
G04 ================== end FILE IDENTIFICATION RECORD ====================*
%FSLAX54Y54*MOIN*%
%IR0*IPPOS*OFA0.00000B0.00000*MIA0B0*SFA1.00000B1.00000*%
%ADD13C,.03*%
%ADD14C,.06*%
%ADD15R,.06X.06*%
%ADD11C,.059*%
%ADD12R,.059X.059*%
%ADD10C,.13*%
%ADD16C,.01*%
%ADD17C,.04*%
G75*
%LPD*%
G75*
G36*
G01X11000Y66500D02*
X10750Y66750D01*
Y69220D01*
X11010Y69480D01*
X12990D01*
X13740Y68740D01*
Y68030D01*
X13750Y68020D01*
Y66750D01*
X13500Y66500D01*
X11000D01*
G37*
G54D10*
X3000Y54000D03*
Y79000D03*
X17000Y54000D03*
Y79000D03*
G54D11*
X5000Y57120D03*
Y58500D03*
Y63000D03*
Y61620D03*
Y66180D03*
Y68930D03*
Y67550D03*
Y71690D03*
Y70310D03*
Y74450D03*
Y73070D03*
X15000Y58620D03*
Y60000D03*
Y61380D03*
Y62760D03*
G54D12*
X5000Y59880D03*
Y64380D03*
Y75820D03*
X15000Y57240D03*
G54D13*
G01X12750Y67000D02*
Y66250D01*
X5750Y59250D01*
Y57870D01*
X5000Y57120D01*
G01X11250Y67000D02*
Y65750D01*
X7120Y61620D01*
X5000D01*
X8830Y60420D03*
X8750Y65000D03*
Y66000D03*
Y67000D03*
Y68000D03*
Y69000D03*
Y70000D03*
Y71000D03*
Y72000D03*
X11750Y62500D03*
X10170Y60700D03*
X10750Y69000D03*
X12000Y66500D03*
X14000Y61500D03*
X14750Y67250D03*
Y67750D03*
X12500D03*
X14000Y67000D03*
X14500Y70750D03*
X14840Y71000D03*
X14000Y76000D03*
X15250Y69000D03*
Y67500D03*
X16000Y67750D03*
Y68500D03*
X15530Y70620D03*
X15750Y71000D03*
X15330Y71500D03*
X18250Y65750D03*
Y68250D03*
Y71750D03*
G54D14*
X9000Y73250D03*
X11750D03*
X13750Y72250D03*
X12750D03*
Y73250D03*
X13750D03*
G54D15*
X11750Y72250D03*
X10000Y73250D03*
G54D16*
G01X14750Y67250D02*
X13900Y68100D01*
Y68810D01*
X13060Y69640D01*
X10940D01*
X9450Y68150D01*
Y65750D01*
X8750Y65050D01*
Y65000D01*
G01Y66000D02*
X9250Y66500D01*
Y68240D01*
X10850Y69840D01*
X13150D01*
X14100Y68890D01*
Y68400D01*
X14750Y67750D01*
G01X15250Y69000D02*
X14210Y70040D01*
X10770D01*
X9050Y68320D01*
Y67300D01*
X8750Y67000D01*
G01Y68000D02*
Y68310D01*
X10700Y70250D01*
X15160D01*
X15530Y70620D01*
G01X8750Y69000D02*
X10200Y70450D01*
X14720D01*
X15270Y71000D01*
X15750D01*
G01X8750Y70000D02*
X9500Y70750D01*
X14500D01*
G01X8750Y71000D02*
X8800Y71050D01*
X14630D01*
X14680Y71000D01*
X14840D01*
G01X15330Y71500D02*
X9250D01*
X8750Y72000D01*
G01X10000Y73250D02*
X11750D01*
G01X14000Y67000D02*
X13500Y67500D01*
G01X15250D02*
Y68500D01*
X16050Y69300D01*
Y71200D01*
X15000Y72250D01*
X13750D01*
G54D17*
G01X8830Y60420D02*
X10650Y62250D01*
X11500D01*
X11750Y62500D01*
G01X9000Y73250D02*
Y74300D01*
X9200Y74500D01*
X14250D01*
X16750Y72000D01*
Y69250D01*
X16000Y68500D01*
G01Y67750D02*
Y66750D01*
X11750Y62500D01*
G01X14000Y61500D02*
X13200Y60700D01*
X10170D01*
G01X18250Y65750D02*
X15600Y63100D01*
Y62510D01*
X15250Y62160D01*
X14660D01*
X14000Y61500D01*
G01Y76000D02*
X18250Y71750D01*
G01X16000Y68500D02*
Y67750D01*
G01X18250Y68250D02*
Y65750D01*
G01Y71750D02*
Y68250D01*
M02*
