%
M48
M72
T01C0.015000
T02C0.040000
T03C0.043000
T04C0.120000
%
T01
X000014000Y000076000
X000008750Y000065000
X000014750Y000067250
X000008750Y000066000
X000014750Y000067750
X000008750Y000067000
X000015250Y000069000
X000008750Y000068000
X000015530Y000070620
X000008750Y000069000
X000015750Y000071000
X000008750Y000070000
X000014500Y000070750
X000008750Y000071000
X000014840Y000071000
X000008750Y000072000
X000015330Y000071500
X000015250Y000067500
X000016000Y000067750
X000016000Y000068500
X000012500Y000067750
X000014000Y000067000
X000010750Y000069000
X000012000Y000066500
X000011750Y000062500
X000008830Y000060420
X000014000Y000061500
X000010170Y000060700
X000018250Y000071750
X000018250Y000068250
X000018250Y000065750
T02
X000010000Y000073250
X000009000Y000073250
X000011750Y000073250
X000013750Y000072250
X000012750Y000072250
X000011750Y000072250
X000012750Y000073250
X000013750Y000073250
T03
X000005000Y000059880
X000005000Y000058500
X000005000Y000057120
X000005000Y000063000
X000005000Y000061620
X000005000Y000064380
X000005000Y000073070
X000005000Y000071690
X000005000Y000070310
X000005000Y000068930
X000005000Y000067550
X000005000Y000066180
X000005000Y000075820
X000005000Y000074450
X000015000Y000057240
X000015000Y000058620
X000015000Y000060000
X000015000Y000061380
X000015000Y000062760
T04
X000003000Y000054000
X000003000Y000079000
X000017000Y000054000
X000017000Y000079000
M30
