G04 ================== begin FILE IDENTIFICATION RECORD ==================*
G04 Layout Name:  C:/cygwin/home/konkers/play/flg/input/worklib/toplevel/physical/input.brd*
G04 Film Name:    TOPMASK*
G04 File Format:  Gerber RS274X*
G04 File Origin:  15.7-p007*
G04 Origin Date:  Tue Jun 23 23:00:07 2009*
G04 *
G04 Layer:  PIN/SOLDERMASK_TOP*
G04 Layer:  PACKAGE GEOMETRY/SOLDERMASK_TOP*
G04 *
G04 Offset:    (0 0)*
G04 Mirror:    No*
G04 Mode:      Positive*
G04 Rotation:  0*
G04 FullContactRelief:  No*
G04 UndefLineWidth:     5*
G04 ================== end FILE IDENTIFICATION RECORD ====================*
%FSLAX54Y54*MOIN*%
%IR0*IPPOS*OFA0.00000B0.00000*MIA0B0*SFA1.00000B1.00000*%
%ADD10C,.061*%
%ADD15C,.064*%
%ADD14R,.05X.05*%
%ADD11R,.061X.061*%
%ADD21R,.047X.177*%
%ADD18R,.064X.064*%
%ADD17R,.055X.055*%
%ADD12R,.068X.068*%
%ADD16R,.03X.055*%
%ADD13R,.055X.03*%
%ADD19R,.018X.07*%
%ADD20R,.07X.018*%
%LPD*%
G75*
G54D10*
X5000Y57120D03*
Y58500D03*
Y63000D03*
Y61620D03*
Y66180D03*
Y68930D03*
Y67550D03*
Y71690D03*
Y70310D03*
Y74450D03*
Y73070D03*
X15000Y58620D03*
Y60000D03*
Y61380D03*
Y62760D03*
G54D20*
X13230Y66900D03*
Y67210D03*
Y67530D03*
Y67840D03*
Y68160D03*
Y68470D03*
Y68790D03*
Y69100D03*
X16770Y68790D03*
Y68470D03*
Y68160D03*
Y67840D03*
Y67530D03*
Y67210D03*
Y66900D03*
Y69100D03*
G54D11*
X5000Y59880D03*
Y64380D03*
Y75820D03*
X15000Y57240D03*
G54D12*
X9330Y55750D03*
X8830Y59500D03*
X10670Y55750D03*
X10170Y59500D03*
G54D21*
X17000Y72270D03*
Y75730D03*
G54D13*
X9020Y56750D03*
Y57250D03*
Y57750D03*
Y58250D03*
X10980Y56750D03*
Y57250D03*
Y58250D03*
Y57750D03*
G54D14*
X7900Y65000D03*
X7100D03*
X7900Y66000D03*
X7100D03*
X7900Y67000D03*
X7100D03*
X7900Y68000D03*
X7100D03*
X7900Y69000D03*
X7100D03*
X7900Y70000D03*
X7100D03*
X7900Y71000D03*
X7100D03*
X7900Y72000D03*
X7100D03*
X11850Y56250D03*
X10250Y71650D03*
Y70850D03*
X12650Y56250D03*
X15100Y64250D03*
X15900D03*
G54D15*
X9000Y73250D03*
X11750D03*
X13750Y72250D03*
X12750D03*
Y73250D03*
X13750D03*
G54D16*
X10750Y63230D03*
X11250D03*
X11750D03*
X10750Y61270D03*
X11250D03*
X11750D03*
X12250Y63230D03*
Y61270D03*
G54D17*
X12000Y67900D03*
Y67100D03*
X11350Y69000D03*
X12150D03*
X12500Y58650D03*
Y57850D03*
X13000Y61900D03*
Y61100D03*
X14850Y76000D03*
X18250Y68850D03*
Y66350D03*
Y67150D03*
X18150Y70750D03*
X17350D03*
X18250Y69650D03*
X15650Y76000D03*
G54D18*
X11750Y72250D03*
X10000Y73250D03*
G54D19*
X14840Y66230D03*
X14530D03*
X14210D03*
X13900D03*
Y69770D03*
X14210D03*
X14530D03*
X14840D03*
X16100Y66230D03*
X15790D03*
X15470D03*
X15160D03*
Y69770D03*
X15470D03*
X15790D03*
X16100D03*
M02*
