G04 ================== begin FILE IDENTIFICATION RECORD ==================*
G04 Layout Name:  C:/cygwin/home/konkers/play/flg/dpot/worklib/toplevel/physical/dpot.brd*
G04 Film Name:    BOTTOM*
G04 File Format:  Gerber RS274X*
G04 File Origin:  15.7-p007*
G04 Origin Date:  Thu Jun 25 02:14:35 2009*
G04 *
G04 Layer:  ETCH/BOTTOM*
G04 Layer:  PIN/BOTTOM*
G04 Layer:  VIA CLASS/BOTTOM*
G04 *
G04 Offset:    (0 0)*
G04 Mirror:    No*
G04 Mode:      Positive*
G04 Rotation:  0*
G04 FullContactRelief:  No*
G04 UndefLineWidth:     5*
G04 ================== end FILE IDENTIFICATION RECORD ====================*
%FSLAX54Y54*MOIN*%
%IR0*IPPOS*OFA0.00000B0.00000*MIA0B0*SFA1.00000B1.00000*%
%ADD13C,.03*%
%ADD14C,.06*%
%ADD11C,.063*%
%ADD15R,.06X.06*%
%ADD12R,.063X.063*%
%ADD10C,.25*%
%ADD16C,.01*%
%ADD17C,.02*%
G75*
%LPD*%
G75*
G54D10*
X41500Y99250D03*
Y134250D03*
X56500Y99250D03*
Y134250D03*
G54D11*
X43000Y113620D03*
Y115000D03*
X43250Y128750D03*
Y127370D03*
X55000Y107870D03*
Y109250D03*
Y110630D03*
Y112010D03*
G54D12*
X43000Y116380D03*
X43250Y130130D03*
X55000Y106490D03*
G54D13*
G01X51000Y119250D02*
X51500D01*
X53500Y121250D01*
Y121570D01*
X53800Y121870D01*
X56250D01*
G01X49000Y119000D02*
X49250Y119250D01*
X51000D01*
G01X54250Y115750D02*
Y114250D01*
X52170Y112170D01*
Y111330D01*
G01X57870Y113250D02*
Y109870D01*
X55870Y107870D01*
X55000D01*
G01X54920Y118940D02*
X54250Y118270D01*
Y115750D01*
G01X54920Y118940D02*
Y119500D01*
G01X56250Y121870D02*
X57570D01*
X57870Y121570D01*
Y119000D01*
G01Y114000D02*
Y113250D01*
G01Y115250D02*
Y114000D01*
G01Y118250D02*
Y115250D01*
G01Y119000D02*
Y118250D01*
X45000Y119500D03*
X44500Y118750D03*
X44200Y118450D03*
X43500Y121250D03*
X44500Y121500D03*
X44190Y121770D03*
X43900Y121440D03*
X43750Y126000D03*
X44750Y124500D03*
X44500Y126000D03*
X51000Y119250D03*
Y122250D03*
X52170Y111330D03*
X54000Y113000D03*
X53960Y119790D03*
X51750Y120250D03*
X51500Y121250D03*
X52000Y125500D03*
X57000Y114000D03*
X54750Y115500D03*
X57000Y115250D03*
X55500Y119000D03*
X55750Y119750D03*
Y118530D03*
X55840Y119220D03*
X56000Y123250D03*
X57500Y113500D03*
X58500Y118000D03*
G54D14*
X46000Y110750D03*
Y112750D03*
Y114250D03*
Y116250D03*
Y115250D03*
Y118000D03*
Y119000D03*
Y122750D03*
Y121750D03*
Y123750D03*
Y125500D03*
Y127500D03*
Y126500D03*
Y129250D03*
Y131250D03*
Y130250D03*
X49000Y112750D03*
Y116250D03*
Y115250D03*
Y118000D03*
Y119000D03*
Y120000D03*
Y122750D03*
Y123750D03*
Y127500D03*
Y126500D03*
Y131250D03*
Y130250D03*
X53250Y129250D03*
X54250Y127000D03*
X56250Y126000D03*
X55250D03*
Y127000D03*
X56250D03*
G54D15*
X46000Y120000D03*
X49000Y109750D03*
Y114250D03*
Y121750D03*
Y125500D03*
Y129250D03*
X54250Y126000D03*
Y129250D03*
G54D16*
G01X45000Y119500D02*
X44800Y119700D01*
Y124450D01*
X44750Y124500D01*
G01X44500Y118750D02*
Y121500D01*
G01X44200Y118450D02*
Y121760D01*
X44190Y121770D01*
G01X43750Y126000D02*
Y121720D01*
X43600Y121570D01*
Y121350D01*
X43500Y121250D01*
G01X43900Y121440D02*
Y121220D01*
X43630Y120950D01*
X43370D01*
X43200Y121120D01*
Y125880D01*
X43620Y126300D01*
X43880D01*
X44180Y126000D01*
X44500D01*
G01X45510Y126500D02*
X45000Y125990D01*
X44920D01*
X44630Y125700D01*
X44050D01*
X43750Y126000D01*
G01X44500D02*
Y128750D01*
X46000Y130250D01*
G01X51000Y122250D02*
Y126000D01*
X51500Y126500D01*
X54500D01*
X55000Y127000D01*
X55250D01*
G01X49000Y129250D02*
X50750Y127500D01*
X51250D01*
X53000Y129250D01*
X53250D01*
G01X54000Y113000D02*
X57620D01*
X57870Y113250D01*
G01X54920Y119500D02*
Y119600D01*
X54730Y119790D01*
X53960D01*
G01X52000Y125500D02*
Y120500D01*
X51750Y120250D01*
G01X51500Y121250D02*
Y125900D01*
X51600Y126000D01*
X54250D01*
G01X52000Y125500D02*
X54750D01*
X55250Y126000D01*
G01X57000Y114000D02*
X57870D01*
G01X54750Y115500D02*
X54500D01*
X54250Y115750D01*
G01X57000Y115250D02*
X57870D01*
G01X55750Y119750D02*
X55170D01*
X54920Y119500D01*
G01X55500Y119000D02*
X55320Y118820D01*
X55040D01*
X54920Y118940D01*
G01X57870Y119000D02*
X57400Y118530D01*
X55750D01*
G01X55840Y119220D02*
X55900Y119160D01*
X56180D01*
X56270Y119250D01*
X57620D01*
X57870Y119000D01*
G01X56000Y123250D02*
Y122120D01*
X56250Y121870D01*
G01X57870Y113250D02*
X57750D01*
X57500Y113500D01*
G01X58500Y118000D02*
X58120D01*
X57870Y118250D01*
G54D17*
G01X46000Y115250D02*
X46490Y114760D01*
Y112240D01*
X46000Y111750D01*
Y110750D01*
G01Y112750D02*
Y114250D01*
G01X45510Y120000D02*
Y114740D01*
X46000Y114250D01*
G01Y115250D02*
Y115260D01*
X46490Y115750D01*
Y122260D01*
X46000Y122750D01*
G01Y120000D02*
X45510D01*
G01X46000Y121750D02*
X45510Y121260D01*
Y120000D01*
G01X46000Y125500D02*
X45510Y125010D01*
Y122240D01*
X46000Y121750D01*
G01Y126500D02*
X46490Y126010D01*
Y123540D01*
X46000Y123050D01*
Y122750D01*
G01X45510Y126500D02*
Y125990D01*
X46000Y125500D01*
G01Y129250D02*
X45510Y128760D01*
Y126500D01*
G01X46000Y130250D02*
X46490Y129760D01*
Y127290D01*
X46000Y126800D01*
Y126500D01*
M02*
