%
M48
M72
T01C0.015000
T02C0.036000
T03C0.040000
T04C0.051000
T05C0.125000
%
T01
X000044500Y000118750
X000044200Y000118450
X000043750Y000126000
X000043500Y000121250
X000044750Y000124500
X000045000Y000119500
X000044500Y000121500
X000044190Y000121770
X000044500Y000126000
X000043900Y000121440
X000052000Y000125500
X000051750Y000120250
X000051000Y000122250
X000051500Y000121250
X000055750Y000119750
X000053960Y000119790
X000056000Y000123250
X000055500Y000119000
X000054750Y000115500
X000052170Y000111330
X000054000Y000113000
X000051000Y000119250
X000055750Y000118530
X000055840Y000119220
X000057000Y000114000
X000057000Y000115250
X000057500Y000113500
X000058500Y000118000
T02
X000046000Y000110750
X000046000Y000112750
X000046000Y000116250
X000046000Y000115250
X000046000Y000114250
X000046000Y000118000
X000046000Y000119000
X000046000Y000123750
X000046000Y000122750
X000046000Y000121750
X000046000Y000120000
X000046000Y000127500
X000046000Y000126500
X000046000Y000125500
X000046000Y000129250
X000046000Y000131250
X000046000Y000130250
X000049000Y000131250
X000049000Y000130250
X000049000Y000123750
X000049000Y000122750
X000049000Y000121750
X000049000Y000120000
X000049000Y000127500
X000049000Y000126500
X000049000Y000125500
X000049000Y000129250
X000049000Y000109750
X000049000Y000112750
X000049000Y000116250
X000049000Y000115250
X000049000Y000114250
X000049000Y000118000
X000049000Y000119000
T03
X000054250Y000129250
X000053250Y000129250
X000054250Y000127000
X000056250Y000126000
X000055250Y000126000
X000054250Y000126000
X000055250Y000127000
X000056250Y000127000
T04
X000043000Y000116380
X000043000Y000115000
X000043000Y000113620
X000043250Y000128750
X000043250Y000127370
X000043250Y000130130
X000055000Y000110630
X000055000Y000112010
X000055000Y000106490
X000055000Y000107870
X000055000Y000109250
T05
X000041500Y000099250
X000041500Y000134250
X000056500Y000099250
X000056500Y000134250
M30
