G04 ================== begin FILE IDENTIFICATION RECORD ==================*
G04 Layout Name:  C:/cygwin/home/konkers/play/flg/dpot/worklib/toplevel/physical/dpot.brd*
G04 Film Name:    TOPMASK*
G04 File Format:  Gerber RS274X*
G04 File Origin:  15.7-p007*
G04 Origin Date:  Thu Jun 25 02:14:35 2009*
G04 *
G04 Layer:  PIN/SOLDERMASK_TOP*
G04 Layer:  PACKAGE GEOMETRY/SOLDERMASK_TOP*
G04 *
G04 Offset:    (0 0)*
G04 Mirror:    No*
G04 Mode:      Positive*
G04 Rotation:  0*
G04 FullContactRelief:  No*
G04 UndefLineWidth:     5*
G04 ================== end FILE IDENTIFICATION RECORD ====================*
%FSLAX54Y54*MOIN*%
%IR0*IPPOS*OFA0.00000B0.00000*MIA0B0*SFA1.00000B1.00000*%
%ADD23C,.064*%
%ADD10C,.065*%
%ADD15C,.075*%
%ADD13R,.05X.05*%
%ADD24R,.047X.177*%
%ADD22R,.064X.064*%
%ADD14R,.055X.055*%
%ADD11R,.065X.065*%
%ADD16R,.075X.075*%
%ADD17R,.068X.068*%
%ADD18R,.012X.028*%
%ADD19R,.028X.012*%
%ADD20R,.018X.07*%
%ADD21R,.07X.018*%
%ADD12R,.014X.047*%
%LPD*%
G75*
G54D10*
X43000Y113620D03*
Y115000D03*
X43250Y128750D03*
Y127370D03*
X55000Y107870D03*
Y109250D03*
Y110630D03*
Y112010D03*
G54D20*
X53960Y117230D03*
X53650D03*
Y120770D03*
X53960D03*
X55850Y117230D03*
X55540D03*
X55220D03*
X54910D03*
X54590D03*
X54280D03*
Y120770D03*
X54590D03*
X54910D03*
X55220D03*
X55540D03*
X55850D03*
G54D11*
X43000Y116380D03*
X43250Y130130D03*
X55000Y106490D03*
G54D12*
X44390Y117880D03*
X44200D03*
X44000D03*
X43800D03*
X43610D03*
Y119620D03*
X43800D03*
X44000D03*
X44200D03*
X44390D03*
Y122380D03*
X44200D03*
X44000D03*
X43800D03*
X43610D03*
Y124120D03*
X43800D03*
X44000D03*
X44200D03*
X44390D03*
G54D21*
X52980Y117900D03*
Y118210D03*
Y118530D03*
Y118840D03*
Y119160D03*
Y119470D03*
Y119790D03*
Y120100D03*
X56520Y119790D03*
Y119470D03*
Y119160D03*
Y118840D03*
Y118530D03*
Y118210D03*
Y117900D03*
Y120100D03*
G54D22*
X54250Y126000D03*
Y129250D03*
G54D13*
X45100Y118350D03*
Y117550D03*
X50850Y106250D03*
X50000Y114350D03*
Y115150D03*
Y117350D03*
Y118150D03*
X50250Y121850D03*
Y122650D03*
X50000Y125600D03*
Y126400D03*
Y129350D03*
Y130150D03*
X51650Y106250D03*
X56150Y114000D03*
X55350D03*
X57750Y116850D03*
Y117650D03*
G54D14*
X43600Y120750D03*
X44400D03*
X43600Y125250D03*
X44400D03*
X52250Y107600D03*
Y108400D03*
X52000Y118850D03*
Y119650D03*
X55350Y115250D03*
X56150D03*
X56000Y124100D03*
Y124900D03*
X58150Y120250D03*
X57350D03*
X58150Y119500D03*
X57350D03*
X58150Y118750D03*
X57350D03*
G54D23*
X53250Y129250D03*
X54250Y127000D03*
X56250Y126000D03*
X55250D03*
Y127000D03*
X56250D03*
G54D24*
X57750Y121770D03*
Y125230D03*
G54D15*
X46000Y110750D03*
Y112750D03*
Y114250D03*
Y116250D03*
Y115250D03*
Y118000D03*
Y119000D03*
Y122750D03*
Y121750D03*
Y123750D03*
Y125500D03*
Y127500D03*
Y126500D03*
Y129250D03*
Y131250D03*
Y130250D03*
X49000Y112750D03*
Y116250D03*
Y115250D03*
Y118000D03*
Y119000D03*
Y120000D03*
Y122750D03*
Y123750D03*
Y127500D03*
Y126500D03*
Y131250D03*
Y130250D03*
G54D16*
X46000Y120000D03*
X49000Y109750D03*
Y114250D03*
Y121750D03*
Y125500D03*
Y129250D03*
G54D17*
X49920Y106250D03*
X48580D03*
X50830Y110500D03*
X52170D03*
X58000Y114080D03*
Y115420D03*
G54D18*
X49750Y107190D03*
X50250D03*
X50750D03*
Y109310D03*
X50250D03*
X49750D03*
X51250Y107190D03*
Y109310D03*
G54D19*
X51940Y115750D03*
Y115250D03*
Y114750D03*
Y114250D03*
X54060D03*
Y114750D03*
Y115250D03*
Y115750D03*
M02*
