G04 ================== begin FILE IDENTIFICATION RECORD ==================*
G04 Layout Name:  C:/cygwin/home/konkers/play/flg/dpot/worklib/toplevel/physical/dpot.brd*
G04 Film Name:    TOPSILK*
G04 File Format:  Gerber RS274X*
G04 File Origin:  15.7-p007*
G04 Origin Date:  Thu Jun 25 02:14:35 2009*
G04 *
G04 Layer:  MANUFACTURING/AUTOSILK_TOP*
G04 Layer:  BOARD GEOMETRY/SILKSCREEN_TOP*
G04 *
G04 Offset:    (0 0)*
G04 Mirror:    No*
G04 Mode:      Positive*
G04 Rotation:  0*
G04 FullContactRelief:  No*
G04 UndefLineWidth:     5*
G04 ================== end FILE IDENTIFICATION RECORD ====================*
%FSLAX54Y54*MOIN*%
%IR0*IPPOS*OFA0.00000B0.00000*MIA0B0*SFA1.00000B1.00000*%
%ADD10C,.01*%
%ADD11C,.005*%
%ADD12C,.004*%
%ADD13C,.006*%
%ADD14C,.008*%
G75*
%LPD*%
G75*
G36*
G01X57350Y117900D02*
G03I-100J0D01*
G37*
G54D10*
G01X44650Y118870D02*
Y119920D01*
X43350D01*
Y117740D01*
X43510Y117580D01*
G01D02*
X44650D01*
Y118630D01*
G01X44580Y124420D02*
X43350D01*
Y122240D01*
X43510Y122080D01*
G01D02*
X44650D01*
Y124340D01*
G54D11*
G01X39100Y112930D02*
X44610D01*
Y117070D01*
X39100D01*
Y112930D01*
G01X39350Y126680D02*
X44860D01*
Y130820D01*
X39350D01*
Y126680D01*
G01X43700Y117410D02*
G03I-90J0D01*
G01Y121910D02*
G03I-90J0D01*
G01X48600Y109250D02*
X48000D01*
X47750Y109500D01*
X47250D01*
X47000Y109250D01*
X46400D01*
Y113250D01*
X48600D01*
Y109250D01*
G01Y113500D02*
X48000D01*
X47750Y113750D01*
X47250D01*
X47000Y113500D01*
X46400D01*
Y117000D01*
X48600D01*
Y113500D01*
G01X46400Y120750D02*
X47000D01*
X47250Y120500D01*
X47750D01*
X48000Y120750D01*
X48600D01*
Y117250D01*
X46400D01*
Y120750D01*
G01X48600Y121000D02*
X48000D01*
X47750Y121250D01*
X47250D01*
X47000Y121000D01*
X46400D01*
Y124500D01*
X48600D01*
Y121000D01*
G01Y124750D02*
X48000D01*
X47750Y125000D01*
X47250D01*
X47000Y124750D01*
X46400D01*
Y128250D01*
X48600D01*
Y124750D01*
G01Y128500D02*
X48000D01*
X47750Y128750D01*
X47250D01*
X47000Y128500D01*
X46400D01*
Y132000D01*
X48600D01*
Y128500D01*
G01X49560Y109000D02*
Y107500D01*
X51440D01*
Y109000D01*
X49560D01*
G01X58900Y112690D02*
X53390D01*
Y105810D01*
X58900D01*
Y112690D01*
G01X52250Y114060D02*
X53750D01*
Y115940D01*
X52250D01*
Y114060D01*
G01X56990Y121130D02*
X52510D01*
Y116870D01*
X56990D01*
Y121130D01*
G01X57530Y125680D02*
X56810D01*
Y121320D01*
X57530D01*
G01X57980D02*
X58690D01*
G01D02*
Y125680D01*
X57980D01*
G01X55180Y125310D02*
X55200Y125280D01*
X55230Y125260D01*
X55270Y125250D01*
X55300Y125260D01*
X55330Y125280D01*
X55350Y125310D01*
Y125340D01*
Y125380D01*
X55320Y125400D01*
X55290Y125420D01*
X55260D01*
G01X55290D02*
X55310Y125430D01*
X55330Y125460D01*
X55340Y125490D01*
X55330Y125520D01*
X55310Y125540D01*
X55280Y125560D01*
X55250Y125550D01*
X55210Y125530D01*
G01X56230Y125300D02*
X56250Y125270D01*
X56280Y125260D01*
X56310Y125250D01*
X56350Y125260D01*
X56380Y125280D01*
X56400Y125320D01*
Y125360D01*
X56390Y125400D01*
X56370Y125430D01*
X56350Y125450D01*
X56320D01*
X56290D01*
X56260Y125430D01*
X56270Y125560D01*
X56370D01*
G01X54260Y125250D02*
Y125560D01*
X54220Y125500D01*
G01Y125250D02*
X54310D01*
G01X55310Y127500D02*
Y127810D01*
X55170Y127590D01*
X55360D01*
G01X56240Y127630D02*
X56270Y127670D01*
X56290Y127690D01*
X56320Y127700D01*
X56350Y127690D01*
X56370Y127670D01*
X56380Y127630D01*
X56390Y127600D01*
X56380Y127570D01*
X56370Y127540D01*
X56350Y127510D01*
X56320Y127500D01*
X56290Y127510D01*
X56260Y127540D01*
X56250Y127590D01*
X56240Y127640D01*
X56250Y127710D01*
X56260Y127740D01*
X56280Y127780D01*
X56310Y127800D01*
X56330Y127810D01*
X56360Y127800D01*
X56380Y127770D01*
G01X54190Y127760D02*
X54220Y127790D01*
X54240Y127800D01*
X54270Y127810D01*
X54310Y127800D01*
X54340Y127770D01*
X54350Y127740D01*
X54340Y127710D01*
X54330Y127690D01*
X54250Y127630D01*
X54220Y127600D01*
X54190Y127550D01*
X54180Y127500D01*
X54350D01*
G54D12*
G01X40590Y113630D02*
X40610Y113650D01*
Y113670D01*
X40620Y113700D01*
X40610Y113720D01*
X40600Y113740D01*
X40590Y113750D01*
X40520D01*
Y113500D01*
X40600D01*
X40620Y113520D01*
X40630Y113540D01*
Y113570D01*
Y113600D01*
X40610Y113620D01*
X40590Y113630D01*
X40520D01*
G01X40590D02*
X40610Y113650D01*
Y113670D01*
X40620Y113700D01*
X40610Y113720D01*
X40600Y113740D01*
X40590Y113750D01*
X40520D01*
Y113500D01*
X40600D01*
X40620Y113520D01*
X40630Y113540D01*
Y113570D01*
Y113600D01*
X40610Y113620D01*
X40590Y113630D01*
X40520D01*
G01X40510Y116500D02*
X40570Y116750D01*
X40640Y116500D01*
G01X40610Y116590D02*
X40530D01*
G01X40510Y115170D02*
X40540Y115000D01*
X40570Y115170D01*
X40610Y115000D01*
X40640Y115170D01*
G01X40820D02*
Y115000D01*
G01Y115230D02*
Y115240D01*
Y115250D01*
D01*
X40830D01*
Y115240D01*
X40820Y115230D01*
G01X41030Y114920D02*
Y115170D01*
G01Y115130D02*
X41040Y115150D01*
X41050Y115160D01*
X41070Y115170D01*
X41090Y115160D01*
X41110Y115140D01*
X41120Y115110D01*
Y115080D01*
Y115050D01*
X41110Y115020D01*
X41090Y115010D01*
X41070Y115000D01*
X41060D01*
X41040Y115020D01*
X41030Y115030D01*
G01X41290Y115110D02*
X41370D01*
X41360Y115140D01*
X41350Y115160D01*
X41330Y115170D01*
X41310Y115160D01*
X41300Y115150D01*
X41290Y115120D01*
X41280Y115100D01*
Y115070D01*
X41290Y115050D01*
X41300Y115020D01*
X41310Y115000D01*
X41330D01*
X41350Y115010D01*
X41370Y115030D01*
G01X41540Y115000D02*
Y115170D01*
G01Y115130D02*
X41550Y115150D01*
X41560Y115160D01*
X41580Y115170D01*
X41590Y115160D01*
X41610Y115150D01*
G01X40510Y115170D02*
X40540Y115000D01*
X40570Y115170D01*
X40610Y115000D01*
X40640Y115170D01*
G01X40820D02*
Y115000D01*
G01Y115230D02*
Y115240D01*
Y115250D01*
D01*
X40830D01*
Y115240D01*
X40820Y115230D01*
G01X41030Y114920D02*
Y115170D01*
G01Y115130D02*
X41040Y115150D01*
X41050Y115160D01*
X41070Y115170D01*
X41090Y115160D01*
X41110Y115140D01*
X41120Y115110D01*
Y115080D01*
Y115050D01*
X41110Y115020D01*
X41090Y115010D01*
X41070Y115000D01*
X41060D01*
X41040Y115020D01*
X41030Y115030D01*
G01X41290Y115110D02*
X41370D01*
X41360Y115140D01*
X41350Y115160D01*
X41330Y115170D01*
X41310Y115160D01*
X41300Y115150D01*
X41290Y115120D01*
X41280Y115100D01*
Y115070D01*
X41290Y115050D01*
X41300Y115020D01*
X41310Y115000D01*
X41330D01*
X41350Y115010D01*
X41370Y115030D01*
G01X41540Y115000D02*
Y115170D01*
G01Y115130D02*
X41550Y115150D01*
X41560Y115160D01*
X41580Y115170D01*
X41590Y115160D01*
X41610Y115150D01*
G01X40510Y116500D02*
X40570Y116750D01*
X40640Y116500D01*
G01X40610Y116590D02*
X40530D01*
G01X39520Y117550D02*
X39540Y117520D01*
X39550Y117510D01*
X39570Y117500D01*
X39590Y117510D01*
X39610Y117520D01*
X39620Y117550D01*
X39630Y117580D01*
Y117750D01*
G01X39860Y117500D02*
Y117750D01*
X39760Y117570D01*
X39890D01*
G01X39770Y126050D02*
X39790Y126020D01*
X39800Y126010D01*
X39820Y126000D01*
X39840Y126010D01*
X39860Y126020D01*
X39870Y126050D01*
X39880Y126080D01*
Y126250D01*
G01X40070Y126000D02*
Y126250D01*
X40040Y126200D01*
G01Y126000D02*
X40100D01*
G01X40840Y127380D02*
X40860Y127400D01*
Y127420D01*
X40870Y127450D01*
X40860Y127470D01*
X40850Y127490D01*
X40840Y127500D01*
X40770D01*
Y127250D01*
X40850D01*
X40870Y127270D01*
X40880Y127290D01*
Y127320D01*
Y127350D01*
X40860Y127370D01*
X40840Y127380D01*
X40770D01*
G01X40760Y128920D02*
X40790Y128750D01*
X40820Y128920D01*
X40860Y128750D01*
X40890Y128920D01*
G01X41070D02*
Y128750D01*
G01Y128980D02*
Y128990D01*
Y129000D01*
D01*
X41080D01*
Y128990D01*
X41070Y128980D01*
G01X41280Y128670D02*
Y128920D01*
G01Y128880D02*
X41290Y128900D01*
X41300Y128910D01*
X41320Y128920D01*
X41340Y128910D01*
X41360Y128890D01*
X41370Y128860D01*
Y128830D01*
Y128800D01*
X41360Y128770D01*
X41340Y128760D01*
X41320Y128750D01*
X41310D01*
X41290Y128770D01*
X41280Y128780D01*
G01X41540Y128860D02*
X41620D01*
X41610Y128890D01*
X41600Y128910D01*
X41580Y128920D01*
X41560Y128910D01*
X41550Y128900D01*
X41540Y128870D01*
X41530Y128850D01*
Y128820D01*
X41540Y128800D01*
X41550Y128770D01*
X41560Y128750D01*
X41580D01*
X41600Y128760D01*
X41620Y128780D01*
G01X41790Y128750D02*
Y128920D01*
G01Y128880D02*
X41800Y128900D01*
X41810Y128910D01*
X41830Y128920D01*
X41840Y128910D01*
X41860Y128900D01*
G01X40760Y128920D02*
X40790Y128750D01*
X40820Y128920D01*
X40860Y128750D01*
X40890Y128920D01*
G01X41070D02*
Y128750D01*
G01Y128980D02*
Y128990D01*
Y129000D01*
D01*
X41080D01*
Y128990D01*
X41070Y128980D01*
G01X41280Y128670D02*
Y128920D01*
G01Y128880D02*
X41290Y128900D01*
X41300Y128910D01*
X41320Y128920D01*
X41340Y128910D01*
X41360Y128890D01*
X41370Y128860D01*
Y128830D01*
Y128800D01*
X41360Y128770D01*
X41340Y128760D01*
X41320Y128750D01*
X41310D01*
X41290Y128770D01*
X41280Y128780D01*
G01X41540Y128860D02*
X41620D01*
X41610Y128890D01*
X41600Y128910D01*
X41580Y128920D01*
X41560Y128910D01*
X41550Y128900D01*
X41540Y128870D01*
X41530Y128850D01*
Y128820D01*
X41540Y128800D01*
X41550Y128770D01*
X41560Y128750D01*
X41580D01*
X41600Y128760D01*
X41620Y128780D01*
G01X41790Y128750D02*
Y128920D01*
G01Y128880D02*
X41800Y128900D01*
X41810Y128910D01*
X41830Y128920D01*
X41840Y128910D01*
X41860Y128900D01*
G01X40840Y127380D02*
X40860Y127400D01*
Y127420D01*
X40870Y127450D01*
X40860Y127470D01*
X40850Y127490D01*
X40840Y127500D01*
X40770D01*
Y127250D01*
X40850D01*
X40870Y127270D01*
X40880Y127290D01*
Y127320D01*
Y127350D01*
X40860Y127370D01*
X40840Y127380D01*
X40770D01*
G01X40760Y130250D02*
X40820Y130500D01*
X40890Y130250D01*
G01X40860Y130340D02*
X40780D01*
G01X40760Y130250D02*
X40820Y130500D01*
X40890Y130250D01*
G01X40860Y130340D02*
X40780D01*
G01X42750Y118440D02*
X42930D01*
X42970Y118450D01*
X42990Y118470D01*
X43000Y118490D01*
X42990Y118520D01*
X42970Y118540D01*
X42930Y118550D01*
X42750D01*
G01X43000Y118740D02*
X42750D01*
X42800Y118710D01*
G01X43000D02*
Y118770D01*
G01Y118990D02*
X42750D01*
X42800Y118960D01*
G01X43000D02*
Y119020D01*
G01X42750Y122940D02*
X42930D01*
X42970Y122950D01*
X42990Y122970D01*
X43000Y122990D01*
X42990Y123020D01*
X42970Y123040D01*
X42930Y123050D01*
X42750D01*
G01X43000Y123240D02*
X42750D01*
X42800Y123210D01*
G01X43000D02*
Y123270D01*
G01X42750Y123490D02*
X42760Y123470D01*
X42780Y123460D01*
X42800Y123450D01*
X42840Y123440D01*
X42880D01*
X42910D01*
X42950Y123450D01*
X42970Y123460D01*
X42990Y123470D01*
X43000Y123490D01*
X42990Y123510D01*
X42970Y123530D01*
X42950Y123540D01*
X42910Y123550D01*
X42880D01*
X42840D01*
X42800Y123540D01*
X42780Y123530D01*
X42760Y123510D01*
X42750Y123490D01*
G01X44450Y121010D02*
Y121050D01*
G01Y120450D02*
Y120490D01*
G01X43550Y121010D02*
Y121050D01*
G01Y120450D02*
Y120490D01*
G01Y120450D02*
X44450D01*
G01X43550Y121050D02*
X44450D01*
G01X43230Y121830D02*
X43210Y121840D01*
X43200Y121850D01*
X43180D01*
X43150Y121840D01*
X43140Y121820D01*
X43120Y121790D01*
X43110Y121750D01*
Y121710D01*
X43120Y121670D01*
Y121650D01*
X43140Y121620D01*
X43160Y121610D01*
X43170Y121600D01*
X43190D01*
X43210Y121610D01*
X43230Y121620D01*
X43240Y121640D01*
G01X43380Y121630D02*
X43400Y121610D01*
X43420Y121600D01*
X43440Y121610D01*
X43460Y121630D01*
X43470Y121670D01*
X43480Y121710D01*
Y121750D01*
X43470Y121790D01*
X43460Y121820D01*
X43440Y121840D01*
X43420Y121850D01*
X43400Y121840D01*
X43390Y121820D01*
X43380Y121800D01*
X43370Y121770D01*
X43380Y121740D01*
X43390Y121710D01*
X43410Y121690D01*
X43420D01*
X43440Y121700D01*
X43460Y121720D01*
X43480Y121750D01*
G01X44450Y125510D02*
Y125550D01*
G01Y124950D02*
Y124990D01*
G01X43550Y125510D02*
Y125550D01*
G01Y124950D02*
Y124990D01*
G01Y124950D02*
X44450D01*
G01X43550Y125550D02*
X44450D01*
G01X44140Y125900D02*
X44150Y125920D01*
X44160Y125930D01*
Y125950D01*
X44150Y125980D01*
X44130Y125990D01*
X44100Y126010D01*
X44060Y126020D01*
X44020D01*
X43980Y126010D01*
X43960D01*
X43930Y125990D01*
X43920Y125970D01*
X43910Y125960D01*
Y125940D01*
X43920Y125920D01*
X43930Y125900D01*
X43950Y125890D01*
G01X43910Y125710D02*
Y125690D01*
X43930Y125670D01*
X43950Y125650D01*
X43980D01*
X44010D01*
X44030Y125670D01*
X44040Y125690D01*
Y125720D01*
X44050Y125730D01*
X44070Y125750D01*
X44100D01*
X44130Y125740D01*
X44150Y125730D01*
X44160Y125710D01*
X44150Y125690D01*
X44130Y125670D01*
X44100Y125660D01*
X44070Y125670D01*
X44050Y125680D01*
X44040Y125690D01*
Y125720D01*
X44030Y125740D01*
X44010Y125760D01*
X43980D01*
X43950D01*
X43930Y125740D01*
X43910Y125720D01*
Y125710D01*
G01X45310Y103420D02*
X45290Y103460D01*
X45270Y103500D01*
Y103670D01*
X45290Y103710D01*
X45310Y103750D01*
G01X45630Y103730D02*
X45610Y103740D01*
X45600Y103750D01*
X45580D01*
X45550Y103740D01*
X45540Y103720D01*
X45520Y103690D01*
X45510Y103650D01*
Y103610D01*
X45520Y103570D01*
Y103550D01*
X45540Y103520D01*
X45560Y103510D01*
X45570Y103500D01*
X45590D01*
X45610Y103510D01*
X45630Y103520D01*
X45640Y103540D01*
G01X45840Y103420D02*
X45860Y103460D01*
X45880Y103500D01*
Y103670D01*
X45860Y103710D01*
X45840Y103750D01*
G01X46280Y103710D02*
X46290Y103730D01*
X46310Y103750D01*
X46330D01*
X46360Y103740D01*
X46370Y103720D01*
X46380Y103700D01*
Y103670D01*
X46360Y103650D01*
X46310Y103610D01*
X46290Y103580D01*
X46280Y103540D01*
X46270Y103500D01*
X46380D01*
G01X46570Y103750D02*
X46550Y103740D01*
X46540Y103720D01*
X46530Y103700D01*
X46520Y103660D01*
Y103620D01*
Y103590D01*
X46530Y103550D01*
X46540Y103530D01*
X46550Y103510D01*
X46570Y103500D01*
X46590Y103510D01*
X46610Y103530D01*
X46620Y103550D01*
X46630Y103590D01*
Y103620D01*
Y103660D01*
X46620Y103700D01*
X46610Y103720D01*
X46590Y103740D01*
X46570Y103750D01*
G01X46820D02*
X46800Y103740D01*
X46790Y103720D01*
X46780Y103700D01*
X46770Y103660D01*
Y103620D01*
Y103590D01*
X46780Y103550D01*
X46790Y103530D01*
X46800Y103510D01*
X46820Y103500D01*
X46840Y103510D01*
X46860Y103530D01*
X46870Y103550D01*
X46880Y103590D01*
Y103620D01*
Y103660D01*
X46870Y103700D01*
X46860Y103720D01*
X46840Y103740D01*
X46820Y103750D01*
G01X47030Y103530D02*
X47050Y103510D01*
X47070Y103500D01*
X47090Y103510D01*
X47110Y103530D01*
X47120Y103570D01*
X47130Y103610D01*
Y103650D01*
X47120Y103690D01*
X47110Y103720D01*
X47090Y103740D01*
X47070Y103750D01*
X47050Y103740D01*
X47040Y103720D01*
X47030Y103700D01*
X47020Y103670D01*
X47030Y103640D01*
X47040Y103610D01*
X47060Y103590D01*
X47070D01*
X47090Y103600D01*
X47110Y103620D01*
X47130Y103650D01*
G01X47630Y103500D02*
X47520D01*
Y103750D01*
X47630D01*
G01X47590Y103630D02*
X47520D01*
G01X47790Y103500D02*
Y103670D01*
G01Y103630D02*
X47800Y103650D01*
X47810Y103660D01*
X47830Y103670D01*
X47840Y103660D01*
X47860Y103650D01*
G01X48070Y103670D02*
Y103500D01*
G01Y103730D02*
Y103740D01*
Y103750D01*
D01*
X48080D01*
Y103740D01*
X48070Y103730D01*
G01X48280Y103500D02*
Y103750D01*
G01X48360Y103670D02*
X48280Y103570D01*
G01X48310Y103610D02*
X48370Y103500D01*
G01X48840Y103620D02*
X48890D01*
Y103550D01*
X48880Y103520D01*
X48860Y103510D01*
X48830Y103500D01*
X48810Y103510D01*
X48790Y103520D01*
X48770Y103550D01*
X48760Y103580D01*
Y103610D01*
Y103640D01*
Y103670D01*
X48770Y103700D01*
X48790Y103720D01*
X48800Y103740D01*
X48820Y103750D01*
X48840D01*
X48860Y103740D01*
X48880Y103720D01*
G01X49070Y103670D02*
Y103500D01*
G01Y103730D02*
Y103740D01*
Y103750D01*
D01*
X49080D01*
Y103740D01*
X49070Y103730D01*
G01X49320Y103500D02*
Y103750D01*
G01X49570Y103500D02*
Y103750D01*
G01X49820Y103670D02*
Y103500D01*
G01Y103730D02*
Y103740D01*
Y103750D01*
D01*
X49830D01*
Y103740D01*
X49820Y103730D01*
G01X50030Y103500D02*
Y103670D01*
G01Y103620D02*
X50040Y103650D01*
X50060Y103660D01*
X50080Y103670D01*
X50090Y103660D01*
X50110Y103650D01*
X50120Y103620D01*
Y103500D01*
G01X50290Y103440D02*
X50310Y103420D01*
X50330D01*
X50340D01*
X50360Y103440D01*
X50370Y103470D01*
Y103670D01*
G01Y103630D02*
X50360Y103650D01*
X50340Y103660D01*
X50330Y103670D01*
X50310Y103660D01*
X50290Y103640D01*
X50280Y103610D01*
Y103580D01*
Y103560D01*
X50290Y103530D01*
X50310Y103510D01*
X50330Y103500D01*
X50340D01*
X50360Y103520D01*
X50370Y103540D01*
G01X45270Y102280D02*
X45290Y102260D01*
X45310Y102250D01*
X45340D01*
X45360Y102260D01*
X45370Y102280D01*
X45380Y102310D01*
X45370Y102340D01*
X45360Y102370D01*
X45340Y102380D01*
X45310Y102390D01*
X45290Y102410D01*
X45280Y102440D01*
X45290Y102470D01*
X45300Y102490D01*
X45320Y102500D01*
X45340D01*
X45350Y102490D01*
X45370Y102470D01*
G01X45570Y102250D02*
X45550D01*
X45540Y102270D01*
X45520Y102300D01*
X45510Y102320D01*
Y102360D01*
Y102390D01*
Y102430D01*
X45520Y102450D01*
X45540Y102480D01*
X45550Y102500D01*
X45570D01*
X45590D01*
X45610Y102480D01*
X45630Y102450D01*
X45640Y102430D01*
Y102390D01*
Y102360D01*
Y102320D01*
X45630Y102300D01*
X45610Y102270D01*
X45590Y102250D01*
X45570D01*
G01X45760D02*
Y102500D01*
X45820Y102290D01*
X45890Y102500D01*
Y102250D01*
G01X46010D02*
X46070Y102500D01*
X46140Y102250D01*
G01X46110Y102340D02*
X46030D01*
G01X46520Y102250D02*
Y102500D01*
X46570D01*
X46590Y102490D01*
X46610Y102470D01*
X46620Y102450D01*
X46630Y102420D01*
Y102370D01*
Y102330D01*
X46620Y102300D01*
X46610Y102280D01*
X46590Y102260D01*
X46570Y102250D01*
X46520D01*
G01X46820Y102420D02*
Y102250D01*
G01Y102480D02*
Y102490D01*
Y102500D01*
D01*
X46830D01*
Y102490D01*
X46820Y102480D01*
G01X47040Y102190D02*
X47060Y102170D01*
X47080D01*
X47090D01*
X47110Y102190D01*
X47120Y102220D01*
Y102420D01*
G01Y102380D02*
X47110Y102400D01*
X47090Y102410D01*
X47080Y102420D01*
X47060Y102410D01*
X47040Y102390D01*
X47030Y102360D01*
Y102330D01*
Y102310D01*
X47040Y102280D01*
X47060Y102260D01*
X47080Y102250D01*
X47090D01*
X47110Y102270D01*
X47120Y102290D01*
G01X47320Y102420D02*
Y102250D01*
G01Y102480D02*
Y102490D01*
Y102500D01*
D01*
X47330D01*
Y102490D01*
X47320Y102480D01*
G01X47570Y102500D02*
Y102250D01*
G01X47540Y102420D02*
X47610D01*
G01X47870Y102250D02*
Y102420D01*
G01Y102390D02*
X47860Y102400D01*
X47840Y102410D01*
X47830Y102420D01*
X47810Y102410D01*
X47790Y102390D01*
X47780Y102370D01*
Y102330D01*
Y102300D01*
X47790Y102270D01*
X47810Y102260D01*
X47830Y102250D01*
X47840D01*
X47860Y102270D01*
X47870Y102280D01*
G01X48070Y102250D02*
Y102500D01*
G01X48520Y102250D02*
Y102500D01*
X48590D01*
X48610Y102490D01*
X48620Y102460D01*
X48630Y102430D01*
X48620Y102390D01*
X48610Y102370D01*
X48590Y102350D01*
X48520D01*
G01X48820Y102250D02*
X48810D01*
X48790Y102270D01*
X48780Y102300D01*
Y102330D01*
Y102370D01*
X48790Y102400D01*
X48810Y102410D01*
X48820Y102420D01*
X48840Y102410D01*
X48860Y102400D01*
Y102370D01*
X48870Y102330D01*
X48860Y102300D01*
Y102270D01*
X48840Y102250D01*
X48820D01*
G01X49070Y102500D02*
Y102250D01*
G01X49040Y102420D02*
X49110D01*
G01X49590Y102380D02*
X49610Y102400D01*
Y102420D01*
X49620Y102450D01*
X49610Y102470D01*
X49600Y102490D01*
X49590Y102500D01*
X49520D01*
Y102250D01*
X49600D01*
X49620Y102270D01*
X49630Y102290D01*
Y102320D01*
Y102350D01*
X49610Y102370D01*
X49590Y102380D01*
X49520D01*
G01X49820Y102250D02*
X49810D01*
X49790Y102270D01*
X49780Y102300D01*
Y102330D01*
Y102370D01*
X49790Y102400D01*
X49810Y102410D01*
X49820Y102420D01*
X49840Y102410D01*
X49860Y102400D01*
Y102370D01*
X49870Y102330D01*
X49860Y102300D01*
Y102270D01*
X49840Y102250D01*
X49820D01*
G01X50120D02*
Y102420D01*
G01Y102390D02*
X50110Y102400D01*
X50090Y102410D01*
X50080Y102420D01*
X50060Y102410D01*
X50040Y102390D01*
X50030Y102370D01*
Y102330D01*
Y102300D01*
X50040Y102270D01*
X50060Y102260D01*
X50080Y102250D01*
X50090D01*
X50110Y102270D01*
X50120Y102280D01*
G01X50290Y102250D02*
Y102420D01*
G01Y102380D02*
X50300Y102400D01*
X50310Y102410D01*
X50330Y102420D01*
X50340Y102410D01*
X50360Y102400D01*
G01X50620Y102500D02*
Y102250D01*
G01Y102290D02*
X50610Y102270D01*
X50590Y102250D01*
X50580D01*
X50560Y102260D01*
X50540Y102280D01*
X50530Y102300D01*
Y102330D01*
Y102360D01*
X50540Y102390D01*
X50560Y102410D01*
X50580Y102420D01*
X50590Y102410D01*
X50610Y102400D01*
X50620Y102390D01*
G01X51040Y102250D02*
Y102420D01*
G01Y102380D02*
X51050Y102400D01*
X51060Y102410D01*
X51080Y102420D01*
X51090Y102410D01*
X51110Y102400D01*
G01X51290Y102360D02*
X51370D01*
X51360Y102390D01*
X51350Y102410D01*
X51330Y102420D01*
X51310Y102410D01*
X51300Y102400D01*
X51290Y102370D01*
X51280Y102350D01*
Y102320D01*
X51290Y102300D01*
X51300Y102270D01*
X51310Y102250D01*
X51330D01*
X51350Y102260D01*
X51370Y102280D01*
G01X51530Y102420D02*
X51570Y102250D01*
X51620Y102420D01*
G01X51820Y102500D02*
X51800Y102490D01*
X51790Y102470D01*
X51780Y102450D01*
X51770Y102410D01*
Y102370D01*
Y102340D01*
X51780Y102300D01*
X51790Y102280D01*
X51800Y102260D01*
X51820Y102250D01*
X51840Y102260D01*
X51860Y102280D01*
X51870Y102300D01*
X51880Y102340D01*
Y102370D01*
Y102410D01*
X51870Y102450D01*
X51860Y102470D01*
X51840Y102490D01*
X51820Y102500D01*
G01X45270Y102280D02*
X45290Y102260D01*
X45310Y102250D01*
X45340D01*
X45360Y102260D01*
X45370Y102280D01*
X45380Y102310D01*
X45370Y102340D01*
X45360Y102370D01*
X45340Y102380D01*
X45310Y102390D01*
X45290Y102410D01*
X45280Y102440D01*
X45290Y102470D01*
X45300Y102490D01*
X45320Y102500D01*
X45340D01*
X45350Y102490D01*
X45370Y102470D01*
G01X45570Y102250D02*
X45550D01*
X45540Y102270D01*
X45520Y102300D01*
X45510Y102320D01*
Y102360D01*
Y102390D01*
Y102430D01*
X45520Y102450D01*
X45540Y102480D01*
X45550Y102500D01*
X45570D01*
X45590D01*
X45610Y102480D01*
X45630Y102450D01*
X45640Y102430D01*
Y102390D01*
Y102360D01*
Y102320D01*
X45630Y102300D01*
X45610Y102270D01*
X45590Y102250D01*
X45570D01*
G01X45760D02*
Y102500D01*
X45820Y102290D01*
X45890Y102500D01*
Y102250D01*
G01X46010D02*
X46070Y102500D01*
X46140Y102250D01*
G01X46110Y102340D02*
X46030D01*
G01X46520Y102250D02*
Y102500D01*
X46570D01*
X46590Y102490D01*
X46610Y102470D01*
X46620Y102450D01*
X46630Y102420D01*
Y102370D01*
Y102330D01*
X46620Y102300D01*
X46610Y102280D01*
X46590Y102260D01*
X46570Y102250D01*
X46520D01*
G01X46820Y102420D02*
Y102250D01*
G01Y102480D02*
Y102490D01*
Y102500D01*
D01*
X46830D01*
Y102490D01*
X46820Y102480D01*
G01X47040Y102190D02*
X47060Y102170D01*
X47080D01*
X47090D01*
X47110Y102190D01*
X47120Y102220D01*
Y102420D01*
G01Y102380D02*
X47110Y102400D01*
X47090Y102410D01*
X47080Y102420D01*
X47060Y102410D01*
X47040Y102390D01*
X47030Y102360D01*
Y102330D01*
Y102310D01*
X47040Y102280D01*
X47060Y102260D01*
X47080Y102250D01*
X47090D01*
X47110Y102270D01*
X47120Y102290D01*
G01X47320Y102420D02*
Y102250D01*
G01Y102480D02*
Y102490D01*
Y102500D01*
D01*
X47330D01*
Y102490D01*
X47320Y102480D01*
G01X47570Y102500D02*
Y102250D01*
G01X47540Y102420D02*
X47610D01*
G01X47870Y102250D02*
Y102420D01*
G01Y102390D02*
X47860Y102400D01*
X47840Y102410D01*
X47830Y102420D01*
X47810Y102410D01*
X47790Y102390D01*
X47780Y102370D01*
Y102330D01*
Y102300D01*
X47790Y102270D01*
X47810Y102260D01*
X47830Y102250D01*
X47840D01*
X47860Y102270D01*
X47870Y102280D01*
G01X48070Y102250D02*
Y102500D01*
G01X48520Y102250D02*
Y102500D01*
X48590D01*
X48610Y102490D01*
X48620Y102460D01*
X48630Y102430D01*
X48620Y102390D01*
X48610Y102370D01*
X48590Y102350D01*
X48520D01*
G01X48820Y102250D02*
X48810D01*
X48790Y102270D01*
X48780Y102300D01*
Y102330D01*
Y102370D01*
X48790Y102400D01*
X48810Y102410D01*
X48820Y102420D01*
X48840Y102410D01*
X48860Y102400D01*
Y102370D01*
X48870Y102330D01*
X48860Y102300D01*
Y102270D01*
X48840Y102250D01*
X48820D01*
G01X49070Y102500D02*
Y102250D01*
G01X49040Y102420D02*
X49110D01*
G01X49590Y102380D02*
X49610Y102400D01*
Y102420D01*
X49620Y102450D01*
X49610Y102470D01*
X49600Y102490D01*
X49590Y102500D01*
X49520D01*
Y102250D01*
X49600D01*
X49620Y102270D01*
X49630Y102290D01*
Y102320D01*
Y102350D01*
X49610Y102370D01*
X49590Y102380D01*
X49520D01*
G01X49820Y102250D02*
X49810D01*
X49790Y102270D01*
X49780Y102300D01*
Y102330D01*
Y102370D01*
X49790Y102400D01*
X49810Y102410D01*
X49820Y102420D01*
X49840Y102410D01*
X49860Y102400D01*
Y102370D01*
X49870Y102330D01*
X49860Y102300D01*
Y102270D01*
X49840Y102250D01*
X49820D01*
G01X50120D02*
Y102420D01*
G01Y102390D02*
X50110Y102400D01*
X50090Y102410D01*
X50080Y102420D01*
X50060Y102410D01*
X50040Y102390D01*
X50030Y102370D01*
Y102330D01*
Y102300D01*
X50040Y102270D01*
X50060Y102260D01*
X50080Y102250D01*
X50090D01*
X50110Y102270D01*
X50120Y102280D01*
G01X50290Y102250D02*
Y102420D01*
G01Y102380D02*
X50300Y102400D01*
X50310Y102410D01*
X50330Y102420D01*
X50340Y102410D01*
X50360Y102400D01*
G01X50620Y102500D02*
Y102250D01*
G01Y102290D02*
X50610Y102270D01*
X50590Y102250D01*
X50580D01*
X50560Y102260D01*
X50540Y102280D01*
X50530Y102300D01*
Y102330D01*
Y102360D01*
X50540Y102390D01*
X50560Y102410D01*
X50580Y102420D01*
X50590Y102410D01*
X50610Y102400D01*
X50620Y102390D01*
G01X51040Y102250D02*
Y102420D01*
G01Y102380D02*
X51050Y102400D01*
X51060Y102410D01*
X51080Y102420D01*
X51090Y102410D01*
X51110Y102400D01*
G01X51290Y102360D02*
X51370D01*
X51360Y102390D01*
X51350Y102410D01*
X51330Y102420D01*
X51310Y102410D01*
X51300Y102400D01*
X51290Y102370D01*
X51280Y102350D01*
Y102320D01*
X51290Y102300D01*
X51300Y102270D01*
X51310Y102250D01*
X51330D01*
X51350Y102260D01*
X51370Y102280D01*
G01X51530Y102420D02*
X51570Y102250D01*
X51620Y102420D01*
G01X51820Y102500D02*
X51800Y102490D01*
X51790Y102470D01*
X51780Y102450D01*
X51770Y102410D01*
Y102370D01*
Y102340D01*
X51780Y102300D01*
X51790Y102280D01*
X51800Y102260D01*
X51820Y102250D01*
X51840Y102260D01*
X51860Y102280D01*
X51870Y102300D01*
X51880Y102340D01*
Y102370D01*
Y102410D01*
X51870Y102450D01*
X51860Y102470D01*
X51840Y102490D01*
X51820Y102500D01*
G01X45310Y103420D02*
X45290Y103460D01*
X45270Y103500D01*
Y103670D01*
X45290Y103710D01*
X45310Y103750D01*
G01X45630Y103730D02*
X45610Y103740D01*
X45600Y103750D01*
X45580D01*
X45550Y103740D01*
X45540Y103720D01*
X45520Y103690D01*
X45510Y103650D01*
Y103610D01*
X45520Y103570D01*
Y103550D01*
X45540Y103520D01*
X45560Y103510D01*
X45570Y103500D01*
X45590D01*
X45610Y103510D01*
X45630Y103520D01*
X45640Y103540D01*
G01X45840Y103420D02*
X45860Y103460D01*
X45880Y103500D01*
Y103670D01*
X45860Y103710D01*
X45840Y103750D01*
G01X46280Y103710D02*
X46290Y103730D01*
X46310Y103750D01*
X46330D01*
X46360Y103740D01*
X46370Y103720D01*
X46380Y103700D01*
Y103670D01*
X46360Y103650D01*
X46310Y103610D01*
X46290Y103580D01*
X46280Y103540D01*
X46270Y103500D01*
X46380D01*
G01X46570Y103750D02*
X46550Y103740D01*
X46540Y103720D01*
X46530Y103700D01*
X46520Y103660D01*
Y103620D01*
Y103590D01*
X46530Y103550D01*
X46540Y103530D01*
X46550Y103510D01*
X46570Y103500D01*
X46590Y103510D01*
X46610Y103530D01*
X46620Y103550D01*
X46630Y103590D01*
Y103620D01*
Y103660D01*
X46620Y103700D01*
X46610Y103720D01*
X46590Y103740D01*
X46570Y103750D01*
G01X46820D02*
X46800Y103740D01*
X46790Y103720D01*
X46780Y103700D01*
X46770Y103660D01*
Y103620D01*
Y103590D01*
X46780Y103550D01*
X46790Y103530D01*
X46800Y103510D01*
X46820Y103500D01*
X46840Y103510D01*
X46860Y103530D01*
X46870Y103550D01*
X46880Y103590D01*
Y103620D01*
Y103660D01*
X46870Y103700D01*
X46860Y103720D01*
X46840Y103740D01*
X46820Y103750D01*
G01X47030Y103530D02*
X47050Y103510D01*
X47070Y103500D01*
X47090Y103510D01*
X47110Y103530D01*
X47120Y103570D01*
X47130Y103610D01*
Y103650D01*
X47120Y103690D01*
X47110Y103720D01*
X47090Y103740D01*
X47070Y103750D01*
X47050Y103740D01*
X47040Y103720D01*
X47030Y103700D01*
X47020Y103670D01*
X47030Y103640D01*
X47040Y103610D01*
X47060Y103590D01*
X47070D01*
X47090Y103600D01*
X47110Y103620D01*
X47130Y103650D01*
G01X47630Y103500D02*
X47520D01*
Y103750D01*
X47630D01*
G01X47590Y103630D02*
X47520D01*
G01X47790Y103500D02*
Y103670D01*
G01Y103630D02*
X47800Y103650D01*
X47810Y103660D01*
X47830Y103670D01*
X47840Y103660D01*
X47860Y103650D01*
G01X48070Y103670D02*
Y103500D01*
G01Y103730D02*
Y103740D01*
Y103750D01*
D01*
X48080D01*
Y103740D01*
X48070Y103730D01*
G01X48280Y103500D02*
Y103750D01*
G01X48360Y103670D02*
X48280Y103570D01*
G01X48310Y103610D02*
X48370Y103500D01*
G01X48840Y103620D02*
X48890D01*
Y103550D01*
X48880Y103520D01*
X48860Y103510D01*
X48830Y103500D01*
X48810Y103510D01*
X48790Y103520D01*
X48770Y103550D01*
X48760Y103580D01*
Y103610D01*
Y103640D01*
Y103670D01*
X48770Y103700D01*
X48790Y103720D01*
X48800Y103740D01*
X48820Y103750D01*
X48840D01*
X48860Y103740D01*
X48880Y103720D01*
G01X49070Y103670D02*
Y103500D01*
G01Y103730D02*
Y103740D01*
Y103750D01*
D01*
X49080D01*
Y103740D01*
X49070Y103730D01*
G01X49320Y103500D02*
Y103750D01*
G01X49570Y103500D02*
Y103750D01*
G01X49820Y103670D02*
Y103500D01*
G01Y103730D02*
Y103740D01*
Y103750D01*
D01*
X49830D01*
Y103740D01*
X49820Y103730D01*
G01X50030Y103500D02*
Y103670D01*
G01Y103620D02*
X50040Y103650D01*
X50060Y103660D01*
X50080Y103670D01*
X50090Y103660D01*
X50110Y103650D01*
X50120Y103620D01*
Y103500D01*
G01X50290Y103440D02*
X50310Y103420D01*
X50330D01*
X50340D01*
X50360Y103440D01*
X50370Y103470D01*
Y103670D01*
G01Y103630D02*
X50360Y103650D01*
X50340Y103660D01*
X50330Y103670D01*
X50310Y103660D01*
X50290Y103640D01*
X50280Y103610D01*
Y103580D01*
Y103560D01*
X50290Y103530D01*
X50310Y103510D01*
X50330Y103500D01*
X50340D01*
X50360Y103520D01*
X50370Y103540D01*
G01X46570Y109000D02*
Y108820D01*
X46580Y108780D01*
X46600Y108760D01*
X46620Y108750D01*
X46650Y108760D01*
X46670Y108780D01*
X46680Y108820D01*
Y109000D01*
G01X46830Y108780D02*
X46850Y108760D01*
X46870Y108750D01*
X46890Y108760D01*
X46910Y108780D01*
X46920Y108820D01*
X46930Y108860D01*
Y108900D01*
X46920Y108940D01*
X46910Y108970D01*
X46890Y108990D01*
X46870Y109000D01*
X46850Y108990D01*
X46840Y108970D01*
X46830Y108950D01*
X46820Y108920D01*
X46830Y108890D01*
X46840Y108860D01*
X46860Y108840D01*
X46870D01*
X46890Y108850D01*
X46910Y108870D01*
X46930Y108900D01*
G01X45600Y117780D02*
X45850D01*
Y117710D01*
X45840Y117690D01*
X45820Y117680D01*
X45790Y117670D01*
X45750Y117680D01*
X45730Y117690D01*
X45720Y117710D01*
Y117780D01*
G01Y117710D02*
X45600Y117670D01*
G01X45640Y117530D02*
X45620Y117520D01*
X45600Y117500D01*
Y117480D01*
X45610Y117450D01*
X45620Y117440D01*
X45650Y117420D01*
X45690D01*
X45720D01*
X45740Y117440D01*
X45760Y117460D01*
Y117470D01*
Y117490D01*
X45740Y117510D01*
X45850D01*
Y117440D01*
G01X48550Y106650D02*
X48150D01*
Y105850D01*
X48550D01*
G01X49100Y105900D02*
Y106600D01*
G01X49450Y105900D02*
Y106600D01*
X49100Y106250D01*
X49450Y105900D01*
G01X48580Y105920D02*
Y105890D01*
G01X49920Y106580D02*
Y106610D01*
X48580D01*
Y106580D01*
G01Y105890D02*
X49920D01*
Y105920D01*
G01X48940Y105500D02*
Y105750D01*
X48990D01*
X49010Y105740D01*
X49030Y105720D01*
X49040Y105700D01*
X49050Y105670D01*
Y105620D01*
Y105580D01*
X49040Y105550D01*
X49030Y105530D01*
X49010Y105510D01*
X48990Y105500D01*
X48940D01*
G01X49240D02*
Y105750D01*
X49210Y105700D01*
G01Y105500D02*
X49270D01*
G01X49490Y105750D02*
X49470Y105740D01*
X49460Y105720D01*
X49450Y105700D01*
X49440Y105660D01*
Y105620D01*
Y105590D01*
X49450Y105550D01*
X49460Y105530D01*
X49470Y105510D01*
X49490Y105500D01*
X49510Y105510D01*
X49530Y105530D01*
X49540Y105550D01*
X49550Y105590D01*
Y105620D01*
Y105660D01*
X49540Y105700D01*
X49530Y105720D01*
X49510Y105740D01*
X49490Y105750D01*
G01X49250Y108230D02*
X49070D01*
X49030Y108220D01*
X49010Y108200D01*
X49000Y108180D01*
X49010Y108150D01*
X49030Y108130D01*
X49070Y108120D01*
X49250D01*
G01X49000Y107930D02*
X49250D01*
X49200Y107960D01*
G01X49000D02*
Y107900D01*
G01X50830Y110170D02*
Y110150D01*
G01X52170Y110830D02*
Y110850D01*
X50830D01*
Y110830D01*
G01Y110150D02*
X52170D01*
Y110170D01*
G01X48820Y113750D02*
Y113570D01*
X48830Y113530D01*
X48850Y113510D01*
X48870Y113500D01*
X48900Y113510D01*
X48920Y113530D01*
X48930Y113570D01*
Y113750D01*
G01X49120Y113500D02*
Y113550D01*
X49130Y113600D01*
X49140Y113640D01*
X49160Y113690D01*
X49180Y113750D01*
X49070D01*
G01X50750Y114570D02*
X50500D01*
Y114640D01*
X50510Y114660D01*
X50530Y114670D01*
X50560Y114680D01*
X50600Y114670D01*
X50620Y114660D01*
X50630Y114640D01*
Y114570D01*
G01Y114640D02*
X50750Y114680D01*
G01Y114910D02*
X50500D01*
X50680Y114810D01*
Y114940D01*
G01X50750Y117570D02*
X50500D01*
Y117640D01*
X50510Y117660D01*
X50530Y117670D01*
X50560Y117680D01*
X50600Y117670D01*
X50620Y117660D01*
X50630Y117640D01*
Y117570D01*
G01Y117640D02*
X50750Y117680D01*
G01X50650Y117830D02*
X50620Y117840D01*
X50600Y117860D01*
X50590Y117880D01*
X50600Y117900D01*
X50620Y117910D01*
X50640Y117920D01*
X50670D01*
X50700D01*
X50720Y117910D01*
X50740Y117890D01*
X50750Y117880D01*
X50740Y117860D01*
X50720Y117840D01*
X50680Y117830D01*
X50640D01*
X50580D01*
X50550Y117840D01*
X50530Y117850D01*
X50500Y117870D01*
Y117890D01*
X50510Y117910D01*
X50530Y117920D01*
G01X48820Y117500D02*
Y117320D01*
X48830Y117280D01*
X48850Y117260D01*
X48870Y117250D01*
X48900Y117260D01*
X48920Y117280D01*
X48930Y117320D01*
Y117500D01*
G01X49120Y117250D02*
X49140D01*
X49160Y117270D01*
X49180Y117290D01*
Y117320D01*
Y117350D01*
X49160Y117370D01*
X49140Y117380D01*
X49110D01*
X49100Y117390D01*
X49080Y117410D01*
Y117440D01*
X49090Y117470D01*
X49100Y117490D01*
X49120Y117500D01*
X49140Y117490D01*
X49160Y117470D01*
X49170Y117440D01*
X49160Y117410D01*
X49150Y117390D01*
X49140Y117380D01*
X49110D01*
X49090Y117370D01*
X49070Y117350D01*
Y117320D01*
Y117290D01*
X49090Y117270D01*
X49110Y117250D01*
X49120D01*
G01X51000Y121720D02*
X50750D01*
Y121790D01*
X50760Y121810D01*
X50780Y121820D01*
X50810Y121830D01*
X50850Y121820D01*
X50870Y121810D01*
X50880Y121790D01*
Y121720D01*
G01Y121790D02*
X51000Y121830D01*
G01Y122020D02*
X50750D01*
X50800Y121990D01*
G01X51000D02*
Y122050D01*
G01X48820Y121250D02*
Y121070D01*
X48830Y121030D01*
X48850Y121010D01*
X48870Y121000D01*
X48900Y121010D01*
X48920Y121030D01*
X48930Y121070D01*
Y121250D01*
G01X49160Y121000D02*
Y121250D01*
X49060Y121070D01*
X49190D01*
G01X50750Y125820D02*
X50500D01*
Y125890D01*
X50510Y125910D01*
X50530Y125920D01*
X50560Y125930D01*
X50600Y125920D01*
X50620Y125910D01*
X50630Y125890D01*
Y125820D01*
G01Y125890D02*
X50750Y125930D01*
G01X50540Y126080D02*
X50520Y126090D01*
X50500Y126110D01*
Y126130D01*
X50510Y126160D01*
X50530Y126170D01*
X50550Y126180D01*
X50580D01*
X50600Y126160D01*
X50640Y126110D01*
X50670Y126090D01*
X50710Y126080D01*
X50750Y126070D01*
Y126180D01*
G01X48820Y125000D02*
Y124820D01*
X48830Y124780D01*
X48850Y124760D01*
X48870Y124750D01*
X48900Y124760D01*
X48920Y124780D01*
X48930Y124820D01*
Y125000D01*
G01X49070Y124790D02*
X49080Y124770D01*
X49100Y124750D01*
X49120D01*
X49150Y124760D01*
X49160Y124770D01*
X49180Y124800D01*
Y124840D01*
Y124870D01*
X49160Y124890D01*
X49140Y124910D01*
X49130D01*
X49110D01*
X49090Y124890D01*
Y125000D01*
X49160D01*
G01X48820Y128750D02*
Y128570D01*
X48830Y128530D01*
X48850Y128510D01*
X48870Y128500D01*
X48900Y128510D01*
X48920Y128530D01*
X48930Y128570D01*
Y128750D01*
G01X49080Y128600D02*
X49090Y128630D01*
X49110Y128650D01*
X49130Y128660D01*
X49150Y128650D01*
X49160Y128630D01*
X49170Y128610D01*
Y128580D01*
Y128550D01*
X49160Y128530D01*
X49140Y128510D01*
X49130Y128500D01*
X49110Y128510D01*
X49090Y128530D01*
X49080Y128570D01*
Y128610D01*
Y128670D01*
X49090Y128700D01*
X49100Y128720D01*
X49120Y128750D01*
X49140D01*
X49160Y128740D01*
X49170Y128720D01*
G01X50750Y129570D02*
X50500D01*
Y129640D01*
X50510Y129660D01*
X50530Y129670D01*
X50560Y129680D01*
X50600Y129670D01*
X50620Y129660D01*
X50630Y129640D01*
Y129570D01*
G01Y129640D02*
X50750Y129680D01*
G01X50700Y129820D02*
X50730Y129830D01*
X50750Y129850D01*
Y129880D01*
Y129900D01*
X50730Y129920D01*
X50700Y129930D01*
X50680D01*
X50650D01*
X50630Y129910D01*
X50620Y129890D01*
Y129870D01*
G01Y129890D02*
X50600Y129910D01*
X50580Y129920D01*
X50560Y129930D01*
X50530Y129920D01*
X50510Y129910D01*
X50500Y129890D01*
Y129860D01*
X50520Y129840D01*
G01X52510Y107550D02*
X52550D01*
G01X51950D02*
X51990D01*
G01X51950Y108450D02*
Y107550D01*
G01X52550Y108450D02*
Y107550D01*
G01X52980Y108070D02*
X52990Y108090D01*
X53000Y108100D01*
Y108120D01*
X52990Y108150D01*
X52970Y108160D01*
X52940Y108180D01*
X52900Y108190D01*
X52860D01*
X52820Y108180D01*
X52800D01*
X52770Y108160D01*
X52760Y108140D01*
X52750Y108130D01*
Y108110D01*
X52760Y108090D01*
X52770Y108070D01*
X52790Y108060D01*
G01X52850Y107920D02*
X52880Y107910D01*
X52900Y107890D01*
X52910Y107870D01*
X52900Y107850D01*
X52880Y107840D01*
X52860Y107830D01*
X52830D01*
X52800D01*
X52780Y107840D01*
X52760Y107860D01*
X52750Y107870D01*
X52760Y107890D01*
X52780Y107910D01*
X52820Y107920D01*
X52860D01*
X52920D01*
X52950Y107910D01*
X52970Y107900D01*
X53000Y107880D01*
Y107860D01*
X52990Y107840D01*
X52970Y107830D01*
G01X51070Y105500D02*
Y105750D01*
X51140D01*
X51160Y105740D01*
X51170Y105720D01*
X51180Y105690D01*
X51170Y105650D01*
X51160Y105630D01*
X51140Y105620D01*
X51070D01*
G01X51140D02*
X51180Y105500D01*
G01X51370D02*
Y105550D01*
X51380Y105600D01*
X51390Y105640D01*
X51410Y105690D01*
X51430Y105750D01*
X51320D01*
G01X51180Y111230D02*
X51160Y111240D01*
X51150Y111250D01*
X51130D01*
X51100Y111240D01*
X51090Y111220D01*
X51070Y111190D01*
X51060Y111150D01*
Y111110D01*
X51070Y111070D01*
Y111050D01*
X51090Y111020D01*
X51110Y111010D01*
X51120Y111000D01*
X51140D01*
X51160Y111010D01*
X51180Y111020D01*
X51190Y111040D01*
G01X51410Y111000D02*
Y111250D01*
X51310Y111070D01*
X51440D01*
G01X52510Y108450D02*
X52550D01*
G01X51950D02*
X51990D01*
G01X52770Y113750D02*
Y113570D01*
X52780Y113530D01*
X52800Y113510D01*
X52820Y113500D01*
X52850Y113510D01*
X52870Y113530D01*
X52880Y113570D01*
Y113750D01*
G01X53020Y113550D02*
X53030Y113520D01*
X53050Y113500D01*
X53080D01*
X53100D01*
X53120Y113520D01*
X53130Y113550D01*
Y113570D01*
Y113600D01*
X53110Y113620D01*
X53090Y113630D01*
X53070D01*
G01X53090D02*
X53110Y113650D01*
X53120Y113670D01*
X53130Y113690D01*
X53120Y113720D01*
X53110Y113740D01*
X53090Y113750D01*
X53060D01*
X53040Y113730D01*
G01X51740Y119700D02*
X51700D01*
G01X52300D02*
X52260D01*
G01X51740Y118800D02*
X51700D01*
G01X52300D02*
X52260D01*
G01X52300D02*
Y119700D01*
G01X51700Y118800D02*
Y119700D01*
G01X51270Y119050D02*
X51260Y119030D01*
X51250Y119020D01*
Y119000D01*
X51260Y118970D01*
X51280Y118960D01*
X51310Y118940D01*
X51350Y118930D01*
X51390D01*
X51430Y118940D01*
X51450D01*
X51480Y118960D01*
X51490Y118980D01*
X51500Y118990D01*
Y119010D01*
X51490Y119030D01*
X51480Y119050D01*
X51460Y119060D01*
G01X51500Y119240D02*
X51250D01*
X51300Y119210D01*
G01X51500D02*
Y119270D01*
G01X51250Y119490D02*
X51260Y119470D01*
X51280Y119460D01*
X51300Y119450D01*
X51340Y119440D01*
X51380D01*
X51410D01*
X51450Y119450D01*
X51470Y119460D01*
X51490Y119470D01*
X51500Y119490D01*
X51490Y119510D01*
X51470Y119530D01*
X51450Y119540D01*
X51410Y119550D01*
X51380D01*
X51340D01*
X51300Y119540D01*
X51280Y119530D01*
X51260Y119510D01*
X51250Y119490D01*
G01X53070Y125050D02*
X53090Y125020D01*
X53100Y125010D01*
X53120Y125000D01*
X53140Y125010D01*
X53160Y125020D01*
X53170Y125050D01*
X53180Y125080D01*
Y125250D01*
G01X53330Y125210D02*
X53340Y125230D01*
X53360Y125250D01*
X53380D01*
X53410Y125240D01*
X53420Y125220D01*
X53430Y125200D01*
Y125170D01*
X53410Y125150D01*
X53360Y125110D01*
X53340Y125080D01*
X53330Y125040D01*
X53320Y125000D01*
X53430D01*
G01X54770Y129760D02*
X52730D01*
Y128740D01*
X54770D01*
Y129760D01*
G01X52820Y128300D02*
X52840Y128270D01*
X52850Y128260D01*
X52870Y128250D01*
X52890Y128260D01*
X52910Y128270D01*
X52920Y128300D01*
X52930Y128330D01*
Y128500D01*
G01X53070Y128300D02*
X53080Y128270D01*
X53100Y128250D01*
X53130D01*
X53150D01*
X53170Y128270D01*
X53180Y128300D01*
Y128320D01*
Y128350D01*
X53160Y128370D01*
X53140Y128380D01*
X53120D01*
G01X53140D02*
X53160Y128400D01*
X53170Y128420D01*
X53180Y128440D01*
X53170Y128470D01*
X53160Y128490D01*
X53140Y128500D01*
X53110D01*
X53090Y128480D01*
G01X56090Y107870D02*
X56140D01*
Y107800D01*
X56130Y107770D01*
X56110Y107760D01*
X56080Y107750D01*
X56060Y107760D01*
X56040Y107770D01*
X56020Y107800D01*
X56010Y107830D01*
Y107860D01*
Y107890D01*
Y107920D01*
X56020Y107950D01*
X56040Y107970D01*
X56050Y107990D01*
X56070Y108000D01*
X56090D01*
X56110Y107990D01*
X56130Y107970D01*
G01X56270Y107750D02*
Y108000D01*
X56380Y107750D01*
Y108000D01*
G01X56520Y107750D02*
Y108000D01*
X56570D01*
X56590Y107990D01*
X56610Y107970D01*
X56620Y107950D01*
X56630Y107920D01*
Y107870D01*
Y107830D01*
X56620Y107800D01*
X56610Y107780D01*
X56590Y107760D01*
X56570Y107750D01*
X56520D01*
G01X56050Y106580D02*
X56110D01*
G01X56070Y106640D02*
Y106530D01*
G01X56320Y106500D02*
Y106750D01*
X56290Y106700D01*
G01Y106500D02*
X56350D01*
G01X56530Y106710D02*
X56540Y106730D01*
X56560Y106750D01*
X56580D01*
X56610Y106740D01*
X56620Y106720D01*
X56630Y106700D01*
Y106670D01*
X56610Y106650D01*
X56560Y106610D01*
X56540Y106580D01*
X56530Y106540D01*
X56520Y106500D01*
X56630D01*
G01X56760Y106750D02*
X56820Y106500D01*
X56890Y106750D01*
G01X56050Y106580D02*
X56110D01*
G01X56070Y106640D02*
Y106530D01*
G01X56320Y106500D02*
Y106750D01*
X56290Y106700D01*
G01Y106500D02*
X56350D01*
G01X56530Y106710D02*
X56540Y106730D01*
X56560Y106750D01*
X56580D01*
X56610Y106740D01*
X56620Y106720D01*
X56630Y106700D01*
Y106670D01*
X56610Y106650D01*
X56560Y106610D01*
X56540Y106580D01*
X56530Y106540D01*
X56520Y106500D01*
X56630D01*
G01X56760Y106750D02*
X56820Y106500D01*
X56890Y106750D01*
G01X56090Y107870D02*
X56140D01*
Y107800D01*
X56130Y107770D01*
X56110Y107760D01*
X56080Y107750D01*
X56060Y107760D01*
X56040Y107770D01*
X56020Y107800D01*
X56010Y107830D01*
Y107860D01*
Y107890D01*
Y107920D01*
X56020Y107950D01*
X56040Y107970D01*
X56050Y107990D01*
X56070Y108000D01*
X56090D01*
X56110Y107990D01*
X56130Y107970D01*
G01X56270Y107750D02*
Y108000D01*
X56380Y107750D01*
Y108000D01*
G01X56520Y107750D02*
Y108000D01*
X56570D01*
X56590Y107990D01*
X56610Y107970D01*
X56620Y107950D01*
X56630Y107920D01*
Y107870D01*
Y107830D01*
X56620Y107800D01*
X56610Y107780D01*
X56590Y107760D01*
X56570Y107750D01*
X56520D01*
G01X56020Y110750D02*
Y111000D01*
X56070D01*
X56090Y110990D01*
X56110Y110970D01*
X56120Y110950D01*
X56130Y110920D01*
Y110870D01*
Y110830D01*
X56120Y110800D01*
X56110Y110780D01*
X56090Y110760D01*
X56070Y110750D01*
X56020D01*
G01X56290Y110830D02*
X56360D01*
G01X56020Y109250D02*
Y109500D01*
X56070D01*
X56090Y109490D01*
X56110Y109470D01*
X56120Y109450D01*
X56130Y109420D01*
Y109370D01*
Y109330D01*
X56120Y109300D01*
X56110Y109280D01*
X56090Y109260D01*
X56070Y109250D01*
X56020D01*
G01X56300Y109330D02*
X56360D01*
G01X56320Y109390D02*
Y109280D01*
G01X56020Y109250D02*
Y109500D01*
X56070D01*
X56090Y109490D01*
X56110Y109470D01*
X56120Y109450D01*
X56130Y109420D01*
Y109370D01*
Y109330D01*
X56120Y109300D01*
X56110Y109280D01*
X56090Y109260D01*
X56070Y109250D01*
X56020D01*
G01X56300Y109330D02*
X56360D01*
G01X56320Y109390D02*
Y109280D01*
G01X56020Y110750D02*
Y111000D01*
X56070D01*
X56090Y110990D01*
X56110Y110970D01*
X56120Y110950D01*
X56130Y110920D01*
Y110870D01*
Y110830D01*
X56120Y110800D01*
X56110Y110780D01*
X56090Y110760D01*
X56070Y110750D01*
X56020D01*
G01X56290Y110830D02*
X56360D01*
G01X55440Y113250D02*
Y113500D01*
X55510D01*
X55530Y113490D01*
X55540Y113470D01*
X55550Y113440D01*
X55540Y113400D01*
X55530Y113380D01*
X55510Y113370D01*
X55440D01*
G01X55510D02*
X55550Y113250D01*
G01X55740D02*
Y113500D01*
X55710Y113450D01*
G01Y113250D02*
X55770D01*
G01X55990Y113500D02*
X55970Y113490D01*
X55960Y113470D01*
X55950Y113450D01*
X55940Y113410D01*
Y113370D01*
Y113340D01*
X55950Y113300D01*
X55960Y113280D01*
X55970Y113260D01*
X55990Y113250D01*
X56010Y113260D01*
X56030Y113280D01*
X56040Y113300D01*
X56050Y113340D01*
Y113370D01*
Y113410D01*
X56040Y113450D01*
X56030Y113470D01*
X56010Y113490D01*
X55990Y113500D01*
G01X56040Y112030D02*
X56050Y112010D01*
X56070Y112000D01*
X56080D01*
X56100Y112010D01*
X56110Y112020D01*
Y112040D01*
Y112060D01*
X56100Y112070D01*
X56050Y112100D01*
X56040Y112130D01*
X56050Y112150D01*
X56060Y112160D01*
X56070Y112170D01*
X56090Y112160D01*
X56110Y112150D01*
G01X56280Y112000D02*
Y112250D01*
G01Y112130D02*
X56290Y112150D01*
X56310Y112160D01*
X56330Y112170D01*
X56340Y112160D01*
X56360Y112150D01*
X56370Y112120D01*
Y112000D01*
G01X56570Y112170D02*
Y112000D01*
G01Y112230D02*
Y112240D01*
Y112250D01*
D01*
X56580D01*
Y112240D01*
X56570Y112230D01*
G01X56790Y112110D02*
X56870D01*
X56860Y112140D01*
X56850Y112160D01*
X56830Y112170D01*
X56810Y112160D01*
X56800Y112150D01*
X56790Y112120D01*
X56780Y112100D01*
Y112070D01*
X56790Y112050D01*
X56800Y112020D01*
X56810Y112000D01*
X56830D01*
X56850Y112010D01*
X56870Y112030D01*
G01X57070Y112000D02*
Y112250D01*
G01X57370D02*
Y112000D01*
G01Y112040D02*
X57360Y112020D01*
X57340Y112000D01*
X57330D01*
X57310Y112010D01*
X57290Y112030D01*
X57280Y112050D01*
Y112080D01*
Y112110D01*
X57290Y112140D01*
X57310Y112160D01*
X57330Y112170D01*
X57340Y112160D01*
X57360Y112150D01*
X57370Y112140D01*
G01X56040Y112030D02*
X56050Y112010D01*
X56070Y112000D01*
X56080D01*
X56100Y112010D01*
X56110Y112020D01*
Y112040D01*
Y112060D01*
X56100Y112070D01*
X56050Y112100D01*
X56040Y112130D01*
X56050Y112150D01*
X56060Y112160D01*
X56070Y112170D01*
X56090Y112160D01*
X56110Y112150D01*
G01X56280Y112000D02*
Y112250D01*
G01Y112130D02*
X56290Y112150D01*
X56310Y112160D01*
X56330Y112170D01*
X56340Y112160D01*
X56360Y112150D01*
X56370Y112120D01*
Y112000D01*
G01X56570Y112170D02*
Y112000D01*
G01Y112230D02*
Y112240D01*
Y112250D01*
D01*
X56580D01*
Y112240D01*
X56570Y112230D01*
G01X56790Y112110D02*
X56870D01*
X56860Y112140D01*
X56850Y112160D01*
X56830Y112170D01*
X56810Y112160D01*
X56800Y112150D01*
X56790Y112120D01*
X56780Y112100D01*
Y112070D01*
X56790Y112050D01*
X56800Y112020D01*
X56810Y112000D01*
X56830D01*
X56850Y112010D01*
X56870Y112030D01*
G01X57070Y112000D02*
Y112250D01*
G01X57370D02*
Y112000D01*
G01Y112040D02*
X57360Y112020D01*
X57340Y112000D01*
X57330D01*
X57310Y112010D01*
X57290Y112030D01*
X57280Y112050D01*
Y112080D01*
Y112110D01*
X57290Y112140D01*
X57310Y112160D01*
X57330Y112170D01*
X57340Y112160D01*
X57360Y112150D01*
X57370Y112140D01*
G01X56200Y115510D02*
Y115550D01*
G01Y114950D02*
Y114990D01*
G01X55300Y115510D02*
Y115550D01*
G01Y114950D02*
Y114990D01*
G01Y114950D02*
X56200D01*
G01X55300Y115550D02*
X56200D01*
G01X55680Y115980D02*
X55660Y115990D01*
X55650Y116000D01*
X55630D01*
X55600Y115990D01*
X55590Y115970D01*
X55570Y115940D01*
X55560Y115900D01*
Y115860D01*
X55570Y115820D01*
Y115800D01*
X55590Y115770D01*
X55610Y115760D01*
X55620Y115750D01*
X55640D01*
X55660Y115760D01*
X55680Y115770D01*
X55690Y115790D01*
G01X55870Y115750D02*
Y115800D01*
X55880Y115850D01*
X55890Y115890D01*
X55910Y115940D01*
X55930Y116000D01*
X55820D01*
G01X56520Y116500D02*
Y116320D01*
X56530Y116280D01*
X56550Y116260D01*
X56570Y116250D01*
X56600Y116260D01*
X56620Y116280D01*
X56630Y116320D01*
Y116500D01*
G01X56780Y116460D02*
X56790Y116480D01*
X56810Y116500D01*
X56830D01*
X56860Y116490D01*
X56870Y116470D01*
X56880Y116450D01*
Y116420D01*
X56860Y116400D01*
X56810Y116360D01*
X56790Y116330D01*
X56780Y116290D01*
X56770Y116250D01*
X56880D01*
G01X56500Y122820D02*
X56390D01*
X56250Y122770D01*
G01Y122880D02*
X56390Y122820D01*
G01X56500Y123070D02*
X56250D01*
X56300Y123040D01*
G01X56500D02*
Y123100D01*
G01X55740Y124950D02*
X55700D01*
G01X56300D02*
X56260D01*
G01X55740Y124050D02*
X55700D01*
G01X56300D02*
X56260D01*
G01X56300D02*
Y124950D01*
G01X55700Y124050D02*
Y124950D01*
G01X55270Y124430D02*
X55260Y124410D01*
X55250Y124400D01*
Y124380D01*
X55260Y124350D01*
X55280Y124340D01*
X55310Y124320D01*
X55350Y124310D01*
X55390D01*
X55430Y124320D01*
X55450D01*
X55480Y124340D01*
X55490Y124360D01*
X55500Y124370D01*
Y124390D01*
X55490Y124410D01*
X55480Y124430D01*
X55460Y124440D01*
G01X55290Y124580D02*
X55270Y124590D01*
X55250Y124610D01*
Y124630D01*
X55260Y124660D01*
X55280Y124670D01*
X55300Y124680D01*
X55330D01*
X55350Y124660D01*
X55390Y124610D01*
X55420Y124590D01*
X55460Y124580D01*
X55500Y124570D01*
Y124680D01*
G01X56040Y128750D02*
X56100D01*
G01X56070D02*
Y128500D01*
G01X56040D02*
X56100D01*
G01X56270Y128530D02*
X56290Y128510D01*
X56310Y128500D01*
X56340D01*
X56360Y128510D01*
X56370Y128530D01*
X56380Y128560D01*
X56370Y128590D01*
X56360Y128620D01*
X56340Y128630D01*
X56310Y128640D01*
X56290Y128660D01*
X56280Y128690D01*
X56290Y128720D01*
X56300Y128740D01*
X56320Y128750D01*
X56340D01*
X56350Y128740D01*
X56370Y128720D01*
G01X56520Y128500D02*
Y128750D01*
X56590D01*
X56610Y128740D01*
X56620Y128710D01*
X56630Y128680D01*
X56620Y128640D01*
X56610Y128620D01*
X56590Y128600D01*
X56520D01*
G01X56040Y128750D02*
X56100D01*
G01X56070D02*
Y128500D01*
G01X56040D02*
X56100D01*
G01X56270Y128530D02*
X56290Y128510D01*
X56310Y128500D01*
X56340D01*
X56360Y128510D01*
X56370Y128530D01*
X56380Y128560D01*
X56370Y128590D01*
X56360Y128620D01*
X56340Y128630D01*
X56310Y128640D01*
X56290Y128660D01*
X56280Y128690D01*
X56290Y128720D01*
X56300Y128740D01*
X56320Y128750D01*
X56340D01*
X56350Y128740D01*
X56370Y128720D01*
G01X56520Y128500D02*
Y128750D01*
X56590D01*
X56610Y128740D01*
X56620Y128710D01*
X56630Y128680D01*
X56620Y128640D01*
X56610Y128620D01*
X56590Y128600D01*
X56520D01*
G01X57770Y105300D02*
X57790Y105270D01*
X57800Y105260D01*
X57820Y105250D01*
X57840Y105260D01*
X57860Y105270D01*
X57870Y105300D01*
X57880Y105330D01*
Y105500D01*
G01X58030Y105350D02*
X58040Y105380D01*
X58060Y105400D01*
X58080Y105410D01*
X58100Y105400D01*
X58110Y105380D01*
X58120Y105360D01*
Y105330D01*
Y105300D01*
X58110Y105280D01*
X58090Y105260D01*
X58080Y105250D01*
X58060Y105260D01*
X58040Y105280D01*
X58030Y105320D01*
Y105360D01*
Y105420D01*
X58040Y105450D01*
X58050Y105470D01*
X58070Y105500D01*
X58090D01*
X58110Y105490D01*
X58120Y105470D01*
G01X57600Y114050D02*
Y113650D01*
X58400D01*
Y114050D01*
G01X58350Y114600D02*
X57650D01*
G01X58350Y114950D02*
X57650D01*
X58000Y114600D01*
X58350Y114950D01*
G01X58330Y114080D02*
X58360D01*
G01X57670Y115420D02*
X57640D01*
Y114080D01*
X57670D01*
G01X58360D02*
Y115420D01*
X58330D01*
G01X57500Y114570D02*
X57250D01*
Y114620D01*
X57260Y114640D01*
X57280Y114660D01*
X57300Y114670D01*
X57330Y114680D01*
X57380D01*
X57420D01*
X57450Y114670D01*
X57470Y114660D01*
X57490Y114640D01*
X57500Y114620D01*
Y114570D01*
G01Y114870D02*
X57250D01*
X57300Y114840D01*
G01X57500D02*
Y114900D01*
G01X57300Y119990D02*
Y119950D01*
G01X58200Y119990D02*
Y119950D01*
G01D02*
X57300D01*
G01Y119240D02*
Y119200D01*
G01Y119800D02*
Y119760D01*
G01X58200Y119240D02*
Y119200D01*
G01Y119800D02*
Y119760D01*
G01Y119800D02*
X57300D01*
G01X58200Y119200D02*
X57300D01*
G01X58520Y119430D02*
X58510Y119410D01*
X58500Y119400D01*
Y119380D01*
X58510Y119350D01*
X58530Y119340D01*
X58560Y119320D01*
X58600Y119310D01*
X58640D01*
X58680Y119320D01*
X58700D01*
X58730Y119340D01*
X58740Y119360D01*
X58750Y119370D01*
Y119390D01*
X58740Y119410D01*
X58730Y119430D01*
X58710Y119440D01*
G01X58700Y119570D02*
X58730Y119580D01*
X58750Y119600D01*
Y119630D01*
Y119650D01*
X58730Y119670D01*
X58700Y119680D01*
X58680D01*
X58650D01*
X58630Y119660D01*
X58620Y119640D01*
Y119620D01*
G01Y119640D02*
X58600Y119660D01*
X58580Y119670D01*
X58560Y119680D01*
X58530Y119670D01*
X58510Y119660D01*
X58500Y119640D01*
Y119610D01*
X58520Y119590D01*
G01X57300Y118490D02*
Y118450D01*
G01Y119050D02*
Y119010D01*
G01X58200Y118490D02*
Y118450D01*
G01Y119050D02*
Y119010D01*
G01Y119050D02*
X57300D01*
G01X58200Y118450D02*
X57300D01*
G01X58520Y118680D02*
X58510Y118660D01*
X58500Y118650D01*
Y118630D01*
X58510Y118600D01*
X58530Y118590D01*
X58560Y118570D01*
X58600Y118560D01*
X58640D01*
X58680Y118570D01*
X58700D01*
X58730Y118590D01*
X58740Y118610D01*
X58750Y118620D01*
Y118640D01*
X58740Y118660D01*
X58730Y118680D01*
X58710Y118690D01*
G01Y118820D02*
X58730Y118830D01*
X58750Y118850D01*
Y118870D01*
X58740Y118900D01*
X58730Y118910D01*
X58700Y118930D01*
X58660D01*
X58630D01*
X58610Y118910D01*
X58590Y118890D01*
Y118880D01*
Y118860D01*
X58610Y118840D01*
X58500D01*
Y118910D01*
G01Y117070D02*
X58250D01*
Y117140D01*
X58260Y117160D01*
X58280Y117170D01*
X58310Y117180D01*
X58350Y117170D01*
X58370Y117160D01*
X58380Y117140D01*
Y117070D01*
G01Y117140D02*
X58500Y117180D01*
G01Y117370D02*
Y117390D01*
X58480Y117410D01*
X58460Y117430D01*
X58430D01*
X58400D01*
X58380Y117410D01*
X58370Y117390D01*
Y117360D01*
X58360Y117350D01*
X58340Y117330D01*
X58310D01*
X58280Y117340D01*
X58260Y117350D01*
X58250Y117370D01*
X58260Y117390D01*
X58280Y117410D01*
X58310Y117420D01*
X58340Y117410D01*
X58360Y117400D01*
X58370Y117390D01*
Y117360D01*
X58380Y117340D01*
X58400Y117320D01*
X58430D01*
X58460D01*
X58480Y117340D01*
X58500Y117360D01*
Y117370D01*
G01X57300Y120550D02*
Y120510D01*
G01X58200Y120550D02*
Y120510D01*
G01Y120550D02*
X57300D01*
G01X58520Y120180D02*
X58510Y120160D01*
X58500Y120150D01*
Y120130D01*
X58510Y120100D01*
X58530Y120090D01*
X58560Y120070D01*
X58600Y120060D01*
X58640D01*
X58680Y120070D01*
X58700D01*
X58730Y120090D01*
X58740Y120110D01*
X58750Y120120D01*
Y120140D01*
X58740Y120160D01*
X58730Y120180D01*
X58710Y120190D01*
G01X58750Y120370D02*
X58500D01*
X58550Y120340D01*
G01X58750D02*
Y120400D01*
G54D13*
G01X53850Y126400D02*
Y125600D01*
X54650D01*
Y125650D01*
X53900D01*
Y126400D01*
X53850D01*
G01X53900Y125650D02*
X56600D01*
Y127350D01*
X53900D01*
Y125650D01*
G54D14*
G01X44800Y117500D02*
X44820D01*
G01X44800Y118400D02*
X44820D01*
G01X44800D02*
Y117500D01*
G01X45380D02*
X45400D01*
G01X45380Y118400D02*
X45400D01*
G01D02*
Y117500D01*
G01X50800Y106530D02*
Y106550D01*
G01Y105950D02*
Y105970D01*
G01Y105950D02*
X51700D01*
G01X50800Y106550D02*
X51700D01*
G01X49720Y115200D02*
X49700D01*
G01X50300D02*
X50280D01*
G01X49720Y114300D02*
X49700D01*
G01X50300D02*
X50280D01*
G01X50300D02*
Y115200D01*
G01X49700Y114300D02*
Y115200D01*
G01X49720Y118200D02*
X49700D01*
G01X50300D02*
X50280D01*
G01X49720Y117300D02*
X49700D01*
G01X50300D02*
X50280D01*
G01X50300D02*
Y118200D01*
G01X49700Y117300D02*
Y118200D01*
G01X49970Y122700D02*
X49950D01*
G01X50550D02*
X50530D01*
G01X49970Y121800D02*
X49950D01*
G01X50550D02*
X50530D01*
G01X50550D02*
Y122700D01*
G01X49950Y121800D02*
Y122700D01*
G01X49720Y125550D02*
X49700D01*
G01X50300D02*
X50280D01*
G01X50300D02*
Y126450D01*
G01X49700Y125550D02*
Y126450D01*
G01X49720D02*
X49700D01*
G01X50300D02*
X50280D01*
G01X49720Y130200D02*
X49700D01*
G01X50300D02*
X50280D01*
G01X49720Y129300D02*
X49700D01*
G01X50300D02*
X50280D01*
G01X50300D02*
Y130200D01*
G01X49700Y129300D02*
Y130200D01*
G01X51700Y106530D02*
Y106550D01*
G01Y105950D02*
Y105970D01*
G01X55300Y113720D02*
Y113700D01*
G01X56200Y113720D02*
Y113700D01*
G01D02*
X55300D01*
G01Y114300D02*
Y114280D01*
G01X56200Y114300D02*
Y114280D01*
G01Y114300D02*
X55300D01*
G01X54340Y128550D02*
G03I-40J0D01*
G01X57470Y116800D02*
X57450D01*
G01X58050D02*
X58030D01*
G01X58050D02*
Y117700D01*
G01X57450Y116800D02*
Y117700D01*
G01X57470D02*
X57450D01*
G01X58050D02*
X58030D01*
M02*
