G04 start of page 8 for group -4079 idx -4079 *
G04 Title: LED carrier v. 0.1, topsilk *
G04 Creator: pcb 1.99x *
G04 CreationDate: Sun Jun 28 01:38:54 2009 UTC *
G04 For: davidellsworth *
G04 Format: Gerber/RS-274X *
G04 PCB-Dimensions: 120000 122000 *
G04 PCB-Coordinate-Origin: lower left *
%MOIN*%
%FSLAX24Y24*%
%LNFRONTSILK*%
%ADD16C,0.0150*%
%ADD30C,0.0070*%
G54D30*X11051Y4500D02*X11655D01*
Y4802D02*Y4500D01*
X11353Y5209D02*Y4983D01*
X11655Y5285D02*Y4983D01*
X11051D02*X11655D01*
X11051Y5285D02*Y4983D01*
Y5542D02*X11655D01*
X11051Y5768D02*X11126Y5844D01*
X11579D01*
X11655Y5768D02*X11579Y5844D01*
X11655Y5768D02*Y5466D01*
X11051Y5768D02*Y5466D01*
X11353Y6599D02*Y6372D01*
X11428Y6297D02*X11353Y6372D01*
X11428Y6297D02*X11579D01*
X11655Y6372D01*
Y6599D02*Y6372D01*
X11353Y7007D02*X11428Y7082D01*
X11353Y7007D02*Y6856D01*
X11428Y6780D02*X11353Y6856D01*
X11428Y6780D02*X11579D01*
X11655Y6856D01*
X11353Y7082D02*X11579D01*
X11655Y7158D01*
Y7007D02*Y6856D01*
Y7007D02*X11579Y7082D01*
X11428Y7415D02*X11655D01*
X11428D02*X11353Y7490D01*
Y7641D02*Y7490D01*
Y7339D02*X11428Y7415D01*
Y7898D02*X11655D01*
X11428D02*X11353Y7973D01*
Y8124D02*Y7973D01*
Y7822D02*X11428Y7898D01*
X11202Y8306D02*X11277D01*
X11428D02*X11655D01*
Y8759D02*Y8532D01*
X11579Y8457D02*X11655Y8532D01*
X11428Y8457D02*X11579D01*
X11428D02*X11353Y8532D01*
Y8683D02*Y8532D01*
Y8683D02*X11428Y8759D01*
X11504D02*Y8457D01*
X11428Y8759D02*X11504D01*
X11428Y9016D02*X11655D01*
X11428D02*X11353Y9091D01*
Y9242D02*Y9091D01*
Y8940D02*X11428Y9016D01*
X11353Y9695D02*X11504D01*
X11655Y9846D01*
X11504Y9997D01*
X11353D02*X11504D01*
X11655Y10254D02*Y10179D01*
X11579Y10707D02*X11655Y10783D01*
X11126Y10707D02*X11579D01*
X11126D02*X11051Y10783D01*
Y10934D02*Y10783D01*
Y10934D02*X11126Y11009D01*
X11579D01*
X11655Y10934D02*X11579Y11009D01*
X11655Y10934D02*Y10783D01*
X11504Y10707D02*X11202Y11009D01*
X11655Y11266D02*Y11191D01*
Y11674D02*Y11523D01*
X11051Y11599D02*X11655D01*
X11202Y11448D02*X11051Y11599D01*
G54D16*X550Y100D02*Y3300D01*
X600D02*X8450D01*
Y100D01*
G54D30*X1970Y4530D02*X2640D01*
X2460Y6510D02*X2730D01*
X1870D02*X2140D01*
X1600Y6170D02*Y4820D01*
X2990Y6170D02*Y4820D01*
X5560Y9570D02*X6230D01*
X5470Y7590D02*X5740D01*
X6060D02*X6330D01*
X6600Y9280D02*Y7930D01*
X5210Y9280D02*Y7930D01*
X6770Y4530D02*X7440D01*
X7260Y6510D02*X7530D01*
X6670D02*X6940D01*
X6400Y6170D02*Y4820D01*
X7790Y6170D02*Y4820D01*
X4370Y4530D02*X5040D01*
X4860Y6510D02*X5130D01*
X4270D02*X4540D01*
X4000Y6170D02*Y4820D01*
X5390Y6170D02*Y4820D01*
X9170Y4530D02*X9840D01*
X9660Y6510D02*X9930D01*
X9070D02*X9340D01*
X8800Y6170D02*Y4820D01*
X10190Y6170D02*Y4820D01*
X3160Y9570D02*X3830D01*
X3070Y7590D02*X3340D01*
X3660D02*X3930D01*
X4200Y9280D02*Y7930D01*
X2810Y9280D02*Y7930D01*
X7960Y9570D02*X8630D01*
X7870Y7590D02*X8140D01*
X8460D02*X8730D01*
X9000Y9280D02*Y7930D01*
X7610Y9280D02*Y7930D01*
X5400Y10200D02*Y9800D01*
X5600D01*
X5770Y10200D02*Y9800D01*
X5920Y10200D02*X5970Y10150D01*
Y9850D01*
X5920Y9800D02*X5970Y9850D01*
X5720Y9800D02*X5920D01*
X5720Y10200D02*X5920D01*
X6140Y9800D02*X6240D01*
X6190Y10200D02*Y9800D01*
X6090Y10100D02*X6190Y10200D01*
X3000D02*Y9800D01*
X3200D01*
X3370Y10200D02*Y9800D01*
X3520Y10200D02*X3570Y10150D01*
Y9850D01*
X3520Y9800D02*X3570Y9850D01*
X3320Y9800D02*X3520D01*
X3320Y10200D02*X3520D01*
X3690Y10000D02*X3890Y10200D01*
X3690Y10000D02*X3940D01*
X3890Y10200D02*Y9800D01*
X7800Y10200D02*Y9800D01*
X8000D01*
X8170Y10200D02*Y9800D01*
X8320Y10200D02*X8370Y10150D01*
Y9850D01*
X8320Y9800D02*X8370Y9850D01*
X8120Y9800D02*X8320D01*
X8120Y10200D02*X8320D01*
X8640D02*X8690Y10150D01*
X8540Y10200D02*X8640D01*
X8490Y10150D02*X8540Y10200D01*
X8490Y10150D02*Y9850D01*
X8540Y9800D01*
X8640Y10000D02*X8690Y9950D01*
X8490Y10000D02*X8640D01*
X8540Y9800D02*X8640D01*
X8690Y9850D01*
Y9950D02*Y9850D01*
X550Y3600D02*X700D01*
X500Y3650D02*X550Y3600D01*
X500Y3950D02*Y3650D01*
Y3950D02*X550Y4000D01*
X700D01*
X820D02*Y3600D01*
Y4000D02*Y3950D01*
X1070Y3700D01*
Y4000D02*Y3600D01*
X1240D02*X1340D01*
X1290Y4000D02*Y3600D01*
X1190Y3900D02*X1290Y4000D01*
X1800Y4400D02*Y4000D01*
X2000D01*
X2170Y4400D02*Y4000D01*
X2320Y4400D02*X2370Y4350D01*
Y4050D01*
X2320Y4000D02*X2370Y4050D01*
X2120Y4000D02*X2320D01*
X2120Y4400D02*X2320D01*
X2490Y4350D02*X2540Y4400D01*
X2690D01*
X2740Y4350D01*
Y4250D01*
X2490Y4000D02*X2740Y4250D01*
X2490Y4000D02*X2740D01*
X4200Y4400D02*Y4000D01*
X4400D01*
X4570Y4400D02*Y4000D01*
X4720Y4400D02*X4770Y4350D01*
Y4050D01*
X4720Y4000D02*X4770Y4050D01*
X4520Y4000D02*X4720D01*
X4520Y4400D02*X4720D01*
X4890Y4000D02*X5140Y4250D01*
Y4400D02*Y4250D01*
X4890Y4400D02*X5140D01*
X6500D02*Y4000D01*
X6700D01*
X6870Y4400D02*Y4000D01*
X7020Y4400D02*X7070Y4350D01*
Y4050D01*
X7020Y4000D02*X7070Y4050D01*
X6820Y4000D02*X7020D01*
X6820Y4400D02*X7020D01*
X7190D02*X7390D01*
X7190D02*Y4200D01*
X7240Y4250D01*
X7340D01*
X7390Y4200D01*
Y4050D01*
X7340Y4000D02*X7390Y4050D01*
X7240Y4000D02*X7340D01*
X7190Y4050D02*X7240Y4000D01*
X9000Y4400D02*Y4000D01*
X9200D01*
X9370Y4400D02*Y4000D01*
X9520Y4400D02*X9570Y4350D01*
Y4050D01*
X9520Y4000D02*X9570Y4050D01*
X9320Y4000D02*X9520D01*
X9320Y4400D02*X9520D01*
X9690Y4350D02*X9740Y4400D01*
X9840D01*
X9890Y4350D01*
Y4050D01*
X9840Y4000D02*X9890Y4050D01*
X9740Y4000D02*X9840D01*
X9690Y4050D02*X9740Y4000D01*
Y4200D02*X9890D01*
M02*
