G04 start of page 2 for group 0 idx 0 *
G04 Title: LED carrier v. 0.1, solder *
G04 Creator: pcb 1.99x *
G04 CreationDate: Sun Jun 28 01:38:54 2009 UTC *
G04 For: davidellsworth *
G04 Format: Gerber/RS-274X *
G04 PCB-Dimensions: 120000 122000 *
G04 PCB-Coordinate-Origin: lower left *
%MOIN*%
%FSLAX24Y24*%
%LNBACK*%
%ADD11C,0.0200*%
%ADD12C,0.0400*%
%ADD13C,0.2500*%
%ADD14C,0.0310*%
%ADD15C,0.1250*%
%ADD16C,0.0150*%
G54D11*G36*
X300Y11900D02*X4117D01*
X3865Y11648D01*
X3850Y11650D01*
X3797Y11645D01*
X3747Y11631D01*
X3700Y11609D01*
X3657Y11579D01*
X3620Y11542D01*
X3590Y11500D01*
X3568Y11452D01*
X3554Y11402D01*
X3550Y11350D01*
X3554Y11297D01*
X3568Y11247D01*
X3590Y11200D01*
X3620Y11157D01*
X3657Y11120D01*
X3700Y11090D01*
X3747Y11068D01*
X3797Y11054D01*
X3850Y11050D01*
X3902Y11054D01*
X3952Y11068D01*
X4000Y11090D01*
X4042Y11120D01*
X4079Y11157D01*
X4109Y11200D01*
X4131Y11247D01*
X4145Y11297D01*
X4150Y11350D01*
X4148Y11365D01*
X4382Y11600D01*
X5117D01*
X5908Y10808D01*
X5915Y10802D01*
X5921Y10796D01*
X5928Y10792D01*
X5935Y10786D01*
X5943Y10781D01*
X5950Y10776D01*
X5957Y10773D01*
X5965Y10768D01*
X5974Y10765D01*
X5981Y10762D01*
X5989Y10760D01*
X5998Y10756D01*
X6006Y10755D01*
X6015Y10753D01*
X6023Y10752D01*
X6032Y10750D01*
X6041D01*
X6050Y10750D01*
X6450D01*
X6459Y10750D01*
X6467D01*
X6475Y10752D01*
X6484Y10753D01*
X6493Y10755D01*
X6501Y10756D01*
X6510Y10760D01*
X6518Y10762D01*
X6526Y10765D01*
X6534Y10768D01*
X6541Y10772D01*
X6550Y10776D01*
X6557Y10782D01*
X6564Y10786D01*
X6571Y10791D01*
X6578Y10796D01*
X6585Y10803D01*
X6591Y10808D01*
X7082Y11300D01*
X10867D01*
X11000Y11167D01*
Y3770D01*
X10903Y3650D01*
X9972D01*
X9979Y3657D01*
X10009Y3700D01*
X10031Y3747D01*
X10045Y3797D01*
X10050Y3850D01*
X10045Y3902D01*
X10031Y3952D01*
X10009Y4000D01*
X9979Y4042D01*
X9942Y4079D01*
X9900Y4109D01*
X9852Y4131D01*
X9802Y4145D01*
X9750Y4150D01*
X9734Y4148D01*
X9591Y4291D01*
X9585Y4296D01*
X9578Y4303D01*
X9570Y4308D01*
X9564Y4313D01*
X9558Y4317D01*
X9550Y4323D01*
X9541Y4327D01*
X9534Y4331D01*
X9526Y4334D01*
X9518Y4338D01*
X9509Y4340D01*
X9501Y4343D01*
X9494Y4344D01*
X9484Y4347D01*
X9475Y4347D01*
X9467Y4349D01*
X9459D01*
X9450Y4350D01*
X2300D01*
Y4350D01*
X2299Y4350D01*
X2276Y4348D01*
X2265Y4347D01*
X2265Y4346D01*
X2264D01*
X2230Y4337D01*
X2205Y4325D01*
X2200Y4323D01*
X2199Y4323D01*
X2199Y4322D01*
X2179Y4308D01*
X2171Y4303D01*
X2171Y4303D01*
X2170Y4302D01*
X2146Y4278D01*
X2038Y4149D01*
X1997Y4145D01*
X1947Y4131D01*
X1900Y4109D01*
X1857Y4079D01*
X1820Y4042D01*
X1790Y4000D01*
X1768Y3952D01*
X1754Y3902D01*
X1750Y3850D01*
X1754Y3797D01*
X1768Y3747D01*
X1790Y3700D01*
X1820Y3657D01*
X1857Y3620D01*
X1900Y3590D01*
X1947Y3568D01*
X1997Y3554D01*
X2050Y3550D01*
X2102Y3554D01*
X2152Y3568D01*
X2200Y3590D01*
X2242Y3620D01*
X2258Y3635D01*
X2268Y3597D01*
X2290Y3550D01*
X2320Y3507D01*
X2350Y3477D01*
Y3350D01*
X2350Y3342D01*
Y3332D01*
X2352Y3323D01*
X2353Y3315D01*
X2355Y3306D01*
X2356Y3298D01*
X2359Y3289D01*
X2362Y3281D01*
X2365Y3274D01*
X2368Y3265D01*
X2373Y3257D01*
X2376Y3250D01*
X2381Y3243D01*
X2386Y3235D01*
X2392Y3228D01*
X2396Y3221D01*
X2402Y3215D01*
X2408Y3208D01*
X3008Y2608D01*
X3015Y2602D01*
X3021Y2596D01*
X3028Y2592D01*
X3035Y2586D01*
X3043Y2581D01*
X3050Y2576D01*
X3057Y2573D01*
X3065Y2568D01*
X3074Y2565D01*
X3081Y2562D01*
X3089Y2560D01*
X3098Y2556D01*
X3106Y2555D01*
X3115Y2553D01*
X3123Y2552D01*
X3132Y2550D01*
X3141D01*
X3150Y2550D01*
X8900D01*
Y2549D01*
X8910Y2550D01*
X8917D01*
X8924Y2552D01*
X8934Y2552D01*
X8944Y2555D01*
X8951Y2556D01*
X8959Y2559D01*
X8968Y2562D01*
X8977Y2566D01*
X8984Y2568D01*
X8990Y2572D01*
X9000Y2576D01*
X9008Y2582D01*
X9014Y2586D01*
X9020Y2590D01*
X9028Y2596D01*
X9035Y2603D01*
X9041Y2608D01*
X9382Y2950D01*
X11250D01*
Y2949D01*
X11260Y2950D01*
X11267D01*
X11274Y2952D01*
X11284Y2952D01*
X11294Y2955D01*
X11301Y2956D01*
X11309Y2959D01*
X11318Y2962D01*
X11327Y2966D01*
X11334Y2968D01*
X11340Y2972D01*
X11350Y2976D01*
X11358Y2982D01*
X11364Y2986D01*
X11370Y2990D01*
X11378Y2996D01*
X11385Y3004D01*
X11391Y3008D01*
X11600Y3217D01*
Y300D01*
X300D01*
Y11900D01*
G37*
G36*
X5382D02*X6517D01*
X6265Y11648D01*
X6250Y11650D01*
X6197Y11645D01*
X6147Y11631D01*
X6100Y11609D01*
X6057Y11579D01*
X6020Y11542D01*
X5990Y11500D01*
X5968Y11452D01*
X5954Y11402D01*
X5950Y11350D01*
X5951Y11331D01*
X5382Y11900D01*
G37*
G36*
X2750Y3432D02*Y3477D01*
X2779Y3507D01*
X2809Y3550D01*
X2831Y3597D01*
X2845Y3647D01*
X2850Y3700D01*
X2845Y3752D01*
X2831Y3802D01*
X2809Y3850D01*
X2779Y3892D01*
X2742Y3929D01*
X2714Y3950D01*
X4727D01*
X4720Y3942D01*
X4690Y3900D01*
X4668Y3852D01*
X4654Y3802D01*
X4650Y3750D01*
X4654Y3697D01*
X4668Y3647D01*
X4690Y3600D01*
X4720Y3557D01*
X4750Y3527D01*
Y3400D01*
X4750Y3391D01*
Y3382D01*
X4752Y3373D01*
X4753Y3365D01*
X4755Y3356D01*
X4756Y3348D01*
X4760Y3339D01*
X4762Y3331D01*
X4765Y3324D01*
X4768Y3315D01*
X4773Y3307D01*
X4776Y3300D01*
X4781Y3293D01*
X4786Y3285D01*
X4792Y3278D01*
X4796Y3271D01*
X4802Y3265D01*
X4808Y3258D01*
X5000Y3067D01*
Y2950D01*
X3232D01*
X2750Y3432D01*
G37*
G36*
X5150Y3527D02*X5179Y3557D01*
X5209Y3600D01*
X5231Y3647D01*
X5245Y3697D01*
X5250Y3750D01*
X5245Y3802D01*
X5231Y3852D01*
X5209Y3900D01*
X5179Y3942D01*
X5172Y3950D01*
X7127D01*
X7120Y3942D01*
X7090Y3900D01*
X7068Y3852D01*
X7054Y3802D01*
X7050Y3750D01*
X7054Y3697D01*
X7068Y3647D01*
X7090Y3600D01*
X7120Y3557D01*
X7157Y3520D01*
X7200Y3490D01*
X7247Y3468D01*
X7297Y3454D01*
X7350Y3450D01*
X7402Y3454D01*
X7452Y3468D01*
X7500Y3490D01*
X7542Y3520D01*
X7572Y3550D01*
X8417D01*
X8528Y3438D01*
X8502Y3445D01*
X8450Y3450D01*
X8397Y3445D01*
X8347Y3431D01*
X8300Y3409D01*
X8257Y3379D01*
X8227Y3350D01*
X5282D01*
X5150Y3482D01*
Y3527D01*
G37*
G36*
X9367Y3950D02*X9451Y3865D01*
X9450Y3850D01*
X9454Y3797D01*
X9468Y3747D01*
X9490Y3700D01*
X9520Y3657D01*
X9527Y3650D01*
X8882D01*
X8641Y3891D01*
X8634Y3897D01*
X8628Y3903D01*
X8621Y3908D01*
X8614Y3913D01*
X8606Y3918D01*
X8600Y3923D01*
X8592Y3926D01*
X8584Y3931D01*
X8575Y3934D01*
X8568Y3937D01*
X8560Y3940D01*
X8551Y3943D01*
X8542Y3944D01*
X8534Y3947D01*
X8526Y3947D01*
X8517Y3949D01*
X8508D01*
X8500Y3950D01*
X9367D01*
G37*
G36*
X8672Y2950D02*X8679Y2957D01*
X8709Y3000D01*
X8731Y3047D01*
X8745Y3097D01*
X8750Y3150D01*
X8745Y3202D01*
X8731Y3252D01*
X8726Y3264D01*
X8731Y3262D01*
X8739Y3259D01*
X8748Y3256D01*
X8756Y3255D01*
X8765Y3253D01*
X8773Y3252D01*
X8782Y3250D01*
X8791D01*
X8800Y3250D01*
X9117D01*
X8817Y2950D01*
X8672D01*
G37*
G54D11*X8500Y3750D02*X7350D01*
X8800Y3450D02*X11000D01*
X8800D02*X8500Y3750D01*
X9300Y3150D02*X11250D01*
X9300D02*X8900Y2750D01*
X2300Y4150D02*X2050Y3850D01*
X2550Y3350D02*Y3700D01*
X9750Y3850D02*X9450Y4150D01*
X2300D01*
X8450Y3150D02*X5200D01*
X4950Y3400D01*
Y3750D01*
X8900Y2750D02*X3150D01*
X2550Y3350D01*
X10950Y11500D02*X7000D01*
X6450Y10950D01*
X6050D01*
X5200Y11800D01*
X4300D01*
X6700D02*X6250Y11350D01*
X11200Y3700D02*Y11250D01*
X10950Y11500D01*
X11200Y3700D02*X11000Y3450D01*
X11500Y3400D02*X11250Y3150D01*
X11500Y3400D02*Y11500D01*
X4300Y11800D02*X3850Y11350D01*
X11500Y11500D02*X11200Y11800D01*
X6700D01*
G54D12*X8450Y3150D03*
G54D13*X10100Y1600D03*
G54D12*X7350Y3750D03*
X9750Y3850D03*
G54D14*X9510Y8579D03*
X9460Y8219D03*
X10760Y6249D03*
X10699Y5520D03*
X10649Y5880D03*
X10699Y5150D03*
X9859Y6660D03*
X9499Y6560D03*
X10249Y6760D03*
X10499Y6470D03*
X9560Y7850D03*
X9510Y8949D03*
X9800Y7500D03*
X10150Y7150D03*
X10669Y6830D03*
X9500Y7250D03*
X9750Y7000D03*
X9200D03*
X9190Y8769D03*
X9140Y8399D03*
Y8039D03*
X9050Y7339D03*
X9300Y7629D03*
X8300Y6800D03*
X8749Y6760D03*
X7350Y7000D03*
X7849Y6760D03*
X8659Y6060D03*
X8300Y6150D03*
X8499Y6470D03*
G54D11*X7099Y6250D03*
G54D14*X7929Y6060D03*
X8099Y6470D03*
X8300Y5750D03*
G54D11*X7099Y5750D03*
G54D14*X7269Y5390D03*
X7629D03*
X7929Y5700D03*
X7979Y5330D03*
X7459Y6660D03*
G54D11*X9499Y5750D03*
Y6250D03*
G54D14*X9669Y5390D03*
X9319D03*
X10029D03*
X10379Y5330D03*
X10329Y5700D03*
Y6060D03*
X8959Y5390D03*
X8609Y5330D03*
X8659Y5700D03*
X8300Y5150D03*
X9129Y6660D03*
X7099Y6560D03*
X7100Y8950D03*
Y8350D03*
Y7250D03*
Y7950D03*
X8840Y8709D03*
X8480D03*
G54D11*X8300Y8349D03*
Y7849D03*
G54D14*X7940Y7439D03*
X8300Y7539D03*
X8670Y7439D03*
X8600Y7100D03*
X8050D03*
X8130Y8709D03*
X7770D03*
X7420Y8769D03*
X7470Y8399D03*
Y8039D03*
X7300Y7629D03*
X7550Y7339D03*
X3500Y5750D03*
X3859Y5700D03*
X3500Y5150D03*
X3809Y5330D03*
X4159Y5390D03*
X4519D03*
X1759D03*
G54D12*X2550Y3700D03*
X2050Y3850D03*
G54D14*X2119Y5390D03*
X2469D03*
X3129Y6060D03*
Y5700D03*
G54D11*X2299Y5750D03*
G54D14*X3179Y5330D03*
X2829Y5390D03*
X5529Y5700D03*
X5579Y5330D03*
X5229Y5390D03*
X3500Y6150D03*
X3859Y6060D03*
X5529D03*
X5059Y6660D03*
G54D12*X4950Y3750D03*
G54D14*X4869Y5390D03*
G54D11*X4699Y5750D03*
Y6250D03*
G54D14*X6800Y7000D03*
X6729Y6660D03*
X6740Y8039D03*
X6900Y7629D03*
X6650Y7339D03*
X6919Y5390D03*
X6559D03*
X5900Y5150D03*
X6209Y5330D03*
X6259Y5700D03*
Y6060D03*
X5900Y5750D03*
X6200Y7100D03*
X5900Y6800D03*
Y6150D03*
X6349Y6760D03*
X6099Y6470D03*
X5900Y7539D03*
X6270Y7439D03*
X2380Y7269D03*
X2600Y7000D03*
X2750Y7339D03*
X3699Y6470D03*
X3949Y6760D03*
X4329Y6660D03*
X3299Y6470D03*
X3800Y7100D03*
X3870Y7439D03*
X4250Y7339D03*
X3250Y7100D03*
X3140Y7439D03*
X3500Y7539D03*
G54D11*Y7849D03*
G54D14*X2670Y8039D03*
X2299Y6560D03*
G54D11*Y6250D03*
G54D14*X2659Y6660D03*
X3049Y6760D03*
X5699Y6470D03*
X5449Y6760D03*
X5650Y7100D03*
G54D11*X5900Y7849D03*
G54D14*X5540Y7439D03*
X4700Y7950D03*
X4500Y7629D03*
X4700Y7250D03*
X5070Y8039D03*
X4900Y7629D03*
X5150Y7339D03*
X1459Y6060D03*
Y5700D03*
X1409Y5330D03*
X1089Y5520D03*
X1299Y6470D03*
X1650Y7150D03*
X1169Y6830D03*
X1929Y6660D03*
X1549Y6760D03*
X1089Y5150D03*
X1139Y5880D03*
X2000Y7500D03*
X2239Y7850D03*
X2050Y7000D03*
X1039Y6249D03*
X2500Y7629D03*
G54D13*X1600Y10600D03*
G54D14*X2300Y8949D03*
X2350Y8219D03*
X2300Y8579D03*
X2670Y8399D03*
X2620Y8769D03*
G54D12*X6250Y11350D03*
X3850D03*
G54D14*X6440Y8709D03*
X6080D03*
X5730D03*
X6790Y8769D03*
X6740Y8399D03*
G54D11*X5900Y8349D03*
G54D14*X4699Y6560D03*
X4950Y7000D03*
X4400D03*
X3500Y6800D03*
X4040Y8709D03*
X4390Y8769D03*
X4340Y8399D03*
Y8039D03*
X4700Y8950D03*
Y8350D03*
X5070Y8399D03*
X3680Y8709D03*
X2970D03*
X3330D03*
G54D11*X3500Y8349D03*
G54D14*X5370Y8709D03*
X5020Y8769D03*
G54D11*G54D15*G54D11*G54D16*G54D11*G54D16*G54D11*G54D16*G54D11*G54D16*G54D11*G54D16*G54D11*G54D16*G54D11*G54D16*G54D11*G54D16*G54D11*G54D16*G54D11*G54D15*G54D11*G54D16*G54D11*G54D16*G54D11*M02*
