M48
INCH
T11C0.020
T15C0.125
T16C0.015
%
T16
X003500Y008349
X005900Y008349
X008300Y007849
X004699Y005750
X005900Y007849
X004699Y006250
X009499Y005750
X009499Y006250
X003500Y007849
X007099Y005750
X007099Y006250
X002299Y006250
X002299Y005750
X008300Y008349
T11
X009510Y008949
X009800Y007500
X010150Y007150
X010669Y006830
X009500Y007250
X009750Y007000
X009200Y007000
X009190Y008769
X009140Y008399
X009140Y008039
X009050Y007339
X009300Y007629
X008300Y006800
X008749Y006760
X007350Y007000
X007849Y006760
X008659Y006060
X008300Y006150
X008499Y006470
X007929Y006060
X008099Y006470
X008300Y005750
X007269Y005390
X007629Y005390
X007929Y005700
X007979Y005330
X007459Y006660
X009669Y005390
X009319Y005390
X010029Y005390
X010379Y005330
X010329Y005700
X010329Y006060
X008959Y005390
X008609Y005330
X008659Y005700
X008300Y005150
X009129Y006660
X007099Y006560
X007100Y008950
X007100Y008350
X007100Y007250
X007100Y007950
X008840Y008709
X008480Y008709
X007940Y007439
X008300Y007539
X008670Y007439
X008600Y007100
X008050Y007100
X008130Y008709
X007770Y008709
X007420Y008769
X007470Y008399
X007470Y008039
X007300Y007629
X007550Y007339
X003500Y005750
X003859Y005700
X003500Y005150
X003809Y005330
X004159Y005390
X004519Y005390
X001759Y005390
X002550Y003700
X002050Y003850
X002119Y005390
X002469Y005390
X003129Y006060
X003129Y005700
X003179Y005330
X002829Y005390
X005529Y005700
X005579Y005330
X005229Y005390
X003500Y006150
X003859Y006060
X005529Y006060
X005059Y006660
X004950Y003750
X004869Y005390
X006800Y007000
X006729Y006660
X006740Y008039
X006900Y007629
X006650Y007339
X006919Y005390
X006559Y005390
X005900Y005150
X006209Y005330
X006259Y005700
X006259Y006060
X005900Y005750
X006200Y007100
X005900Y006800
X005900Y006150
X006349Y006760
X006099Y006470
X005900Y007539
X006270Y007439
X002380Y007269
X002600Y007000
X002750Y007339
X003699Y006470
X003949Y006760
X004329Y006660
X003299Y006470
X003800Y007100
X003870Y007439
X004250Y007339
X003250Y007100
X003140Y007439
X003500Y007539
X002670Y008039
X002299Y006560
X002659Y006660
X003049Y006760
X005699Y006470
X005449Y006760
X005650Y007100
X005540Y007439
X004700Y007950
X004500Y007629
X004700Y007250
X005070Y008039
X004900Y007629
X005150Y007339
X001459Y006060
X001459Y005700
X001409Y005330
X001089Y005520
X001299Y006470
X001650Y007150
X001169Y006830
X001929Y006660
X001549Y006760
X001089Y005150
X001139Y005880
X002000Y007500
X002239Y007850
X002050Y007000
X001039Y006249
X002500Y007629
X002300Y008949
X002350Y008219
X002300Y008579
X002670Y008399
X002620Y008769
X006250Y011350
X003850Y011350
X006440Y008709
X006080Y008709
X005730Y008709
X006790Y008769
X006740Y008399
X005020Y008769
X007350Y003750
X009750Y003850
X009510Y008579
X009460Y008219
X010760Y006249
X010699Y005520
X010649Y005880
X010699Y005150
X009859Y006660
X009499Y006560
X010249Y006760
X010499Y006470
X009560Y007850
X005370Y008709
X008450Y003150
X004699Y006560
X004950Y007000
X004400Y007000
X003500Y006800
X004040Y008709
X004390Y008769
X004340Y008399
X004340Y008039
X004700Y008950
X004700Y008350
X005070Y008399
X003680Y008709
X002970Y008709
X003330Y008709
T15
X001600Y010600
X010100Y001600
M30
