G04 start of page 8 for group -4079 idx -4079 *
G04 Title: LED driver v. 0.1, topsilk *
G04 Creator: pcb 1.99x *
G04 CreationDate: Sun Jun 28 04:20:52 2009 UTC *
G04 For: davidellsworth *
G04 Format: Gerber/RS-274X *
G04 PCB-Dimensions: 113000 493000 *
G04 PCB-Coordinate-Origin: lower left *
%MOIN*%
%FSLAX24Y24*%
%LNFRONTSILK*%
%ADD15C,0.0100*%
%ADD20C,0.0150*%
%ADD43C,0.0070*%
%ADD44C,0.0250*%
G54D43*X740Y39100D02*X1300D01*
Y39380D02*Y39100D01*
X1020Y39758D02*Y39548D01*
X1300Y39828D02*Y39548D01*
X740D02*X1300D01*
X740Y39828D02*Y39548D01*
Y40066D02*X1300D01*
X740Y40276D02*X810Y40346D01*
X1230D01*
X1300Y40276D02*X1230Y40346D01*
X1300Y40276D02*Y39996D01*
X740Y40276D02*Y39996D01*
Y41046D02*X1300D01*
Y40976D02*X1230Y41046D01*
X1300Y40976D02*Y40836D01*
X1230Y40766D02*X1300Y40836D01*
X1090Y40766D02*X1230D01*
X1090D02*X1020Y40836D01*
Y40976D02*Y40836D01*
Y40976D02*X1090Y41046D01*
Y41284D02*X1300D01*
X1090D02*X1020Y41354D01*
Y41494D02*Y41354D01*
Y41214D02*X1090Y41284D01*
X880Y41662D02*X950D01*
X1090D02*X1300D01*
X1020Y41802D02*X1160D01*
X1300Y41942D01*
X1160Y42082D01*
X1020D02*X1160D01*
X1300Y42530D02*Y42320D01*
X1230Y42250D02*X1300Y42320D01*
X1090Y42250D02*X1230D01*
X1090D02*X1020Y42320D01*
Y42460D02*Y42320D01*
Y42460D02*X1090Y42530D01*
X1160D02*Y42250D01*
X1090Y42530D02*X1160D01*
X1090Y42769D02*X1300D01*
X1090D02*X1020Y42839D01*
Y42979D02*Y42839D01*
Y42699D02*X1090Y42769D01*
X1020Y43399D02*X1160D01*
X1300Y43539D01*
X1160Y43679D01*
X1020D02*X1160D01*
X1300Y43917D02*Y43847D01*
X1230Y44337D02*X1300Y44407D01*
X810Y44337D02*X1230D01*
X810D02*X740Y44407D01*
Y44547D02*Y44407D01*
Y44547D02*X810Y44617D01*
X1230D01*
X1300Y44547D02*X1230Y44617D01*
X1300Y44547D02*Y44407D01*
X1160Y44337D02*X880Y44617D01*
X1300Y44855D02*Y44785D01*
Y45233D02*Y45093D01*
X740Y45163D02*X1300D01*
X880Y45023D02*X740Y45163D01*
G54D15*X5150Y39500D02*Y37900D01*
Y39500D02*X6050D01*
Y37900D01*
X5150D02*X6050D01*
X1750Y37800D02*Y36200D01*
X850D02*X1750D01*
X850Y37800D02*Y36200D01*
Y37800D02*X1750D01*
X2250Y38650D02*Y37250D01*
Y36750D02*Y35350D01*
Y38650D02*X4350D01*
Y35350D01*
X2250D02*X4350D01*
X2250Y36750D02*G75*G03X2250Y37250I0J250D01*G01*
X5150Y37300D02*Y35700D01*
Y37300D02*X6050D01*
Y35700D01*
X5150D02*X6050D01*
X2050Y40350D02*Y39250D01*
Y40350D02*X4150D01*
Y39250D01*
X2050D02*X4150D01*
X6600Y44900D02*Y44650D01*
X6550Y44950D02*Y44600D01*
X6500Y45050D02*Y44550D01*
X6450Y45100D02*X6750Y44800D01*
X6450Y45100D02*Y44450D01*
X6750Y44750D02*X6450Y44450D01*
X6750Y45100D02*Y44450D01*
X6700Y44800D02*Y44750D01*
X5550Y45300D02*X7650D01*
X6650Y44850D02*Y44700D01*
X5550Y44250D02*X7650D01*
X5550Y45300D02*Y44250D01*
X7650Y45300D02*Y44250D01*
X9300Y44900D02*Y44650D01*
X9250Y44950D02*Y44600D01*
X9200Y45050D02*Y44550D01*
X9150Y45100D02*X9450Y44800D01*
X9150Y45100D02*Y44450D01*
X9450Y44750D02*X9150Y44450D01*
X9450Y45100D02*Y44450D01*
X9400Y44800D02*Y44750D01*
X8250Y45300D02*X10350D01*
X9350Y44850D02*Y44700D01*
X8250Y44250D02*X10350D01*
X8250Y45300D02*Y44250D01*
X10350Y45300D02*Y44250D01*
G54D20*X1150Y49100D02*Y45900D01*
X9000D01*
X9050Y49100D02*Y45900D01*
G54D15*X7700Y43450D02*Y42050D01*
Y41550D02*Y40150D01*
Y43450D02*X9800D01*
Y40150D01*
X7700D02*X9800D01*
X7700Y41550D02*G75*G03X7700Y42050I0J250D01*G01*
X6150Y41700D02*Y40100D01*
Y41700D02*X7050D01*
Y40100D01*
X6150D02*X7050D01*
Y43800D02*Y42200D01*
X6150D02*X7050D01*
X6150Y43800D02*Y42200D01*
Y43800D02*X7050D01*
X5750Y15150D02*X6850D01*
X5750Y17250D02*Y15150D01*
Y17250D02*X6850D01*
Y15150D01*
X4100Y9300D02*X7100D01*
X4100Y14800D02*X7100D01*
X4100D02*Y9300D01*
X7100Y14800D02*Y9300D01*
X9150Y15150D02*X10250D01*
X9150Y17250D02*Y15150D01*
Y17250D02*X10250D01*
Y15150D01*
X7550Y17000D02*Y15400D01*
Y17000D02*X8450D01*
Y15400D01*
X7550D02*X8450D01*
X7550Y19100D02*Y17500D01*
Y19100D02*X8450D01*
Y17500D01*
X7550D02*X8450D01*
X7500Y9300D02*X10500D01*
X7500Y14800D02*X10500D01*
X7500D02*Y9300D01*
X10500Y14800D02*Y9300D01*
X4150Y17000D02*Y15400D01*
Y17000D02*X5050D01*
Y15400D01*
X4150D02*X5050D01*
X650Y17000D02*Y15400D01*
Y17000D02*X1550D01*
Y15400D01*
X650D02*X1550D01*
X2350Y15150D02*X3450D01*
X2350Y17250D02*Y15150D01*
Y17250D02*X3450D01*
Y15150D01*
X2450Y19100D02*Y17500D01*
Y19100D02*X3350D01*
Y17500D01*
X2450D02*X3350D01*
X4150Y19100D02*Y17500D01*
Y19100D02*X5050D01*
Y17500D01*
X4150D02*X5050D01*
X650Y19100D02*Y17500D01*
Y19100D02*X1550D01*
Y17500D01*
X650D02*X1550D01*
X9550Y8750D02*X7000D01*
X9550D02*Y7800D01*
Y6450D02*Y5450D01*
X7000D01*
X6250Y6200D02*X7000Y5450D01*
Y8750D02*X6250Y8000D01*
Y7800D01*
Y6450D02*Y6200D01*
X6800Y8200D02*X7500D01*
X7150Y8500D02*Y7900D01*
X600Y9300D02*X3600D01*
X600Y14800D02*X3600D01*
X600D02*Y9300D01*
X3600Y14800D02*Y9300D01*
X1610Y162D02*X9484D01*
X1610Y4650D02*Y162D01*
Y4650D02*X9484D01*
Y162D01*
X650Y27800D02*Y26200D01*
Y27800D02*X1550D01*
Y26200D01*
X650D02*X1550D01*
X4200Y24450D02*X10400D01*
Y26500D02*Y24450D01*
X4200Y26500D02*X10400D01*
X4200D02*Y24450D01*
X8950Y28700D02*Y27100D01*
X8050D02*X8950D01*
X8050Y28700D02*Y27100D01*
Y28700D02*X8950D01*
X5050D02*Y27100D01*
Y28700D02*X5950D01*
Y27100D01*
X5050D02*X5950D01*
X7450Y28700D02*Y27100D01*
X6550D02*X7450D01*
X6550Y28700D02*Y27100D01*
Y28700D02*X7450D01*
X2450Y25600D02*Y24000D01*
Y25600D02*X3350D01*
Y24000D01*
X2450D02*X3350D01*
X650Y22300D02*Y20700D01*
Y22300D02*X1550D01*
Y20700D01*
X650D02*X1550D01*
X5850Y19100D02*Y17500D01*
Y19100D02*X6750D01*
Y17500D01*
X5850D02*X6750D01*
X650Y25600D02*Y24000D01*
Y25600D02*X1550D01*
Y24000D01*
X650D02*X1550D01*
X2200Y23150D02*Y21750D01*
Y21250D02*Y19850D01*
Y23150D02*X5800D01*
Y19850D01*
X2200D02*X5800D01*
X2200Y21250D02*G75*G03X2200Y21750I0J250D01*G01*
X2800Y29850D02*X4400D01*
Y28950D01*
X2800D02*X4400D01*
X2800Y29850D02*Y28950D01*
X2200Y29850D02*X600D01*
X2200Y28950D02*Y29850D01*
X600Y28950D02*X2200D01*
X600Y29850D02*Y28950D01*
X9250Y19100D02*Y17500D01*
Y19100D02*X10150D01*
Y17500D01*
X9250D02*X10150D01*
X9550Y28700D02*Y27100D01*
Y28700D02*X10450D01*
Y27100D01*
X9550D02*X10450D01*
X2800Y32850D02*X4400D01*
Y31950D01*
X2800D02*X4400D01*
X2800Y32850D02*Y31950D01*
X2200Y32850D02*X600D01*
X2200Y31950D02*Y32850D01*
X600Y31950D02*X2200D01*
X600Y32850D02*Y31950D01*
X2200Y31350D02*X600D01*
X2200Y30450D02*Y31350D01*
X600Y30450D02*X2200D01*
X600Y31350D02*Y30450D01*
X2800Y31350D02*X4400D01*
Y30450D01*
X2800D02*X4400D01*
X2800Y31350D02*Y30450D01*
X2200Y34350D02*X600D01*
X2200Y33450D02*Y34350D01*
X600Y33450D02*X2200D01*
X600Y34350D02*Y33450D01*
X4400Y34350D02*X2800D01*
X4400Y33450D02*Y34350D01*
X2800Y33450D02*X4400D01*
X2800Y34350D02*Y33450D01*
X6950Y32450D02*Y30500D01*
X7300Y30150D01*
X9250Y32450D02*Y30150D01*
X7300D02*X9250D01*
X6950Y32450D02*X9250D01*
X7300Y30400D02*G75*G03X7300Y30400I0J100D01*G01*
X7700Y33750D02*X9300D01*
X7700Y34650D02*Y33750D01*
Y34650D02*X9300D01*
Y33750D01*
X5150Y35200D02*Y33600D01*
Y35200D02*X6050D01*
Y33600D01*
X5150D02*X6050D01*
G54D44*X6600Y35650D02*X7200D01*
X6750Y36100D02*Y35500D01*
X6600Y36100D02*Y35500D01*
Y36100D02*X6800D01*
X7200Y35500D02*Y35700D01*
X6600Y35500D02*X7200D01*
G54D20*X6850Y35750D02*Y39450D01*
X10350D02*Y35750D01*
X6850D01*
Y39450D02*X10350D01*
G54D43*X400Y28400D02*X600D01*
X650Y28350D01*
Y28250D01*
X600Y28200D02*X650Y28250D01*
X450Y28200D02*X600D01*
X450Y28400D02*Y28000D01*
Y28200D02*X650Y28000D01*
X770Y28350D02*X820Y28400D01*
X970D01*
X1020Y28350D01*
Y28250D01*
X770Y28000D02*X1020Y28250D01*
X770Y28000D02*X1020D01*
X1140Y28350D02*X1190Y28400D01*
X1340D01*
X1390Y28350D01*
Y28250D01*
X1140Y28000D02*X1390Y28250D01*
X1140Y28000D02*X1390D01*
X10594Y27205D02*X10728D01*
X10550Y27249D02*X10594Y27205D01*
X10550Y27516D02*Y27249D01*
Y27516D02*X10594Y27561D01*
X10728D01*
X10834Y27383D02*X11012Y27561D01*
X10834Y27383D02*X11057D01*
X11012Y27561D02*Y27205D01*
X4100Y27100D02*Y27050D01*
X4350Y26800D01*
Y26700D01*
X4100Y26800D02*Y26700D01*
Y26800D02*X4350Y27050D01*
Y27100D02*Y27050D01*
X4520Y26700D02*X4620D01*
X4570Y27100D02*Y26700D01*
X4470Y27000D02*X4570Y27100D01*
X7744Y28855D02*X7878D01*
X7700Y28899D02*X7744Y28855D01*
X7700Y29166D02*Y28899D01*
Y29166D02*X7744Y29211D01*
X7878D01*
X8029Y28855D02*X8118D01*
X8073Y29211D02*Y28855D01*
X7984Y29122D02*X8073Y29211D01*
X5344Y28855D02*X5478D01*
X5300Y28899D02*X5344Y28855D01*
X5300Y29166D02*Y28899D01*
Y29166D02*X5344Y29211D01*
X5478D01*
X5584Y29166D02*X5629Y29211D01*
X5718D01*
X5762Y29166D01*
Y28899D01*
X5718Y28855D02*X5762Y28899D01*
X5629Y28855D02*X5718D01*
X5584Y28899D02*X5629Y28855D01*
Y29033D02*X5762D01*
X6544Y28855D02*X6678D01*
X6500Y28899D02*X6544Y28855D01*
X6500Y29166D02*Y28899D01*
Y29166D02*X6544Y29211D01*
X6678D01*
X6784Y29166D02*X6829Y29211D01*
X6962D01*
X7007Y29166D01*
Y29077D01*
X6784Y28855D02*X7007Y29077D01*
X6784Y28855D02*X7007D01*
X2100Y26200D02*X2300D01*
X2350Y26150D01*
Y26050D01*
X2300Y26000D02*X2350Y26050D01*
X2150Y26000D02*X2300D01*
X2150Y26200D02*Y25800D01*
Y26000D02*X2350Y25800D01*
X2620Y26200D02*X2670Y26150D01*
X2520Y26200D02*X2620D01*
X2470Y26150D02*X2520Y26200D01*
X2470Y26150D02*Y25850D01*
X2520Y25800D01*
X2620Y26000D02*X2670Y25950D01*
X2470Y26000D02*X2620D01*
X2520Y25800D02*X2620D01*
X2670Y25850D01*
Y25950D02*Y25850D01*
X600Y23750D02*X800D01*
X850Y23700D01*
Y23600D01*
X800Y23550D02*X850Y23600D01*
X650Y23550D02*X800D01*
X650Y23750D02*Y23350D01*
Y23550D02*X850Y23350D01*
X1020D02*X1120D01*
X1070Y23750D02*Y23350D01*
X970Y23650D02*X1070Y23750D01*
X1240Y23550D02*X1440Y23750D01*
X1240Y23550D02*X1490D01*
X1440Y23750D02*Y23350D01*
X3600Y23750D02*Y23400D01*
X3650Y23350D01*
X3750D01*
X3800Y23400D01*
Y23750D02*Y23400D01*
X3920Y23550D02*X4120Y23750D01*
X3920Y23550D02*X4170D01*
X4120Y23750D02*Y23350D01*
X9500Y29644D02*X9612D01*
X9556D02*Y29420D01*
X9707Y29644D02*Y29420D01*
X9679Y29644D02*X9791D01*
X9819Y29616D01*
Y29560D01*
X9791Y29532D02*X9819Y29560D01*
X9707Y29532D02*X9791D01*
X9914Y29420D02*X9970D01*
X9942Y29644D02*Y29420D01*
X9886Y29588D02*X9942Y29644D01*
X10650Y28744D02*X10762D01*
X10706D02*Y28520D01*
X10857Y28744D02*Y28520D01*
X10829Y28744D02*X10941D01*
X10969Y28716D01*
Y28660D01*
X10941Y28632D02*X10969Y28660D01*
X10857Y28632D02*X10941D01*
X11036Y28716D02*X11064Y28744D01*
X11148D01*
X11176Y28716D01*
Y28660D01*
X11036Y28520D02*X11176Y28660D01*
X11036Y28520D02*X11176D01*
X3639Y15628D02*Y15450D01*
Y15628D02*X3683Y15672D01*
X3772D01*
X3817Y15628D02*X3772Y15672D01*
X3817Y15628D02*Y15494D01*
X3639D02*X3995D01*
X3817D02*X3995Y15672D01*
Y15912D02*Y15823D01*
X3639Y15868D02*X3995D01*
X3728Y15779D02*X3639Y15868D01*
X3995Y16019D02*X3772Y16242D01*
X3639D02*X3772D01*
X3639D02*Y16019D01*
X5239Y15378D02*Y15200D01*
Y15378D02*X5283Y15422D01*
X5372D01*
X5417Y15378D02*X5372Y15422D01*
X5417Y15378D02*Y15244D01*
X5239D02*X5595D01*
X5417D02*X5595Y15422D01*
Y15662D02*Y15573D01*
X5239Y15618D02*X5595D01*
X5328Y15529D02*X5239Y15618D01*
X5550Y15769D02*X5595Y15814D01*
X5461Y15769D02*X5550D01*
X5461D02*X5417Y15814D01*
Y15903D02*Y15814D01*
Y15903D02*X5461Y15947D01*
X5550D01*
X5595Y15903D02*X5550Y15947D01*
X5595Y15903D02*Y15814D01*
X5372Y15769D02*X5417Y15814D01*
X5283Y15769D02*X5372D01*
X5283D02*X5239Y15814D01*
Y15903D02*Y15814D01*
Y15903D02*X5283Y15947D01*
X5372D01*
X5417Y15903D02*X5372Y15947D01*
X4250Y9050D02*Y8750D01*
Y9050D02*X4300Y9100D01*
X4400D01*
X4450Y9050D01*
Y8750D01*
X4400Y8700D02*X4450Y8750D01*
X4300Y8700D02*X4400D01*
X4250Y8750D02*X4300Y8700D01*
X4350Y8800D02*X4450Y8700D01*
X4570Y9050D02*X4620Y9100D01*
X4770D01*
X4820Y9050D01*
Y8950D01*
X4570Y8700D02*X4820Y8950D01*
X4570Y8700D02*X4820D01*
X3100Y4850D02*X3250D01*
X3050Y4900D02*X3100Y4850D01*
X3050Y5200D02*Y4900D01*
Y5200D02*X3100Y5250D01*
X3250D01*
X3370D02*Y4850D01*
Y5250D02*Y5200D01*
X3620Y4950D01*
Y5250D02*Y4850D01*
X3740Y5200D02*X3790Y5250D01*
X3940D01*
X3990Y5200D01*
Y5100D01*
X3740Y4850D02*X3990Y5100D01*
X3740Y4850D02*X3990D01*
X8639Y15378D02*Y15200D01*
Y15378D02*X8683Y15422D01*
X8772D01*
X8817Y15378D02*X8772Y15422D01*
X8817Y15378D02*Y15244D01*
X8639D02*X8995D01*
X8817D02*X8995Y15422D01*
Y15662D02*Y15573D01*
X8639Y15618D02*X8995D01*
X8728Y15529D02*X8639Y15618D01*
X8950Y15769D02*X8995Y15814D01*
X8683Y15769D02*X8950D01*
X8683D02*X8639Y15814D01*
Y15903D02*Y15814D01*
Y15903D02*X8683Y15947D01*
X8950D01*
X8995Y15903D02*X8950Y15947D01*
X8995Y15903D02*Y15814D01*
X8906Y15769D02*X8728Y15947D01*
X7039Y15578D02*Y15400D01*
Y15578D02*X7083Y15622D01*
X7172D01*
X7217Y15578D02*X7172Y15622D01*
X7217Y15578D02*Y15444D01*
X7039D02*X7395D01*
X7217D02*X7395Y15622D01*
Y15729D02*X7217Y15907D01*
X7083D02*X7217D01*
X7039Y15862D02*X7083Y15907D01*
X7039Y15862D02*Y15773D01*
X7083Y15729D02*X7039Y15773D01*
X7083Y15729D02*X7172D01*
X7217Y15773D01*
Y15907D02*Y15773D01*
X10000Y9050D02*Y8750D01*
Y9050D02*X10050Y9100D01*
X10150D01*
X10200Y9050D01*
Y8750D01*
X10150Y8700D02*X10200Y8750D01*
X10050Y8700D02*X10150D01*
X10000Y8750D02*X10050Y8700D01*
X10100Y8800D02*X10200Y8700D01*
X10370D02*X10470D01*
X10420Y9100D02*Y8700D01*
X10320Y9000D02*X10420Y9100D01*
X8739Y17728D02*Y17550D01*
Y17728D02*X8783Y17772D01*
X8872D01*
X8917Y17728D02*X8872Y17772D01*
X8917Y17728D02*Y17594D01*
X8739D02*X9095D01*
X8917D02*X9095Y17772D01*
X9050Y17879D02*X9095Y17923D01*
X8961Y17879D02*X9050D01*
X8961D02*X8917Y17923D01*
Y18012D02*Y17923D01*
Y18012D02*X8961Y18057D01*
X9050D01*
X9095Y18012D02*X9050Y18057D01*
X9095Y18012D02*Y17923D01*
X8872Y17879D02*X8917Y17923D01*
X8783Y17879D02*X8872D01*
X8783D02*X8739Y17923D01*
Y18012D02*Y17923D01*
Y18012D02*X8783Y18057D01*
X8872D01*
X8917Y18012D02*X8872Y18057D01*
X7039Y17728D02*Y17550D01*
Y17728D02*X7083Y17772D01*
X7172D01*
X7217Y17728D02*X7172Y17772D01*
X7217Y17728D02*Y17594D01*
X7039D02*X7395D01*
X7217D02*X7395Y17772D01*
Y17879D02*X7172Y18101D01*
X7039D02*X7172D01*
X7039D02*Y17879D01*
X3639Y17728D02*Y17550D01*
Y17728D02*X3683Y17772D01*
X3772D01*
X3817Y17728D02*X3772Y17772D01*
X3817Y17728D02*Y17594D01*
X3639D02*X3995D01*
X3817D02*X3995Y17772D01*
Y18012D02*Y17923D01*
X3639Y17968D02*X3995D01*
X3728Y17879D02*X3639Y17968D01*
Y18297D02*Y18119D01*
X3817D01*
X3772Y18164D01*
Y18253D02*Y18164D01*
Y18253D02*X3817Y18297D01*
X3950D01*
X3995Y18253D02*X3950Y18297D01*
X3995Y18253D02*Y18164D01*
X3950Y18119D02*X3995Y18164D01*
X500Y15272D02*X656D01*
X695Y15233D01*
Y15155D01*
X656Y15116D02*X695Y15155D01*
X539Y15116D02*X656D01*
X539Y15272D02*Y14960D01*
Y15116D02*X695Y14960D01*
X788Y15233D02*X827Y15272D01*
X944D01*
X983Y15233D01*
Y15155D01*
X788Y14960D02*X983Y15155D01*
X788Y14960D02*X983D01*
X1077Y15272D02*X1233D01*
X1077D02*Y15116D01*
X1116Y15155D01*
X1194D01*
X1233Y15116D01*
Y14999D01*
X1194Y14960D02*X1233Y14999D01*
X1116Y14960D02*X1194D01*
X1077Y14999D02*X1116Y14960D01*
X1839Y15428D02*Y15250D01*
Y15428D02*X1883Y15472D01*
X1972D01*
X2017Y15428D02*X1972Y15472D01*
X2017Y15428D02*Y15294D01*
X1839D02*X2195D01*
X2017D02*X2195Y15472D01*
X1883Y15579D02*X1839Y15623D01*
Y15757D02*Y15623D01*
Y15757D02*X1883Y15801D01*
X1972D01*
X2195Y15579D02*X1972Y15801D01*
X2195D02*Y15579D01*
X1839Y16042D02*X1883Y16086D01*
X1839Y16042D02*Y15953D01*
X1883Y15908D02*X1839Y15953D01*
X1883Y15908D02*X2150D01*
X2195Y15953D01*
X2017Y16042D02*X2061Y16086D01*
X2017Y16042D02*Y15908D01*
X2195Y16042D02*Y15953D01*
Y16042D02*X2150Y16086D01*
X2061D02*X2150D01*
X1939Y17728D02*Y17550D01*
Y17728D02*X1983Y17772D01*
X2072D01*
X2117Y17728D02*X2072Y17772D01*
X2117Y17728D02*Y17594D01*
X1939D02*X2295D01*
X2117D02*X2295Y17772D01*
X1983Y17879D02*X1939Y17923D01*
Y18057D02*Y17923D01*
Y18057D02*X1983Y18101D01*
X2072D01*
X2295Y17879D02*X2072Y18101D01*
X2295D02*Y17879D01*
X2117Y18208D02*X1939Y18386D01*
X2117Y18431D02*Y18208D01*
X1939Y18386D02*X2295D01*
X794Y20205D02*X928D01*
X750Y20249D02*X794Y20205D01*
X750Y20516D02*Y20249D01*
Y20516D02*X794Y20561D01*
X928D01*
X1079Y20205D02*X1168D01*
X1123Y20561D02*Y20205D01*
X1034Y20472D02*X1123Y20561D01*
X1275Y20249D02*X1319Y20205D01*
X1275Y20516D02*Y20249D01*
Y20516D02*X1319Y20561D01*
X1408D01*
X1453Y20516D01*
Y20249D01*
X1408Y20205D02*X1453Y20249D01*
X1319Y20205D02*X1408D01*
X1275Y20294D02*X1453Y20472D01*
X700Y9050D02*Y8750D01*
Y9050D02*X750Y9100D01*
X850D01*
X900Y9050D01*
Y8750D01*
X850Y8700D02*X900Y8750D01*
X750Y8700D02*X850D01*
X700Y8750D02*X750Y8700D01*
X800Y8800D02*X900Y8700D01*
X1020Y9050D02*X1070Y9100D01*
X1170D01*
X1220Y9050D01*
Y8750D01*
X1170Y8700D02*X1220Y8750D01*
X1070Y8700D02*X1170D01*
X1020Y8750D02*X1070Y8700D01*
Y8900D02*X1220D01*
X550Y19611D02*X728D01*
X772Y19566D01*
Y19477D01*
X728Y19433D02*X772Y19477D01*
X594Y19433D02*X728D01*
X594Y19611D02*Y19255D01*
Y19433D02*X772Y19255D01*
X879Y19566D02*X923Y19611D01*
X1057D01*
X1101Y19566D01*
Y19477D01*
X879Y19255D02*X1101Y19477D01*
X879Y19255D02*X1101D01*
X1208Y19566D02*X1253Y19611D01*
X1342D01*
X1386Y19566D01*
Y19299D01*
X1342Y19255D02*X1386Y19299D01*
X1253Y19255D02*X1342D01*
X1208Y19299D02*X1253Y19255D01*
Y19433D02*X1386D01*
X5339Y17728D02*Y17550D01*
Y17728D02*X5383Y17772D01*
X5472D01*
X5517Y17728D02*X5472Y17772D01*
X5517Y17728D02*Y17594D01*
X5339D02*X5695D01*
X5517D02*X5695Y17772D01*
Y18012D02*Y17923D01*
X5339Y17968D02*X5695D01*
X5428Y17879D02*X5339Y17968D01*
Y18253D02*X5383Y18297D01*
X5339Y18253D02*Y18164D01*
X5383Y18119D02*X5339Y18164D01*
X5383Y18119D02*X5650D01*
X5695Y18164D01*
X5517Y18253D02*X5561Y18297D01*
X5517Y18253D02*Y18119D01*
X5695Y18253D02*Y18164D01*
Y18253D02*X5650Y18297D01*
X5561D02*X5650D01*
X5750Y5300D02*X5900D01*
X5700Y5350D02*X5750Y5300D01*
X5700Y5650D02*Y5350D01*
Y5650D02*X5750Y5700D01*
X5900D01*
X6170D02*X6220Y5650D01*
X6070Y5700D02*X6170D01*
X6020Y5650D02*X6070Y5700D01*
X6020Y5650D02*Y5350D01*
X6070Y5300D01*
X6170Y5500D02*X6220Y5450D01*
X6020Y5500D02*X6170D01*
X6070Y5300D02*X6170D01*
X6220Y5350D01*
Y5450D02*Y5350D01*
X3900Y41344D02*X4012D01*
X3956D02*Y41120D01*
X4107Y41344D02*Y41120D01*
X4079Y41344D02*X4191D01*
X4219Y41316D01*
Y41260D01*
X4191Y41232D02*X4219Y41260D01*
X4107Y41232D02*X4191D01*
X4314Y41120D02*X4370D01*
X4342Y41344D02*Y41120D01*
X4286Y41288D02*X4342Y41344D01*
X4437Y41148D02*X4465Y41120D01*
X4437Y41316D02*Y41148D01*
Y41316D02*X4465Y41344D01*
X4521D01*
X4549Y41316D01*
Y41148D01*
X4521Y41120D02*X4549Y41148D01*
X4465Y41120D02*X4521D01*
X4437Y41176D02*X4549Y41288D01*
X4600Y38300D02*X4750D01*
Y37950D01*
X4700Y37900D02*X4750Y37950D01*
X4650Y37900D02*X4700D01*
X4600Y37950D02*X4650Y37900D01*
X4920D02*X5020D01*
X4970Y38300D02*Y37900D01*
X4870Y38200D02*X4970Y38300D01*
X650Y38050D02*X800D01*
X600Y38100D02*X650Y38050D01*
X600Y38400D02*Y38100D01*
Y38400D02*X650Y38450D01*
X800D01*
X920Y38050D02*X1170Y38300D01*
Y38450D02*Y38300D01*
X920Y38450D02*X1170D01*
X1600Y38700D02*Y38350D01*
X1650Y38300D01*
X1750D01*
X1800Y38350D01*
Y38700D02*Y38350D01*
X1920Y38650D02*X1970Y38700D01*
X2070D01*
X2120Y38650D01*
Y38350D01*
X2070Y38300D02*X2120Y38350D01*
X1970Y38300D02*X2070D01*
X1920Y38350D02*X1970Y38300D01*
Y38500D02*X2120D01*
X2100Y40900D02*X2300D01*
X2350Y40850D01*
Y40750D01*
X2300Y40700D02*X2350Y40750D01*
X2150Y40700D02*X2300D01*
X2150Y40900D02*Y40500D01*
Y40700D02*X2350Y40500D01*
X2470Y40850D02*X2520Y40900D01*
X2620D01*
X2670Y40850D01*
Y40550D01*
X2620Y40500D02*X2670Y40550D01*
X2520Y40500D02*X2620D01*
X2470Y40550D02*X2520Y40500D01*
Y40700D02*X2670D01*
X9950Y48044D02*X10062D01*
X10006D02*Y47820D01*
X10157Y48044D02*Y47820D01*
X10129Y48044D02*X10241D01*
X10269Y48016D01*
Y47960D01*
X10241Y47932D02*X10269Y47960D01*
X10157Y47932D02*X10241D01*
X10336Y47848D02*X10364Y47820D01*
X10336Y47904D02*Y47848D01*
Y47904D02*X10364Y47932D01*
X10420D01*
X10448Y47904D01*
Y47848D01*
X10420Y47820D02*X10448Y47848D01*
X10364Y47820D02*X10420D01*
X10336Y47960D02*X10364Y47932D01*
X10336Y48016D02*Y47960D01*
Y48016D02*X10364Y48044D01*
X10420D01*
X10448Y48016D01*
Y47960D01*
X10420Y47932D02*X10448Y47960D01*
X9950Y46094D02*X10062D01*
X10006D02*Y45870D01*
X10157Y46094D02*Y45870D01*
X10129Y46094D02*X10241D01*
X10269Y46066D01*
Y46010D01*
X10241Y45982D02*X10269Y46010D01*
X10157Y45982D02*X10241D01*
X10336Y45870D02*X10448Y45982D01*
Y46066D02*Y45982D01*
X10420Y46094D02*X10448Y46066D01*
X10364Y46094D02*X10420D01*
X10336Y46066D02*X10364Y46094D01*
X10336Y46066D02*Y46010D01*
X10364Y45982D01*
X10448D01*
X4500Y45100D02*Y44700D01*
X4700D01*
X4870Y45100D02*Y44700D01*
X5020Y45100D02*X5070Y45050D01*
Y44750D01*
X5020Y44700D02*X5070Y44750D01*
X4820Y44700D02*X5020D01*
X4820Y45100D02*X5020D01*
X5240Y44700D02*X5340D01*
X5290Y45100D02*Y44700D01*
X5190Y45000D02*X5290Y45100D01*
X9450Y44050D02*Y43650D01*
X9650D01*
X9820Y44050D02*Y43650D01*
X9970Y44050D02*X10020Y44000D01*
Y43700D01*
X9970Y43650D02*X10020Y43700D01*
X9770Y43650D02*X9970D01*
X9770Y44050D02*X9970D01*
X10140Y44000D02*X10190Y44050D01*
X10340D01*
X10390Y44000D01*
Y43900D01*
X10140Y43650D02*X10390Y43900D01*
X10140Y43650D02*X10390D01*
X1650Y45200D02*X1800D01*
X1600Y45250D02*X1650Y45200D01*
X1600Y45550D02*Y45250D01*
Y45550D02*X1650Y45600D01*
X1800D01*
X1920D02*Y45200D01*
Y45600D02*Y45550D01*
X2170Y45300D01*
Y45600D02*Y45200D01*
X2290Y45550D02*X2340Y45600D01*
X2440D01*
X2490Y45550D01*
Y45250D01*
X2440Y45200D02*X2490Y45250D01*
X2340Y45200D02*X2440D01*
X2290Y45250D02*X2340Y45200D01*
Y45400D02*X2490D01*
X7700Y44000D02*Y43650D01*
X7750Y43600D01*
X7850D01*
X7900Y43650D01*
Y44000D02*Y43650D01*
X8020Y43950D02*X8070Y44000D01*
X8220D01*
X8270Y43950D01*
Y43850D01*
X8020Y43600D02*X8270Y43850D01*
X8020Y43600D02*X8270D01*
X5400Y41150D02*X5550D01*
X5350Y41200D02*X5400Y41150D01*
X5350Y41500D02*Y41200D01*
Y41500D02*X5400Y41550D01*
X5550D01*
X5670Y41150D02*X5870Y41350D01*
Y41500D02*Y41350D01*
X5820Y41550D02*X5870Y41500D01*
X5720Y41550D02*X5820D01*
X5670Y41500D02*X5720Y41550D01*
X5670Y41500D02*Y41400D01*
X5720Y41350D01*
X5870D01*
X5550Y43150D02*X5700D01*
X5500Y43200D02*X5550Y43150D01*
X5500Y43500D02*Y43200D01*
Y43500D02*X5550Y43550D01*
X5700D01*
X5820Y43200D02*X5870Y43150D01*
X5820Y43300D02*Y43200D01*
Y43300D02*X5870Y43350D01*
X5970D01*
X6020Y43300D01*
Y43200D01*
X5970Y43150D02*X6020Y43200D01*
X5870Y43150D02*X5970D01*
X5820Y43400D02*X5870Y43350D01*
X5820Y43500D02*Y43400D01*
Y43500D02*X5870Y43550D01*
X5970D01*
X6020Y43500D01*
Y43400D01*
X5970Y43350D02*X6020Y43400D01*
X2850Y33361D02*X3028D01*
X3072Y33316D01*
Y33227D01*
X3028Y33183D02*X3072Y33227D01*
X2894Y33183D02*X3028D01*
X2894Y33361D02*Y33005D01*
Y33183D02*X3072Y33005D01*
X3223D02*X3312D01*
X3268Y33361D02*Y33005D01*
X3179Y33272D02*X3268Y33361D01*
X3419Y33005D02*X3597Y33183D01*
Y33316D02*Y33183D01*
X3553Y33361D02*X3597Y33316D01*
X3464Y33361D02*X3553D01*
X3419Y33316D02*X3464Y33361D01*
X3419Y33316D02*Y33227D01*
X3464Y33183D01*
X3597D01*
X650Y33361D02*X828D01*
X872Y33316D01*
Y33227D01*
X828Y33183D02*X872Y33227D01*
X694Y33183D02*X828D01*
X694Y33361D02*Y33005D01*
Y33183D02*X872Y33005D01*
X1023D02*X1112D01*
X1068Y33361D02*Y33005D01*
X979Y33272D02*X1068Y33361D01*
X1264Y33005D02*X1353D01*
X1308Y33361D02*Y33005D01*
X1219Y33272D02*X1308Y33361D01*
X650Y31861D02*X828D01*
X872Y31816D01*
Y31727D01*
X828Y31683D02*X872Y31727D01*
X694Y31683D02*X828D01*
X694Y31861D02*Y31505D01*
Y31683D02*X872Y31505D01*
X1023D02*X1112D01*
X1068Y31861D02*Y31505D01*
X979Y31772D02*X1068Y31861D01*
X1219Y31816D02*X1264Y31861D01*
X1397D01*
X1442Y31816D01*
Y31727D01*
X1219Y31505D02*X1442Y31727D01*
X1219Y31505D02*X1442D01*
X5900Y33200D02*Y32850D01*
X5950Y32800D01*
X6050D01*
X6100Y32850D01*
Y33200D02*Y32850D01*
X6270Y32800D02*X6370D01*
X6320Y33200D02*Y32800D01*
X6220Y33100D02*X6320Y33200D01*
X4500Y36361D02*X4678D01*
X4722Y36316D01*
Y36227D01*
X4678Y36183D02*X4722Y36227D01*
X4544Y36183D02*X4678D01*
X4544Y36361D02*Y36005D01*
Y36183D02*X4722Y36005D01*
X4829Y36316D02*X4873Y36361D01*
X5007D01*
X5051Y36316D01*
Y36227D01*
X4829Y36005D02*X5051Y36227D01*
X4829Y36005D02*X5051D01*
X7000Y34400D02*X7150D01*
X6950Y34450D02*X7000Y34400D01*
X6950Y34750D02*Y34450D01*
Y34750D02*X7000Y34800D01*
X7150D01*
X7270D02*X7470D01*
X7270D02*Y34600D01*
X7320Y34650D01*
X7420D01*
X7470Y34600D01*
Y34450D01*
X7420Y34400D02*X7470Y34450D01*
X7320Y34400D02*X7420D01*
X7270Y34450D02*X7320Y34400D01*
X4500Y34961D02*X4678D01*
X4722Y34916D01*
Y34827D01*
X4678Y34783D02*X4722Y34827D01*
X4544Y34783D02*X4678D01*
X4544Y34961D02*Y34605D01*
Y34783D02*X4722Y34605D01*
X4873D02*X4962D01*
X4918Y34961D02*Y34605D01*
X4829Y34872D02*X4918Y34961D01*
X7600Y35100D02*X7750D01*
X7550Y35150D02*X7600Y35100D01*
X7550Y35450D02*Y35150D01*
Y35450D02*X7600Y35500D01*
X7750D01*
X7870D02*Y35100D01*
Y35500D02*Y35450D01*
X8120Y35200D01*
Y35500D02*Y35100D01*
X8290D02*X8390D01*
X8340Y35500D02*Y35100D01*
X8240Y35400D02*X8340Y35500D01*
X2850Y30361D02*X3028D01*
X3072Y30316D01*
Y30227D01*
X3028Y30183D02*X3072Y30227D01*
X2894Y30183D02*X3028D01*
X2894Y30361D02*Y30005D01*
Y30183D02*X3072Y30005D01*
X3179Y30316D02*X3223Y30361D01*
X3357D01*
X3401Y30316D01*
Y30227D01*
X3179Y30005D02*X3401Y30227D01*
X3179Y30005D02*X3401D01*
X3553D02*X3642D01*
X3597Y30361D02*Y30005D01*
X3508Y30272D02*X3597Y30361D01*
X650Y34861D02*X828D01*
X872Y34816D01*
Y34727D01*
X828Y34683D02*X872Y34727D01*
X694Y34683D02*X828D01*
X694Y34861D02*Y34505D01*
Y34683D02*X872Y34505D01*
X979Y34683D02*X1157Y34861D01*
X979Y34683D02*X1201D01*
X1157Y34861D02*Y34505D01*
X2850Y31861D02*X3028D01*
X3072Y31816D01*
Y31727D01*
X3028Y31683D02*X3072Y31727D01*
X2894Y31683D02*X3028D01*
X2894Y31861D02*Y31505D01*
Y31683D02*X3072Y31505D01*
X3179Y31816D02*X3223Y31861D01*
X3357D01*
X3401Y31816D01*
Y31727D01*
X3179Y31505D02*X3401Y31727D01*
X3179Y31505D02*X3401D01*
X3508Y31549D02*X3553Y31505D01*
X3508Y31816D02*Y31549D01*
Y31816D02*X3553Y31861D01*
X3642D01*
X3686Y31816D01*
Y31549D01*
X3642Y31505D02*X3686Y31549D01*
X3553Y31505D02*X3642D01*
X3508Y31594D02*X3686Y31772D01*
X650Y30361D02*X828D01*
X872Y30316D01*
Y30227D01*
X828Y30183D02*X872Y30227D01*
X694Y30183D02*X828D01*
X694Y30361D02*Y30005D01*
Y30183D02*X872Y30005D01*
X1023D02*X1112D01*
X1068Y30361D02*Y30005D01*
X979Y30272D02*X1068Y30361D01*
X1219Y30316D02*X1264Y30361D01*
X1353D01*
X1397Y30316D01*
Y30049D01*
X1353Y30005D02*X1397Y30049D01*
X1264Y30005D02*X1353D01*
X1219Y30049D02*X1264Y30005D01*
Y30183D02*X1397D01*
X4600Y30544D02*X4712D01*
X4656D02*Y30320D01*
X4807Y30544D02*Y30320D01*
X4779Y30544D02*X4891D01*
X4919Y30516D01*
Y30460D01*
X4891Y30432D02*X4919Y30460D01*
X4807Y30432D02*X4891D01*
X4986Y30320D02*X5126Y30460D01*
Y30544D02*Y30460D01*
X4986Y30544D02*X5126D01*
X2850Y34861D02*X3028D01*
X3072Y34816D01*
Y34727D01*
X3028Y34683D02*X3072Y34727D01*
X2894Y34683D02*X3028D01*
X2894Y34861D02*Y34505D01*
Y34683D02*X3072Y34505D01*
X3179Y34861D02*X3357D01*
X3179D02*Y34683D01*
X3223Y34727D01*
X3312D01*
X3357Y34683D01*
Y34549D01*
X3312Y34505D02*X3357Y34549D01*
X3223Y34505D02*X3312D01*
X3179Y34549D02*X3223Y34505D01*
X10300Y32294D02*X10412D01*
X10356D02*Y32070D01*
X10507Y32294D02*Y32070D01*
X10479Y32294D02*X10591D01*
X10619Y32266D01*
Y32210D01*
X10591Y32182D02*X10619Y32210D01*
X10507Y32182D02*X10591D01*
X10686Y32294D02*X10798D01*
X10686D02*Y32182D01*
X10714Y32210D01*
X10770D01*
X10798Y32182D01*
Y32098D01*
X10770Y32070D02*X10798Y32098D01*
X10714Y32070D02*X10770D01*
X10686Y32098D02*X10714Y32070D01*
X10200Y30344D02*X10312D01*
X10256D02*Y30120D01*
X10407Y30344D02*Y30120D01*
X10379Y30344D02*X10491D01*
X10519Y30316D01*
Y30260D01*
X10491Y30232D02*X10519Y30260D01*
X10407Y30232D02*X10491D01*
X10586Y30316D02*X10614Y30344D01*
X10670D01*
X10698Y30316D01*
Y30148D01*
X10670Y30120D02*X10698Y30148D01*
X10614Y30120D02*X10670D01*
X10586Y30148D02*X10614Y30120D01*
Y30232D02*X10698D01*
X10550Y30644D02*X10662D01*
X10606D02*Y30420D01*
X10757Y30644D02*Y30420D01*
X10729Y30644D02*X10841D01*
X10869Y30616D01*
Y30560D01*
X10841Y30532D02*X10869Y30560D01*
X10757Y30532D02*X10841D01*
X10936D02*X11048Y30644D01*
X10936Y30532D02*X11076D01*
X11048Y30644D02*Y30420D01*
M02*
