M48
INCH
T20C0.015
T21C0.125
T42C0.059
%
T20
X008900Y035500
X004600Y033900
X002500Y034500
X004900Y035400
X004100Y034900
X003550Y037350
X002950Y037350
X005600Y037600
X006700Y020400
X009500Y019300
X009500Y019800
X009000Y016400
X007500Y019400
X009000Y016900
X005600Y016900
X005600Y016400
X004200Y019400
X002200Y016900
X002200Y016400
X002200Y019400
X009600Y023900
X009600Y024400
X003500Y021800
X003500Y021200
X004500Y021200
X001800Y013900
X001500Y012900
X001900Y013400
X001000Y012900
X000500Y012500
X000500Y012000
X009400Y005600
X009400Y006100
X003700Y045700
X004300Y045700
X000500Y046700
X010400Y046700
X008700Y044000
X007400Y043400
X007400Y042900
X006200Y045600
X005200Y040000
X005600Y042600
X005700Y045600
X000500Y047200
X010400Y047200
X009600Y042100
X009600Y041600
X002200Y025100
X002200Y028300
X002400Y027400
X002900Y026100
X002400Y030100
X003600Y028500
X008300Y031400
X007900Y030800
X005800Y030000
X005300Y030800
X005200Y029500
X007200Y031500
X006400Y034000
X007300Y034000
X008800Y030800
X008800Y031900
X004600Y032000
X002400Y032300
T42
X008500Y002800
X004563Y002800
X002594Y002800
X006531Y002800
T21
X002000Y006700
X008500Y021900
X002900Y043300
M30
