G04 start of page 4 for group 2 idx 6 *
G04 Title: LED driver v. 0.1, Outline *
G04 Creator: pcb 1.99x *
G04 CreationDate: Sun Jun 28 04:20:52 2009 UTC *
G04 For: davidellsworth *
G04 Format: Gerber/RS-274X *
G04 PCB-Dimensions: 113000 493000 *
G04 PCB-Coordinate-Origin: lower left *
%MOIN*%
%FSLAX24Y24*%
%LNOUTLINE*%
%ADD11C,0.0200*%
%ADD15C,0.0100*%
%ADD16C,0.0891*%
%ADD17C,0.0400*%
%ADD18C,0.2500*%
%ADD19C,0.0591*%
%ADD20C,0.0150*%
%ADD21C,0.1250*%
G54D15*X0Y49300D02*Y0D01*
X11300Y49300D02*Y0D01*
X0Y49300D02*X11300D01*
X0Y0D02*X11300D01*
G54D11*G36*
X8054Y3245D02*Y2354D01*
X8945D01*
Y3245D01*
X8054D01*
G37*
G54D16*X6531Y2800D03*
X4563D03*
X2594D03*
G54D17*X6700Y20400D03*
X9500Y19300D03*
Y19800D03*
X9000Y16400D03*
X7500Y19400D03*
X9000Y16900D03*
X5600D03*
Y16400D03*
X4200Y19400D03*
X2200Y16900D03*
Y16400D03*
Y19400D03*
X9600Y23900D03*
Y24400D03*
G54D18*X8500Y21900D03*
G54D17*X3500Y21800D03*
Y21200D03*
X4500D03*
X1800Y13900D03*
G54D18*X2000Y6700D03*
G54D17*X1500Y12900D03*
X1900Y13400D03*
X1000Y12900D03*
X500Y12500D03*
Y12000D03*
X9400Y5600D03*
Y6100D03*
G54D18*X2900Y43300D03*
G54D17*X3700Y45700D03*
X4300D03*
X500Y46700D03*
X10400D03*
X8700Y44000D03*
X7400Y43400D03*
Y42900D03*
X6200Y45600D03*
X5200Y40000D03*
X5600Y42600D03*
X5700Y45600D03*
X500Y47200D03*
X10400D03*
X9600Y42100D03*
Y41600D03*
X2200Y25100D03*
Y28300D03*
X2400Y27400D03*
X2900Y26100D03*
X2400Y30100D03*
X3600Y28500D03*
X8300Y31400D03*
X7900Y30800D03*
X5800Y30000D03*
X5300Y30800D03*
X5200Y29500D03*
X7200Y31500D03*
X6400Y34000D03*
X7300D03*
X8800Y30800D03*
Y31900D03*
X4600Y32000D03*
X2400Y32300D03*
X4600Y33900D03*
X2500Y34500D03*
X4900Y35400D03*
X4100Y34900D03*
X3550Y37350D03*
X2950D03*
X5600Y37600D03*
X8900Y35500D03*
G54D19*G54D20*G54D21*G54D20*G54D21*G54D20*G54D21*G54D20*M02*
