G04 start of page 9 for group -4015 idx -4015 *
G04 Title: (unknown), toppaste *
G04 Creator: pcb 1.99x *
G04 CreationDate: Fri Jun 26 13:02:34 2009 UTC *
G04 For: davidellsworth *
G04 Format: Gerber/RS-274X *
G04 PCB-Dimensions: 113000 493000 *
G04 PCB-Coordinate-Origin: lower left *
%MOIN*%
%FSLAX24Y24*%
%LNFRONTPASTE*%
%ADD22R,0.0250X0.0250*%
%ADD23R,0.0512X0.0512*%
%ADD24R,0.2200X0.2200*%
%ADD25R,0.0450X0.0450*%
%ADD26R,0.0950X0.0950*%
%ADD27R,0.0700X0.0700*%
%ADD28R,0.0200X0.0200*%
%ADD29C,0.0500*%
%ADD30R,0.1300X0.1300*%
%ADD31R,0.0500X0.0500*%
G54D23*X6560Y43377D02*X6639D01*
X6560Y42622D02*X6639D01*
X6560Y40522D02*X6639D01*
X6560Y41277D02*X6639D01*
G54D31*X7600Y38950D02*Y38000D01*
X8600Y38950D02*Y38000D01*
X7600Y37200D02*Y36250D01*
X8600Y37200D02*Y36250D01*
X9600Y38950D02*Y38000D01*
Y37200D02*Y36250D01*
G54D29*X10600Y31000D03*
Y29800D03*
G54D22*X8000Y43150D02*Y42650D01*
X8500Y43150D02*Y42650D01*
X9000Y43150D02*Y42650D01*
X9500Y43150D02*Y42650D01*
X8500Y41100D02*Y40450D01*
X9000Y41100D02*Y40450D01*
X9500Y41100D02*Y40450D01*
X8000Y41100D02*Y40450D01*
G54D29*X10600Y31700D03*
Y29100D03*
X9800D03*
X4400Y40800D03*
G54D23*X4560Y15822D02*X4639D01*
X4560Y16577D02*X4639D01*
X5560Y38322D02*X5639D01*
X5560Y39077D02*X5639D01*
X1260Y37377D02*X1339D01*
X1260Y36622D02*X1339D01*
X6181Y16815D02*X6418D01*
X6181Y15584D02*X6418D01*
X1160Y17922D02*X1239D01*
X1160Y18677D02*X1239D01*
X1060Y15822D02*X1139D01*
X1060Y16577D02*X1139D01*
X1060Y26622D02*X1139D01*
X1060Y27377D02*X1139D01*
X9581Y16815D02*X9818D01*
X9581Y15584D02*X9818D01*
X9660Y17922D02*X9739D01*
X9660Y18677D02*X9739D01*
X3222Y32439D02*Y32360D01*
X3977Y32439D02*Y32360D01*
X9960Y27522D02*X10039D01*
X9960Y28277D02*X10039D01*
G54D27*X8400Y25450D02*X9900D01*
X4700D02*X6200D01*
G54D23*X8460Y28277D02*X8539D01*
X8460Y27522D02*X8539D01*
G54D28*X6997Y29846D02*Y29446D01*
X7312Y29846D02*Y29446D01*
X7627Y29846D02*Y29446D01*
X7942Y29846D02*Y29446D01*
X8257Y29846D02*Y29446D01*
X8572Y29846D02*Y29446D01*
X8887Y29846D02*Y29446D01*
X9202Y29846D02*Y29446D01*
X9553Y30197D02*X9953D01*
X9553Y30512D02*X9953D01*
X9553Y30827D02*X9953D01*
X9553Y31142D02*X9953D01*
X9553Y31457D02*X9953D01*
X9553Y31772D02*X9953D01*
X9553Y32087D02*X9953D01*
X9553Y32402D02*X9953D01*
X9202Y33153D02*Y32753D01*
X8887Y33153D02*Y32753D01*
X8572Y33153D02*Y32753D01*
X8257Y33153D02*Y32753D01*
X7942Y33153D02*Y32753D01*
X7627Y33153D02*Y32753D01*
X7312Y33153D02*Y32753D01*
X6997Y33153D02*Y32753D01*
X6246Y32402D02*X6646D01*
X6246Y32087D02*X6646D01*
X6246Y31772D02*X6646D01*
X6246Y31457D02*X6646D01*
X6246Y31142D02*X6646D01*
X6246Y30827D02*X6646D01*
X6246Y30512D02*X6646D01*
X6246Y30197D02*X6646D01*
G54D22*X2550Y38350D02*Y37850D01*
X3050Y38350D02*Y37850D01*
X3550Y38350D02*Y37850D01*
X4050Y38350D02*Y37850D01*
X3050Y36300D02*Y35650D01*
X3550Y36300D02*Y35650D01*
X4050Y36300D02*Y35650D01*
X2550Y36300D02*Y35650D01*
G54D23*X7960Y15822D02*X8039D01*
X7960Y16577D02*X8039D01*
X2781Y16815D02*X3018D01*
X2781Y15584D02*X3018D01*
X7960Y17922D02*X8039D01*
X7960Y18677D02*X8039D01*
G54D24*X5600Y11400D02*Y10700D01*
G54D25*X6475Y14275D02*Y13775D01*
X4725Y14275D02*Y13775D01*
G54D29*X9600Y45900D03*
G54D23*X1022Y32439D02*Y32360D01*
X1777Y32439D02*Y32360D01*
X2860Y17922D02*X2939D01*
X2860Y18677D02*X2939D01*
G54D29*X9600Y47900D03*
G54D23*X1022Y30939D02*Y30860D01*
X1777Y30939D02*Y30860D01*
X5460Y27522D02*X5539D01*
X5460Y28277D02*X5539D01*
X2860Y24422D02*X2939D01*
X2860Y25177D02*X2939D01*
X3222Y30939D02*Y30860D01*
X3977Y30939D02*Y30860D01*
X1060Y21122D02*X1139D01*
X1060Y21877D02*X1139D01*
X6260Y17922D02*X6339D01*
X6260Y18677D02*X6339D01*
X5560Y36122D02*X5639D01*
X5560Y36877D02*X5639D01*
X5967Y44884D02*Y44648D01*
X7198Y44884D02*Y44648D01*
X8877Y34239D02*Y34160D01*
X8122Y34239D02*Y34160D01*
X8667Y44884D02*Y44648D01*
X9898Y44884D02*Y44648D01*
G54D26*X6025Y7125D02*X7025D01*
X8775D02*X9775D01*
G54D23*X5560Y34022D02*X5639D01*
X5560Y34777D02*X5639D01*
X3222Y29439D02*Y29360D01*
X3977Y29439D02*Y29360D01*
X1022Y33939D02*Y33860D01*
X1777Y33939D02*Y33860D01*
X1022Y29439D02*Y29360D01*
X1777Y29439D02*Y29360D01*
G54D30*X8100Y48550D02*Y46850D01*
X6100Y48550D02*Y46850D01*
X4100Y48550D02*Y46850D01*
X2100Y48550D02*Y46850D01*
G54D24*Y11400D02*Y10700D01*
G54D25*X2975Y14275D02*Y13775D01*
X1225Y14275D02*Y13775D01*
G54D24*X9000Y11400D02*Y10700D01*
G54D25*X9875Y14275D02*Y13775D01*
X8125Y14275D02*Y13775D01*
G54D23*X4560Y17922D02*X4639D01*
X4560Y18677D02*X4639D01*
X6960Y28277D02*X7039D01*
X6960Y27522D02*X7039D01*
X3715Y39918D02*Y39681D01*
X2484Y39918D02*Y39681D01*
X1060Y24422D02*X1139D01*
X1060Y25177D02*X1139D01*
G54D22*X2500Y22850D02*Y22350D01*
X3000Y22850D02*Y22350D01*
X3500Y22850D02*Y22350D01*
X4000Y22850D02*Y22350D01*
X4500Y22850D02*Y22350D01*
X5000Y22850D02*Y22350D01*
X5500Y22850D02*Y22350D01*
Y20800D02*Y20150D01*
X5000Y20800D02*Y20150D01*
X4500Y20800D02*Y20150D01*
X4000Y20800D02*Y20150D01*
X3500Y20800D02*Y20150D01*
X3000Y20800D02*Y20150D01*
X2500Y20800D02*Y20150D01*
G54D29*X4800Y30000D03*
G54D23*X3222Y33939D02*Y33860D01*
X3977Y33939D02*Y33860D01*
M02*
