G04 start of page 8 for group -4079 idx -4079 *
G04 Title: LED carrier v. 0.1, topsilk *
G04 Creator: pcb 1.99x *
G04 CreationDate: Sat Jul 25 11:21:37 2009 UTC *
G04 For: davidellsworth *
G04 Format: Gerber/RS-274X *
G04 PCB-Dimensions: 120000 122000 *
G04 PCB-Coordinate-Origin: lower left *
%MOIN*%
%FSLAX24Y24*%
%LNFRONTSILK*%
%ADD16C,0.0150*%
%ADD30C,0.0070*%
G54D30*X11051Y3000D02*X11655D01*
Y3302D02*Y3000D01*
X11353Y3709D02*Y3483D01*
X11655Y3785D02*Y3483D01*
X11051D02*X11655D01*
X11051Y3785D02*Y3483D01*
Y4042D02*X11655D01*
X11051Y4268D02*X11126Y4344D01*
X11579D01*
X11655Y4268D02*X11579Y4344D01*
X11655Y4268D02*Y3966D01*
X11051Y4268D02*Y3966D01*
X11353Y5099D02*Y4872D01*
X11428Y4797D02*X11353Y4872D01*
X11428Y4797D02*X11579D01*
X11655Y4872D01*
Y5099D02*Y4872D01*
X11353Y5507D02*X11428Y5582D01*
X11353Y5507D02*Y5356D01*
X11428Y5280D02*X11353Y5356D01*
X11428Y5280D02*X11579D01*
X11655Y5356D01*
X11353Y5582D02*X11579D01*
X11655Y5658D01*
Y5507D02*Y5356D01*
Y5507D02*X11579Y5582D01*
X11428Y5915D02*X11655D01*
X11428D02*X11353Y5990D01*
Y6141D02*Y5990D01*
Y5839D02*X11428Y5915D01*
Y6398D02*X11655D01*
X11428D02*X11353Y6473D01*
Y6624D02*Y6473D01*
Y6322D02*X11428Y6398D01*
X11202Y6806D02*X11277D01*
X11428D02*X11655D01*
Y7259D02*Y7032D01*
X11579Y6957D02*X11655Y7032D01*
X11428Y6957D02*X11579D01*
X11428D02*X11353Y7032D01*
Y7183D02*Y7032D01*
Y7183D02*X11428Y7259D01*
X11504D02*Y6957D01*
X11428Y7259D02*X11504D01*
X11428Y7516D02*X11655D01*
X11428D02*X11353Y7591D01*
Y7742D02*Y7591D01*
Y7440D02*X11428Y7516D01*
X11353Y8195D02*X11504D01*
X11655Y8346D01*
X11504Y8497D01*
X11353D02*X11504D01*
X11655Y8754D02*Y8679D01*
Y9434D02*Y9283D01*
X11051Y9358D02*X11655D01*
X11202Y9207D02*X11051Y9358D01*
X11655Y9691D02*Y9615D01*
X11579Y9872D02*X11655Y9948D01*
X11126Y9872D02*X11579D01*
X11126D02*X11051Y9948D01*
Y10099D02*Y9948D01*
Y10099D02*X11126Y10174D01*
X11579D01*
X11655Y10099D02*X11579Y10174D01*
X11655Y10099D02*Y9948D01*
X11504Y9872D02*X11202Y10174D01*
X8600Y2897D02*X8902D01*
X8751Y3048D02*Y2746D01*
X6200Y3104D02*X6392D01*
X6440Y3056D01*
Y2960D01*
X6392Y2912D02*X6440Y2960D01*
X6248Y2912D02*X6392D01*
X6248Y3104D02*Y2720D01*
Y2912D02*X6440Y2720D01*
X4442Y3104D02*X4490Y3056D01*
X4298Y3104D02*X4442D01*
X4250Y3056D02*X4298Y3104D01*
X4250Y3056D02*Y2768D01*
X4298Y2720D01*
X4442D01*
X4490Y2768D01*
Y2864D02*Y2768D01*
X4442Y2912D02*X4490Y2864D01*
X4346Y2912D02*X4442D01*
X2250Y2720D02*X2442D01*
X2490Y2768D01*
Y2864D02*Y2768D01*
X2442Y2912D02*X2490Y2864D01*
X2298Y2912D02*X2442D01*
X2298Y3104D02*Y2720D01*
X2250Y3104D02*X2442D01*
X2490Y3056D01*
Y2960D01*
X2442Y2912D02*X2490Y2960D01*
G54D16*X550Y100D02*Y3300D01*
X600D02*X8450D01*
Y100D01*
G54D30*X1970Y4530D02*X2640D01*
X2460Y6510D02*X2730D01*
X1870D02*X2140D01*
X1600Y6170D02*Y4820D01*
X2990Y6170D02*Y4820D01*
X5560Y9570D02*X6230D01*
X5470Y7590D02*X5740D01*
X6060D02*X6330D01*
X6600Y9280D02*Y7930D01*
X5210Y9280D02*Y7930D01*
X6770Y4530D02*X7440D01*
X7260Y6510D02*X7530D01*
X6670D02*X6940D01*
X6400Y6170D02*Y4820D01*
X7790Y6170D02*Y4820D01*
X4370Y4530D02*X5040D01*
X4860Y6510D02*X5130D01*
X4270D02*X4540D01*
X4000Y6170D02*Y4820D01*
X5390Y6170D02*Y4820D01*
X9170Y4530D02*X9840D01*
X9660Y6510D02*X9930D01*
X9070D02*X9340D01*
X8800Y6170D02*Y4820D01*
X10190Y6170D02*Y4820D01*
X3160Y9570D02*X3830D01*
X3070Y7590D02*X3340D01*
X3660D02*X3930D01*
X4200Y9280D02*Y7930D01*
X2810Y9280D02*Y7930D01*
X7960Y9570D02*X8630D01*
X7870Y7590D02*X8140D01*
X8460D02*X8730D01*
X9000Y9280D02*Y7930D01*
X7610Y9280D02*Y7930D01*
X550Y3600D02*X700D01*
X500Y3650D02*X550Y3600D01*
X500Y3950D02*Y3650D01*
Y3950D02*X550Y4000D01*
X700D01*
X820D02*Y3600D01*
Y4000D02*Y3950D01*
X1070Y3700D01*
Y4000D02*Y3600D01*
X1240D02*X1340D01*
X1290Y4000D02*Y3600D01*
X1190Y3900D02*X1290Y4000D01*
X4200Y4400D02*Y4000D01*
X4400D01*
X4570Y4400D02*Y4000D01*
X4720Y4400D02*X4770Y4350D01*
Y4050D01*
X4720Y4000D02*X4770Y4050D01*
X4520Y4000D02*X4720D01*
X4520Y4400D02*X4720D01*
X4890Y4000D02*X5140Y4250D01*
Y4400D02*Y4250D01*
X4890Y4400D02*X5140D01*
X1800D02*Y4000D01*
X2000D01*
X2170Y4400D02*Y4000D01*
X2320Y4400D02*X2370Y4350D01*
Y4050D01*
X2320Y4000D02*X2370Y4050D01*
X2120Y4000D02*X2320D01*
X2120Y4400D02*X2320D01*
X2490Y4350D02*X2540Y4400D01*
X2690D01*
X2740Y4350D01*
Y4250D01*
X2490Y4000D02*X2740Y4250D01*
X2490Y4000D02*X2740D01*
X3000Y10200D02*Y9800D01*
X3200D01*
X3370Y10200D02*Y9800D01*
X3520Y10200D02*X3570Y10150D01*
Y9850D01*
X3520Y9800D02*X3570Y9850D01*
X3320Y9800D02*X3520D01*
X3320Y10200D02*X3520D01*
X3690Y10000D02*X3890Y10200D01*
X3690Y10000D02*X3940D01*
X3890Y10200D02*Y9800D01*
X5400Y10200D02*Y9800D01*
X5600D01*
X5770Y10200D02*Y9800D01*
X5920Y10200D02*X5970Y10150D01*
Y9850D01*
X5920Y9800D02*X5970Y9850D01*
X5720Y9800D02*X5920D01*
X5720Y10200D02*X5920D01*
X6140Y9800D02*X6240D01*
X6190Y10200D02*Y9800D01*
X6090Y10100D02*X6190Y10200D01*
X6500Y4400D02*Y4000D01*
X6700D01*
X6870Y4400D02*Y4000D01*
X7020Y4400D02*X7070Y4350D01*
Y4050D01*
X7020Y4000D02*X7070Y4050D01*
X6820Y4000D02*X7020D01*
X6820Y4400D02*X7020D01*
X7190D02*X7390D01*
X7190D02*Y4200D01*
X7240Y4250D01*
X7340D01*
X7390Y4200D01*
Y4050D01*
X7340Y4000D02*X7390Y4050D01*
X7240Y4000D02*X7340D01*
X7190Y4050D02*X7240Y4000D01*
X9000Y4400D02*Y4000D01*
X9200D01*
X9370Y4400D02*Y4000D01*
X9520Y4400D02*X9570Y4350D01*
Y4050D01*
X9520Y4000D02*X9570Y4050D01*
X9320Y4000D02*X9520D01*
X9320Y4400D02*X9520D01*
X9690Y4350D02*X9740Y4400D01*
X9840D01*
X9890Y4350D01*
Y4050D01*
X9840Y4000D02*X9890Y4050D01*
X9740Y4000D02*X9840D01*
X9690Y4050D02*X9740Y4000D01*
Y4200D02*X9890D01*
X7800Y10200D02*Y9800D01*
X8000D01*
X8170Y10200D02*Y9800D01*
X8320Y10200D02*X8370Y10150D01*
Y9850D01*
X8320Y9800D02*X8370Y9850D01*
X8120Y9800D02*X8320D01*
X8120Y10200D02*X8320D01*
X8640D02*X8690Y10150D01*
X8540Y10200D02*X8640D01*
X8490Y10150D02*X8540Y10200D01*
X8490Y10150D02*Y9850D01*
X8540Y9800D01*
X8640Y10000D02*X8690Y9950D01*
X8490Y10000D02*X8640D01*
X8540Y9800D02*X8640D01*
X8690Y9850D01*
Y9950D02*Y9850D01*
M02*
