G04 start of page 10 for group -3984 idx -3984 *
G04 Title: LED carrier v. 0.1, fab *
G04 Creator: pcb 1.99x *
G04 CreationDate: Sat Jul 25 11:21:37 2009 UTC *
G04 For: davidellsworth *
G04 Format: Gerber/RS-274X *
G04 PCB-Dimensions: 120000 122000 *
G04 PCB-Coordinate-Origin: lower left *
%MOIN*%
%FSLAX24Y24*%
%LNFAB*%
%ADD21C,0.0080*%
%ADD25C,0.0100*%
%ADD31C,0.0060*%
G54D21*X9980Y1720D02*X10220Y1480D01*
X9980D02*X10220Y1720D01*
X1480Y10720D02*X1720Y10480D01*
X1480D02*X1720Y10720D01*
X1380Y14945D02*X1620Y14705D01*
X1380D02*X1620Y14945D01*
G54D31*X13500Y15050D02*Y14975D01*
X13650Y14825D01*
X13800Y14975D01*
Y15050D02*Y14975D01*
X13650Y14825D02*Y14450D01*
X13980Y14750D02*X14205D01*
X13980Y14450D02*X14280D01*
X13980Y15050D02*Y14450D01*
Y15050D02*X14280D01*
X14760D02*X14835Y14975D01*
X14535Y15050D02*X14760D01*
X14460Y14975D02*X14535Y15050D01*
X14460Y14975D02*Y14825D01*
X14535Y14750D01*
X14760D01*
X14835Y14675D01*
Y14525D01*
X14760Y14450D02*X14835Y14525D01*
X14535Y14450D02*X14760D01*
X14460Y14525D02*X14535Y14450D01*
X13500Y14124D02*X15015D01*
X9800Y14975D02*X9875Y15050D01*
X10100D01*
X10175Y14975D01*
Y14825D01*
X9800Y14450D02*X10175Y14825D01*
X9800Y14450D02*X10175D01*
X9800Y14124D02*X10355D01*
X4500Y14525D02*X4575Y14450D01*
X4500Y14975D02*Y14525D01*
Y14975D02*X4575Y15050D01*
X4725D01*
X4800Y14975D01*
Y14525D01*
X4725Y14450D02*X4800Y14525D01*
X4575Y14450D02*X4725D01*
X4500Y14600D02*X4800Y14900D01*
X4980Y14450D02*X5055D01*
X5310D02*X5460D01*
X5385Y15050D02*Y14450D01*
X5235Y14900D02*X5385Y15050D01*
X5640Y14975D02*X5715Y15050D01*
X5940D01*
X6015Y14975D01*
Y14825D01*
X5640Y14450D02*X6015Y14825D01*
X5640Y14450D02*X6015D01*
X6195Y15050D02*X6495D01*
X6195D02*Y14750D01*
X6270Y14825D01*
X6420D01*
X6495Y14750D01*
Y14525D01*
X6420Y14450D02*X6495Y14525D01*
X6270Y14450D02*X6420D01*
X6195Y14525D02*X6270Y14450D01*
X4500Y14124D02*X6675D01*
X5699Y6630D02*Y6310D01*
X5539Y6470D02*X5859D01*
X5449Y6920D02*Y6600D01*
X5289Y6760D02*X5609D01*
X6200Y7260D02*Y6940D01*
X6040Y7100D02*X6360D01*
X6250Y11510D02*Y11190D01*
X6090Y11350D02*X6410D01*
X8450Y3310D02*Y2990D01*
X8290Y3150D02*X8610D01*
X1759Y5550D02*Y5230D01*
X1599Y5390D02*X1919D01*
X2380Y7429D02*Y7109D01*
X2220Y7269D02*X2540D01*
X3699Y6630D02*Y6310D01*
X3539Y6470D02*X3859D01*
X3949Y6920D02*Y6600D01*
X3789Y6760D02*X4109D01*
X3500Y5910D02*Y5590D01*
X3340Y5750D02*X3660D01*
X3500Y5310D02*Y4990D01*
X3340Y5150D02*X3660D01*
X3500Y6310D02*Y5990D01*
X3340Y6150D02*X3660D01*
X2550Y3860D02*Y3540D01*
X2390Y3700D02*X2710D01*
X4329Y6820D02*Y6500D01*
X4169Y6660D02*X4489D01*
X3859Y6220D02*Y5900D01*
X3699Y6060D02*X4019D01*
X1299Y6630D02*Y6310D01*
X1139Y6470D02*X1459D01*
X10760Y6409D02*Y6089D01*
X10600Y6249D02*X10920D01*
X3859Y5860D02*Y5540D01*
X3699Y5700D02*X4019D01*
X3809Y5490D02*Y5170D01*
X3649Y5330D02*X3969D01*
X4159Y5550D02*Y5230D01*
X3999Y5390D02*X4319D01*
X4519Y5550D02*Y5230D01*
X4359Y5390D02*X4679D01*
X1459Y6220D02*Y5900D01*
X1299Y6060D02*X1619D01*
X1139Y6040D02*Y5720D01*
X979Y5880D02*X1299D01*
X1089Y5680D02*Y5360D01*
X929Y5520D02*X1249D01*
X4699Y6720D02*Y6400D01*
X4539Y6560D02*X4859D01*
X5059Y6820D02*Y6500D01*
X4899Y6660D02*X5219D01*
X1459Y5860D02*Y5540D01*
X1299Y5700D02*X1619D01*
X1409Y5490D02*Y5170D01*
X1249Y5330D02*X1569D01*
X5529Y6220D02*Y5900D01*
X5369Y6060D02*X5689D01*
X5529Y5860D02*Y5540D01*
X5369Y5700D02*X5689D01*
X5579Y5490D02*Y5170D01*
X5419Y5330D02*X5739D01*
X5229Y5550D02*Y5230D01*
X5069Y5390D02*X5389D01*
X7350Y3910D02*Y3590D01*
X7190Y3750D02*X7510D01*
X4950Y3910D02*Y3590D01*
X4790Y3750D02*X5110D01*
X2050Y4010D02*Y3690D01*
X1890Y3850D02*X2210D01*
X9750Y4010D02*Y3690D01*
X9590Y3850D02*X9910D01*
X9560Y8010D02*Y7690D01*
X9400Y7850D02*X9720D01*
X2000Y7660D02*Y7340D01*
X1840Y7500D02*X2160D01*
X1650Y7310D02*Y6990D01*
X1490Y7150D02*X1810D01*
X9800Y7660D02*Y7340D01*
X9640Y7500D02*X9960D01*
X10150Y7310D02*Y6990D01*
X9990Y7150D02*X10310D01*
X10669Y6990D02*Y6670D01*
X10509Y6830D02*X10829D01*
X9500Y7410D02*Y7090D01*
X9340Y7250D02*X9660D01*
X2239Y8010D02*Y7690D01*
X2079Y7850D02*X2399D01*
X9510Y9109D02*Y8789D01*
X9350Y8949D02*X9670D01*
X9510Y8739D02*Y8419D01*
X9350Y8579D02*X9670D01*
X9460Y8379D02*Y8059D01*
X9300Y8219D02*X9620D01*
X10699Y5680D02*Y5360D01*
X10539Y5520D02*X10859D01*
X10649Y6040D02*Y5720D01*
X10489Y5880D02*X10809D01*
X10699Y5310D02*Y4990D01*
X10539Y5150D02*X10859D01*
X9750Y7160D02*Y6840D01*
X9590Y7000D02*X9910D01*
X9200Y7160D02*Y6840D01*
X9040Y7000D02*X9360D01*
X8300Y6960D02*Y6640D01*
X8140Y6800D02*X8460D01*
X9669Y5550D02*Y5230D01*
X9509Y5390D02*X9829D01*
X10029Y5550D02*Y5230D01*
X9869Y5390D02*X10189D01*
X10379Y5490D02*Y5170D01*
X10219Y5330D02*X10539D01*
X10329Y5860D02*Y5540D01*
X10169Y5700D02*X10489D01*
X10329Y6220D02*Y5900D01*
X10169Y6060D02*X10489D01*
X9859Y6820D02*Y6500D01*
X9699Y6660D02*X10019D01*
X9499Y6720D02*Y6400D01*
X9339Y6560D02*X9659D01*
X9319Y5550D02*Y5230D01*
X9159Y5390D02*X9479D01*
X8959Y5550D02*Y5230D01*
X8799Y5390D02*X9119D01*
X8609Y5490D02*Y5170D01*
X8449Y5330D02*X8769D01*
X8659Y5860D02*Y5540D01*
X8499Y5700D02*X8819D01*
X8659Y6220D02*Y5900D01*
X8499Y6060D02*X8819D01*
X9129Y6820D02*Y6500D01*
X8969Y6660D02*X9289D01*
X8300Y6310D02*Y5990D01*
X8140Y6150D02*X8460D01*
X8300Y5310D02*Y4990D01*
X8140Y5150D02*X8460D01*
X8300Y5910D02*Y5590D01*
X8140Y5750D02*X8460D01*
X8749Y6920D02*Y6600D01*
X8589Y6760D02*X8909D01*
X8499Y6630D02*Y6310D01*
X8339Y6470D02*X8659D01*
X10249Y6920D02*Y6600D01*
X10089Y6760D02*X10409D01*
X10499Y6630D02*Y6310D01*
X10339Y6470D02*X10659D01*
X7350Y7160D02*Y6840D01*
X7190Y7000D02*X7510D01*
X6800Y7160D02*Y6840D01*
X6640Y7000D02*X6960D01*
X5900Y6960D02*Y6640D01*
X5740Y6800D02*X6060D01*
X7269Y5550D02*Y5230D01*
X7109Y5390D02*X7429D01*
X7629Y5550D02*Y5230D01*
X7469Y5390D02*X7789D01*
X7979Y5490D02*Y5170D01*
X7819Y5330D02*X8139D01*
X7929Y5860D02*Y5540D01*
X7769Y5700D02*X8089D01*
X7929Y6220D02*Y5900D01*
X7769Y6060D02*X8089D01*
X7459Y6820D02*Y6500D01*
X7299Y6660D02*X7619D01*
X7099Y6720D02*Y6400D01*
X6939Y6560D02*X7259D01*
X6919Y5550D02*Y5230D01*
X6759Y5390D02*X7079D01*
X6559Y5550D02*Y5230D01*
X6399Y5390D02*X6719D01*
X6209Y5490D02*Y5170D01*
X6049Y5330D02*X6369D01*
X6259Y5860D02*Y5540D01*
X6099Y5700D02*X6419D01*
X6259Y6220D02*Y5900D01*
X6099Y6060D02*X6419D01*
X6729Y6820D02*Y6500D01*
X6569Y6660D02*X6889D01*
X5900Y6310D02*Y5990D01*
X5740Y6150D02*X6060D01*
X5900Y5310D02*Y4990D01*
X5740Y5150D02*X6060D01*
X5900Y5910D02*Y5590D01*
X5740Y5750D02*X6060D01*
X6349Y6920D02*Y6600D01*
X6189Y6760D02*X6509D01*
X6099Y6630D02*Y6310D01*
X5939Y6470D02*X6259D01*
X7849Y6920D02*Y6600D01*
X7689Y6760D02*X8009D01*
X8099Y6630D02*Y6310D01*
X7939Y6470D02*X8259D01*
X7100Y9110D02*Y8790D01*
X6940Y8950D02*X7260D01*
X7100Y8510D02*Y8190D01*
X6940Y8350D02*X7260D01*
X7100Y7410D02*Y7090D01*
X6940Y7250D02*X7260D01*
X8840Y8869D02*Y8549D01*
X8680Y8709D02*X9000D01*
X8480Y8869D02*Y8549D01*
X8320Y8709D02*X8640D01*
X9190Y8929D02*Y8609D01*
X9030Y8769D02*X9350D01*
X9140Y8559D02*Y8239D01*
X8980Y8399D02*X9300D01*
X9050Y7499D02*Y7179D01*
X8890Y7339D02*X9210D01*
X8130Y8869D02*Y8549D01*
X7970Y8709D02*X8290D01*
X7770Y8869D02*Y8549D01*
X7610Y8709D02*X7930D01*
X7420Y8929D02*Y8609D01*
X7260Y8769D02*X7580D01*
X7470Y8559D02*Y8239D01*
X7310Y8399D02*X7630D01*
X7470Y8199D02*Y7879D01*
X7310Y8039D02*X7630D01*
X7300Y7789D02*Y7469D01*
X7140Y7629D02*X7460D01*
X7550Y7499D02*Y7179D01*
X7390Y7339D02*X7710D01*
X7940Y7599D02*Y7279D01*
X7780Y7439D02*X8100D01*
X8300Y7699D02*Y7379D01*
X8140Y7539D02*X8460D01*
X8670Y7599D02*Y7279D01*
X8510Y7439D02*X8830D01*
X8600Y7260D02*Y6940D01*
X8440Y7100D02*X8760D01*
X9300Y7789D02*Y7469D01*
X9140Y7629D02*X9460D01*
X9140Y8199D02*Y7879D01*
X8980Y8039D02*X9300D01*
X8050Y7260D02*Y6940D01*
X7890Y7100D02*X8210D01*
X7100Y8110D02*Y7790D01*
X6940Y7950D02*X7260D01*
X5650Y7260D02*Y6940D01*
X5490Y7100D02*X5810D01*
X2600Y7160D02*Y6840D01*
X2440Y7000D02*X2760D01*
X2050Y7160D02*Y6840D01*
X1890Y7000D02*X2210D01*
X4950Y7160D02*Y6840D01*
X4790Y7000D02*X5110D01*
X4400Y7160D02*Y6840D01*
X4240Y7000D02*X4560D01*
X3800Y7260D02*Y6940D01*
X3640Y7100D02*X3960D01*
X3250Y7260D02*Y6940D01*
X3090Y7100D02*X3410D01*
X3500Y6960D02*Y6640D01*
X3340Y6800D02*X3660D01*
X1039Y6409D02*Y6089D01*
X879Y6249D02*X1199D01*
X2500Y7789D02*Y7469D01*
X2340Y7629D02*X2660D01*
X2750Y7499D02*Y7179D01*
X2590Y7339D02*X2910D01*
X3140Y7599D02*Y7279D01*
X2980Y7439D02*X3300D01*
X3500Y7699D02*Y7379D01*
X3340Y7539D02*X3660D01*
X6740Y8199D02*Y7879D01*
X6580Y8039D02*X6900D01*
X2300Y9109D02*Y8789D01*
X2140Y8949D02*X2460D01*
X6900Y7789D02*Y7469D01*
X6740Y7629D02*X7060D01*
X3680Y8869D02*Y8549D01*
X3520Y8709D02*X3840D01*
X4040Y8869D02*Y8549D01*
X3880Y8709D02*X4200D01*
X4390Y8929D02*Y8609D01*
X4230Y8769D02*X4550D01*
X4340Y8559D02*Y8239D01*
X4180Y8399D02*X4500D01*
X4340Y8199D02*Y7879D01*
X4180Y8039D02*X4500D01*
X3870Y7599D02*Y7279D01*
X3710Y7439D02*X4030D01*
X4700Y8110D02*Y7790D01*
X4540Y7950D02*X4860D01*
X4700Y9110D02*Y8790D01*
X4540Y8950D02*X4860D01*
X4700Y8510D02*Y8190D01*
X4540Y8350D02*X4860D01*
X4250Y7499D02*Y7179D01*
X4090Y7339D02*X4410D01*
X4500Y7789D02*Y7469D01*
X4340Y7629D02*X4660D01*
X4700Y7410D02*Y7090D01*
X4540Y7250D02*X4860D01*
X6440Y8869D02*Y8549D01*
X6280Y8709D02*X6600D01*
X6080Y8869D02*Y8549D01*
X5920Y8709D02*X6240D01*
X6790Y8929D02*Y8609D01*
X6630Y8769D02*X6950D01*
X6740Y8559D02*Y8239D01*
X6580Y8399D02*X6900D01*
X2350Y8379D02*Y8059D01*
X2190Y8219D02*X2510D01*
X2300Y8739D02*Y8419D01*
X2140Y8579D02*X2460D01*
X2670Y8559D02*Y8239D01*
X2510Y8399D02*X2830D01*
X2620Y8929D02*Y8609D01*
X2460Y8769D02*X2780D01*
X2970Y8869D02*Y8549D01*
X2810Y8709D02*X3130D01*
X3330Y8869D02*Y8549D01*
X3170Y8709D02*X3490D01*
X6650Y7499D02*Y7179D01*
X6490Y7339D02*X6810D01*
X5730Y8869D02*Y8549D01*
X5570Y8709D02*X5890D01*
X5370Y8869D02*Y8549D01*
X5210Y8709D02*X5530D01*
X5020Y8929D02*Y8609D01*
X4860Y8769D02*X5180D01*
X5070Y8559D02*Y8239D01*
X4910Y8399D02*X5230D01*
X5070Y8199D02*Y7879D01*
X4910Y8039D02*X5230D01*
X4900Y7789D02*Y7469D01*
X4740Y7629D02*X5060D01*
X5150Y7499D02*Y7179D01*
X4990Y7339D02*X5310D01*
X5540Y7599D02*Y7279D01*
X5380Y7439D02*X5700D01*
X5900Y7699D02*Y7379D01*
X5740Y7539D02*X6060D01*
X6270Y7599D02*Y7279D01*
X6110Y7439D02*X6430D01*
X2670Y8199D02*Y7879D01*
X2510Y8039D02*X2830D01*
X2119Y5550D02*Y5230D01*
X1959Y5390D02*X2279D01*
X1169Y6990D02*Y6670D01*
X1009Y6830D02*X1329D01*
X1929Y6820D02*Y6500D01*
X1769Y6660D02*X2089D01*
X2299Y6720D02*Y6400D01*
X2139Y6560D02*X2459D01*
X2659Y6820D02*Y6500D01*
X2499Y6660D02*X2819D01*
X3049Y6920D02*Y6600D01*
X2889Y6760D02*X3209D01*
X3299Y6630D02*Y6310D01*
X3139Y6470D02*X3459D01*
X1089Y5310D02*Y4990D01*
X929Y5150D02*X1249D01*
X3129Y6220D02*Y5900D01*
X2969Y6060D02*X3289D01*
X3129Y5860D02*Y5540D01*
X2969Y5700D02*X3289D01*
X3179Y5490D02*Y5170D01*
X3019Y5330D02*X3339D01*
X2829Y5550D02*Y5230D01*
X2669Y5390D02*X2989D01*
X2469Y5550D02*Y5230D01*
X2309Y5390D02*X2629D01*
X1549Y6920D02*Y6600D01*
X1389Y6760D02*X1709D01*
X4869Y5550D02*Y5230D01*
X4709Y5390D02*X5029D01*
X3850Y11510D02*Y11190D01*
X3690Y11350D02*X4010D01*
X1500Y16485D02*Y16165D01*
X1340Y16325D02*X1660D01*
X13500Y16550D02*Y16475D01*
X13650Y16325D01*
X13800Y16475D01*
Y16550D02*Y16475D01*
X13650Y16325D02*Y15950D01*
X13980Y16250D02*X14205D01*
X13980Y15950D02*X14280D01*
X13980Y16550D02*Y15950D01*
Y16550D02*X14280D01*
X14760D02*X14835Y16475D01*
X14535Y16550D02*X14760D01*
X14460Y16475D02*X14535Y16550D01*
X14460Y16475D02*Y16325D01*
X14535Y16250D01*
X14760D01*
X14835Y16175D01*
Y16025D01*
X14760Y15950D02*X14835Y16025D01*
X14535Y15950D02*X14760D01*
X14460Y16025D02*X14535Y15950D01*
X13500Y15624D02*X15015D01*
X9875Y15950D02*X10025D01*
X9950Y16550D02*Y15950D01*
X9800Y16400D02*X9950Y16550D01*
X10205Y16025D02*X10280Y15950D01*
X10205Y16175D02*Y16025D01*
Y16175D02*X10280Y16250D01*
X10430D01*
X10505Y16175D01*
Y16025D01*
X10430Y15950D02*X10505Y16025D01*
X10280Y15950D02*X10430D01*
X10205Y16325D02*X10280Y16250D01*
X10205Y16475D02*Y16325D01*
Y16475D02*X10280Y16550D01*
X10430D01*
X10505Y16475D01*
Y16325D01*
X10430Y16250D02*X10505Y16325D01*
X10685Y16550D02*X10985D01*
X10685D02*Y16250D01*
X10760Y16325D01*
X10910D01*
X10985Y16250D01*
Y16025D01*
X10910Y15950D02*X10985Y16025D01*
X10760Y15950D02*X10910D01*
X10685Y16025D02*X10760Y15950D01*
X9800Y15624D02*X11165D01*
X4500Y16025D02*X4575Y15950D01*
X4500Y16475D02*Y16025D01*
Y16475D02*X4575Y16550D01*
X4725D01*
X4800Y16475D01*
Y16025D01*
X4725Y15950D02*X4800Y16025D01*
X4575Y15950D02*X4725D01*
X4500Y16100D02*X4800Y16400D01*
X4980Y15950D02*X5055D01*
X5235Y16025D02*X5310Y15950D01*
X5235Y16475D02*Y16025D01*
Y16475D02*X5310Y16550D01*
X5460D01*
X5535Y16475D01*
Y16025D01*
X5460Y15950D02*X5535Y16025D01*
X5310Y15950D02*X5460D01*
X5235Y16100D02*X5535Y16400D01*
X5715Y16475D02*X5790Y16550D01*
X6015D01*
X6090Y16475D01*
Y16325D01*
X5715Y15950D02*X6090Y16325D01*
X5715Y15950D02*X6090D01*
X6270Y16025D02*X6345Y15950D01*
X6270Y16475D02*Y16025D01*
Y16475D02*X6345Y16550D01*
X6495D01*
X6570Y16475D01*
Y16025D01*
X6495Y15950D02*X6570Y16025D01*
X6345Y15950D02*X6495D01*
X6270Y16100D02*X6570Y16400D01*
X4500Y15624D02*X6750D01*
X9499Y5750D02*Y5590D01*
Y5750D02*X9638Y5830D01*
X9499Y5750D02*X9361Y5830D01*
X9499Y6250D02*Y6090D01*
Y6250D02*X9638Y6330D01*
X9499Y6250D02*X9361Y6330D01*
X7099Y5750D02*Y5590D01*
Y5750D02*X7238Y5830D01*
X7099Y5750D02*X6961Y5830D01*
X7099Y6250D02*Y6090D01*
Y6250D02*X7238Y6330D01*
X7099Y6250D02*X6961Y6330D01*
X8300Y8349D02*Y8189D01*
Y8349D02*X8438Y8429D01*
X8300Y8349D02*X8161Y8429D01*
X8300Y7849D02*Y7689D01*
Y7849D02*X8438Y7929D01*
X8300Y7849D02*X8161Y7929D01*
X3500Y7849D02*Y7689D01*
Y7849D02*X3638Y7929D01*
X3500Y7849D02*X3361Y7929D01*
X3500Y8349D02*Y8189D01*
Y8349D02*X3638Y8429D01*
X3500Y8349D02*X3361Y8429D01*
X5900Y8349D02*Y8189D01*
Y8349D02*X6038Y8429D01*
X5900Y8349D02*X5761Y8429D01*
X5900Y7849D02*Y7689D01*
Y7849D02*X6038Y7929D01*
X5900Y7849D02*X5761Y7929D01*
X2299Y6250D02*Y6090D01*
Y6250D02*X2438Y6330D01*
X2299Y6250D02*X2161Y6330D01*
X2299Y5750D02*Y5590D01*
Y5750D02*X2438Y5830D01*
X2299Y5750D02*X2161Y5830D01*
X4699Y5750D02*Y5590D01*
Y5750D02*X4838Y5830D01*
X4699Y5750D02*X4561Y5830D01*
X4699Y6250D02*Y6090D01*
Y6250D02*X4838Y6330D01*
X4699Y6250D02*X4561Y6330D01*
X1500Y17825D02*Y17665D01*
Y17825D02*X1638Y17905D01*
X1500Y17825D02*X1361Y17905D01*
X13500Y18050D02*Y17975D01*
X13650Y17825D01*
X13800Y17975D01*
Y18050D02*Y17975D01*
X13650Y17825D02*Y17450D01*
X13980Y17750D02*X14205D01*
X13980Y17450D02*X14280D01*
X13980Y18050D02*Y17450D01*
Y18050D02*X14280D01*
X14760D02*X14835Y17975D01*
X14535Y18050D02*X14760D01*
X14460Y17975D02*X14535Y18050D01*
X14460Y17975D02*Y17825D01*
X14535Y17750D01*
X14760D01*
X14835Y17675D01*
Y17525D01*
X14760Y17450D02*X14835Y17525D01*
X14535Y17450D02*X14760D01*
X14460Y17525D02*X14535Y17450D01*
X13500Y17124D02*X15015D01*
X9875Y17450D02*X10025D01*
X9950Y18050D02*Y17450D01*
X9800Y17900D02*X9950Y18050D01*
X10205Y17750D02*X10505Y18050D01*
X10205Y17750D02*X10580D01*
X10505Y18050D02*Y17450D01*
X9800Y17124D02*X10760D01*
X4500Y17525D02*X4575Y17450D01*
X4500Y17975D02*Y17525D01*
Y17975D02*X4575Y18050D01*
X4725D01*
X4800Y17975D01*
Y17525D01*
X4725Y17450D02*X4800Y17525D01*
X4575Y17450D02*X4725D01*
X4500Y17600D02*X4800Y17900D01*
X4980Y17450D02*X5055D01*
X5235Y17525D02*X5310Y17450D01*
X5235Y17975D02*Y17525D01*
Y17975D02*X5310Y18050D01*
X5460D01*
X5535Y17975D01*
Y17525D01*
X5460Y17450D02*X5535Y17525D01*
X5310Y17450D02*X5460D01*
X5235Y17600D02*X5535Y17900D01*
X5790Y17450D02*X5940D01*
X5865Y18050D02*Y17450D01*
X5715Y17900D02*X5865Y18050D01*
X6120D02*X6420D01*
X6120D02*Y17750D01*
X6195Y17825D01*
X6345D01*
X6420Y17750D01*
Y17525D01*
X6345Y17450D02*X6420Y17525D01*
X6195Y17450D02*X6345D01*
X6120Y17525D02*X6195Y17450D01*
X4500Y17124D02*X6600D01*
X300Y19550D02*X375Y19475D01*
X75Y19550D02*X300D01*
X0Y19475D02*X75Y19550D01*
X0Y19475D02*Y19325D01*
X75Y19250D01*
X300D01*
X375Y19175D01*
Y19025D01*
X300Y18950D02*X375Y19025D01*
X75Y18950D02*X300D01*
X0Y19025D02*X75Y18950D01*
X555Y19250D02*Y19025D01*
X630Y18950D01*
X855Y19250D02*Y18800D01*
X780Y18725D02*X855Y18800D01*
X630Y18725D02*X780D01*
X555Y18800D02*X630Y18725D01*
Y18950D02*X780D01*
X855Y19025D01*
X1110Y19175D02*Y18950D01*
Y19175D02*X1185Y19250D01*
X1260D01*
X1335Y19175D01*
Y18950D01*
Y19175D02*X1410Y19250D01*
X1485D01*
X1560Y19175D01*
Y18950D01*
X1035Y19250D02*X1110Y19175D01*
X1740Y19550D02*Y18950D01*
Y19025D02*X1815Y18950D01*
X1965D01*
X2040Y19025D01*
Y19175D02*Y19025D01*
X1965Y19250D02*X2040Y19175D01*
X1815Y19250D02*X1965D01*
X1740Y19175D02*X1815Y19250D01*
X2220Y19175D02*Y19025D01*
Y19175D02*X2295Y19250D01*
X2445D01*
X2520Y19175D01*
Y19025D01*
X2445Y18950D02*X2520Y19025D01*
X2295Y18950D02*X2445D01*
X2220Y19025D02*X2295Y18950D01*
X2700Y19550D02*Y19025D01*
X2775Y18950D01*
X4175Y19550D02*Y18950D01*
X4400Y19550D02*X4475Y19475D01*
Y19025D01*
X4400Y18950D02*X4475Y19025D01*
X4100Y18950D02*X4400D01*
X4100Y19550D02*X4400D01*
X4655Y19400D02*Y19325D01*
Y19175D02*Y18950D01*
X5030Y19250D02*X5105Y19175D01*
X4880Y19250D02*X5030D01*
X4805Y19175D02*X4880Y19250D01*
X4805Y19175D02*Y19025D01*
X4880Y18950D01*
X5105Y19250D02*Y19025D01*
X5180Y18950D01*
X4880D02*X5030D01*
X5105Y19025D01*
X5435Y19175D02*Y18950D01*
Y19175D02*X5510Y19250D01*
X5585D01*
X5660Y19175D01*
Y18950D01*
Y19175D02*X5735Y19250D01*
X5810D01*
X5885Y19175D01*
Y18950D01*
X5360Y19250D02*X5435Y19175D01*
X6065Y18950D02*X6140D01*
X6590Y19025D02*X6665Y18950D01*
X6590Y19475D02*X6665Y19550D01*
X6590Y19475D02*Y19025D01*
X6845Y19550D02*X6995D01*
X6920D02*Y18950D01*
X6845D02*X6995D01*
X7251Y19175D02*Y18950D01*
Y19175D02*X7326Y19250D01*
X7401D01*
X7476Y19175D01*
Y18950D01*
X7176Y19250D02*X7251Y19175D01*
X7731Y19250D02*X7956D01*
X7656Y19175D02*X7731Y19250D01*
X7656Y19175D02*Y19025D01*
X7731Y18950D01*
X7956D01*
X8136Y19550D02*Y18950D01*
Y19175D02*X8211Y19250D01*
X8361D01*
X8436Y19175D01*
Y18950D01*
X8616Y19550D02*X8691Y19475D01*
Y19025D01*
X8616Y18950D02*X8691Y19025D01*
X9575Y18950D02*X9800D01*
X9500Y19025D02*X9575Y18950D01*
X9500Y19475D02*Y19025D01*
Y19475D02*X9575Y19550D01*
X9800D01*
X9980Y19175D02*Y19025D01*
Y19175D02*X10055Y19250D01*
X10205D01*
X10280Y19175D01*
Y19025D01*
X10205Y18950D02*X10280Y19025D01*
X10055Y18950D02*X10205D01*
X9980Y19025D02*X10055Y18950D01*
X10460Y19250D02*Y19025D01*
X10535Y18950D01*
X10685D01*
X10760Y19025D01*
Y19250D02*Y19025D01*
X11015Y19175D02*Y18950D01*
Y19175D02*X11090Y19250D01*
X11165D01*
X11240Y19175D01*
Y18950D01*
X10940Y19250D02*X11015Y19175D01*
X11495Y19550D02*Y19025D01*
X11570Y18950D01*
X11420Y19325D02*X11570D01*
X13075Y19550D02*Y18950D01*
X13000Y19550D02*X13300D01*
X13375Y19475D01*
Y19325D01*
X13300Y19250D02*X13375Y19325D01*
X13075Y19250D02*X13300D01*
X13555Y19550D02*Y19025D01*
X13630Y18950D01*
X14005Y19250D02*X14080Y19175D01*
X13855Y19250D02*X14005D01*
X13780Y19175D02*X13855Y19250D01*
X13780Y19175D02*Y19025D01*
X13855Y18950D01*
X14080Y19250D02*Y19025D01*
X14155Y18950D01*
X13855D02*X14005D01*
X14080Y19025D01*
X14410Y19550D02*Y19025D01*
X14485Y18950D01*
X14335Y19325D02*X14485D01*
X14710Y18950D02*X14935D01*
X14635Y19025D02*X14710Y18950D01*
X14635Y19175D02*Y19025D01*
Y19175D02*X14710Y19250D01*
X14860D01*
X14935Y19175D01*
X14635Y19100D02*X14935D01*
Y19175D02*Y19100D01*
X15415Y19550D02*Y18950D01*
X15340D02*X15415Y19025D01*
X15190Y18950D02*X15340D01*
X15115Y19025D02*X15190Y18950D01*
X15115Y19175D02*Y19025D01*
Y19175D02*X15190Y19250D01*
X15340D01*
X15415Y19175D01*
X15745Y19250D02*Y19175D01*
Y19025D02*Y18950D01*
X15595Y19475D02*Y19400D01*
Y19475D02*X15670Y19550D01*
X15820D01*
X15895Y19475D01*
Y19400D01*
X15745Y19250D02*X15895Y19400D01*
X0Y21050D02*X300D01*
X150D02*Y20450D01*
X480Y21050D02*Y20450D01*
Y20675D02*X555Y20750D01*
X705D01*
X780Y20675D01*
Y20450D01*
X1035D02*X1260D01*
X960Y20525D02*X1035Y20450D01*
X960Y20675D02*Y20525D01*
Y20675D02*X1035Y20750D01*
X1185D01*
X1260Y20675D01*
X960Y20600D02*X1260D01*
Y20675D02*Y20600D01*
X1515Y20675D02*Y20450D01*
Y20675D02*X1590Y20750D01*
X1740D01*
X1440D02*X1515Y20675D01*
X1995Y20450D02*X2220D01*
X1920Y20525D02*X1995Y20450D01*
X1920Y20675D02*Y20525D01*
Y20675D02*X1995Y20750D01*
X2145D01*
X2220Y20675D01*
X1920Y20600D02*X2220D01*
Y20675D02*Y20600D01*
X2895Y20750D02*X2970Y20675D01*
X2745Y20750D02*X2895D01*
X2670Y20675D02*X2745Y20750D01*
X2670Y20675D02*Y20525D01*
X2745Y20450D01*
X2970Y20750D02*Y20525D01*
X3045Y20450D01*
X2745D02*X2895D01*
X2970Y20525D01*
X3300Y20675D02*Y20450D01*
Y20675D02*X3375Y20750D01*
X3525D01*
X3225D02*X3300Y20675D01*
X3781Y20450D02*X4006D01*
X3706Y20525D02*X3781Y20450D01*
X3706Y20675D02*Y20525D01*
Y20675D02*X3781Y20750D01*
X3931D01*
X4006Y20675D01*
X3706Y20600D02*X4006D01*
Y20675D02*Y20600D01*
X4456Y20975D02*X4531Y21050D01*
X4681D01*
X4756Y20975D01*
Y20525D01*
X4681Y20450D02*X4756Y20525D01*
X4531Y20450D02*X4681D01*
X4456Y20525D02*X4531Y20450D01*
Y20750D02*X4756D01*
X5506Y21050D02*Y20450D01*
X5431D02*X5506Y20525D01*
X5281Y20450D02*X5431D01*
X5206Y20525D02*X5281Y20450D01*
X5206Y20675D02*Y20525D01*
Y20675D02*X5281Y20750D01*
X5431D01*
X5506Y20675D01*
X5686Y20900D02*Y20825D01*
Y20675D02*Y20450D01*
X5911Y20975D02*Y20450D01*
Y20975D02*X5986Y21050D01*
X6061D01*
X5836Y20750D02*X5986D01*
X6286Y20975D02*Y20450D01*
Y20975D02*X6361Y21050D01*
X6436D01*
X6211Y20750D02*X6361D01*
X6661Y20450D02*X6886D01*
X6586Y20525D02*X6661Y20450D01*
X6586Y20675D02*Y20525D01*
Y20675D02*X6661Y20750D01*
X6811D01*
X6886Y20675D01*
X6586Y20600D02*X6886D01*
Y20675D02*Y20600D01*
X7142Y20675D02*Y20450D01*
Y20675D02*X7217Y20750D01*
X7367D01*
X7067D02*X7142Y20675D01*
X7622Y20450D02*X7847D01*
X7547Y20525D02*X7622Y20450D01*
X7547Y20675D02*Y20525D01*
Y20675D02*X7622Y20750D01*
X7772D01*
X7847Y20675D01*
X7547Y20600D02*X7847D01*
Y20675D02*Y20600D01*
X8102Y20675D02*Y20450D01*
Y20675D02*X8177Y20750D01*
X8252D01*
X8327Y20675D01*
Y20450D01*
X8027Y20750D02*X8102Y20675D01*
X8582Y21050D02*Y20525D01*
X8657Y20450D01*
X8507Y20825D02*X8657D01*
X9377Y21050D02*Y20450D01*
X9302D02*X9377Y20525D01*
X9152Y20450D02*X9302D01*
X9077Y20525D02*X9152Y20450D01*
X9077Y20675D02*Y20525D01*
Y20675D02*X9152Y20750D01*
X9302D01*
X9377Y20675D01*
X9632D02*Y20450D01*
Y20675D02*X9707Y20750D01*
X9857D01*
X9557D02*X9632Y20675D01*
X10038Y20900D02*Y20825D01*
Y20675D02*Y20450D01*
X10188Y21050D02*Y20525D01*
X10263Y20450D01*
X10413Y21050D02*Y20525D01*
X10488Y20450D01*
X10983D02*X11208D01*
X11283Y20525D01*
X11208Y20600D02*X11283Y20525D01*
X10983Y20600D02*X11208D01*
X10908Y20675D02*X10983Y20600D01*
X10908Y20675D02*X10983Y20750D01*
X11208D01*
X11283Y20675D01*
X10908Y20525D02*X10983Y20450D01*
X11463Y20900D02*Y20825D01*
Y20675D02*Y20450D01*
X11613Y20750D02*X11913D01*
X11613Y20450D02*X11913Y20750D01*
X11613Y20450D02*X11913D01*
X12168D02*X12393D01*
X12093Y20525D02*X12168Y20450D01*
X12093Y20675D02*Y20525D01*
Y20675D02*X12168Y20750D01*
X12318D01*
X12393Y20675D01*
X12093Y20600D02*X12393D01*
Y20675D02*Y20600D01*
X12649Y20450D02*X12874D01*
X12949Y20525D01*
X12874Y20600D02*X12949Y20525D01*
X12649Y20600D02*X12874D01*
X12574Y20675D02*X12649Y20600D01*
X12574Y20675D02*X12649Y20750D01*
X12874D01*
X12949Y20675D01*
X12574Y20525D02*X12649Y20450D01*
X13399Y20750D02*Y20525D01*
X13474Y20450D01*
X13624D01*
X13699Y20525D01*
Y20750D02*Y20525D01*
X13954Y20450D02*X14179D01*
X14254Y20525D01*
X14179Y20600D02*X14254Y20525D01*
X13954Y20600D02*X14179D01*
X13879Y20675D02*X13954Y20600D01*
X13879Y20675D02*X13954Y20750D01*
X14179D01*
X14254Y20675D01*
X13879Y20525D02*X13954Y20450D01*
X14509D02*X14734D01*
X14434Y20525D02*X14509Y20450D01*
X14434Y20675D02*Y20525D01*
Y20675D02*X14509Y20750D01*
X14659D01*
X14734Y20675D01*
X14434Y20600D02*X14734D01*
Y20675D02*Y20600D01*
X15214Y21050D02*Y20450D01*
X15139D02*X15214Y20525D01*
X14989Y20450D02*X15139D01*
X14914Y20525D02*X14989Y20450D01*
X14914Y20675D02*Y20525D01*
Y20675D02*X14989Y20750D01*
X15139D01*
X15214Y20675D01*
X15664Y20900D02*Y20825D01*
Y20675D02*Y20450D01*
X15889Y20675D02*Y20450D01*
Y20675D02*X15964Y20750D01*
X16039D01*
X16114Y20675D01*
Y20450D01*
X15814Y20750D02*X15889Y20675D01*
X16640Y21050D02*Y20525D01*
X16715Y20450D01*
X16565Y20825D02*X16715D01*
X16865Y21050D02*Y20450D01*
Y20675D02*X16940Y20750D01*
X17090D01*
X17165Y20675D01*
Y20450D01*
X17345Y20900D02*Y20825D01*
Y20675D02*Y20450D01*
X17570D02*X17795D01*
X17870Y20525D01*
X17795Y20600D02*X17870Y20525D01*
X17570Y20600D02*X17795D01*
X17495Y20675D02*X17570Y20600D01*
X17495Y20675D02*X17570Y20750D01*
X17795D01*
X17870Y20675D01*
X17495Y20525D02*X17570Y20450D01*
X18320Y21050D02*Y20525D01*
X18395Y20450D01*
X18770Y20750D02*X18845Y20675D01*
X18620Y20750D02*X18770D01*
X18545Y20675D02*X18620Y20750D01*
X18545Y20675D02*Y20525D01*
X18620Y20450D01*
X18845Y20750D02*Y20525D01*
X18920Y20450D01*
X18620D02*X18770D01*
X18845Y20525D01*
X19101Y20750D02*Y20525D01*
X19176Y20450D01*
X19401Y20750D02*Y20300D01*
X19326Y20225D02*X19401Y20300D01*
X19176Y20225D02*X19326D01*
X19101Y20300D02*X19176Y20225D01*
Y20450D02*X19326D01*
X19401Y20525D01*
X19581Y20675D02*Y20525D01*
Y20675D02*X19656Y20750D01*
X19806D01*
X19881Y20675D01*
Y20525D01*
X19806Y20450D02*X19881Y20525D01*
X19656Y20450D02*X19806D01*
X19581Y20525D02*X19656Y20450D01*
X20061Y20750D02*Y20525D01*
X20136Y20450D01*
X20286D01*
X20361Y20525D01*
Y20750D02*Y20525D01*
X20616Y21050D02*Y20525D01*
X20691Y20450D01*
X20541Y20825D02*X20691D01*
X20841Y20300D02*X20991Y20450D01*
X21441Y20975D02*X21516Y21050D01*
X21741D01*
X21816Y20975D01*
Y20825D01*
X21441Y20450D02*X21816Y20825D01*
X21441Y20450D02*X21816D01*
X21996Y20525D02*X22071Y20450D01*
X21996Y20975D02*Y20525D01*
Y20975D02*X22071Y21050D01*
X22221D01*
X22296Y20975D01*
Y20525D01*
X22221Y20450D02*X22296Y20525D01*
X22071Y20450D02*X22221D01*
X21996Y20600D02*X22296Y20900D01*
X22552Y20450D02*X22702D01*
X22627Y21050D02*Y20450D01*
X22477Y20900D02*X22627Y21050D01*
X23152D02*Y20450D01*
Y20675D02*X23227Y20750D01*
X23377D01*
X23452Y20675D01*
Y20450D01*
X23632Y20675D02*Y20525D01*
Y20675D02*X23707Y20750D01*
X23857D01*
X23932Y20675D01*
Y20525D01*
X23857Y20450D02*X23932Y20525D01*
X23707Y20450D02*X23857D01*
X23632Y20525D02*X23707Y20450D01*
X24112Y21050D02*Y20525D01*
X24187Y20450D01*
X24412D02*X24637D01*
X24337Y20525D02*X24412Y20450D01*
X24337Y20675D02*Y20525D01*
Y20675D02*X24412Y20750D01*
X24562D01*
X24637Y20675D01*
X24337Y20600D02*X24637D01*
Y20675D02*Y20600D01*
X24892Y20450D02*X25117D01*
X25192Y20525D01*
X25117Y20600D02*X25192Y20525D01*
X24892Y20600D02*X25117D01*
X24817Y20675D02*X24892Y20600D01*
X24817Y20675D02*X24892Y20750D01*
X25117D01*
X25192Y20675D01*
X24817Y20525D02*X24892Y20450D01*
X25717Y21050D02*Y20525D01*
X25792Y20450D01*
X25642Y20825D02*X25792D01*
X25943Y20675D02*Y20525D01*
Y20675D02*X26018Y20750D01*
X26168D01*
X26243Y20675D01*
Y20525D01*
X26168Y20450D02*X26243Y20525D01*
X26018Y20450D02*X26168D01*
X25943Y20525D02*X26018Y20450D01*
X26498Y21050D02*Y20525D01*
X26573Y20450D01*
X26423Y20825D02*X26573D01*
X26948Y20750D02*X27023Y20675D01*
X26798Y20750D02*X26948D01*
X26723Y20675D02*X26798Y20750D01*
X26723Y20675D02*Y20525D01*
X26798Y20450D01*
X27023Y20750D02*Y20525D01*
X27098Y20450D01*
X26798D02*X26948D01*
X27023Y20525D01*
X27278Y21050D02*Y20525D01*
X27353Y20450D01*
G54D25*X12000Y12200D02*X0D01*
Y0D01*
X12000D02*Y12200D01*
Y0D02*X0D01*
G54D31*Y-950D02*X300D01*
X375Y-875D01*
Y-725D02*Y-875D01*
X300Y-650D02*X375Y-725D01*
X75Y-650D02*X300D01*
X75Y-350D02*Y-950D01*
X0Y-350D02*X300D01*
X375Y-425D01*
Y-575D01*
X300Y-650D02*X375Y-575D01*
X555Y-725D02*Y-875D01*
Y-725D02*X630Y-650D01*
X780D01*
X855Y-725D01*
Y-875D01*
X780Y-950D02*X855Y-875D01*
X630Y-950D02*X780D01*
X555Y-875D02*X630Y-950D01*
X1260Y-650D02*X1335Y-725D01*
X1110Y-650D02*X1260D01*
X1035Y-725D02*X1110Y-650D01*
X1035Y-725D02*Y-875D01*
X1110Y-950D01*
X1335Y-650D02*Y-875D01*
X1410Y-950D01*
X1110D02*X1260D01*
X1335Y-875D01*
X1665Y-725D02*Y-950D01*
Y-725D02*X1740Y-650D01*
X1890D01*
X1590D02*X1665Y-725D01*
X2370Y-350D02*Y-950D01*
X2295D02*X2370Y-875D01*
X2145Y-950D02*X2295D01*
X2070Y-875D02*X2145Y-950D01*
X2070Y-725D02*Y-875D01*
Y-725D02*X2145Y-650D01*
X2295D01*
X2370Y-725D01*
X2820D02*Y-875D01*
Y-725D02*X2895Y-650D01*
X3045D01*
X3120Y-725D01*
Y-875D01*
X3045Y-950D02*X3120Y-875D01*
X2895Y-950D02*X3045D01*
X2820Y-875D02*X2895Y-950D01*
X3300Y-650D02*Y-875D01*
X3375Y-950D01*
X3525D01*
X3600Y-875D01*
Y-650D02*Y-875D01*
X3856Y-350D02*Y-875D01*
X3931Y-950D01*
X3781Y-575D02*X3931D01*
X4081Y-350D02*Y-875D01*
X4156Y-950D01*
X4306Y-500D02*Y-575D01*
Y-725D02*Y-950D01*
X4531Y-725D02*Y-950D01*
Y-725D02*X4606Y-650D01*
X4681D01*
X4756Y-725D01*
Y-950D01*
X4456Y-650D02*X4531Y-725D01*
X5011Y-950D02*X5236D01*
X4936Y-875D02*X5011Y-950D01*
X4936Y-725D02*Y-875D01*
Y-725D02*X5011Y-650D01*
X5161D01*
X5236Y-725D01*
X4936Y-800D02*X5236D01*
Y-725D02*Y-800D01*
X5686Y-500D02*Y-575D01*
Y-725D02*Y-950D01*
X5911D02*X6136D01*
X6211Y-875D01*
X6136Y-800D02*X6211Y-875D01*
X5911Y-800D02*X6136D01*
X5836Y-725D02*X5911Y-800D01*
X5836Y-725D02*X5911Y-650D01*
X6136D01*
X6211Y-725D01*
X5836Y-875D02*X5911Y-950D01*
X6737Y-350D02*Y-875D01*
X6812Y-950D01*
X6662Y-575D02*X6812D01*
X6962Y-350D02*Y-950D01*
Y-725D02*X7037Y-650D01*
X7187D01*
X7262Y-725D01*
Y-950D01*
X7517D02*X7742D01*
X7442Y-875D02*X7517Y-950D01*
X7442Y-725D02*Y-875D01*
Y-725D02*X7517Y-650D01*
X7667D01*
X7742Y-725D01*
X7442Y-800D02*X7742D01*
Y-725D02*Y-800D01*
X8267Y-650D02*X8492D01*
X8192Y-725D02*X8267Y-650D01*
X8192Y-725D02*Y-875D01*
X8267Y-950D01*
X8492D01*
X8747D02*X8972D01*
X8672Y-875D02*X8747Y-950D01*
X8672Y-725D02*Y-875D01*
Y-725D02*X8747Y-650D01*
X8897D01*
X8972Y-725D01*
X8672Y-800D02*X8972D01*
Y-725D02*Y-800D01*
X9227Y-725D02*Y-950D01*
Y-725D02*X9302Y-650D01*
X9377D01*
X9452Y-725D01*
Y-950D01*
X9152Y-650D02*X9227Y-725D01*
X9708Y-350D02*Y-875D01*
X9783Y-950D01*
X9633Y-575D02*X9783D01*
X10008Y-950D02*X10233D01*
X9933Y-875D02*X10008Y-950D01*
X9933Y-725D02*Y-875D01*
Y-725D02*X10008Y-650D01*
X10158D01*
X10233Y-725D01*
X9933Y-800D02*X10233D01*
Y-725D02*Y-800D01*
X10488Y-725D02*Y-950D01*
Y-725D02*X10563Y-650D01*
X10713D01*
X10413D02*X10488Y-725D01*
X10893Y-350D02*Y-875D01*
X10968Y-950D01*
X11118Y-500D02*Y-575D01*
Y-725D02*Y-950D01*
X11343Y-725D02*Y-950D01*
Y-725D02*X11418Y-650D01*
X11493D01*
X11568Y-725D01*
Y-950D01*
X11268Y-650D02*X11343Y-725D01*
X11823Y-950D02*X12048D01*
X11748Y-875D02*X11823Y-950D01*
X11748Y-725D02*Y-875D01*
Y-725D02*X11823Y-650D01*
X11973D01*
X12048Y-725D01*
X11748Y-800D02*X12048D01*
Y-725D02*Y-800D01*
X12499Y-725D02*Y-875D01*
Y-725D02*X12574Y-650D01*
X12724D01*
X12799Y-725D01*
Y-875D01*
X12724Y-950D02*X12799Y-875D01*
X12574Y-950D02*X12724D01*
X12499Y-875D02*X12574Y-950D01*
X13054Y-425D02*Y-950D01*
Y-425D02*X13129Y-350D01*
X13204D01*
X12979Y-650D02*X13129D01*
X13699Y-350D02*Y-875D01*
X13774Y-950D01*
X13624Y-575D02*X13774D01*
X13924Y-350D02*Y-950D01*
Y-725D02*X13999Y-650D01*
X14149D01*
X14224Y-725D01*
Y-950D01*
X14404Y-500D02*Y-575D01*
Y-725D02*Y-950D01*
X14629D02*X14854D01*
X14929Y-875D01*
X14854Y-800D02*X14929Y-875D01*
X14629Y-800D02*X14854D01*
X14554Y-725D02*X14629Y-800D01*
X14554Y-725D02*X14629Y-650D01*
X14854D01*
X14929Y-725D01*
X14554Y-875D02*X14629Y-950D01*
X15454Y-725D02*Y-1175D01*
X15379Y-650D02*X15454Y-725D01*
X15529Y-650D01*
X15679D01*
X15754Y-725D01*
Y-875D01*
X15679Y-950D02*X15754Y-875D01*
X15529Y-950D02*X15679D01*
X15454Y-875D02*X15529Y-950D01*
X16160Y-650D02*X16235Y-725D01*
X16010Y-650D02*X16160D01*
X15935Y-725D02*X16010Y-650D01*
X15935Y-725D02*Y-875D01*
X16010Y-950D01*
X16235Y-650D02*Y-875D01*
X16310Y-950D01*
X16010D02*X16160D01*
X16235Y-875D01*
X16565Y-350D02*Y-875D01*
X16640Y-950D01*
X16490Y-575D02*X16640D01*
X16790Y-350D02*Y-950D01*
Y-725D02*X16865Y-650D01*
X17015D01*
X17090Y-725D01*
Y-950D01*
X20075Y15050D02*Y14450D01*
X20300Y15050D02*X20375Y14975D01*
Y14525D01*
X20300Y14450D02*X20375Y14525D01*
X20000Y14450D02*X20300D01*
X20000Y15050D02*X20300D01*
X20780Y14750D02*X20855Y14675D01*
X20630Y14750D02*X20780D01*
X20555Y14675D02*X20630Y14750D01*
X20555Y14675D02*Y14525D01*
X20630Y14450D01*
X20855Y14750D02*Y14525D01*
X20930Y14450D01*
X20630D02*X20780D01*
X20855Y14525D01*
X21185Y15050D02*Y14525D01*
X21260Y14450D01*
X21110Y14825D02*X21260D01*
X21485Y14450D02*X21710D01*
X21410Y14525D02*X21485Y14450D01*
X21410Y14675D02*Y14525D01*
Y14675D02*X21485Y14750D01*
X21635D01*
X21710Y14675D01*
X21410Y14600D02*X21710D01*
Y14675D02*Y14600D01*
X21890Y14825D02*X21965D01*
X21890Y14675D02*X21965D01*
X22715Y15050D02*X22790Y14975D01*
X22490Y15050D02*X22715D01*
X22415Y14975D02*X22490Y15050D01*
X22415Y14975D02*Y14825D01*
X22490Y14750D01*
X22715D01*
X22790Y14675D01*
Y14525D01*
X22715Y14450D02*X22790Y14525D01*
X22490Y14450D02*X22715D01*
X22415Y14525D02*X22490Y14450D01*
X23195Y14750D02*X23270Y14675D01*
X23045Y14750D02*X23195D01*
X22970Y14675D02*X23045Y14750D01*
X22970Y14675D02*Y14525D01*
X23045Y14450D01*
X23270Y14750D02*Y14525D01*
X23345Y14450D01*
X23045D02*X23195D01*
X23270Y14525D01*
X23601Y15050D02*Y14525D01*
X23676Y14450D01*
X23526Y14825D02*X23676D01*
X24096Y15050D02*X24321D01*
Y14525D01*
X24246Y14450D02*X24321Y14525D01*
X24171Y14450D02*X24246D01*
X24096Y14525D02*X24171Y14450D01*
X24501Y14750D02*Y14525D01*
X24576Y14450D01*
X24726D01*
X24801Y14525D01*
Y14750D02*Y14525D01*
X24981Y15050D02*Y14525D01*
X25056Y14450D01*
X25476Y14975D02*X25551Y15050D01*
X25776D01*
X25851Y14975D01*
Y14825D01*
X25476Y14450D02*X25851Y14825D01*
X25476Y14450D02*X25851D01*
X26031Y15050D02*X26331D01*
X26031D02*Y14750D01*
X26106Y14825D01*
X26256D01*
X26331Y14750D01*
Y14525D01*
X26256Y14450D02*X26331Y14525D01*
X26106Y14450D02*X26256D01*
X26031Y14525D02*X26106Y14450D01*
X26856D02*X27006D01*
X26931Y15050D02*Y14450D01*
X26781Y14900D02*X26931Y15050D01*
X27262Y14450D02*X27412D01*
X27337Y15050D02*Y14450D01*
X27187Y14900D02*X27337Y15050D01*
X27592Y14825D02*X27667D01*
X27592Y14675D02*X27667D01*
X27847Y14975D02*X27922Y15050D01*
X28147D01*
X28222Y14975D01*
Y14825D01*
X27847Y14450D02*X28222Y14825D01*
X27847Y14450D02*X28222D01*
X28477D02*X28627D01*
X28552Y15050D02*Y14450D01*
X28402Y14900D02*X28552Y15050D01*
X28807Y14825D02*X28882D01*
X28807Y14675D02*X28882D01*
X29062Y14975D02*X29137Y15050D01*
X29287D01*
X29362Y14975D01*
Y14525D01*
X29287Y14450D02*X29362Y14525D01*
X29137Y14450D02*X29287D01*
X29062Y14525D02*X29137Y14450D01*
Y14750D02*X29362D01*
X29543Y14450D02*X29918Y14825D01*
Y15050D02*Y14825D01*
X29543Y15050D02*X29918D01*
X30368Y14975D02*X30443Y15050D01*
X30668D01*
X30743Y14975D01*
Y14825D01*
X30368Y14450D02*X30743Y14825D01*
X30368Y14450D02*X30743D01*
X30923Y14525D02*X30998Y14450D01*
X30923Y14975D02*Y14525D01*
Y14975D02*X30998Y15050D01*
X31148D01*
X31223Y14975D01*
Y14525D01*
X31148Y14450D02*X31223Y14525D01*
X30998Y14450D02*X31148D01*
X30923Y14600D02*X31223Y14900D01*
X31403Y14525D02*X31478Y14450D01*
X31403Y14975D02*Y14525D01*
Y14975D02*X31478Y15050D01*
X31628D01*
X31703Y14975D01*
Y14525D01*
X31628Y14450D02*X31703Y14525D01*
X31478Y14450D02*X31628D01*
X31403Y14600D02*X31703Y14900D01*
X31883Y14450D02*X32183Y14750D01*
Y14975D02*Y14750D01*
X32108Y15050D02*X32183Y14975D01*
X31958Y15050D02*X32108D01*
X31883Y14975D02*X31958Y15050D01*
X31883Y14975D02*Y14825D01*
X31958Y14750D01*
X32183D01*
X32633Y15050D02*Y14525D01*
X32708Y14450D01*
X32858D01*
X32933Y14525D01*
Y15050D02*Y14525D01*
X33113Y15050D02*X33413D01*
X33263D02*Y14450D01*
X33669D02*X33894D01*
X33594Y14525D02*X33669Y14450D01*
X33594Y14975D02*Y14525D01*
Y14975D02*X33669Y15050D01*
X33894D01*
X20000Y16475D02*Y15950D01*
Y16475D02*X20075Y16550D01*
X20300D01*
X20375Y16475D01*
Y15950D01*
X20000Y16250D02*X20375D01*
X20555D02*Y16025D01*
X20630Y15950D01*
X20780D01*
X20855Y16025D01*
Y16250D02*Y16025D01*
X21110Y16550D02*Y16025D01*
X21185Y15950D01*
X21035Y16325D02*X21185D01*
X21335Y16550D02*Y15950D01*
Y16175D02*X21410Y16250D01*
X21560D01*
X21635Y16175D01*
Y15950D01*
X21815Y16175D02*Y16025D01*
Y16175D02*X21890Y16250D01*
X22040D01*
X22115Y16175D01*
Y16025D01*
X22040Y15950D02*X22115Y16025D01*
X21890Y15950D02*X22040D01*
X21815Y16025D02*X21890Y15950D01*
X22370Y16175D02*Y15950D01*
Y16175D02*X22445Y16250D01*
X22595D01*
X22295D02*X22370Y16175D01*
X22775Y16325D02*X22850D01*
X22775Y16175D02*X22850D01*
X23376Y16550D02*Y15950D01*
X23601Y16550D02*X23676Y16475D01*
Y16025D01*
X23601Y15950D02*X23676Y16025D01*
X23301Y15950D02*X23601D01*
X23301Y16550D02*X23601D01*
X24081Y16250D02*X24156Y16175D01*
X23931Y16250D02*X24081D01*
X23856Y16175D02*X23931Y16250D01*
X23856Y16175D02*Y16025D01*
X23931Y15950D01*
X24156Y16250D02*Y16025D01*
X24231Y15950D01*
X23931D02*X24081D01*
X24156Y16025D01*
X24411Y16250D02*Y16100D01*
X24561Y15950D01*
X24711Y16100D01*
Y16250D02*Y16100D01*
X24891Y16400D02*Y16325D01*
Y16175D02*Y15950D01*
X25341Y16550D02*Y15950D01*
X25266D02*X25341Y16025D01*
X25116Y15950D02*X25266D01*
X25041Y16025D02*X25116Y15950D01*
X25041Y16175D02*Y16025D01*
Y16175D02*X25116Y16250D01*
X25266D01*
X25341Y16175D01*
X25791Y16250D02*X26016D01*
X25791Y15950D02*X26091D01*
X25791Y16550D02*Y15950D01*
Y16550D02*X26091D01*
X26271D02*Y16025D01*
X26346Y15950D01*
X26497Y16550D02*Y16025D01*
X26572Y15950D01*
X26797D02*X27022D01*
X27097Y16025D01*
X27022Y16100D02*X27097Y16025D01*
X26797Y16100D02*X27022D01*
X26722Y16175D02*X26797Y16100D01*
X26722Y16175D02*X26797Y16250D01*
X27022D01*
X27097Y16175D01*
X26722Y16025D02*X26797Y15950D01*
X27277Y16250D02*Y16025D01*
X27352Y15950D01*
X27427D01*
X27502Y16025D01*
Y16250D02*Y16025D01*
X27577Y15950D01*
X27652D01*
X27727Y16025D01*
Y16250D02*Y16025D01*
X27907Y16175D02*Y16025D01*
Y16175D02*X27982Y16250D01*
X28132D01*
X28207Y16175D01*
Y16025D01*
X28132Y15950D02*X28207Y16025D01*
X27982Y15950D02*X28132D01*
X27907Y16025D02*X27982Y15950D01*
X28462Y16175D02*Y15950D01*
Y16175D02*X28537Y16250D01*
X28687D01*
X28387D02*X28462Y16175D01*
X28942Y16550D02*Y16025D01*
X29017Y15950D01*
X28867Y16325D02*X29017D01*
X29168Y16550D02*Y15950D01*
Y16175D02*X29243Y16250D01*
X29393D01*
X29468Y16175D01*
Y15950D01*
X20000Y18050D02*X20300D01*
X20150D02*Y17450D01*
X20480Y17900D02*Y17825D01*
Y17675D02*Y17450D01*
X20705Y18050D02*Y17525D01*
X20780Y17450D01*
X20630Y17825D02*X20780D01*
X20930Y18050D02*Y17525D01*
X21005Y17450D01*
X21230D02*X21455D01*
X21155Y17525D02*X21230Y17450D01*
X21155Y17675D02*Y17525D01*
Y17675D02*X21230Y17750D01*
X21380D01*
X21455Y17675D01*
X21155Y17600D02*X21455D01*
Y17675D02*Y17600D01*
X21635Y17825D02*X21710D01*
X21635Y17675D02*X21710D01*
X22160Y18050D02*Y17450D01*
X22460D01*
X22641Y17750D02*X22866D01*
X22641Y17450D02*X22941D01*
X22641Y18050D02*Y17450D01*
Y18050D02*X22941D01*
X23196D02*Y17450D01*
X23421Y18050D02*X23496Y17975D01*
Y17525D01*
X23421Y17450D02*X23496Y17525D01*
X23121Y17450D02*X23421D01*
X23121Y18050D02*X23421D01*
X24021Y17750D02*X24246D01*
X23946Y17675D02*X24021Y17750D01*
X23946Y17675D02*Y17525D01*
X24021Y17450D01*
X24246D01*
X24651Y17750D02*X24726Y17675D01*
X24501Y17750D02*X24651D01*
X24426Y17675D02*X24501Y17750D01*
X24426Y17675D02*Y17525D01*
X24501Y17450D01*
X24726Y17750D02*Y17525D01*
X24801Y17450D01*
X24501D02*X24651D01*
X24726Y17525D01*
X25056Y17675D02*Y17450D01*
Y17675D02*X25131Y17750D01*
X25281D01*
X24981D02*X25056Y17675D01*
X25536D02*Y17450D01*
Y17675D02*X25611Y17750D01*
X25761D01*
X25461D02*X25536Y17675D01*
X25941Y17900D02*Y17825D01*
Y17675D02*Y17450D01*
X26167D02*X26392D01*
X26092Y17525D02*X26167Y17450D01*
X26092Y17675D02*Y17525D01*
Y17675D02*X26167Y17750D01*
X26317D01*
X26392Y17675D01*
X26092Y17600D02*X26392D01*
Y17675D02*Y17600D01*
X26647Y17675D02*Y17450D01*
Y17675D02*X26722Y17750D01*
X26872D01*
X26572D02*X26647Y17675D01*
X27322Y17750D02*Y17600D01*
X27472Y17450D01*
X27622Y17600D01*
Y17750D02*Y17600D01*
X27802Y17450D02*X27877D01*
X28327Y17525D02*X28402Y17450D01*
X28327Y17975D02*Y17525D01*
Y17975D02*X28402Y18050D01*
X28552D01*
X28627Y17975D01*
Y17525D01*
X28552Y17450D02*X28627Y17525D01*
X28402Y17450D02*X28552D01*
X28327Y17600D02*X28627Y17900D01*
X28807Y17450D02*X28882D01*
X29138D02*X29288D01*
X29213Y18050D02*Y17450D01*
X29063Y17900D02*X29213Y18050D01*
X29738Y17750D02*X30038D01*
X30488Y18050D02*Y17450D01*
Y18050D02*X30788D01*
X30488Y17750D02*X30713D01*
X31193D02*X31268Y17675D01*
X31043Y17750D02*X31193D01*
X30968Y17675D02*X31043Y17750D01*
X30968Y17675D02*Y17525D01*
X31043Y17450D01*
X31268Y17750D02*Y17525D01*
X31343Y17450D01*
X31043D02*X31193D01*
X31268Y17525D01*
X31523Y18050D02*Y17450D01*
Y17525D02*X31598Y17450D01*
X31748D01*
X31823Y17525D01*
Y17675D02*Y17525D01*
X31748Y17750D02*X31823Y17675D01*
X31598Y17750D02*X31748D01*
X31523Y17675D02*X31598Y17750D01*
X32078Y17675D02*Y17450D01*
Y17675D02*X32153Y17750D01*
X32303D01*
X32003D02*X32078Y17675D01*
X32483Y17900D02*Y17825D01*
Y17675D02*Y17450D01*
X32709Y17750D02*X32934D01*
X32634Y17675D02*X32709Y17750D01*
X32634Y17675D02*Y17525D01*
X32709Y17450D01*
X32934D01*
X33339Y17750D02*X33414Y17675D01*
X33189Y17750D02*X33339D01*
X33114Y17675D02*X33189Y17750D01*
X33114Y17675D02*Y17525D01*
X33189Y17450D01*
X33414Y17750D02*Y17525D01*
X33489Y17450D01*
X33189D02*X33339D01*
X33414Y17525D01*
X33744Y18050D02*Y17525D01*
X33819Y17450D01*
X33669Y17825D02*X33819D01*
X33969Y17900D02*Y17825D01*
Y17675D02*Y17450D01*
X34119Y17675D02*Y17525D01*
Y17675D02*X34194Y17750D01*
X34344D01*
X34419Y17675D01*
Y17525D01*
X34344Y17450D02*X34419Y17525D01*
X34194Y17450D02*X34344D01*
X34119Y17525D02*X34194Y17450D01*
X34674Y17675D02*Y17450D01*
Y17675D02*X34749Y17750D01*
X34824D01*
X34899Y17675D01*
Y17450D01*
X34599Y17750D02*X34674Y17675D01*
X35424Y18050D02*Y17450D01*
X35649Y18050D02*X35724Y17975D01*
Y17525D01*
X35649Y17450D02*X35724Y17525D01*
X35349Y17450D02*X35649D01*
X35349Y18050D02*X35649D01*
X35980Y17675D02*Y17450D01*
Y17675D02*X36055Y17750D01*
X36205D01*
X35905D02*X35980Y17675D01*
X36610Y17750D02*X36685Y17675D01*
X36460Y17750D02*X36610D01*
X36385Y17675D02*X36460Y17750D01*
X36385Y17675D02*Y17525D01*
X36460Y17450D01*
X36685Y17750D02*Y17525D01*
X36760Y17450D01*
X36460D02*X36610D01*
X36685Y17525D01*
X36940Y17750D02*Y17525D01*
X37015Y17450D01*
X37090D01*
X37165Y17525D01*
Y17750D02*Y17525D01*
X37240Y17450D01*
X37315D01*
X37390Y17525D01*
Y17750D02*Y17525D01*
X37570Y17900D02*Y17825D01*
Y17675D02*Y17450D01*
X37795Y17675D02*Y17450D01*
Y17675D02*X37870Y17750D01*
X37945D01*
X38020Y17675D01*
Y17450D01*
X37720Y17750D02*X37795Y17675D01*
X38425Y17750D02*X38500Y17675D01*
X38275Y17750D02*X38425D01*
X38200Y17675D02*X38275Y17750D01*
X38200Y17675D02*Y17525D01*
X38275Y17450D01*
X38425D01*
X38500Y17525D01*
X38200Y17300D02*X38275Y17225D01*
X38425D01*
X38500Y17300D01*
Y17750D02*Y17300D01*
M02*
