G04 start of page 3 for group 1 idx 3 *
G04 Title: LED carrier v. 0.1, component *
G04 Creator: pcb 1.99x *
G04 CreationDate: Sat Jul 25 11:21:37 2009 UTC *
G04 For: davidellsworth *
G04 Format: Gerber/RS-274X *
G04 PCB-Dimensions: 120000 122000 *
G04 PCB-Coordinate-Origin: lower left *
%MOIN*%
%FSLAX24Y24*%
%LNFRONT*%
%ADD11C,0.0200*%
%ADD12C,0.0400*%
%ADD13C,0.2500*%
%ADD14C,0.0310*%
%ADD15C,0.1250*%
%ADD16C,0.0150*%
%ADD17C,0.0250*%
%ADD18R,0.1300X0.1300*%
%ADD19C,0.0290*%
%ADD20R,0.0020X0.0020*%
%ADD21C,0.0080*%
%ADD22R,0.0380X0.0380*%
%ADD23C,0.0050*%
%ADD24C,0.0020*%
%ADD25C,0.0100*%
G54D11*G36*
X10079Y11300D02*X10079Y10319D01*
X8929D01*
Y11246D01*
X8982Y11300D01*
X10079D01*
G37*
G36*
X2200Y10300D02*Y11900D01*
X3175D01*
X2968Y11692D01*
X2968Y11692D01*
X2960Y11683D01*
X2950Y11673D01*
X2941Y11660D01*
X2934Y11652D01*
X2929Y11642D01*
X2920Y11630D01*
X2914Y11617D01*
X2908Y11607D01*
X2904Y11595D01*
X2898Y11582D01*
X2894Y11568D01*
X2890Y11557D01*
X2888Y11546D01*
X2884Y11532D01*
X2883Y11517D01*
X2881Y11506D01*
Y11494D01*
X2880Y11480D01*
Y10300D01*
X2200D01*
G37*
G36*
X10079Y11300D02*X10079Y10219D01*
X8929D01*
Y11246D01*
X8982Y11300D01*
X10079D01*
G37*
G36*
X7679Y11580D02*X7679Y10269D01*
X6529D01*
Y11241D01*
X6531Y11247D01*
X6545Y11297D01*
X6550Y11350D01*
X6545Y11402D01*
X6531Y11452D01*
X6529Y11458D01*
Y11580D01*
X7679D01*
G37*
G36*
X5279D02*X5279Y10269D01*
X4129D01*
Y11241D01*
X4131Y11247D01*
X4145Y11297D01*
X4150Y11350D01*
X4145Y11402D01*
X4131Y11452D01*
X4129Y11458D01*
Y11580D01*
X5279D01*
G37*
G36*
X7680Y10369D02*Y10039D01*
X7400Y9759D01*
X7340Y9669D01*
X7310Y9599D01*
X7290Y9509D01*
Y9459D01*
X7300Y9409D01*
X7320Y9349D01*
X7350Y9309D01*
X7480Y9169D01*
X7500Y9149D01*
X7520Y9089D01*
X7540Y9059D01*
X7580Y9019D01*
X7660Y8969D01*
X7810Y8919D01*
X7050Y8900D01*
Y10350D01*
X7680Y10369D01*
G37*
G36*
X7890Y9549D02*X7850D01*
Y9629D01*
X7890D01*
X7880Y9589D01*
X7890Y9549D01*
G37*
G36*
X7700Y9149D02*Y9499D01*
X8220D01*
Y9149D01*
X7700D01*
G37*
G36*
Y9239D02*X7500Y9439D01*
X7490Y9469D01*
X7500Y9519D01*
X7510Y9559D01*
X7560Y9629D01*
X7690Y9769D01*
X7960Y9499D01*
X7700Y9239D01*
G37*
G36*
X6530Y10369D02*X7400D01*
Y9752D01*
X7381Y9729D01*
X7349Y9674D01*
X7327Y9614D01*
X7316Y9551D01*
X7316Y9488D01*
X7327Y9425D01*
X7349Y9365D01*
X7381Y9310D01*
X7400Y9287D01*
Y8919D01*
X6400D01*
X6550Y8969D01*
X6630Y9019D01*
X6670Y9059D01*
X6690Y9089D01*
X6710Y9149D01*
X6730Y9169D01*
X6860Y9309D01*
X6890Y9349D01*
X6910Y9409D01*
X6920Y9459D01*
Y9509D01*
X6900Y9599D01*
X6870Y9669D01*
X6810Y9759D01*
X6530Y10039D01*
Y10369D01*
G37*
G36*
X8910Y9149D02*X8390D01*
Y9499D01*
X8910D01*
Y9149D01*
G37*
G36*
X8720Y9549D02*X8730Y9589D01*
X8720Y9629D01*
X8760D01*
Y9549D01*
X8720D01*
G37*
G36*
X8930Y10369D02*X9800D01*
Y8919D01*
X8800D01*
X8950Y8969D01*
X9030Y9019D01*
X9070Y9059D01*
X9090Y9089D01*
X9110Y9149D01*
X9130Y9169D01*
X9260Y9309D01*
X9290Y9349D01*
X9310Y9409D01*
X9320Y9459D01*
Y9509D01*
X9300Y9599D01*
X9270Y9669D01*
X9210Y9759D01*
X8930Y10039D01*
Y10369D01*
G37*
G36*
X8910Y9239D02*X8650Y9499D01*
X8920Y9769D01*
X9050Y9629D01*
X9100Y9559D01*
X9110Y9519D01*
X9120Y9469D01*
X9110Y9439D01*
X8910Y9239D01*
G37*
G36*
X2880Y10039D02*X2600Y9759D01*
X2540Y9669D01*
X2510Y9599D01*
X2490Y9509D01*
Y9459D01*
X2500Y9409D01*
X2520Y9349D01*
X2550Y9309D01*
X2680Y9169D01*
X2700Y9149D01*
X2720Y9089D01*
X2740Y9059D01*
X2780Y9019D01*
X2860Y8969D01*
X3010Y8919D01*
X2010D01*
Y10369D01*
X2880D01*
Y10039D01*
G37*
G36*
X3090Y9549D02*X3050D01*
Y9629D01*
X3090D01*
X3080Y9589D01*
X3090Y9549D01*
G37*
G36*
X2900Y9149D02*Y9499D01*
X3420D01*
Y9149D01*
X2900D01*
G37*
G36*
Y9239D02*X2700Y9439D01*
X2690Y9469D01*
X2700Y9519D01*
X2710Y9559D01*
X2760Y9629D01*
X2890Y9769D01*
X3160Y9499D01*
X2900Y9239D01*
G37*
G36*
X4130Y10369D02*X4750Y10350D01*
Y8900D01*
X4000Y8919D01*
X4150Y8969D01*
X4230Y9019D01*
X4270Y9059D01*
X4290Y9089D01*
X4310Y9149D01*
X4330Y9169D01*
X4460Y9309D01*
X4490Y9349D01*
X4510Y9409D01*
X4520Y9459D01*
Y9509D01*
X4500Y9599D01*
X4470Y9669D01*
X4410Y9759D01*
X4130Y10039D01*
Y10369D01*
G37*
G36*
X5280D02*Y10039D01*
X5000Y9759D01*
X4940Y9669D01*
X4910Y9599D01*
X4890Y9509D01*
Y9459D01*
X4900Y9409D01*
X4920Y9349D01*
X4950Y9309D01*
X5080Y9169D01*
X5100Y9149D01*
X5120Y9089D01*
X5140Y9059D01*
X5180Y9019D01*
X5260Y8969D01*
X5410Y8919D01*
X4650Y8900D01*
Y10350D01*
X5280Y10369D01*
G37*
G36*
X3920Y9549D02*X3930Y9589D01*
X3920Y9629D01*
X3960D01*
Y9549D01*
X3920D01*
G37*
G36*
X4110Y9149D02*X3590D01*
Y9499D01*
X4110D01*
Y9149D01*
G37*
G36*
Y9239D02*X3850Y9499D01*
X4120Y9769D01*
X4250Y9629D01*
X4300Y9559D01*
X4310Y9519D01*
X4320Y9469D01*
X4310Y9439D01*
X4110Y9239D01*
G37*
G36*
X6510Y9149D02*X5990D01*
Y9499D01*
X6510D01*
Y9149D01*
G37*
G36*
X6320Y9549D02*X6330Y9589D01*
X6320Y9629D01*
X6360D01*
Y9549D01*
X6320D01*
G37*
G36*
X6510Y9239D02*X6250Y9499D01*
X6520Y9769D01*
X6650Y9629D01*
X6700Y9559D01*
X6710Y9519D01*
X6720Y9469D01*
X6710Y9439D01*
X6510Y9239D01*
G37*
G36*
X5490Y9549D02*X5450D01*
Y9629D01*
X5490D01*
X5480Y9589D01*
X5490Y9549D01*
G37*
G36*
X5300Y9149D02*Y9499D01*
X5820D01*
Y9149D01*
X5300D01*
G37*
G36*
Y9239D02*X5100Y9439D01*
X5090Y9469D01*
X5100Y9519D01*
X5110Y9559D01*
X5160Y9629D01*
X5290Y9769D01*
X5560Y9499D01*
X5300Y9239D01*
G37*
G36*
X7050Y8950D02*X9800Y8949D01*
Y6539D01*
X7050Y6550D01*
Y8950D01*
G37*
G36*
X4650D02*X7400Y8949D01*
Y6539D01*
X4650Y6550D01*
Y8950D01*
G37*
G36*
X10989Y5150D02*X8250Y5150D01*
Y7550D01*
X10989Y7560D01*
Y5150D01*
G37*
G36*
X4279Y4550D02*X4269Y4510D01*
X4279Y4470D01*
X4239D01*
Y4550D01*
X4279D01*
G37*
G36*
X6189Y5150D02*X3450Y5150D01*
Y7550D01*
X6189Y7560D01*
Y5150D01*
G37*
G36*
X300Y11900D02*X2300D01*
Y7400D01*
X300D01*
Y11900D01*
G37*
G36*
X9700Y7400D02*Y11300D01*
X10117D01*
X11000Y10417D01*
Y7400D01*
X9700D01*
G37*
G36*
X8250Y3750D02*Y5200D01*
X8999Y5180D01*
X8849Y5130D01*
X8769Y5080D01*
X8729Y5040D01*
X8709Y5010D01*
X8689Y4950D01*
X8669Y4930D01*
X8539Y4790D01*
X8509Y4750D01*
X8489Y4690D01*
X8479Y4640D01*
Y4590D01*
X8499Y4500D01*
X8529Y4430D01*
X8589Y4340D01*
X8869Y4060D01*
Y3752D01*
X8867Y3750D01*
X8250D01*
G37*
G36*
X7719Y3730D02*Y4060D01*
X7999Y4340D01*
X8059Y4430D01*
X8089Y4500D01*
X8109Y4590D01*
Y4640D01*
X8099Y4690D01*
X8079Y4750D01*
X8049Y4790D01*
X7919Y4930D01*
X7899Y4950D01*
X7879Y5010D01*
X7859Y5040D01*
X7819Y5080D01*
X7739Y5130D01*
X7589Y5180D01*
X8400Y5200D01*
X8389Y3750D01*
X8250D01*
X8215Y3747D01*
X8181Y3737D01*
X8165Y3730D01*
X7719D01*
G37*
G36*
X8889Y4860D02*X9149Y4600D01*
X8879Y4330D01*
X8749Y4470D01*
X8699Y4540D01*
X8689Y4580D01*
X8679Y4630D01*
X8689Y4660D01*
X8889Y4860D01*
G37*
G36*
X6447Y3731D02*X5850Y3750D01*
Y5200D01*
X6599Y5180D01*
X6449Y5130D01*
X6369Y5080D01*
X6329Y5040D01*
X6309Y5010D01*
X6289Y4950D01*
X6269Y4930D01*
X6139Y4790D01*
X6109Y4750D01*
X6089Y4690D01*
X6079Y4640D01*
Y4590D01*
X6099Y4500D01*
X6129Y4430D01*
X6189Y4340D01*
X6469Y4060D01*
Y3753D01*
X6447Y3731D01*
G37*
G36*
X8589Y5150D02*X5850Y5150D01*
Y7550D01*
X8589Y7560D01*
Y5150D01*
G37*
G36*
X8889Y4950D02*X9409D01*
Y4600D01*
X8889D01*
Y4950D01*
G37*
G36*
X9909Y4550D02*X9949D01*
Y4470D01*
X9909D01*
X9919Y4510D01*
X9909Y4550D01*
G37*
G36*
X9079D02*X9069Y4510D01*
X9079Y4470D01*
X9039D01*
Y4550D01*
X9079D01*
G37*
G36*
X6489Y4860D02*X6749Y4600D01*
X6479Y4330D01*
X6349Y4470D01*
X6299Y4540D01*
X6289Y4580D01*
X6279Y4630D01*
X6289Y4660D01*
X6489Y4860D01*
G37*
G36*
X7699Y4950D02*Y4600D01*
X7179D01*
Y4950D01*
X7699D01*
G37*
G36*
Y4860D02*X7899Y4660D01*
X7909Y4630D01*
X7899Y4580D01*
X7889Y4540D01*
X7839Y4470D01*
X7709Y4330D01*
X7439Y4600D01*
X7699Y4860D01*
G37*
G36*
X10099Y4950D02*Y4600D01*
X9579D01*
Y4950D01*
X10099D01*
G37*
G36*
Y4860D02*X10299Y4660D01*
X10309Y4630D01*
X10299Y4580D01*
X10289Y4540D01*
X10239Y4470D01*
X10109Y4330D01*
X9839Y4600D01*
X10099Y4860D01*
G37*
G36*
X10119Y3730D02*Y4060D01*
X10399Y4340D01*
X10459Y4430D01*
X10489Y4500D01*
X10509Y4590D01*
Y4640D01*
X10499Y4690D01*
X10479Y4750D01*
X10449Y4790D01*
X10319Y4930D01*
X10299Y4950D01*
X10279Y5010D01*
X10259Y5040D01*
X10219Y5080D01*
X10139Y5130D01*
X9989Y5180D01*
X10989D01*
Y3730D01*
X10119D01*
G37*
G36*
X10700Y3700D02*Y7600D01*
X11000D01*
Y3733D01*
X10967Y3700D01*
X10700D01*
G37*
G36*
X10119Y3653D02*Y3782D01*
X11000Y3798D01*
Y3733D01*
X10920Y3653D01*
X10119D01*
G37*
G36*
X8470Y1913D02*X8484Y1918D01*
X8514Y1936D01*
X8541Y1958D01*
X9482Y2900D01*
X11300D01*
X11309Y2900D01*
X11317D01*
X11325Y2902D01*
X11334Y2903D01*
X11343Y2905D01*
X11351Y2906D01*
X11360Y2909D01*
X11368Y2912D01*
X11376Y2915D01*
X11384Y2918D01*
X11391Y2922D01*
X11400Y2926D01*
X11407Y2932D01*
X11414Y2936D01*
X11421Y2941D01*
X11428Y2946D01*
X11435Y2953D01*
X11441Y2958D01*
X11582Y3100D01*
X11600D01*
Y300D01*
X8470D01*
Y1913D01*
G37*
G36*
X530Y2310D02*X520D01*
X520Y3780D01*
X1670D01*
Y3320D01*
X850D01*
X794Y3315D01*
X740Y3300D01*
X690Y3277D01*
X644Y3245D01*
X604Y3205D01*
X572Y3160D01*
X549Y3109D01*
X534Y3055D01*
X530Y3000D01*
Y2310D01*
G37*
G36*
X1669Y3730D02*X799D01*
Y5180D01*
X1799D01*
X1649Y5130D01*
X1569Y5080D01*
X1529Y5040D01*
X1509Y5010D01*
X1489Y4950D01*
X1469Y4930D01*
X1339Y4790D01*
X1309Y4750D01*
X1289Y4690D01*
X1279Y4640D01*
Y4590D01*
X1299Y4500D01*
X1329Y4430D01*
X1389Y4340D01*
X1669Y4060D01*
Y3730D01*
G37*
G36*
X1689Y4860D02*X1949Y4600D01*
X1679Y4330D01*
X1549Y4470D01*
X1499Y4540D01*
X1489Y4580D01*
X1479Y4630D01*
X1489Y4660D01*
X1689Y4860D01*
G37*
G36*
X1879Y4550D02*X1869Y4510D01*
X1879Y4470D01*
X1839D01*
Y4550D01*
X1879D01*
G37*
G36*
X2709D02*X2749D01*
Y4470D01*
X2709D01*
X2719Y4510D01*
X2709Y4550D01*
G37*
G36*
X2899Y4950D02*Y4600D01*
X2379D01*
Y4950D01*
X2899D01*
G37*
G36*
Y4860D02*X3099Y4660D01*
X3109Y4630D01*
X3099Y4580D01*
X3089Y4540D01*
X3039Y4470D01*
X2909Y4330D01*
X2639Y4600D01*
X2899Y4860D01*
G37*
G36*
X1689Y4950D02*X2209D01*
Y4600D01*
X1689D01*
Y4950D01*
G37*
G36*
X2920Y3500D02*X2920Y3780D01*
X4070D01*
Y3500D01*
X2920D01*
G37*
G36*
X300Y7700D02*X900D01*
Y3320D01*
X850D01*
X794Y3315D01*
X740Y3300D01*
X690Y3277D01*
X644Y3245D01*
X604Y3205D01*
X572Y3160D01*
X549Y3109D01*
X534Y3055D01*
X530Y3000D01*
Y300D01*
X300D01*
Y7700D01*
G37*
G36*
X2010Y8949D02*X4750Y8950D01*
Y6550D01*
X2010Y6539D01*
Y8949D01*
G37*
G36*
X3550Y5150D02*X799Y5150D01*
Y7560D01*
X3550Y7550D01*
Y5150D01*
G37*
G36*
X6489Y4950D02*X7009D01*
Y4600D01*
X6489D01*
Y4950D01*
G37*
G36*
X7509Y4550D02*X7549D01*
Y4470D01*
X7509D01*
X7519Y4510D01*
X7509Y4550D01*
G37*
G36*
X6679D02*X6669Y4510D01*
X6679Y4470D01*
X6639D01*
Y4550D01*
X6679D01*
G37*
G36*
X4089Y4950D02*X4609D01*
Y4600D01*
X4089D01*
Y4950D01*
G37*
G36*
X5109Y4550D02*X5149D01*
Y4470D01*
X5109D01*
X5119Y4510D01*
X5109Y4550D01*
G37*
G36*
X4089Y4860D02*X4349Y4600D01*
X4079Y4330D01*
X3949Y4470D01*
X3899Y4540D01*
X3889Y4580D01*
X3879Y4630D01*
X3889Y4660D01*
X4089Y4860D01*
G37*
G36*
X5299Y4950D02*Y4600D01*
X4779D01*
Y4950D01*
X5299D01*
G37*
G36*
Y4860D02*X5499Y4660D01*
X5509Y4630D01*
X5499Y4580D01*
X5489Y4540D01*
X5439Y4470D01*
X5309Y4330D01*
X5039Y4600D01*
X5299Y4860D01*
G37*
G36*
X5319Y3730D02*Y4060D01*
X5599Y4340D01*
X5659Y4430D01*
X5689Y4500D01*
X5709Y4590D01*
Y4640D01*
X5699Y4690D01*
X5679Y4750D01*
X5649Y4790D01*
X5519Y4930D01*
X5499Y4950D01*
X5479Y5010D01*
X5459Y5040D01*
X5419Y5080D01*
X5339Y5130D01*
X5189Y5180D01*
X5950Y5200D01*
Y3750D01*
X5319Y3730D01*
G37*
G36*
X4069D02*X3450Y3750D01*
Y5200D01*
X4199Y5180D01*
X4049Y5130D01*
X3969Y5080D01*
X3929Y5040D01*
X3909Y5010D01*
X3889Y4950D01*
X3869Y4930D01*
X3739Y4790D01*
X3709Y4750D01*
X3689Y4690D01*
X3679Y4640D01*
Y4590D01*
X3699Y4500D01*
X3729Y4430D01*
X3789Y4340D01*
X4069Y4060D01*
Y3730D01*
G37*
G36*
X2919D02*Y4060D01*
X3199Y4340D01*
X3259Y4430D01*
X3289Y4500D01*
X3309Y4590D01*
Y4640D01*
X3299Y4690D01*
X3279Y4750D01*
X3249Y4790D01*
X3119Y4930D01*
X3099Y4950D01*
X3079Y5010D01*
X3059Y5040D01*
X3019Y5080D01*
X2939Y5130D01*
X2789Y5180D01*
X3550Y5200D01*
Y3750D01*
X2919Y3730D01*
G37*
G36*
X5320Y3500D02*X5320Y3780D01*
X6470D01*
Y3754D01*
X6216Y3500D01*
X5320D01*
G37*
G54D17*X6419Y4570D02*X6749Y4230D01*
G54D11*X6800Y3300D02*X6300Y2800D01*
X7419Y4180D02*Y3770D01*
X6769Y4180D02*Y3770D01*
X4800Y3300D02*X6299D01*
X6800D02*X8000D01*
X6299D02*X6769Y3770D01*
X5019Y4180D02*Y3770D01*
G54D17*X5369Y4570D02*X5039Y4230D01*
G54D11*X10200Y11500D02*X8900D01*
X8630Y9919D02*Y11230D01*
X8900Y11500D02*X8630Y11230D01*
G54D17*X8980Y9529D02*X8650Y9869D01*
X7630Y9529D02*X7960Y9869D01*
G54D11*X7980Y9919D02*Y11800D01*
G54D17*X6580Y9529D02*X6250Y9869D01*
G54D11*X6230Y9919D02*Y11330D01*
X6250Y11350D01*
X3830Y11330D02*X3850Y11350D01*
X5580Y9919D02*Y11800D01*
X3830Y9919D02*Y11330D01*
G54D17*X5230Y9529D02*X5560Y9869D01*
X4180Y9529D02*X3850Y9869D01*
G54D11*X3180Y9919D02*Y11480D01*
X3500Y11800D01*
G54D17*X2830Y9529D02*X3160Y9869D01*
G54D11*X11500Y10700D02*X10400Y11800D01*
X11200Y10500D02*X10200Y11500D01*
X10400Y11800D02*X3500D01*
X9300Y3450D02*X9000Y3150D01*
X8400Y2100D02*X8000D01*
X9400Y3100D02*X8400Y2100D01*
X9000Y3150D02*X8450D01*
X8950Y3550D02*X8250D01*
G54D17*X7769Y4570D02*X7439Y4230D01*
G54D11*X9300Y3450D02*X11000D01*
X11300Y3100D02*X9400D01*
X11000Y3450D02*X11200Y3650D01*
X9819Y4180D02*Y3770D01*
X11300Y3100D02*X11500Y3300D01*
G54D17*X10169Y4570D02*X9839Y4230D01*
G54D11*X9169Y4180D02*Y3769D01*
G54D17*X8819Y4570D02*X9149Y4230D01*
G54D11*X9169Y3769D02*X8950Y3550D01*
X8000Y3300D02*X8250Y3550D01*
X4369Y4180D02*Y3569D01*
X4100Y3300D01*
X2800D01*
G54D17*X4019Y4570D02*X4349Y4230D01*
G54D11*X2800Y3300D02*X2300Y2800D01*
X2100D01*
X6300D02*X6000D01*
X4000D02*X4300D01*
X4800Y3300D01*
X2650Y4210D02*X2619Y3770D01*
X1969Y4180D02*Y3770D01*
G54D17*X1619Y4570D02*X1949Y4230D01*
X3000Y4600D02*X2670Y4260D01*
G54D11*X11500Y3300D02*Y10700D01*
X11200Y3650D02*Y10500D01*
G54D12*X8450Y3150D03*
X7350Y3750D03*
X9750Y3850D03*
G54D13*X10100Y1600D03*
G54D14*X9510Y8579D03*
X9460Y8219D03*
X10760Y6249D03*
X10699Y5520D03*
X10649Y5880D03*
X10699Y5150D03*
X9859Y6660D03*
X9499Y6560D03*
X10249Y6760D03*
X10499Y6470D03*
X9560Y7850D03*
X9510Y8949D03*
X9800Y7500D03*
X10150Y7150D03*
X10669Y6830D03*
X9500Y7250D03*
X9750Y7000D03*
X9200D03*
X9190Y8769D03*
X9140Y8399D03*
Y8039D03*
X9050Y7339D03*
X9300Y7629D03*
X8300Y6800D03*
X8749Y6760D03*
X7350Y7000D03*
X7849Y6760D03*
X8659Y6060D03*
X8300Y6150D03*
X8499Y6470D03*
G54D11*X7099Y6250D03*
G54D14*X7929Y6060D03*
X8099Y6470D03*
X8300Y5750D03*
G54D11*X7099Y5750D03*
G54D14*X7269Y5390D03*
X7629D03*
X7929Y5700D03*
X7979Y5330D03*
X7459Y6660D03*
G54D11*X9499Y5750D03*
Y6250D03*
G54D14*X9669Y5390D03*
X9319D03*
X10029D03*
X10379Y5330D03*
X10329Y5700D03*
Y6060D03*
X8959Y5390D03*
X8609Y5330D03*
X8659Y5700D03*
X8300Y5150D03*
X9129Y6660D03*
X7099Y6560D03*
X7100Y8950D03*
Y8350D03*
Y7250D03*
Y7950D03*
X8840Y8709D03*
X8480D03*
G54D11*X8300Y8349D03*
Y7849D03*
G54D14*X7940Y7439D03*
X8300Y7539D03*
X8670Y7439D03*
X8600Y7100D03*
X8050D03*
X8130Y8709D03*
X7770D03*
X7420Y8769D03*
X7470Y8399D03*
Y8039D03*
X7300Y7629D03*
X7550Y7339D03*
X3500Y5750D03*
X3859Y5700D03*
X3500Y5150D03*
X3809Y5330D03*
X4159Y5390D03*
X4519D03*
X1759D03*
G54D12*X2550Y3700D03*
X2050Y3850D03*
G54D14*X2119Y5390D03*
X2469D03*
X3129Y6060D03*
Y5700D03*
G54D11*X2299Y5750D03*
G54D14*X3179Y5330D03*
X2829Y5390D03*
X5529Y5700D03*
X5579Y5330D03*
X5229Y5390D03*
X3500Y6150D03*
X3859Y6060D03*
X5529D03*
X5059Y6660D03*
G54D12*X4950Y3750D03*
G54D14*X4869Y5390D03*
G54D11*X4699Y5750D03*
Y6250D03*
G54D14*X6800Y7000D03*
X6729Y6660D03*
X6740Y8039D03*
X6900Y7629D03*
X6650Y7339D03*
X6919Y5390D03*
X6559D03*
X5900Y5150D03*
X6209Y5330D03*
X6259Y5700D03*
Y6060D03*
X5900Y5750D03*
X6200Y7100D03*
X5900Y6800D03*
Y6150D03*
X6349Y6760D03*
X6099Y6470D03*
X5900Y7539D03*
X6270Y7439D03*
X2380Y7269D03*
X2600Y7000D03*
X2750Y7339D03*
X3699Y6470D03*
X3949Y6760D03*
X4329Y6660D03*
X3299Y6470D03*
X3800Y7100D03*
X3870Y7439D03*
X4250Y7339D03*
X3250Y7100D03*
X3140Y7439D03*
X3500Y7539D03*
G54D11*Y7849D03*
G54D14*X2670Y8039D03*
X2299Y6560D03*
G54D11*Y6250D03*
G54D14*X2659Y6660D03*
X3049Y6760D03*
X5699Y6470D03*
X5449Y6760D03*
X5650Y7100D03*
G54D11*X5900Y7849D03*
G54D14*X5540Y7439D03*
X4700Y7950D03*
X4500Y7629D03*
X4700Y7250D03*
X5070Y8039D03*
X4900Y7629D03*
X5150Y7339D03*
X1459Y6060D03*
Y5700D03*
X1409Y5330D03*
X1089Y5520D03*
X1299Y6470D03*
X1650Y7150D03*
X1169Y6830D03*
X1929Y6660D03*
X1549Y6760D03*
X1089Y5150D03*
X1139Y5880D03*
X2000Y7500D03*
X2239Y7850D03*
X2050Y7000D03*
X1039Y6249D03*
X2500Y7629D03*
X2300Y8949D03*
X2350Y8219D03*
X2300Y8579D03*
X2670Y8399D03*
X2620Y8769D03*
G54D13*X1600Y10600D03*
G54D12*X6250Y11350D03*
X3850D03*
G54D14*X6440Y8709D03*
X6080D03*
X5730D03*
X6790Y8769D03*
X6740Y8399D03*
G54D11*X5900Y8349D03*
G54D14*X4699Y6560D03*
X4950Y7000D03*
X4400D03*
X3500Y6800D03*
X4040Y8709D03*
X4390Y8769D03*
X4340Y8399D03*
Y8039D03*
X4700Y8950D03*
Y8350D03*
X5070Y8399D03*
X3680Y8709D03*
X2970D03*
X3330D03*
G54D11*X3500Y8349D03*
G54D14*X5370Y8709D03*
X5020Y8769D03*
G54D18*X1500Y2350D02*Y650D01*
X3500Y2350D02*Y650D01*
X5500Y2350D02*Y650D01*
X7500Y2350D02*Y650D01*
G54D19*X7560Y4740D02*X7720Y4580D01*
G54D20*X7210Y4770D02*X7530D01*
G54D19*X9960Y4740D02*X10120Y4580D01*
G54D20*X9610Y4770D02*X9930D01*
G54D19*X8870Y4580D02*X9030Y4740D01*
G54D20*X9060Y4770D02*X9380D01*
G54D19*X6470Y4580D02*X6630Y4740D01*
G54D20*X6660Y4770D02*X6980D01*
G54D19*X5160Y4740D02*X5320Y4580D01*
G54D20*X4810Y4770D02*X5130D01*
G54D19*X4070Y4580D02*X4230Y4740D01*
X2760D02*X2920Y4580D01*
G54D20*X2410Y4770D02*X2730D01*
G54D19*X1670Y4580D02*X1830Y4740D01*
G54D20*X1860Y4770D02*X2180D01*
X4260D02*X4580D01*
G54D19*X6340Y7880D02*X6570Y7650D01*
G54D21*X6120Y8310D02*Y7760D01*
G54D22*X6280Y8270D02*Y7910D01*
G54D21*X6460Y8420D02*Y7820D01*
G54D23*X6060Y8210D02*X6110Y8340D01*
G54D24*X6090Y8450D02*Y7810D01*
G54D23*X6070Y7970D02*X6120Y7840D01*
G54D19*X6370Y9360D02*X6530Y9520D01*
G54D20*X6020Y9330D02*X6340D01*
G54D19*X7680Y9520D02*X7840Y9360D01*
G54D20*X7870Y9330D02*X8190D01*
G54D19*X8770Y9360D02*X8930Y9520D01*
G54D20*X8420Y9330D02*X8740D01*
G54D19*X5280Y9520D02*X5440Y9360D01*
G54D20*X5470Y9330D02*X5790D01*
G54D19*X2880Y9520D02*X3040Y9360D01*
G54D20*X3070Y9330D02*X3390D01*
G54D19*X3970Y9360D02*X4130Y9520D01*
G54D20*X3620Y9330D02*X3940D01*
G54D19*X5240Y7650D02*X5470Y7880D01*
G54D21*X5350Y8420D02*Y7800D01*
G54D22*X5530Y8270D02*Y7910D01*
G54D24*X5720Y8450D02*Y7810D01*
G54D21*X5690Y8380D02*Y7760D01*
G54D23*X5770Y8010D02*X5920Y8070D01*
G54D25*X6010Y8060D02*X6110Y7970D01*
G54D23*X5910Y8060D02*X6060Y8010D01*
X5700Y8330D02*X5750Y8210D01*
G54D25*X5670Y8270D02*X5800Y8140D01*
X5700Y7960D02*X5800Y8060D01*
G54D23*X5700Y7860D02*X5750Y8000D01*
G54D24*X6090Y8450D02*Y7820D01*
G54D23*X5900Y8140D02*X6050Y8190D01*
G54D16*X5710Y8100D02*X6100D01*
G54D23*X5770Y8190D02*X5920Y8140D01*
G54D25*X6010D02*X6110Y8240D01*
G54D16*X8110Y8100D02*X8500D01*
G54D25*X8410Y8140D02*X8510Y8240D01*
G54D23*X8170Y8190D02*X8320Y8140D01*
G54D21*X8090Y8380D02*Y7760D01*
G54D24*X8490Y8450D02*Y7810D01*
G54D23*X8470Y7970D02*X8520Y7840D01*
G54D21*X2950Y8420D02*Y7800D01*
G54D19*X2840Y7650D02*X3070Y7880D01*
G54D23*X3300Y8330D02*X3350Y8210D01*
G54D25*X3270Y8270D02*X3400Y8140D01*
G54D22*X3130Y8270D02*Y7910D01*
G54D24*X3320Y8450D02*Y7810D01*
G54D21*X3290Y8380D02*Y7760D01*
G54D23*X3370Y8010D02*X3520Y8070D01*
X3510Y8060D02*X3660Y8010D01*
G54D25*X3300Y7960D02*X3400Y8060D01*
G54D23*X3300Y7860D02*X3350Y8000D01*
G54D16*X3310Y8100D02*X3700D01*
G54D23*X3370Y8190D02*X3520Y8140D01*
G54D21*X4060Y8420D02*Y7820D01*
G54D19*X3940Y7880D02*X4170Y7650D01*
G54D22*X3880Y8270D02*Y7910D01*
G54D21*X3720Y8310D02*Y7760D01*
G54D25*X3610Y8060D02*X3710Y7970D01*
G54D23*X3670D02*X3720Y7840D01*
G54D24*X3690Y8450D02*Y7820D01*
G54D23*X3660Y8210D02*X3710Y8340D01*
X3500Y8140D02*X3650Y8190D01*
G54D25*X3610Y8140D02*X3710Y8240D01*
G54D24*X3690Y8450D02*Y7810D01*
G54D21*X5250Y6300D02*Y5680D01*
G54D19*X5130Y6220D02*X5360Y6450D01*
G54D23*X4850Y5890D02*X4900Y5770D01*
G54D25*X4800Y5960D02*X4930Y5830D01*
G54D22*X5070Y6190D02*Y5830D01*
G54D24*X4880Y6290D02*Y5650D01*
G54D21*X4910Y6340D02*Y5720D01*
G54D23*X4680Y6030D02*X4830Y6090D01*
X4540D02*X4690Y6040D01*
G54D25*X4800D02*X4900Y6140D01*
G54D23*X4850Y6100D02*X4900Y6240D01*
G54D16*X4500Y6000D02*X4890D01*
G54D23*X4680Y5960D02*X4830Y5910D01*
G54D21*X4140Y6280D02*Y5680D01*
G54D19*X4030Y6450D02*X4260Y6220D01*
G54D22*X4320Y6190D02*Y5830D01*
G54D21*X4480Y6340D02*Y5790D01*
G54D25*X4490Y6130D02*X4590Y6040D01*
G54D23*X4480Y6260D02*X4530Y6130D01*
G54D24*X4510Y6280D02*Y5650D01*
G54D23*X4490Y5760D02*X4540Y5890D01*
X4550Y5910D02*X4700Y5960D01*
G54D25*X4490Y5860D02*X4590Y5960D01*
G54D24*X4510Y6290D02*Y5650D01*
G54D21*X2850Y6300D02*Y5680D01*
G54D19*X2730Y6220D02*X2960Y6450D01*
G54D23*X2450Y5890D02*X2500Y5770D01*
G54D25*X2400Y5960D02*X2530Y5830D01*
G54D22*X2670Y6190D02*Y5830D01*
G54D24*X2480Y6290D02*Y5650D01*
G54D21*X2510Y6340D02*Y5720D01*
G54D23*X2280Y6030D02*X2430Y6090D01*
X2140D02*X2290Y6040D01*
G54D25*X2400D02*X2500Y6140D01*
G54D23*X2450Y6100D02*X2500Y6240D01*
G54D16*X2100Y6000D02*X2490D01*
G54D23*X2280Y5960D02*X2430Y5910D01*
G54D21*X1740Y6280D02*Y5680D01*
G54D19*X1630Y6450D02*X1860Y6220D01*
G54D22*X1920Y6190D02*Y5830D01*
G54D21*X2080Y6340D02*Y5790D01*
G54D25*X2090Y6130D02*X2190Y6040D01*
G54D23*X2080Y6260D02*X2130Y6130D01*
G54D24*X2110Y6280D02*Y5650D01*
G54D23*X2090Y5760D02*X2140Y5890D01*
X2150Y5910D02*X2300Y5960D01*
G54D25*X2090Y5860D02*X2190Y5960D01*
G54D24*X2110Y6290D02*Y5650D01*
G54D19*X6430Y6450D02*X6660Y6220D01*
X7530D02*X7760Y6450D01*
G54D23*X7250Y6100D02*X7300Y6240D01*
X6880Y6260D02*X6930Y6130D01*
G54D21*X7650Y6300D02*Y5680D01*
G54D22*X7470Y6190D02*Y5830D01*
G54D24*X7280Y6290D02*Y5650D01*
G54D21*X7310Y6340D02*Y5720D01*
G54D23*X7080Y6030D02*X7230Y6090D01*
X6940D02*X7090Y6040D01*
G54D25*X7200D02*X7300Y6140D01*
G54D16*X6900Y6000D02*X7290D01*
G54D23*X7080Y5960D02*X7230Y5910D01*
G54D21*X6540Y6280D02*Y5680D01*
G54D22*X6720Y6190D02*Y5830D01*
G54D21*X6880Y6340D02*Y5790D01*
G54D25*X6890Y6130D02*X6990Y6040D01*
G54D23*X7250Y5890D02*X7300Y5770D01*
G54D25*X7200Y5960D02*X7330Y5830D01*
G54D24*X6910Y6280D02*Y5650D01*
G54D23*X6890Y5760D02*X6940Y5890D01*
X6950Y5910D02*X7100Y5960D01*
G54D25*X6890Y5860D02*X6990Y5960D01*
G54D24*X6910Y6290D02*Y5650D01*
G54D21*X10050Y6300D02*Y5680D01*
G54D19*X9930Y6220D02*X10160Y6450D01*
G54D22*X9870Y6190D02*Y5830D01*
G54D19*X8830Y6450D02*X9060Y6220D01*
G54D22*X9120Y6190D02*Y5830D01*
G54D21*X8940Y6280D02*Y5680D01*
G54D23*X9290Y5760D02*X9340Y5890D01*
G54D24*X9310Y6290D02*Y5650D01*
G54D23*X9280Y6260D02*X9330Y6130D01*
G54D21*X9280Y6340D02*Y5790D01*
G54D24*X9310Y6280D02*Y5650D01*
G54D25*X9290Y6130D02*X9390Y6040D01*
G54D23*X9340Y6090D02*X9490Y6040D01*
X9350Y5910D02*X9500Y5960D01*
G54D25*X9290Y5860D02*X9390Y5960D01*
G54D23*X9650Y5890D02*X9700Y5770D01*
X9480Y6030D02*X9630Y6090D01*
G54D25*X9600Y6040D02*X9700Y6140D01*
G54D23*X9650Y6100D02*X9700Y6240D01*
G54D16*X9300Y6000D02*X9690D01*
G54D23*X9480Y5960D02*X9630Y5910D01*
G54D25*X9600Y5960D02*X9730Y5830D01*
G54D24*X9680Y6290D02*Y5650D01*
G54D21*X9710Y6340D02*Y5720D01*
X7750Y8420D02*Y7800D01*
G54D19*X7640Y7650D02*X7870Y7880D01*
G54D23*X8170Y8010D02*X8320Y8070D01*
G54D21*X8520Y8310D02*Y7760D01*
G54D24*X8490Y8450D02*Y7820D01*
G54D25*X8410Y8060D02*X8510Y7970D01*
G54D21*X8860Y8420D02*Y7820D01*
G54D19*X8740Y7880D02*X8970Y7650D01*
G54D22*X8680Y8270D02*Y7910D01*
G54D23*X8310Y8060D02*X8460Y8010D01*
X8300Y8140D02*X8450Y8190D01*
X8460Y8210D02*X8510Y8340D01*
X8100Y8330D02*X8150Y8210D01*
G54D22*X7930Y8270D02*Y7910D01*
G54D25*X8100Y7960D02*X8200Y8060D01*
G54D23*X8100Y7860D02*X8150Y8000D01*
G54D25*X8070Y8270D02*X8200Y8140D01*
G54D24*X8120Y8450D02*Y7810D01*
G54D11*G54D15*G54D11*G54D16*G54D11*G54D16*G54D11*G54D16*G54D11*G54D16*G54D11*G54D16*G54D11*G54D16*G54D11*G54D16*G54D11*G54D16*G54D11*G54D16*G54D11*G54D15*G54D11*G54D16*G54D11*G54D16*G54D11*M02*
