%
M48
M72
T01C0.015000
T02C0.040000
T03C0.051000
T04C0.059000
T05C0.120000
%
T01
X000072000Y000120500
X000067250Y000135250
X000067000Y000145250
X000069250Y000139000
X000071750Y000141500
X000071720Y000142220
X000067750Y000142250
X000067750Y000141750
X000067750Y000141000
X000070250Y000146000
X000070750Y000136750
X000081750Y000137250
X000080000Y000141750
X000081000Y000140750
X000081500Y000140750
X000081000Y000137500
X000080500Y000137500
X000076000Y000141750
X000074000Y000142000
X000071500Y000147000
X000076250Y000136750
X000081750Y000136750
X000072750Y000135250
X000078250Y000135250
X000077250Y000120500
X000082750Y000120500
X000082750Y000145250
T02
X000078000Y000141500
X000079000Y000141500
X000077000Y000139750
X000079000Y000138750
X000078000Y000138750
X000077000Y000138750
X000078000Y000139750
X000079000Y000139750
T03
X000068250Y000131940
X000071250Y000131940
X000076880Y000147000
X000075500Y000147000
X000074120Y000147000
X000079250Y000131940
X000082250Y000131940
X000073750Y000131940
X000076750Y000131940
T04
X000071310Y000118250
X000071250Y000124070
X000068250Y000125440
X000068250Y000122690
X000073280Y000118250
X000075250Y000118250
X000077220Y000118250
X000079190Y000118250
X000082250Y000124070
X000079250Y000125440
X000079250Y000122690
X000076750Y000124070
X000073750Y000125440
X000073750Y000122690
T05
X000069000Y000116500
X000081500Y000148500
X000069000Y000148500
X000082000Y000116500
M30
