G04 ================== begin FILE IDENTIFICATION RECORD ==================*
G04 Layout Name:  C:/cygwin/home/konkers/play/flg/relay3/worklib/toplevel/physical/relay3.brd*
G04 Film Name:    TOP*
G04 File Format:  Gerber RS274X*
G04 File Origin:  15.7-p007*
G04 Origin Date:  Wed Jun 24 02:32:34 2009*
G04 *
G04 Layer:  ETCH/TOP*
G04 Layer:  PIN/TOP*
G04 Layer:  VIA CLASS/TOP*
G04 *
G04 Offset:    (0 0)*
G04 Mirror:    No*
G04 Mode:      Positive*
G04 Rotation:  0*
G04 FullContactRelief:  No*
G04 UndefLineWidth:     5*
G04 ================== end FILE IDENTIFICATION RECORD ====================*
%FSLAX54Y54*MOIN*%
%IR0*IPPOS*OFA0.00000B0.00000*MIA0B0*SFA1.00000B1.00000*%
%ADD15C,.03*%
%ADD23C,.06*%
%ADD13C,.063*%
%ADD16R,.05X.05*%
%ADD24R,.06X.06*%
%ADD25R,.063X.063*%
%ADD12C,.079*%
%ADD20R,.064X.064*%
%ADD17R,.177X.047*%
%ADD19R,.079X.079*%
%ADD10C,.13*%
%ADD22R,.013X.06*%
%ADD21R,.06X.013*%
%ADD18R,.012X.028*%
%ADD14R,.028X.039*%
%ADD11R,.067X.098*%
%ADD26C,.01*%
%ADD27C,.02*%
%ADD28C,.05*%
G75*
%LPD*%
G75*
G54D10*
X69000Y116500D03*
Y148500D03*
X81500D03*
X82000Y116500D03*
G54D11*
X69170Y120500D03*
X70830D03*
X71580Y133750D03*
X69920D03*
X74670Y120500D03*
X76330D03*
X77080Y133750D03*
X75420D03*
X79920Y120500D03*
X80920Y133750D03*
X81580Y120500D03*
X82580Y133750D03*
G54D20*
X70000Y134830D03*
Y136170D03*
X75500Y134830D03*
Y136170D03*
X81000Y134830D03*
Y136170D03*
X80580Y141750D03*
X81920D03*
X82750Y143080D03*
Y144420D03*
G54D21*
X70980Y140650D03*
Y140960D03*
Y141280D03*
Y141590D03*
Y141910D03*
Y142220D03*
Y142540D03*
Y142850D03*
X74520Y140960D03*
Y140650D03*
Y142850D03*
Y142540D03*
Y142220D03*
Y141910D03*
Y141590D03*
Y141280D03*
G54D12*
X68250Y122690D03*
Y125440D03*
X71250Y124070D03*
X73280Y118250D03*
X75250D03*
X73750Y122690D03*
Y125440D03*
X77220Y118250D03*
X76750Y124070D03*
X79190Y118250D03*
X79250Y122690D03*
Y125440D03*
X82250Y124070D03*
G54D22*
X71960Y139980D03*
X71650D03*
Y143520D03*
X71960D03*
X73850Y139980D03*
X73540D03*
X73220D03*
X72910D03*
X72590D03*
X72280D03*
Y143520D03*
X72590D03*
X72910D03*
X73220D03*
X73540D03*
X73850D03*
G54D13*
X68250Y131940D03*
X71250D03*
X73750D03*
X74120Y147000D03*
X76750Y131940D03*
X75500Y147000D03*
X79250Y131940D03*
X82250D03*
G54D14*
X68630Y134470D03*
X67870D03*
X68250Y133530D03*
X74130Y134470D03*
X73370D03*
X73750Y133530D03*
X79630Y134470D03*
X78870D03*
X79250Y133530D03*
G54D23*
X77000Y139750D03*
X78000Y138750D03*
Y139750D03*
X79000Y138750D03*
Y139750D03*
Y141500D03*
G54D24*
X77000Y138750D03*
X78000Y141500D03*
G54D15*
G01X69170Y120500D02*
Y120580D01*
X68250Y121500D01*
Y122690D01*
G01X69170Y120500D02*
X70170Y119500D01*
X73250D01*
X74500Y118250D01*
X75250D01*
G01X69400Y142250D02*
Y142800D01*
X69170Y143030D01*
X67970D01*
X67500Y143500D01*
Y144500D01*
X67750Y144750D01*
X68750D01*
G01D02*
X76750D01*
G01X71250Y131940D02*
X71940Y131250D01*
X76000D01*
X76690Y131940D01*
X76750D01*
G01X69400Y142250D02*
Y141250D01*
G01X74670Y120500D02*
X74750D01*
X77000Y118250D01*
X77220D01*
G01X73750Y122690D02*
Y121420D01*
X74670Y120500D01*
G01X82250Y131940D02*
X81560Y131250D01*
X77500D01*
X76810Y131940D01*
X76750D01*
G01Y144750D02*
X79000Y142500D01*
Y141500D01*
G01X76750Y144750D02*
X77000Y145000D01*
X81000D01*
X81920Y144080D01*
Y141750D01*
G01X79190Y118250D02*
Y119690D01*
X79750Y120250D01*
Y120330D01*
X79920Y120500D01*
G01D02*
X79250Y121170D01*
Y122690D01*
G01X82250Y131940D02*
Y124070D01*
G01X82580Y133750D02*
X82750Y133580D01*
Y132500D01*
X82250Y132000D01*
Y131940D01*
G01X83150Y137250D02*
Y134320D01*
X82580Y133750D01*
G01X83000Y138600D02*
Y137400D01*
X83150Y137250D01*
X67250Y135250D03*
X67750Y141000D03*
Y142250D03*
Y141750D03*
X67000Y145250D03*
X72000Y120500D03*
X70750Y136750D03*
X69250Y139000D03*
X71750Y141500D03*
X71720Y142220D03*
X70250Y146000D03*
X71500Y147000D03*
X72750Y135250D03*
X74000Y142000D03*
X77250Y120500D03*
X76250Y136750D03*
X76000Y141750D03*
X81000Y137500D03*
X80500D03*
X78250Y135250D03*
X81000Y140750D03*
X80000Y141750D03*
X82750Y120500D03*
X81750Y137250D03*
Y136750D03*
X81500Y140750D03*
X82750Y145250D03*
G54D25*
X76880Y147000D03*
G54D16*
X67850Y136250D03*
X68650D03*
Y135250D03*
X67850D03*
X68600Y141250D03*
X67750Y140400D03*
Y139600D03*
X68600Y142250D03*
X67500Y146400D03*
Y145600D03*
X71250Y135100D03*
Y135900D03*
X69400Y141250D03*
X69350Y139750D03*
X70150D03*
X69400Y142250D03*
X72100Y147000D03*
X73350Y136250D03*
X74150D03*
Y135250D03*
X73350D03*
X72900Y147000D03*
X76750Y135100D03*
Y135900D03*
X76400Y141000D03*
X75600D03*
X78850Y136250D03*
X79650D03*
Y135250D03*
X78850D03*
X82250Y135100D03*
X82350Y137250D03*
X83150D03*
X82250Y135900D03*
X83000Y139400D03*
Y138600D03*
G54D26*
G01X68250Y131940D02*
Y133530D01*
G01X69920Y133750D02*
X69250D01*
X69030Y133530D01*
X68250D01*
G01X68630Y134470D02*
Y135230D01*
X68650Y135250D01*
G01X67870Y134470D02*
Y135230D01*
X67850Y135250D01*
G01X68650D02*
Y136250D01*
G01X67850D02*
X69100Y137500D01*
X72500D01*
X72590Y137590D01*
Y139980D01*
G01X67850Y135250D02*
X67250D01*
G01X67770Y138250D02*
X68750Y139230D01*
Y139870D01*
X69840Y140960D01*
X70980D01*
G01X67750Y139600D02*
Y138270D01*
X67770Y138250D01*
G01X67750Y140400D02*
Y141000D01*
G01X68750Y143690D02*
X69250D01*
G01X68250D02*
X68810Y144250D01*
X72000D01*
X72280Y143970D01*
Y143520D01*
G01X68600Y142250D02*
X67750D01*
G01X68600Y141250D02*
X68250D01*
X67750Y141750D01*
G01X75500Y147000D02*
X75000Y146500D01*
X69250D01*
X68750Y146000D01*
Y145810D01*
G01X67500Y146400D02*
X67660D01*
X68250Y145810D01*
G01D02*
Y145250D01*
X68750Y144750D01*
G01X67500Y145600D02*
X67350D01*
X67000Y145250D01*
G01X71580Y133750D02*
Y132270D01*
X71250Y131940D01*
G01X70000Y134830D02*
X70180D01*
X71250Y135900D01*
G01X69920Y133750D02*
Y133770D01*
X71250Y135100D01*
G01X70000Y136170D02*
X70170D01*
X70750Y136750D01*
G01X70150Y139750D02*
Y139330D01*
X70980Y138500D01*
G01D02*
X71230Y138250D01*
G01X70980Y140650D02*
Y138500D01*
G01X69350Y139750D02*
Y139100D01*
X69250Y139000D01*
G01Y143690D02*
X69330D01*
X69620Y143400D01*
X71500D01*
X71600Y143500D01*
X71630D01*
X71650Y143520D01*
G01X69750Y143690D02*
X70030Y143970D01*
X71790D01*
X71960Y143800D01*
Y143520D01*
G01X72540Y141910D02*
X70980D01*
G01Y141280D02*
X69430D01*
X69400Y141250D01*
G01X70980Y141910D02*
X70340D01*
X70000Y142250D01*
X69400D01*
G01X70980Y141280D02*
X71540D01*
X71620Y141200D01*
X72170D01*
G01X70980Y141590D02*
X71660D01*
X71750Y141500D01*
G01X70980Y142220D02*
X71720D01*
G01X69250Y145810D02*
Y145720D01*
X69450Y145520D01*
X70320D01*
X70610Y145810D01*
X75690D01*
X76880Y147000D01*
G01X69750Y145810D02*
X69940Y146000D01*
X70250D01*
G01X72100Y147000D02*
X71500D01*
G01X73750Y131940D02*
Y133530D01*
G01X75420Y133750D02*
X74750D01*
X74530Y133530D01*
X73750D01*
G01X74130Y134470D02*
Y135230D01*
X74150Y135250D01*
G01X73370Y134470D02*
Y135230D01*
X73350Y135250D01*
G01X74150D02*
Y136250D01*
G01X78850D02*
X77600Y137500D01*
X73500D01*
X73220Y137780D01*
Y139980D01*
G01X72910D02*
Y136690D01*
X73350Y136250D01*
G01Y135250D02*
X72750D01*
G01X78000Y138750D02*
Y138920D01*
X77670Y139250D01*
X76400D01*
X75000Y140650D01*
X74520D01*
G01X73540Y139980D02*
Y139700D01*
X74490Y138750D01*
X74500D01*
X75250Y138000D01*
X78400D01*
X78500Y138100D01*
Y139160D01*
X78000Y139660D01*
Y139750D01*
G01X77000Y138750D02*
X76000D01*
X74770Y139980D01*
X73850D01*
G01X74520Y140960D02*
X75560D01*
X75600Y141000D01*
G01X74000Y140960D02*
X74520D01*
G01X72590Y143520D02*
Y143160D01*
X72750Y143000D01*
X73920D01*
X74170Y143250D01*
X77500D01*
X78500Y142250D01*
Y139500D01*
X79000Y139000D01*
Y138750D01*
G01X74520Y141910D02*
X74090D01*
X74000Y142000D01*
G01X72900Y147000D02*
X74120D01*
G01X77080Y133750D02*
Y132270D01*
X76750Y131940D01*
G01X75500Y134830D02*
X75680D01*
X76750Y135900D01*
G01X75420Y133750D02*
Y133770D01*
X76750Y135100D01*
G01X75500Y136170D02*
X75670D01*
X76250Y136750D01*
G01X77000Y139750D02*
Y140500D01*
X78000Y141500D01*
G01X76400Y141000D02*
Y141350D01*
X76000Y141750D01*
G01X79250Y131940D02*
Y133530D01*
G01X81000Y134830D02*
X81180D01*
X82250Y135900D01*
G01X80920Y133750D02*
X80250D01*
X80030Y133530D01*
X79250D01*
G01X80920Y133750D02*
Y133770D01*
X82250Y135100D01*
G01X79630Y134470D02*
Y135230D01*
X79650Y135250D01*
G01X78870Y134470D02*
Y135230D01*
X78850Y135250D01*
G01X79650D02*
Y136250D01*
G01X81000Y138190D02*
Y137500D01*
G01X80500Y138190D02*
Y137500D01*
G01X78850Y135250D02*
X78250D01*
G01X81000Y136170D02*
X81170D01*
X81750Y136750D01*
G01X81000Y140310D02*
Y140750D01*
G01X80580Y141750D02*
X80000D01*
G01X82350Y137250D02*
X81750D01*
G01X82750Y143080D02*
Y142000D01*
X83000Y141750D01*
Y139400D01*
G01X81500Y140310D02*
Y140750D01*
G01X82750Y144420D02*
Y145250D01*
G54D17*
X67770Y138250D03*
X71230D03*
G54D27*
G01X70830Y120500D02*
X72000D01*
G01X73250Y141200D02*
X72540Y141910D01*
G01X72170Y141200D02*
X73250D01*
G01D02*
X73490Y140960D01*
X74000D01*
G01X76330Y120500D02*
X77250D01*
G01X81580D02*
X82750D01*
G01X82000Y138190D02*
X82590D01*
X83000Y138600D01*
G01X82000Y140310D02*
Y141670D01*
X81920Y141750D01*
G54D18*
X68250Y143690D03*
X68750D03*
Y145810D03*
X68250D03*
X69250Y143690D03*
X69750D03*
Y145810D03*
X69250D03*
X81000Y140310D03*
X80500D03*
Y138190D03*
X81000D03*
X82000Y140310D03*
X81500D03*
Y138190D03*
X82000D03*
G54D28*
G01X71310Y118250D02*
X71060Y118500D01*
X68250D01*
X67250Y119500D01*
Y123500D01*
X67820Y124070D01*
X71250D01*
G01D02*
X76750D01*
G01D02*
X82250D01*
G54D19*
X71310Y118250D03*
M02*
