G04 start of page 3 for group 1 idx 3 *
G04 Title: LED driver v. 0.1, front *
G04 Creator: pcb 1.99x *
G04 CreationDate: Sat Jul 16 06:31:28 2011 UTC *
G04 For: davidellsworth *
G04 Format: Gerber/RS-274X *
G04 PCB-Dimensions: 113000 481000 *
G04 PCB-Coordinate-Origin: lower left *
%MOIN*%
%FSLAX24Y24*%
%LNFRONT*%
%ADD11C,0.0200*%
%ADD12C,0.0300*%
%ADD13C,0.0800*%
%ADD14C,0.0600*%
%ADD15C,0.0400*%
%ADD16C,0.0100*%
%ADD17C,0.0912*%
%ADD18C,0.0500*%
%ADD19C,0.2500*%
%ADD20C,0.0450*%
%ADD21C,0.0612*%
%ADD22C,0.0250*%
%ADD23C,0.1250*%
%ADD24R,0.0250X0.0250*%
%ADD25R,0.0512X0.0512*%
%ADD26R,0.2200X0.2200*%
%ADD27R,0.0450X0.0450*%
%ADD28R,0.0950X0.0950*%
%ADD29R,0.1300X0.1300*%
%ADD30R,0.0500X0.0500*%
%ADD31R,0.0700X0.0700*%
%ADD32R,0.0200X0.0200*%
G54D12*X2000Y39400D02*X500Y37900D01*
G54D11*Y36200D02*X2300D01*
X2550Y36450D01*
Y36650D01*
G54D12*X500Y37900D02*Y36200D01*
X1500D01*
X5600Y34900D02*X6100D01*
X6800Y34200D01*
Y33300D01*
X7300Y32800D01*
X5200Y37800D02*X6000D01*
X6100Y37900D01*
Y38400D01*
X6500Y38800D02*Y39300D01*
X6100Y38400D02*X6500Y38800D01*
X6200Y39300D02*X6100Y39400D01*
X2000D01*
G54D11*X500Y18100D02*X1100Y17500D01*
X1200D02*X1500D01*
X2200Y18200D01*
X4200D02*Y18100D01*
X4400Y17600D01*
X7500Y18200D02*X8100Y17600D01*
X8887Y32960D02*X8877D01*
X8887Y31953D02*Y32960D01*
G54D12*X5600Y37100D02*X7500D01*
X5200Y37800D02*X4900Y37500D01*
Y35200D01*
X5200Y34900D01*
X5500D01*
X7900Y39300D02*X6200D01*
X6600Y42200D02*X7400D01*
Y41700D01*
X7900D01*
G54D11*X8572Y28246D02*Y27077D01*
X7942Y28246D02*Y27900D01*
X7039Y26996D01*
Y26977D01*
X8572Y27077D02*X8539D01*
X8572Y28646D02*Y28972D01*
X8900Y29200D01*
Y29600D01*
X7942Y28646D02*Y29057D01*
X7700Y29300D01*
Y29600D01*
X500Y18100D02*Y36200D01*
X8887Y31553D02*Y29600D01*
G54D11*G36*
X6300Y40432D02*Y41067D01*
X6304Y41066D01*
X6895D01*
X6912Y41068D01*
X6929Y41072D01*
X6945Y41080D01*
X6959Y41090D01*
X6971Y41102D01*
X6981Y41116D01*
X6989Y41132D01*
X6993Y41149D01*
X6995Y41167D01*
Y41300D01*
X7700D01*
Y39800D01*
X6992D01*
X6993Y39803D01*
X6995Y39821D01*
Y40333D01*
X6993Y40350D01*
X6989Y40367D01*
X6981Y40383D01*
X6971Y40397D01*
X6959Y40409D01*
X6945Y40419D01*
X6929Y40427D01*
X6912Y40431D01*
X6895Y40433D01*
X6304D01*
X6300Y40432D01*
G37*
G36*
X5150Y39800D02*Y41050D01*
X6900D01*
Y40432D01*
X6895Y40433D01*
X6304D01*
X6287Y40431D01*
X6270Y40427D01*
X6254Y40419D01*
X6240Y40409D01*
X6228Y40397D01*
X6218Y40383D01*
X6210Y40367D01*
X6206Y40350D01*
X6204Y40333D01*
Y39821D01*
X6206Y39803D01*
X6207Y39800D01*
X5150D01*
G37*
G54D14*X9600Y23000D02*X10400Y22200D01*
Y19100D01*
X9800Y18400D02*X9600D01*
X10400Y19000D02*X9800Y18400D01*
G54D11*X3000Y21200D02*Y20900D01*
X2800Y20700D01*
X1300D01*
X9500Y23100D02*X4500D01*
X6300Y19600D02*X6600Y19200D01*
X5400Y20500D02*X6300Y19600D01*
X4200Y20700D02*X4700D01*
X4900Y20500D01*
X4200Y20700D02*X4000Y20900D01*
Y21100D01*
X3900Y21300D02*X3000D01*
Y23100D02*Y21650D01*
X1000Y25400D02*X3400D01*
X3900Y24900D02*X3400Y25400D01*
X1100Y23200D02*X2700D01*
X3900Y23700D02*Y24900D01*
X4900Y20500D02*X5400D01*
X4500Y23100D02*X3900Y23700D01*
X7900Y25200D02*X9300D01*
X7300Y24600D02*X7900Y25200D01*
Y27392D02*Y26600D01*
X8100Y26400D01*
X8460D01*
Y26322D01*
X9960Y26300D02*Y26322D01*
X9900Y25800D02*Y26300D01*
X9300Y25200D02*X9900Y25800D01*
X7300Y23100D02*Y24600D01*
X8257Y28246D02*Y27750D01*
X7900Y27392D01*
X7627Y28196D02*Y28050D01*
X7177Y27600D02*X6600D01*
X6450Y27450D01*
Y26450D01*
X6600Y26300D01*
X7039D01*
Y26322D01*
X6450Y26450D02*X5539D01*
Y26322D01*
G54D13*X9400Y5800D02*Y4500D01*
G54D12*X9600Y38200D02*Y37900D01*
X8600Y39300D02*X8900D01*
X8800D02*Y39000D01*
X9600Y38200D01*
G54D11*X7627Y28050D02*X7177Y27600D01*
X7627Y28872D02*X7100Y29400D01*
Y29800D01*
X7600Y30300D01*
X8300Y30353D02*X8342D01*
X7600Y30300D02*X8300D01*
X7942D02*X7900D01*
X7627Y28646D02*Y28872D01*
X8257Y28646D02*Y29157D01*
X8300Y29200D01*
Y30300D01*
X7942Y31953D02*Y32342D01*
Y31553D02*Y30300D01*
Y32342D02*X8100Y32500D01*
Y32937D01*
X8122Y32960D01*
G54D12*X1300Y35400D02*X1800D01*
X2000Y35600D01*
X2800D01*
X3050Y35350D01*
Y35200D01*
X4050D01*
Y37650D01*
X5200Y38800D01*
G54D11*X7200Y43100D02*Y43400D01*
X7400Y42900D02*X7200Y43100D01*
X7800Y42900D02*X7400D01*
G54D12*X8600Y41900D02*X8900D01*
G54D11*X9000Y42400D02*Y42050D01*
X8500Y42000D02*Y42200D01*
X9900Y43400D02*Y43000D01*
X9600Y42700D01*
X9300D01*
X9000Y42400D01*
X9900Y43900D02*Y44400D01*
X9600Y44700D01*
X8500Y42200D02*X7800Y42900D01*
X6300Y40350D02*X6950D01*
G54D13*X9400Y40700D02*X7600D01*
G54D11*X6300Y40400D02*X7000D01*
G54D12*X8500Y40000D02*Y41400D01*
X9000D02*Y40000D01*
X8700Y41300D02*Y40000D01*
X8800D01*
Y41300D01*
X8700Y41900D02*Y39300D01*
X8900Y41900D02*Y39300D01*
G54D11*X7100Y41200D02*X6300D01*
Y39900D01*
X6900D02*Y40300D01*
X6300Y41100D02*X7000D01*
X6150Y39900D02*X7100D01*
X6300Y41150D02*X7000D01*
G54D11*G36*
X300Y500D02*Y3800D01*
X2594D01*
Y2475D01*
X2494Y2467D01*
X2397Y2441D01*
X2306Y2398D01*
X2224Y2341D01*
X2153Y2270D01*
X2095Y2188D01*
X2053Y2097D01*
X2027Y2000D01*
X2018Y1900D01*
X2027Y1800D01*
X2053Y1703D01*
X2095Y1612D01*
X2153Y1529D01*
X2224Y1458D01*
X2306Y1401D01*
X2397Y1358D01*
X2494Y1332D01*
X2594Y1324D01*
Y500D01*
X300D01*
G37*
G36*
X2594Y3800D02*X4300D01*
Y2410D01*
X4275Y2398D01*
X4192Y2341D01*
X4121Y2270D01*
X4064Y2188D01*
X4021Y2097D01*
X3995Y2000D01*
X3987Y1900D01*
X3995Y1800D01*
X4021Y1703D01*
X4064Y1612D01*
X4121Y1529D01*
X4192Y1458D01*
X4275Y1401D01*
X4300Y1389D01*
Y500D01*
X2594D01*
Y1324D01*
X2694Y1332D01*
X2791Y1358D01*
X2882Y1401D01*
X2964Y1458D01*
X3035Y1529D01*
X3093Y1612D01*
X3135Y1703D01*
X3161Y1800D01*
X3170Y1900D01*
X3161Y2000D01*
X3135Y2097D01*
X3093Y2188D01*
X3035Y2270D01*
X2964Y2341D01*
X2882Y2398D01*
X2791Y2441D01*
X2694Y2467D01*
X2594Y2475D01*
Y3800D01*
G37*
G36*
X2500Y7400D02*X3700D01*
Y7200D01*
X4300Y6600D01*
Y3300D01*
X2300D01*
X3700Y4700D01*
Y6200D01*
X2500Y7400D01*
G37*
G36*
X4500Y6900D02*X5100D01*
Y3200D01*
X4500D01*
Y6900D01*
G37*
G36*
X4000Y7200D02*Y11700D01*
X5600D01*
Y11400D01*
X4500D01*
X4482Y11398D01*
X4465Y11394D01*
X4450Y11386D01*
X4435Y11376D01*
X4423Y11364D01*
X4413Y11350D01*
X4406Y11334D01*
X4401Y11317D01*
X4400Y11300D01*
Y8400D01*
X4401Y8382D01*
X4406Y8365D01*
X4413Y8350D01*
X4423Y8335D01*
X4435Y8323D01*
X4450Y8313D01*
X4465Y8306D01*
X4482Y8301D01*
X4500Y8300D01*
X5600D01*
Y6700D01*
X4500D01*
X4000Y7200D01*
G37*
G36*
X5600Y11700D02*X7200D01*
Y6700D01*
X5600D01*
Y8300D01*
X6700D01*
X6717Y8301D01*
X6734Y8306D01*
X6750Y8313D01*
X6764Y8323D01*
X6776Y8335D01*
X6786Y8350D01*
X6794Y8365D01*
X6798Y8382D01*
X6800Y8400D01*
Y11300D01*
X6798Y11317D01*
X6794Y11334D01*
X6786Y11350D01*
X6776Y11364D01*
X6764Y11376D01*
X6750Y11386D01*
X6734Y11394D01*
X6717Y11398D01*
X6700Y11400D01*
X5600D01*
Y11700D01*
G37*
G36*
X300Y7200D02*Y11300D01*
X900D01*
Y8400D01*
X901Y8382D01*
X906Y8365D01*
X913Y8350D01*
X923Y8335D01*
X935Y8323D01*
X950Y8313D01*
X965Y8306D01*
X982Y8301D01*
X1000Y8300D01*
X3200D01*
X3217Y8301D01*
X3234Y8306D01*
X3250Y8313D01*
X3264Y8323D01*
X3276Y8335D01*
X3286Y8350D01*
X3294Y8365D01*
X3298Y8382D01*
X3300Y8400D01*
Y11300D01*
X3700D01*
Y7200D01*
X300D01*
G37*
G36*
X800Y11200D02*Y11300D01*
X900D01*
Y11200D01*
X800D01*
G37*
G36*
X7400Y6700D02*Y11851D01*
X7416Y11874D01*
X7435Y11914D01*
X7446Y11956D01*
X7450Y12000D01*
X7446Y12043D01*
X7435Y12085D01*
X7428Y12100D01*
X9000D01*
Y11400D01*
X7900D01*
X7882Y11398D01*
X7865Y11394D01*
X7850Y11386D01*
X7835Y11376D01*
X7823Y11364D01*
X7813Y11350D01*
X7806Y11334D01*
X7801Y11317D01*
X7800Y11300D01*
Y8400D01*
X7801Y8382D01*
X7806Y8365D01*
X7813Y8350D01*
X7823Y8335D01*
X7835Y8323D01*
X7850Y8313D01*
X7865Y8306D01*
X7882Y8301D01*
X7900Y8300D01*
X9000D01*
Y6700D01*
X7400D01*
G37*
G36*
X9000Y12100D02*X10800D01*
Y6700D01*
X9000D01*
Y8300D01*
X10100D01*
X10117Y8301D01*
X10134Y8306D01*
X10150Y8313D01*
X10164Y8323D01*
X10176Y8335D01*
X10186Y8350D01*
X10194Y8365D01*
X10198Y8382D01*
X10200Y8400D01*
Y11300D01*
X10198Y11317D01*
X10194Y11334D01*
X10186Y11350D01*
X10176Y11364D01*
X10164Y11376D01*
X10150Y11386D01*
X10134Y11394D01*
X10117Y11398D01*
X10100Y11400D01*
X9000D01*
Y12100D01*
G37*
G36*
X4500Y500D02*Y1329D01*
X4563Y1324D01*
X4663Y1332D01*
X4760Y1358D01*
X4851Y1401D01*
X4933Y1458D01*
X5004Y1529D01*
X5061Y1612D01*
X5104Y1703D01*
X5130Y1800D01*
X5138Y1900D01*
X5130Y2000D01*
X5104Y2097D01*
X5061Y2188D01*
X5004Y2270D01*
X4933Y2341D01*
X4851Y2398D01*
X4760Y2441D01*
X4663Y2467D01*
X4563Y2475D01*
X4500Y2470D01*
Y3900D01*
X6079D01*
X6531Y3448D01*
Y2475D01*
X6431Y2467D01*
X6334Y2441D01*
X6243Y2398D01*
X6161Y2341D01*
X6090Y2270D01*
X6032Y2188D01*
X5990Y2097D01*
X5964Y2000D01*
X5955Y1900D01*
X5964Y1800D01*
X5990Y1703D01*
X6032Y1612D01*
X6090Y1529D01*
X6161Y1458D01*
X6243Y1401D01*
X6334Y1358D01*
X6431Y1332D01*
X6531Y1324D01*
Y500D01*
X4500D01*
G37*
G36*
X6531Y3448D02*X7800Y2179D01*
Y500D01*
X6531D01*
Y1324D01*
X6631Y1332D01*
X6728Y1358D01*
X6819Y1401D01*
X6901Y1458D01*
X6972Y1529D01*
X7030Y1612D01*
X7072Y1703D01*
X7098Y1800D01*
X7107Y1900D01*
X7098Y2000D01*
X7072Y2097D01*
X7030Y2188D01*
X6972Y2270D01*
X6901Y2341D01*
X6819Y2398D01*
X6728Y2441D01*
X6631Y2467D01*
X6531Y2475D01*
Y3448D01*
G37*
G54D15*X8125Y13075D02*X8100Y13100D01*
X8000Y14500D01*
G54D16*X7000Y16100D02*Y13600D01*
X6600Y13200D01*
G54D15*X8000Y14500D02*X8200Y14400D01*
X9600D01*
G54D16*X10400Y13600D02*X10000Y13200D01*
X9800Y16700D02*X10400Y16100D01*
Y13600D01*
X8700Y17000D02*X8200Y16500D01*
G54D12*X9000Y15700D02*X9400D01*
X9000Y15200D02*X9400Y15600D01*
G54D16*X8700Y17800D02*Y17000D01*
X9700Y17500D02*X9300D01*
X2700Y18400D02*Y18100D01*
X5000Y19000D02*Y18300D01*
X5300Y18000D01*
X2700Y18100D02*X2100Y17500D01*
X5000Y20900D02*Y21100D01*
X9300Y17500D02*X5500Y21300D01*
X8700Y17800D02*X5700Y20800D01*
X5100D01*
X5000Y20900D02*X5100Y20800D01*
G54D12*X5600Y15700D02*X6000D01*
X5600Y15200D02*X6000Y15600D01*
G54D16*X6400Y16700D02*X7000Y16100D01*
X3100Y18300D02*Y17700D01*
X2500Y18900D02*X3100Y18300D01*
X2100Y18800D02*X2300Y18600D01*
X2500D02*X2300D01*
X2700Y18400D02*X2500Y18600D01*
X5500Y18900D02*Y18400D01*
X6300Y17600D01*
X5300Y18000D02*Y17100D01*
X4800Y16600D01*
X2100Y17500D02*Y16800D01*
X2000Y16700D01*
G54D11*X1100Y19900D02*X1600D01*
G54D16*X2300D02*X2100Y19700D01*
X3000Y19600D02*X2800Y19900D01*
X2300D01*
G54D11*X3800Y20600D02*X4000Y20400D01*
X2800Y20200D02*X3200Y20600D01*
X4000Y19700D02*Y20400D01*
X3800Y20600D02*X3200D01*
G54D16*X3500Y20000D02*Y19600D01*
X4500Y20100D02*Y19600D01*
X2100Y19700D02*Y18800D01*
G54D11*X1600Y19900D02*X1900Y20200D01*
X2800D01*
G54D16*X2200Y23900D02*X1200D01*
X3000D02*X3300D01*
X3600Y23600D01*
Y22600D01*
X3900Y22300D01*
X4300D01*
X4500Y22100D01*
Y21600D01*
G54D12*X2200Y15200D02*X2600Y15600D01*
G54D16*X4600Y16700D02*Y15400D01*
X3900Y16700D02*X4000Y16600D01*
G54D12*X2200Y15700D02*X2600D01*
G54D16*X4000Y16600D02*Y14100D01*
X2900Y16700D02*X3900D01*
X8000D02*Y15500D01*
X1200Y16700D02*X2000D01*
G54D15*X6200Y14400D02*X4800D01*
G54D12*X2100Y12000D02*X7200D01*
X7100D02*X8000Y11900D01*
X4200Y11600D02*X4700Y11100D01*
X4400Y8200D02*Y11400D01*
X6800D01*
X6700Y11300D01*
Y8300D01*
X4600D01*
G54D13*X8500Y2300D02*X6200Y4600D01*
X8500Y2300D02*Y1900D01*
X5700Y6000D02*X6500D01*
X6200Y4600D02*X5700D01*
X7100Y5200D02*X8900Y3400D01*
X7100Y5200D02*Y5700D01*
X10400Y3400D02*X8900D01*
X10400Y3900D02*Y3300D01*
G54D15*X7900Y11400D02*Y8400D01*
X10100D01*
Y11300D01*
X8000D01*
G54D12*X2100Y12000D02*X1900Y12200D01*
Y12800D01*
X1700Y11600D02*X4200D01*
G54D15*X3100Y11100D02*X3400D01*
G54D16*X4000Y14100D02*X3100Y13200D01*
G54D15*X4700Y13100D02*X4600Y14500D01*
G54D12*X3200Y11100D02*Y8400D01*
G54D15*X2700Y14300D02*X1300D01*
G54D12*X500Y10800D02*X1300D01*
X3200Y8400D02*X900D01*
G54D15*X1000Y11100D02*Y8600D01*
G54D16*X1100Y16600D02*Y15500D01*
G54D15*X1200Y13200D02*Y14500D01*
G54D12*X1000Y11900D02*X1500Y11700D01*
X1700Y11600D01*
G54D15*X500Y11100D02*X1100D01*
G54D16*X8100Y36300D02*Y36100D01*
X8200Y36000D01*
X8500D01*
X7100Y34600D02*Y36300D01*
X7200Y36400D02*X8000D01*
X7100Y36300D02*X7200Y36400D01*
X8000D02*X8100Y36300D01*
X5600Y35700D02*Y36400D01*
X8950Y34650D02*X9100Y34800D01*
Y37100D01*
X9000Y37200D01*
X8700D01*
X3550Y37150D02*Y38350D01*
X3600Y38400D01*
X2650Y38300D02*Y37850D01*
X3050Y37450D01*
Y37150D01*
G54D12*X4000Y44500D02*Y45200D01*
X6000Y44400D02*Y45200D01*
X5600Y44400D02*X6200D01*
X500Y45400D02*Y46000D01*
X3700Y44500D02*X4300D01*
X500Y46000D02*X1700D01*
G54D11*X9600Y46700D02*Y45900D01*
G54D13*X10400Y45700D02*X8500D01*
G54D16*X8700Y43400D02*Y42800D01*
X5900Y43400D02*X6000Y43300D01*
Y42500D01*
X5500Y42000D01*
Y41400D01*
X8450Y33650D02*X7800Y34300D01*
X8400Y34100D02*Y34400D01*
X7800Y34300D02*Y34900D01*
X8250Y33450D02*X7100Y34600D01*
X8400Y34400D02*X8650Y34650D01*
X8950D01*
X8650Y33850D02*X8400Y34100D01*
X9350Y33450D02*X8250D01*
X9550Y33650D02*X8450D01*
X8900Y34300D02*X9500D01*
X9850Y33850D02*X8650D01*
X9900Y33300D02*X9550Y33650D01*
X9600Y34400D02*Y35000D01*
X9500Y34300D02*X9600Y34400D01*
X4100Y33700D02*X2800D01*
X5500Y33600D02*X5200D01*
X4900Y33900D01*
Y34200D01*
X2800Y33700D02*X2550Y33950D01*
Y34450D01*
X5433Y27050D02*X5000D01*
X5460Y27077D02*X5433Y27050D01*
X5000D02*X4900Y26950D01*
Y24500D01*
X7200Y25700D02*X6000Y24500D01*
X2200Y27100D02*X1300D01*
X4400Y28200D02*X4000D01*
X4900Y27700D02*X4400Y28200D01*
X3600Y27300D02*X2700D01*
X1800Y28200D01*
X1300Y27100D02*X1000Y27400D01*
Y31100D01*
X2400Y26200D02*X1100D01*
X2900Y24900D02*Y24100D01*
X3200Y29700D02*Y28300D01*
X2400Y28900D02*X3200D01*
X4900Y30300D02*X2300D01*
X1900Y29900D01*
X4000Y29700D02*X4600D01*
X5000Y30800D02*X4700D01*
X2500Y31100D02*X3200D01*
X5000Y30800D02*X5087Y30887D01*
X4600Y29700D02*X5157Y30257D01*
X5500Y29300D02*X4800Y28900D01*
X7000Y28300D02*X5200D01*
X5800Y28800D02*X6200Y29000D01*
Y27700D02*X6400Y27900D01*
X7100D01*
X6842Y29942D02*X7200Y30300D01*
X5087Y30887D02*X6246D01*
X6646Y29942D02*X6842D01*
X5157Y30257D02*X6246D01*
Y29312D02*X6233Y29300D01*
X5500D01*
X6246Y29627D02*X5300Y29700D01*
X4900Y27700D02*X6200D01*
X10600Y26800D02*Y24500D01*
X10400Y24300D01*
X10100D01*
X7200Y30300D02*Y30700D01*
X7300Y28300D02*Y28100D01*
X7100Y27900D01*
X8900Y28300D02*Y27700D01*
X9000Y27600D01*
X8800Y25700D02*X7200D01*
X9728Y27077D02*X9960D01*
X10000Y27100D02*X10100Y27000D01*
X10400D01*
X10037D02*X9202Y27835D01*
X10200Y28100D02*X10400Y27900D01*
X10600D01*
X10400Y27000D02*X10600Y26800D01*
X9000Y27600D02*Y25900D01*
X8800Y25700D01*
X9202Y28246D02*Y27835D01*
X9553Y28997D02*Y28146D01*
X9800Y27900D01*
X9953Y29312D02*X10087D01*
X9953Y29627D02*X9981Y29600D01*
X10100D01*
X10087Y29312D02*X10300Y29100D01*
X10100Y29600D02*X10600Y29150D01*
X9953Y29942D02*X10600Y29750D01*
Y29150D02*Y28600D01*
X10400D02*X10600D01*
X10300Y29100D02*Y28900D01*
X10200Y28800D01*
Y28100D01*
X3200Y33100D02*Y32800D01*
X3000Y33300D02*X3200Y33100D01*
X1200Y33300D02*X3000D01*
X2300Y31800D02*X1800Y31300D01*
X2300Y32100D02*X1800Y32600D01*
X1000Y32700D02*Y33100D01*
X1200Y33300D01*
X4600Y32700D02*X4000D01*
X6200Y32300D02*X6000Y32100D01*
X6300Y32800D02*X5700D01*
X7300Y32000D02*Y32200D01*
X7200Y32300D01*
X6200D01*
X7000Y31800D02*X2300D01*
X6200Y30600D02*X5200D01*
X4900Y30300D01*
X6246Y31202D02*X4000Y31200D01*
X6000Y32100D02*X2300D01*
X9953Y30257D02*X10600Y30500D01*
X9953Y31202D02*X9950Y31206D01*
X10000Y30900D02*X10200D01*
X10400Y31100D01*
Y32900D01*
X9900Y31200D02*Y33300D01*
X9850Y33850D02*X10400Y33300D01*
Y32800D01*
X9350Y33450D02*X9600Y33200D01*
Y32000D01*
X9300Y31700D01*
G54D11*G36*
X8044Y2355D02*Y1444D01*
X8955D01*
Y2355D01*
X8044D01*
G37*
G54D17*X6531Y1900D03*
X4563D03*
X2594D03*
G54D18*X9400Y4900D03*
Y4300D03*
X7700Y11800D03*
X8400D03*
X10400Y3900D03*
Y3300D03*
X9600Y22700D03*
Y23300D03*
X6600Y19200D03*
X9000Y15100D03*
X7500Y18200D03*
X9000Y15700D03*
X5600D03*
Y15100D03*
X2200Y15700D03*
Y15100D03*
G54D19*X8500Y20700D03*
G54D18*X4200Y18200D03*
X2200D03*
G54D20*X3500Y20600D03*
Y20000D03*
G54D18*X4500Y20100D03*
X9500Y18700D03*
Y18100D03*
X8300Y30300D03*
X7700Y29600D03*
X8900D03*
X5800Y28800D03*
X5300Y29700D03*
X5200Y28300D03*
X2200Y23900D03*
X2400Y28900D03*
X2200Y27100D03*
X2400Y26200D03*
X2900Y24900D03*
X3600Y27300D03*
X7200Y30700D03*
X4700Y30800D03*
X2500Y31100D03*
X8800Y30900D03*
X500Y11300D03*
Y10700D03*
Y10100D03*
Y9500D03*
G54D20*X1900Y12800D03*
G54D18*X1500Y11700D03*
X1900Y12200D03*
X1000Y11900D03*
X500Y8900D03*
Y8300D03*
G54D19*X2000Y5500D03*
G54D18*X2300Y7700D03*
X1700D03*
X1100D03*
X500D03*
X4700D03*
X5300D03*
Y7100D03*
X5900D03*
X6500D03*
X7800D03*
X8400D03*
X5900Y7700D03*
X6500D03*
X7800D03*
X8400D03*
X10400Y45400D03*
Y46100D03*
X500Y45400D03*
Y46000D03*
G54D19*X2900Y42100D03*
G54D18*X4300Y44500D03*
X3700D03*
X8900Y40700D03*
X9500D03*
X8300D03*
X7700D03*
X5500Y44400D03*
X8600Y42800D03*
X6100Y44400D03*
X7400Y42400D03*
Y41700D03*
X5500Y41400D03*
G54D20*X8900Y34250D03*
G54D18*X6300Y32800D03*
X7300D03*
X2500Y33300D03*
X4600Y32700D03*
X4900Y34200D03*
X4100Y33700D03*
X2750Y37750D03*
X5200Y38800D03*
X5600Y36400D03*
X3450Y37750D03*
G54D24*X2500Y21650D02*Y21150D01*
X3000Y21650D02*Y21150D01*
X3500Y21650D02*Y21150D01*
X4000Y21650D02*Y21150D01*
X4500Y21650D02*Y21150D01*
X5000Y21650D02*Y21150D01*
X4000Y19600D02*Y18950D01*
X3500Y19600D02*Y18950D01*
X3000Y19600D02*Y18950D01*
X2500Y19600D02*Y18950D01*
G54D25*X1060Y19922D02*X1139D01*
X1060Y20677D02*X1139D01*
G54D26*X9000Y10200D02*Y9500D01*
G54D27*X9875Y13075D02*Y12575D01*
X8125Y13075D02*Y12575D01*
G54D28*X6625Y5925D02*X7625D01*
G54D11*G36*
X5250Y5000D02*Y4500D01*
X5750D01*
Y5000D01*
X5250D01*
G37*
G36*
Y6100D02*Y5600D01*
X5750D01*
Y6100D01*
X5250D01*
G37*
G54D28*X9375Y5925D02*X10375D01*
G54D26*X5600Y10200D02*Y9500D01*
X2100Y10200D02*Y9500D01*
G54D27*X6475Y13075D02*Y12575D01*
X4725Y13075D02*Y12575D01*
X2975Y13075D02*Y12575D01*
X1225Y13075D02*Y12575D01*
G54D24*X5500Y19600D02*Y18950D01*
X5000Y19600D02*Y18950D01*
X4500Y19600D02*Y18950D01*
G54D25*X4560Y16722D02*X4639D01*
X4560Y17477D02*X4639D01*
X6260Y16722D02*X6339D01*
X6260Y17477D02*X6339D01*
X7960Y16722D02*X8039D01*
X7960Y17477D02*X8039D01*
X9660Y16722D02*X9739D01*
X9660Y17477D02*X9739D01*
X2860Y16722D02*X2939D01*
X2860Y17477D02*X2939D01*
X2781Y15615D02*X3018D01*
X2781Y14384D02*X3018D01*
X1060Y14622D02*X1139D01*
X1060Y15377D02*X1139D01*
X1060Y16722D02*X1139D01*
X1060Y17477D02*X1139D01*
X7960Y14622D02*X8039D01*
X9581Y14384D02*X9818D01*
X6181D02*X6418D01*
X4560Y14622D02*X4639D01*
X7960Y15377D02*X8039D01*
X9581Y15615D02*X9818D01*
X6181D02*X6418D01*
X4560Y15377D02*X4639D01*
X3222Y32739D02*Y32660D01*
X1022Y32739D02*Y32660D01*
X1777Y32739D02*Y32660D01*
X2484Y38718D02*Y38481D01*
G54D24*X2550Y37150D02*Y36650D01*
Y35100D02*Y34450D01*
X3050Y37150D02*Y36650D01*
Y35100D02*Y34450D01*
X3550Y35100D02*Y34450D01*
X4050Y35100D02*Y34450D01*
X3550Y37150D02*Y36650D01*
X4050Y37150D02*Y36650D01*
G54D25*X1260Y36177D02*X1339D01*
X1260Y35422D02*X1339D01*
X3715Y38718D02*Y38481D01*
G54D18*X4200Y39600D03*
G54D25*X6560Y39322D02*X6639D01*
X6560Y40077D02*X6639D01*
X6560Y42177D02*X6639D01*
X5967Y43684D02*Y43448D01*
X7198Y43684D02*Y43448D01*
X6560Y41422D02*X6639D01*
G54D24*X8000Y41950D02*Y41450D01*
X8500Y41950D02*Y41450D01*
X9000Y41950D02*Y41450D01*
X9500Y41950D02*Y41450D01*
G54D29*X8100Y47350D02*Y45650D01*
X6100Y47350D02*Y45650D01*
X4100Y47350D02*Y45650D01*
X2100Y47350D02*Y45650D01*
G54D25*X8667Y43684D02*Y43448D01*
G54D24*X8500Y39900D02*Y39250D01*
X9000Y39900D02*Y39250D01*
X9500Y39900D02*Y39250D01*
X8000Y39900D02*Y39250D01*
G54D25*X9898Y43684D02*Y43448D01*
G54D18*X9600Y46700D03*
Y44700D03*
G54D25*X5560Y34922D02*X5639D01*
X5560Y35677D02*X5639D01*
X5560Y37122D02*X5639D01*
X5560Y37877D02*X5639D01*
G54D30*X7600Y36000D02*Y35050D01*
Y37750D02*Y36800D01*
X8600Y36000D02*Y35050D01*
Y37750D02*Y36800D01*
X9600Y36000D02*Y35050D01*
Y37750D02*Y36800D01*
G54D24*X5500Y21650D02*Y21150D01*
G54D25*X6960Y27077D02*X7039D01*
X6960Y26322D02*X7039D01*
X5460D02*X5539D01*
X5460Y27077D02*X5539D01*
X1060Y23222D02*X1139D01*
X1060Y23977D02*X1139D01*
X1022Y28239D02*Y28160D01*
X1060Y25422D02*X1139D01*
X1060Y26177D02*X1139D01*
X2860Y23222D02*X2939D01*
X2860Y23977D02*X2939D01*
G54D31*X4700Y24250D02*X6200D01*
G54D25*X3977Y32739D02*Y32660D01*
X5560Y32822D02*X5639D01*
X5560Y33577D02*X5639D01*
X1022Y29739D02*Y29660D01*
X1777Y29739D02*Y29660D01*
X1022Y31239D02*Y31160D01*
X1777Y31239D02*Y31160D01*
G54D18*X4800Y28900D03*
G54D25*X3222Y29739D02*Y29660D01*
X3977Y29739D02*Y29660D01*
X3222Y31239D02*Y31160D01*
X3977Y31239D02*Y31160D01*
X1777Y28239D02*Y28160D01*
X3222Y28239D02*Y28160D01*
X3977Y28239D02*Y28160D01*
G54D32*X6997Y28646D02*Y28246D01*
X7312Y28646D02*Y28246D01*
X7627Y28646D02*Y28246D01*
X7942Y28646D02*Y28246D01*
X8257Y28646D02*Y28246D01*
X8572Y28646D02*Y28246D01*
X8887Y28646D02*Y28246D01*
X9202Y28646D02*Y28246D01*
X9553Y28997D02*X9953D01*
G54D18*X9800Y27900D03*
X10600D03*
Y28600D03*
G54D32*X6246Y28997D02*X6646D01*
G54D25*X8460Y27077D02*X8539D01*
X9960D02*X10039D01*
X8460Y26322D02*X8539D01*
G54D31*X8400Y24250D02*X9900D01*
G54D25*X9960Y26322D02*X10039D01*
X8877Y33039D02*Y32960D01*
X8122Y33039D02*Y32960D01*
G54D32*X9202Y31953D02*Y31553D01*
X8887Y31953D02*Y31553D01*
X8572Y31953D02*Y31553D01*
X8257Y31953D02*Y31553D01*
X7942Y31953D02*Y31553D01*
X7627Y31953D02*Y31553D01*
X7312Y31953D02*Y31553D01*
X6997Y31953D02*Y31553D01*
X9553Y29312D02*X9953D01*
X9553Y29627D02*X9953D01*
X9553Y29942D02*X9953D01*
X9553Y30257D02*X9953D01*
X9553Y30572D02*X9953D01*
X9553Y30887D02*X9953D01*
X9553Y31202D02*X9953D01*
X6246D02*X6646D01*
X6246Y30887D02*X6646D01*
X6246Y30572D02*X6646D01*
X6246Y30257D02*X6646D01*
X6246Y29942D02*X6646D01*
X6246Y29627D02*X6646D01*
X6246Y29312D02*X6646D01*
G54D18*X10600Y30500D03*
Y29800D03*
G54D21*G54D22*G54D23*G54D22*G54D11*G54D22*G54D11*G54D22*G54D23*G54D22*G54D23*G54D22*G54D11*G54D22*M02*
