G04 start of page 5 for group -4063 idx -4063 *
G04 Title: LED driver v. 0.1, componentmask *
G04 Creator: pcb 1.99x *
G04 CreationDate: Sat Jul 16 06:31:28 2011 UTC *
G04 For: davidellsworth *
G04 Format: Gerber/RS-274X *
G04 PCB-Dimensions: 113000 481000 *
G04 PCB-Coordinate-Origin: lower left *
%MOIN*%
%FSLAX24Y24*%
%LNFRONTMASK*%
%ADD11C,0.0200*%
%ADD18C,0.0500*%
%ADD25R,0.0512X0.0512*%
%ADD31R,0.0700X0.0700*%
%ADD34C,0.0972*%
%ADD35C,0.2480*%
%ADD36R,0.0270X0.0270*%
%ADD37R,0.2140X0.2140*%
%ADD38R,0.0430X0.0430*%
%ADD39R,0.0970X0.0970*%
%ADD40R,0.2180X0.2180*%
%ADD41R,0.1320X0.1320*%
%ADD42R,0.0520X0.0520*%
%ADD43R,0.0220X0.0220*%
G54D11*G36*
X8014Y2385D02*Y1414D01*
X8985D01*
Y2385D01*
X8014D01*
G37*
G54D34*X6531Y1900D03*
X4563D03*
X2594D03*
G54D35*X8500Y20700D03*
X2000Y5500D03*
X2900Y42100D03*
G54D36*X2500Y21650D02*Y21150D01*
X3000Y21650D02*Y21150D01*
X3500Y21650D02*Y21150D01*
X4000Y21650D02*Y21150D01*
X4500Y21650D02*Y21150D01*
X5000Y21650D02*Y21150D01*
X4000Y19600D02*Y18950D01*
X3500Y19600D02*Y18950D01*
X3000Y19600D02*Y18950D01*
X2500Y19600D02*Y18950D01*
G54D25*X1060Y19922D02*X1139D01*
X1060Y20677D02*X1139D01*
G54D37*X9000Y10200D02*Y9500D01*
G54D38*X9875Y13075D02*Y12575D01*
X8125Y13075D02*Y12575D01*
G54D39*X6625Y5925D02*X7625D01*
G54D11*G36*
X5230Y5020D02*Y4480D01*
X5770D01*
Y5020D01*
X5230D01*
G37*
G36*
Y6120D02*Y5580D01*
X5770D01*
Y6120D01*
X5230D01*
G37*
G54D39*X9375Y5925D02*X10375D01*
G54D40*X5600Y10200D02*Y9500D01*
X2100Y10200D02*Y9500D01*
G54D38*X6475Y13075D02*Y12575D01*
X4725Y13075D02*Y12575D01*
X2975Y13075D02*Y12575D01*
X1225Y13075D02*Y12575D01*
G54D36*X5500Y19600D02*Y18950D01*
X5000Y19600D02*Y18950D01*
X4500Y19600D02*Y18950D01*
G54D25*X4560Y16722D02*X4639D01*
X4560Y17477D02*X4639D01*
X6260Y16722D02*X6339D01*
X6260Y17477D02*X6339D01*
X7960Y16722D02*X8039D01*
X7960Y17477D02*X8039D01*
X9660Y16722D02*X9739D01*
X9660Y17477D02*X9739D01*
X2860Y16722D02*X2939D01*
X2860Y17477D02*X2939D01*
X2781Y15615D02*X3018D01*
X2781Y14384D02*X3018D01*
X1060Y14622D02*X1139D01*
X1060Y15377D02*X1139D01*
X1060Y16722D02*X1139D01*
X1060Y17477D02*X1139D01*
X7960Y14622D02*X8039D01*
X9581Y14384D02*X9818D01*
X6181D02*X6418D01*
X4560Y14622D02*X4639D01*
X7960Y15377D02*X8039D01*
X9581Y15615D02*X9818D01*
X6181D02*X6418D01*
X4560Y15377D02*X4639D01*
X3222Y32739D02*Y32660D01*
X1022Y32739D02*Y32660D01*
X1777Y32739D02*Y32660D01*
X2484Y38718D02*Y38481D01*
G54D36*X2550Y37150D02*Y36650D01*
Y35100D02*Y34450D01*
X3050Y37150D02*Y36650D01*
Y35100D02*Y34450D01*
X3550Y35100D02*Y34450D01*
X4050Y35100D02*Y34450D01*
X3550Y37150D02*Y36650D01*
X4050Y37150D02*Y36650D01*
G54D25*X1260Y36177D02*X1339D01*
X1260Y35422D02*X1339D01*
X3715Y38718D02*Y38481D01*
G54D18*X4200Y39600D03*
G54D25*X6560Y39322D02*X6639D01*
X6560Y40077D02*X6639D01*
X6560Y42177D02*X6639D01*
X5967Y43684D02*Y43448D01*
X7198Y43684D02*Y43448D01*
X6560Y41422D02*X6639D01*
G54D36*X8000Y41950D02*Y41450D01*
X8500Y41950D02*Y41450D01*
X9000Y41950D02*Y41450D01*
X9500Y41950D02*Y41450D01*
G54D41*X8100Y47350D02*Y45650D01*
X6100Y47350D02*Y45650D01*
X4100Y47350D02*Y45650D01*
X2100Y47350D02*Y45650D01*
G54D25*X8667Y43684D02*Y43448D01*
G54D36*X8500Y39900D02*Y39250D01*
X9000Y39900D02*Y39250D01*
X9500Y39900D02*Y39250D01*
X8000Y39900D02*Y39250D01*
G54D25*X9898Y43684D02*Y43448D01*
G54D18*X9600Y46700D03*
Y44700D03*
G54D25*X5560Y34922D02*X5639D01*
X5560Y35677D02*X5639D01*
X5560Y37122D02*X5639D01*
X5560Y37877D02*X5639D01*
G54D42*X7600Y36000D02*Y35050D01*
Y37750D02*Y36800D01*
X8600Y36000D02*Y35050D01*
Y37750D02*Y36800D01*
X9600Y36000D02*Y35050D01*
Y37750D02*Y36800D01*
G54D36*X5500Y21650D02*Y21150D01*
G54D25*X6960Y27077D02*X7039D01*
X6960Y26322D02*X7039D01*
X5460D02*X5539D01*
X5460Y27077D02*X5539D01*
X1060Y23222D02*X1139D01*
X1060Y23977D02*X1139D01*
X1022Y28239D02*Y28160D01*
X1060Y25422D02*X1139D01*
X1060Y26177D02*X1139D01*
X2860Y23222D02*X2939D01*
X2860Y23977D02*X2939D01*
G54D31*X4700Y24250D02*X6200D01*
G54D25*X3977Y32739D02*Y32660D01*
X5560Y32822D02*X5639D01*
X5560Y33577D02*X5639D01*
X1022Y29739D02*Y29660D01*
X1777Y29739D02*Y29660D01*
X1022Y31239D02*Y31160D01*
X1777Y31239D02*Y31160D01*
G54D18*X4800Y28900D03*
G54D25*X3222Y29739D02*Y29660D01*
X3977Y29739D02*Y29660D01*
X3222Y31239D02*Y31160D01*
X3977Y31239D02*Y31160D01*
X1777Y28239D02*Y28160D01*
X3222Y28239D02*Y28160D01*
X3977Y28239D02*Y28160D01*
G54D43*X6997Y28646D02*Y28246D01*
X7312Y28646D02*Y28246D01*
X7627Y28646D02*Y28246D01*
X7942Y28646D02*Y28246D01*
X8257Y28646D02*Y28246D01*
X8572Y28646D02*Y28246D01*
X8887Y28646D02*Y28246D01*
X9202Y28646D02*Y28246D01*
X9553Y28997D02*X9953D01*
G54D18*X9800Y27900D03*
X10600D03*
Y28600D03*
G54D43*X6246Y28997D02*X6646D01*
G54D25*X8460Y27077D02*X8539D01*
X9960D02*X10039D01*
X8460Y26322D02*X8539D01*
G54D31*X8400Y24250D02*X9900D01*
G54D25*X9960Y26322D02*X10039D01*
X8877Y33039D02*Y32960D01*
X8122Y33039D02*Y32960D01*
G54D43*X9202Y31953D02*Y31553D01*
X8887Y31953D02*Y31553D01*
X8572Y31953D02*Y31553D01*
X8257Y31953D02*Y31553D01*
X7942Y31953D02*Y31553D01*
X7627Y31953D02*Y31553D01*
X7312Y31953D02*Y31553D01*
X6997Y31953D02*Y31553D01*
X9553Y29312D02*X9953D01*
X9553Y29627D02*X9953D01*
X9553Y29942D02*X9953D01*
X9553Y30257D02*X9953D01*
X9553Y30572D02*X9953D01*
X9553Y30887D02*X9953D01*
X9553Y31202D02*X9953D01*
X6246D02*X6646D01*
X6246Y30887D02*X6646D01*
X6246Y30572D02*X6646D01*
X6246Y30257D02*X6646D01*
X6246Y29942D02*X6646D01*
X6246Y29627D02*X6646D01*
X6246Y29312D02*X6646D01*
G54D18*X10600Y30500D03*
Y29800D03*
M02*
