G04 start of page 8 for group -4079 idx -4079 *
G04 Title: LED driver v. 0.1, topsilk *
G04 Creator: pcb 1.99x *
G04 CreationDate: Sat Jul 16 06:31:28 2011 UTC *
G04 For: davidellsworth *
G04 Format: Gerber/RS-274X *
G04 PCB-Dimensions: 113000 481000 *
G04 PCB-Coordinate-Origin: lower left *
%MOIN*%
%FSLAX24Y24*%
%LNFRONTSILK*%
%ADD16C,0.0100*%
%ADD22C,0.0250*%
%ADD45C,0.0070*%
%ADD46C,0.0150*%
G54D16*X5100Y6500D02*X5900D01*
X5100Y6450D02*X5900D01*
G54D45*X2448Y4104D02*Y3720D01*
X2592Y4104D02*X2640Y4056D01*
Y3768D01*
X2592Y3720D02*X2640Y3768D01*
X2400Y3720D02*X2592D01*
X2400Y4104D02*X2592D01*
X2755Y3912D02*X2947D01*
X4448Y4104D02*Y3720D01*
X4592Y4104D02*X4640Y4056D01*
Y3768D01*
X4592Y3720D02*X4640Y3768D01*
X4400Y3720D02*X4592D01*
X4400Y4104D02*X4592D01*
X4755Y3912D02*X4947D01*
X4851Y4008D02*Y3816D01*
X740Y37900D02*X1300D01*
Y38180D02*Y37900D01*
X1020Y38558D02*Y38348D01*
X1300Y38628D02*Y38348D01*
X740D02*X1300D01*
X740Y38628D02*Y38348D01*
Y38866D02*X1300D01*
X740Y39076D02*X810Y39146D01*
X1230D01*
X1300Y39076D02*X1230Y39146D01*
X1300Y39076D02*Y38796D01*
X740Y39076D02*Y38796D01*
Y39846D02*X1300D01*
Y39776D02*X1230Y39846D01*
X1300Y39776D02*Y39636D01*
X1230Y39566D02*X1300Y39636D01*
X1090Y39566D02*X1230D01*
X1090D02*X1020Y39636D01*
Y39776D02*Y39636D01*
Y39776D02*X1090Y39846D01*
Y40084D02*X1300D01*
X1090D02*X1020Y40154D01*
Y40294D02*Y40154D01*
Y40014D02*X1090Y40084D01*
X880Y40462D02*X950D01*
X1090D02*X1300D01*
X1020Y40602D02*X1160D01*
X1300Y40742D01*
X1160Y40882D01*
X1020D02*X1160D01*
X1300Y41330D02*Y41120D01*
X1230Y41050D02*X1300Y41120D01*
X1090Y41050D02*X1230D01*
X1090D02*X1020Y41120D01*
Y41260D02*Y41120D01*
Y41260D02*X1090Y41330D01*
X1160D02*Y41050D01*
X1090Y41330D02*X1160D01*
X1090Y41569D02*X1300D01*
X1090D02*X1020Y41639D01*
Y41779D02*Y41639D01*
Y41499D02*X1090Y41569D01*
X1020Y42199D02*X1160D01*
X1300Y42339D01*
X1160Y42479D01*
X1020D02*X1160D01*
X1300Y42717D02*Y42647D01*
Y43347D02*Y43207D01*
X740Y43277D02*X1300D01*
X880Y43137D02*X740Y43277D01*
X1300Y43585D02*Y43515D01*
Y43963D02*Y43823D01*
X740Y43893D02*X1300D01*
X880Y43753D02*X740Y43893D01*
X7000Y45146D02*X7236D01*
X7118Y45264D02*Y45028D01*
X3292Y45304D02*X3340Y45256D01*
X3148Y45304D02*X3292D01*
X3100Y45256D02*X3148Y45304D01*
X3100Y45256D02*Y44968D01*
X3148Y44920D01*
X3292D01*
X3340Y44968D01*
Y45064D02*Y44968D01*
X3292Y45112D02*X3340Y45064D01*
X3196Y45112D02*X3292D01*
X5100Y45304D02*X5292D01*
X5340Y45256D01*
Y45160D01*
X5292Y45112D02*X5340Y45160D01*
X5148Y45112D02*X5292D01*
X5148Y45304D02*Y44920D01*
Y45112D02*X5340Y44920D01*
X700D02*X892D01*
X940Y44968D01*
Y45064D02*Y44968D01*
X892Y45112D02*X940Y45064D01*
X748Y45112D02*X892D01*
X748Y45304D02*Y44920D01*
X700Y45304D02*X892D01*
X940Y45256D01*
Y45160D01*
X892Y45112D02*X940Y45160D01*
X6392Y4104D02*X6440Y4056D01*
X6248Y4104D02*X6392D01*
X6200Y4056D02*X6248Y4104D01*
X6200Y4056D02*Y3768D01*
X6248Y3720D01*
X6392D01*
X6440Y3768D01*
Y3864D02*Y3768D01*
X6392Y3912D02*X6440Y3864D01*
X6296Y3912D02*X6392D01*
X6555Y4104D02*Y3720D01*
Y4104D02*Y4056D01*
X6795Y3816D01*
Y4104D02*Y3720D01*
X6958Y4104D02*Y3720D01*
X7102Y4104D02*X7150Y4056D01*
Y3768D01*
X7102Y3720D02*X7150Y3768D01*
X6910Y3720D02*X7102D01*
X6910Y4104D02*X7102D01*
X8100Y3912D02*X8292D01*
X8196Y4008D02*Y3816D01*
X8455Y3720D02*X8551D01*
X8503Y4104D02*Y3720D01*
X8407Y4008D02*X8503Y4104D01*
X8666Y4056D02*X8714Y4104D01*
X8858D01*
X8906Y4056D01*
Y3960D01*
X8666Y3720D02*X8906Y3960D01*
X8666Y3720D02*X8906D01*
G54D16*X9550Y27500D02*Y25900D01*
Y27500D02*X10450D01*
Y25900D01*
X9550D02*X10450D01*
X4200Y23250D02*X10400D01*
Y25300D02*Y23250D01*
X4200Y25300D02*X10400D01*
X4200D02*Y23250D01*
X8950Y27500D02*Y25900D01*
X8050D02*X8950D01*
X8050Y27500D02*Y25900D01*
Y27500D02*X8950D01*
X5050D02*Y25900D01*
Y27500D02*X5950D01*
Y25900D01*
X5050D02*X5950D01*
X7450Y27500D02*Y25900D01*
X6550D02*X7450D01*
X6550Y27500D02*Y25900D01*
Y27500D02*X7450D01*
X6950Y31250D02*Y29300D01*
X7300Y28950D01*
X9250Y31250D02*Y28950D01*
X7300D02*X9250D01*
X6950Y31250D02*X9250D01*
X7300Y29200D02*G75*G03X7300Y29200I0J100D01*G01*
X7700Y32550D02*X9300D01*
X7700Y33450D02*Y32550D01*
Y33450D02*X9300D01*
Y32550D01*
X4400Y33150D02*X2800D01*
X4400Y32250D02*Y33150D01*
X2800Y32250D02*X4400D01*
X2800Y33150D02*Y32250D01*
X4150Y15800D02*Y14200D01*
Y15800D02*X5050D01*
Y14200D01*
X4150D02*X5050D01*
X5750Y13950D02*X6850D01*
X5750Y16050D02*Y13950D01*
Y16050D02*X6850D01*
Y13950D01*
X650Y15800D02*Y14200D01*
Y15800D02*X1550D01*
Y14200D01*
X650D02*X1550D01*
X2350Y13950D02*X3450D01*
X2350Y16050D02*Y13950D01*
Y16050D02*X3450D01*
Y13950D01*
X9150D02*X10250D01*
X9150Y16050D02*Y13950D01*
Y16050D02*X10250D01*
Y13950D01*
X7550Y15800D02*Y14200D01*
Y15800D02*X8450D01*
Y14200D01*
X7550D02*X8450D01*
X4100Y8100D02*X7100D01*
X4100Y13600D02*X7100D01*
X4100D02*Y8100D01*
X7100Y13600D02*Y8100D01*
X600D02*X3600D01*
X600Y13600D02*X3600D01*
X600D02*Y8100D01*
X3600Y13600D02*Y8100D01*
X10150Y7550D02*X7600D01*
X10150D02*Y6600D01*
Y5250D02*Y4250D01*
X7600D01*
X6850Y5000D02*X7600Y4250D01*
Y7550D02*X6850Y6800D01*
Y6600D01*
Y5250D02*Y5000D01*
X7400Y4800D02*X8100D01*
X7750Y4500D02*Y5100D01*
X9484Y3474D02*Y207D01*
X1610Y3474D02*X9484D01*
X1610D02*Y207D01*
X9484D01*
X5100Y6400D02*Y4350D01*
X5900Y6400D02*Y4350D01*
X5100D02*X5900D01*
X5100Y6400D02*X5900D01*
X5100Y6350D02*X5900D01*
X5100Y6300D02*X5900D01*
X5100Y6250D02*X5900D01*
X7500Y8100D02*X10500D01*
X7500Y13600D02*X10500D01*
X7500D02*Y8100D01*
X10500Y13600D02*Y8100D01*
X9250Y17900D02*Y16300D01*
Y17900D02*X10150D01*
Y16300D01*
X9250D02*X10150D01*
X7550Y17900D02*Y16300D01*
Y17900D02*X8450D01*
Y16300D01*
X7550D02*X8450D01*
X650Y17900D02*Y16300D01*
Y17900D02*X1550D01*
Y16300D01*
X650D02*X1550D01*
X2450Y17900D02*Y16300D01*
Y17900D02*X3350D01*
Y16300D01*
X2450D02*X3350D01*
X650Y21100D02*Y19500D01*
Y21100D02*X1550D01*
Y19500D01*
X650D02*X1550D01*
X5850Y17900D02*Y16300D01*
Y17900D02*X6750D01*
Y16300D01*
X5850D02*X6750D01*
X4150Y17900D02*Y16300D01*
Y17900D02*X5050D01*
Y16300D01*
X4150D02*X5050D01*
X2200Y21950D02*Y20550D01*
Y20050D02*Y18650D01*
Y21950D02*X5800D01*
Y18650D01*
X2200D02*X5800D01*
X2200Y20050D02*G75*G03X2200Y20550I0J250D01*G01*
X650Y26600D02*Y25000D01*
Y26600D02*X1550D01*
Y25000D01*
X650D02*X1550D01*
X2450Y24400D02*Y22800D01*
Y24400D02*X3350D01*
Y22800D01*
X2450D02*X3350D01*
X650Y24400D02*Y22800D01*
Y24400D02*X1550D01*
Y22800D01*
X650D02*X1550D01*
X5150Y38300D02*Y36700D01*
Y38300D02*X6050D01*
Y36700D01*
X5150D02*X6050D01*
X1750Y36600D02*Y35000D01*
X850D02*X1750D01*
X850Y36600D02*Y35000D01*
Y36600D02*X1750D01*
X2250Y37450D02*Y36050D01*
Y35550D02*Y34150D01*
Y37450D02*X4350D01*
Y34150D01*
X2250D02*X4350D01*
X2250Y35550D02*G75*G03X2250Y36050I0J250D01*G01*
X5150Y36100D02*Y34500D01*
Y36100D02*X6050D01*
Y34500D01*
X5150D02*X6050D01*
X2200Y31650D02*X600D01*
X2200Y30750D02*Y31650D01*
X600Y30750D02*X2200D01*
X600Y31650D02*Y30750D01*
X2200Y30150D02*X600D01*
X2200Y29250D02*Y30150D01*
X600Y29250D02*X2200D01*
X600Y30150D02*Y29250D01*
X2800Y31650D02*X4400D01*
Y30750D01*
X2800D02*X4400D01*
X2800Y31650D02*Y30750D01*
Y30150D02*X4400D01*
Y29250D01*
X2800D02*X4400D01*
X2800Y30150D02*Y29250D01*
X5150Y34000D02*Y32400D01*
Y34000D02*X6050D01*
Y32400D01*
X5150D02*X6050D01*
X2800Y28650D02*X4400D01*
Y27750D01*
X2800D02*X4400D01*
X2800Y28650D02*Y27750D01*
X2200Y33150D02*X600D01*
X2200Y32250D02*Y33150D01*
X600Y32250D02*X2200D01*
X600Y33150D02*Y32250D01*
X2200Y28650D02*X600D01*
X2200Y27750D02*Y28650D01*
X600Y27750D02*X2200D01*
X600Y28650D02*Y27750D01*
X6600Y43700D02*Y43450D01*
X6550Y43750D02*Y43400D01*
X6500Y43850D02*Y43350D01*
X6450Y43900D02*X6750Y43600D01*
X6450Y43900D02*Y43250D01*
X6750Y43550D02*X6450Y43250D01*
X6750Y43900D02*Y43250D01*
X6700Y43600D02*Y43550D01*
X5550Y44100D02*X7650D01*
X6650Y43650D02*Y43500D01*
X5550Y43050D02*X7650D01*
X5550Y44100D02*Y43050D01*
X7650Y44100D02*Y43050D01*
X9300Y43700D02*Y43450D01*
X9250Y43750D02*Y43400D01*
X9200Y43850D02*Y43350D01*
X9150Y43900D02*X9450Y43600D01*
X9150Y43900D02*Y43250D01*
X9450Y43550D02*X9150Y43250D01*
X9450Y43900D02*Y43250D01*
X9400Y43600D02*Y43550D01*
X8250Y44100D02*X10350D01*
X9350Y43650D02*Y43500D01*
X8250Y43050D02*X10350D01*
X8250Y44100D02*Y43050D01*
X10350Y44100D02*Y43050D01*
G54D46*X1150Y47900D02*Y44700D01*
X9000D01*
X9050Y47900D02*Y44700D01*
G54D16*X7050Y42600D02*Y41000D01*
X6150D02*X7050D01*
X6150Y42600D02*Y41000D01*
Y42600D02*X7050D01*
X6150Y40500D02*Y38900D01*
Y40500D02*X7050D01*
Y38900D01*
X6150D02*X7050D01*
X2050Y39150D02*Y38050D01*
Y39150D02*X4150D01*
Y38050D01*
X2050D02*X4150D01*
X7700Y42250D02*Y40850D01*
Y40350D02*Y38950D01*
Y42250D02*X9800D01*
Y38950D01*
X7700D02*X9800D01*
X7700Y40350D02*G75*G03X7700Y40850I0J250D01*G01*
G54D22*X6600Y34450D02*X7200D01*
X6750Y34900D02*Y34300D01*
X6600Y34900D02*Y34300D01*
Y34900D02*X6800D01*
X7200Y34300D02*Y34500D01*
X6600Y34300D02*X7200D01*
G54D46*X6850Y34550D02*Y38250D01*
X10350D02*Y34550D01*
X6850D01*
Y38250D02*X10350D01*
G54D45*X400Y27200D02*X600D01*
X650Y27150D01*
Y27050D01*
X600Y27000D02*X650Y27050D01*
X450Y27000D02*X600D01*
X450Y27200D02*Y26800D01*
Y27000D02*X650Y26800D01*
X770Y27150D02*X820Y27200D01*
X970D01*
X1020Y27150D01*
Y27050D01*
X770Y26800D02*X1020Y27050D01*
X770Y26800D02*X1020D01*
X1140Y27150D02*X1190Y27200D01*
X1340D01*
X1390Y27150D01*
Y27050D01*
X1140Y26800D02*X1390Y27050D01*
X1140Y26800D02*X1390D01*
X10594Y26005D02*X10728D01*
X10550Y26049D02*X10594Y26005D01*
X10550Y26316D02*Y26049D01*
Y26316D02*X10594Y26361D01*
X10728D01*
X10834Y26183D02*X11012Y26361D01*
X10834Y26183D02*X11057D01*
X11012Y26361D02*Y26005D01*
X4100Y25900D02*Y25850D01*
X4350Y25600D01*
Y25500D01*
X4100Y25600D02*Y25500D01*
Y25600D02*X4350Y25850D01*
Y25900D02*Y25850D01*
X4520Y25500D02*X4620D01*
X4570Y25900D02*Y25500D01*
X4470Y25800D02*X4570Y25900D01*
X2100Y25000D02*X2300D01*
X2350Y24950D01*
Y24850D01*
X2300Y24800D02*X2350Y24850D01*
X2150Y24800D02*X2300D01*
X2150Y25000D02*Y24600D01*
Y24800D02*X2350Y24600D01*
X2620Y25000D02*X2670Y24950D01*
X2520Y25000D02*X2620D01*
X2470Y24950D02*X2520Y25000D01*
X2470Y24950D02*Y24650D01*
X2520Y24600D01*
X2620Y24800D02*X2670Y24750D01*
X2470Y24800D02*X2620D01*
X2520Y24600D02*X2620D01*
X2670Y24650D01*
Y24750D02*Y24650D01*
X10650Y27544D02*X10762D01*
X10706D02*Y27320D01*
X10857Y27544D02*Y27320D01*
X10829Y27544D02*X10941D01*
X10969Y27516D01*
Y27460D01*
X10941Y27432D02*X10969Y27460D01*
X10857Y27432D02*X10941D01*
X11036Y27516D02*X11064Y27544D01*
X11148D01*
X11176Y27516D01*
Y27460D01*
X11036Y27320D02*X11176Y27460D01*
X11036Y27320D02*X11176D01*
X2850Y29161D02*X3028D01*
X3072Y29116D01*
Y29027D01*
X3028Y28983D02*X3072Y29027D01*
X2894Y28983D02*X3028D01*
X2894Y29161D02*Y28805D01*
Y28983D02*X3072Y28805D01*
X3179Y29116D02*X3223Y29161D01*
X3357D01*
X3401Y29116D01*
Y29027D01*
X3179Y28805D02*X3401Y29027D01*
X3179Y28805D02*X3401D01*
X3553D02*X3642D01*
X3597Y29161D02*Y28805D01*
X3508Y29072D02*X3597Y29161D01*
X650D02*X828D01*
X872Y29116D01*
Y29027D01*
X828Y28983D02*X872Y29027D01*
X694Y28983D02*X828D01*
X694Y29161D02*Y28805D01*
Y28983D02*X872Y28805D01*
X1023D02*X1112D01*
X1068Y29161D02*Y28805D01*
X979Y29072D02*X1068Y29161D01*
X1219Y29116D02*X1264Y29161D01*
X1353D01*
X1397Y29116D01*
Y28849D01*
X1353Y28805D02*X1397Y28849D01*
X1264Y28805D02*X1353D01*
X1219Y28849D02*X1264Y28805D01*
Y28983D02*X1397D01*
X8639Y14178D02*Y14000D01*
Y14178D02*X8683Y14222D01*
X8772D01*
X8817Y14178D02*X8772Y14222D01*
X8817Y14178D02*Y14044D01*
X8639D02*X8995D01*
X8817D02*X8995Y14222D01*
Y14462D02*Y14373D01*
X8639Y14418D02*X8995D01*
X8728Y14329D02*X8639Y14418D01*
X8950Y14569D02*X8995Y14614D01*
X8683Y14569D02*X8950D01*
X8683D02*X8639Y14614D01*
Y14703D02*Y14614D01*
Y14703D02*X8683Y14747D01*
X8950D01*
X8995Y14703D02*X8950Y14747D01*
X8995Y14703D02*Y14614D01*
X8906Y14569D02*X8728Y14747D01*
X8739Y16528D02*Y16350D01*
Y16528D02*X8783Y16572D01*
X8872D01*
X8917Y16528D02*X8872Y16572D01*
X8917Y16528D02*Y16394D01*
X8739D02*X9095D01*
X8917D02*X9095Y16572D01*
X9050Y16679D02*X9095Y16723D01*
X8961Y16679D02*X9050D01*
X8961D02*X8917Y16723D01*
Y16812D02*Y16723D01*
Y16812D02*X8961Y16857D01*
X9050D01*
X9095Y16812D02*X9050Y16857D01*
X9095Y16812D02*Y16723D01*
X8872Y16679D02*X8917Y16723D01*
X8783Y16679D02*X8872D01*
X8783D02*X8739Y16723D01*
Y16812D02*Y16723D01*
Y16812D02*X8783Y16857D01*
X8872D01*
X8917Y16812D02*X8872Y16857D01*
X7039Y14378D02*Y14200D01*
Y14378D02*X7083Y14422D01*
X7172D01*
X7217Y14378D02*X7172Y14422D01*
X7217Y14378D02*Y14244D01*
X7039D02*X7395D01*
X7217D02*X7395Y14422D01*
Y14529D02*X7217Y14707D01*
X7083D02*X7217D01*
X7039Y14662D02*X7083Y14707D01*
X7039Y14662D02*Y14573D01*
X7083Y14529D02*X7039Y14573D01*
X7083Y14529D02*X7172D01*
X7217Y14573D01*
Y14707D02*Y14573D01*
X3800Y7850D02*Y7550D01*
Y7850D02*X3850Y7900D01*
X3950D01*
X4000Y7850D01*
Y7550D01*
X3950Y7500D02*X4000Y7550D01*
X3850Y7500D02*X3950D01*
X3800Y7550D02*X3850Y7500D01*
X3900Y7600D02*X4000Y7500D01*
X4120Y7850D02*X4170Y7900D01*
X4320D01*
X4370Y7850D01*
Y7750D01*
X4120Y7500D02*X4370Y7750D01*
X4120Y7500D02*X4370D01*
X10450Y4800D02*X10600D01*
X10400Y4850D02*X10450Y4800D01*
X10400Y5150D02*Y4850D01*
Y5150D02*X10450Y5200D01*
X10600D01*
X10870D02*X10920Y5150D01*
X10770Y5200D02*X10870D01*
X10720Y5150D02*X10770Y5200D01*
X10720Y5150D02*Y4850D01*
X10770Y4800D01*
X10870Y5000D02*X10920Y4950D01*
X10720Y5000D02*X10870D01*
X10770Y4800D02*X10870D01*
X10920Y4850D01*
Y4950D02*Y4850D01*
X4350Y5400D02*Y5000D01*
X4500Y5400D02*X4550Y5350D01*
Y5050D01*
X4500Y5000D02*X4550Y5050D01*
X4300Y5000D02*X4500D01*
X4300Y5400D02*X4500D01*
X4720Y5000D02*X4820D01*
X4770Y5400D02*Y5000D01*
X4670Y5300D02*X4770Y5400D01*
X10400Y7850D02*Y7550D01*
Y7850D02*X10450Y7900D01*
X10550D01*
X10600Y7850D01*
Y7550D01*
X10550Y7500D02*X10600Y7550D01*
X10450Y7500D02*X10550D01*
X10400Y7550D02*X10450Y7500D01*
X10500Y7600D02*X10600Y7500D01*
X10770D02*X10870D01*
X10820Y7900D02*Y7500D01*
X10720Y7800D02*X10820Y7900D01*
X2600Y7850D02*Y7550D01*
Y7850D02*X2650Y7900D01*
X2750D01*
X2800Y7850D01*
Y7550D01*
X2750Y7500D02*X2800Y7550D01*
X2650Y7500D02*X2750D01*
X2600Y7550D02*X2650Y7500D01*
X2700Y7600D02*X2800Y7500D01*
X2920Y7850D02*X2970Y7900D01*
X3070D01*
X3120Y7850D01*
Y7550D01*
X3070Y7500D02*X3120Y7550D01*
X2970Y7500D02*X3070D01*
X2920Y7550D02*X2970Y7500D01*
Y7700D02*X3120D01*
X1300Y2600D02*Y2450D01*
X1250Y2400D02*X1300Y2450D01*
X950Y2400D02*X1250D01*
X950D02*X900Y2450D01*
Y2600D02*Y2450D01*
Y2720D02*X1300D01*
X900D02*X950D01*
X1200Y2970D01*
X900D02*X1300D01*
X950Y3090D02*X900Y3140D01*
Y3290D02*Y3140D01*
Y3290D02*X950Y3340D01*
X1050D01*
X1300Y3090D02*X1050Y3340D01*
X1300D02*Y3090D01*
X3639Y14428D02*Y14250D01*
Y14428D02*X3683Y14472D01*
X3772D01*
X3817Y14428D02*X3772Y14472D01*
X3817Y14428D02*Y14294D01*
X3639D02*X3995D01*
X3817D02*X3995Y14472D01*
Y14712D02*Y14623D01*
X3639Y14668D02*X3995D01*
X3728Y14579D02*X3639Y14668D01*
X3995Y14819D02*X3772Y15042D01*
X3639D02*X3772D01*
X3639D02*Y14819D01*
X5239Y14178D02*Y14000D01*
Y14178D02*X5283Y14222D01*
X5372D01*
X5417Y14178D02*X5372Y14222D01*
X5417Y14178D02*Y14044D01*
X5239D02*X5595D01*
X5417D02*X5595Y14222D01*
Y14462D02*Y14373D01*
X5239Y14418D02*X5595D01*
X5328Y14329D02*X5239Y14418D01*
X5550Y14569D02*X5595Y14614D01*
X5461Y14569D02*X5550D01*
X5461D02*X5417Y14614D01*
Y14703D02*Y14614D01*
Y14703D02*X5461Y14747D01*
X5550D01*
X5595Y14703D02*X5550Y14747D01*
X5595Y14703D02*Y14614D01*
X5372Y14569D02*X5417Y14614D01*
X5283Y14569D02*X5372D01*
X5283D02*X5239Y14614D01*
Y14703D02*Y14614D01*
Y14703D02*X5283Y14747D01*
X5372D01*
X5417Y14703D02*X5372Y14747D01*
X1839Y14228D02*Y14050D01*
Y14228D02*X1883Y14272D01*
X1972D01*
X2017Y14228D02*X1972Y14272D01*
X2017Y14228D02*Y14094D01*
X1839D02*X2195D01*
X2017D02*X2195Y14272D01*
X1883Y14379D02*X1839Y14423D01*
Y14557D02*Y14423D01*
Y14557D02*X1883Y14601D01*
X1972D01*
X2195Y14379D02*X1972Y14601D01*
X2195D02*Y14379D01*
X1839Y14842D02*X1883Y14886D01*
X1839Y14842D02*Y14753D01*
X1883Y14708D02*X1839Y14753D01*
X1883Y14708D02*X2150D01*
X2195Y14753D01*
X2017Y14842D02*X2061Y14886D01*
X2017Y14842D02*Y14708D01*
X2195Y14842D02*Y14753D01*
Y14842D02*X2150Y14886D01*
X2061D02*X2150D01*
X5339Y16528D02*Y16350D01*
Y16528D02*X5383Y16572D01*
X5472D01*
X5517Y16528D02*X5472Y16572D01*
X5517Y16528D02*Y16394D01*
X5339D02*X5695D01*
X5517D02*X5695Y16572D01*
Y16812D02*Y16723D01*
X5339Y16768D02*X5695D01*
X5428Y16679D02*X5339Y16768D01*
Y17053D02*X5383Y17097D01*
X5339Y17053D02*Y16964D01*
X5383Y16919D02*X5339Y16964D01*
X5383Y16919D02*X5650D01*
X5695Y16964D01*
X5517Y17053D02*X5561Y17097D01*
X5517Y17053D02*Y16919D01*
X5695Y17053D02*Y16964D01*
Y17053D02*X5650Y17097D01*
X5561D02*X5650D01*
X3639Y16528D02*Y16350D01*
Y16528D02*X3683Y16572D01*
X3772D01*
X3817Y16528D02*X3772Y16572D01*
X3817Y16528D02*Y16394D01*
X3639D02*X3995D01*
X3817D02*X3995Y16572D01*
Y16812D02*Y16723D01*
X3639Y16768D02*X3995D01*
X3728Y16679D02*X3639Y16768D01*
Y17097D02*Y16919D01*
X3817D01*
X3772Y16964D01*
Y17053D02*Y16964D01*
Y17053D02*X3817Y17097D01*
X3950D01*
X3995Y17053D02*X3950Y17097D01*
X3995Y17053D02*Y16964D01*
X3950Y16919D02*X3995Y16964D01*
X500Y14072D02*X656D01*
X695Y14033D01*
Y13955D01*
X656Y13916D02*X695Y13955D01*
X539Y13916D02*X656D01*
X539Y14072D02*Y13760D01*
Y13916D02*X695Y13760D01*
X788Y14033D02*X827Y14072D01*
X944D01*
X983Y14033D01*
Y13955D01*
X788Y13760D02*X983Y13955D01*
X788Y13760D02*X983D01*
X1077Y14072D02*X1233D01*
X1077D02*Y13916D01*
X1116Y13955D01*
X1194D01*
X1233Y13916D01*
Y13799D01*
X1194Y13760D02*X1233Y13799D01*
X1116Y13760D02*X1194D01*
X1077Y13799D02*X1116Y13760D01*
X7039Y16528D02*Y16350D01*
Y16528D02*X7083Y16572D01*
X7172D01*
X7217Y16528D02*X7172Y16572D01*
X7217Y16528D02*Y16394D01*
X7039D02*X7395D01*
X7217D02*X7395Y16572D01*
Y16679D02*X7172Y16901D01*
X7039D02*X7172D01*
X7039D02*Y16679D01*
X550Y18411D02*X728D01*
X772Y18366D01*
Y18277D01*
X728Y18233D02*X772Y18277D01*
X594Y18233D02*X728D01*
X594Y18411D02*Y18055D01*
Y18233D02*X772Y18055D01*
X879Y18366D02*X923Y18411D01*
X1057D01*
X1101Y18366D01*
Y18277D01*
X879Y18055D02*X1101Y18277D01*
X879Y18055D02*X1101D01*
X1208Y18366D02*X1253Y18411D01*
X1342D01*
X1386Y18366D01*
Y18099D01*
X1342Y18055D02*X1386Y18099D01*
X1253Y18055D02*X1342D01*
X1208Y18099D02*X1253Y18055D01*
Y18233D02*X1386D01*
X1939Y16528D02*Y16350D01*
Y16528D02*X1983Y16572D01*
X2072D01*
X2117Y16528D02*X2072Y16572D01*
X2117Y16528D02*Y16394D01*
X1939D02*X2295D01*
X2117D02*X2295Y16572D01*
X1983Y16679D02*X1939Y16723D01*
Y16857D02*Y16723D01*
Y16857D02*X1983Y16901D01*
X2072D01*
X2295Y16679D02*X2072Y16901D01*
X2295D02*Y16679D01*
X2117Y17008D02*X1939Y17186D01*
X2117Y17231D02*Y17008D01*
X1939Y17186D02*X2295D01*
X794Y19005D02*X928D01*
X750Y19049D02*X794Y19005D01*
X750Y19316D02*Y19049D01*
Y19316D02*X794Y19361D01*
X928D01*
X1079Y19005D02*X1168D01*
X1123Y19361D02*Y19005D01*
X1034Y19272D02*X1123Y19361D01*
X1275Y19049D02*X1319Y19005D01*
X1275Y19316D02*Y19049D01*
Y19316D02*X1319Y19361D01*
X1408D01*
X1453Y19316D01*
Y19049D01*
X1408Y19005D02*X1453Y19049D01*
X1319Y19005D02*X1408D01*
X1275Y19094D02*X1453Y19272D01*
X600Y22550D02*X800D01*
X850Y22500D01*
Y22400D01*
X800Y22350D02*X850Y22400D01*
X650Y22350D02*X800D01*
X650Y22550D02*Y22150D01*
Y22350D02*X850Y22150D01*
X1020D02*X1120D01*
X1070Y22550D02*Y22150D01*
X970Y22450D02*X1070Y22550D01*
X1240Y22350D02*X1440Y22550D01*
X1240Y22350D02*X1490D01*
X1440Y22550D02*Y22150D01*
X3600Y22550D02*Y22200D01*
X3650Y22150D01*
X3750D01*
X3800Y22200D01*
Y22550D02*Y22200D01*
X3920Y22350D02*X4120Y22550D01*
X3920Y22350D02*X4170D01*
X4120Y22550D02*Y22150D01*
X3700Y40144D02*X3812D01*
X3756D02*Y39920D01*
X3907Y40144D02*Y39920D01*
X3879Y40144D02*X3991D01*
X4019Y40116D01*
Y40060D01*
X3991Y40032D02*X4019Y40060D01*
X3907Y40032D02*X3991D01*
X4114Y39920D02*X4170D01*
X4142Y40144D02*Y39920D01*
X4086Y40088D02*X4142Y40144D01*
X4237Y39948D02*X4265Y39920D01*
X4237Y40116D02*Y39948D01*
Y40116D02*X4265Y40144D01*
X4321D01*
X4349Y40116D01*
Y39948D01*
X4321Y39920D02*X4349Y39948D01*
X4265Y39920D02*X4321D01*
X4237Y39976D02*X4349Y40088D01*
X4600Y37100D02*X4750D01*
Y36750D01*
X4700Y36700D02*X4750Y36750D01*
X4650Y36700D02*X4700D01*
X4600Y36750D02*X4650Y36700D01*
X4920D02*X5020D01*
X4970Y37100D02*Y36700D01*
X4870Y37000D02*X4970Y37100D01*
X650Y36850D02*X800D01*
X600Y36900D02*X650Y36850D01*
X600Y37200D02*Y36900D01*
Y37200D02*X650Y37250D01*
X800D01*
X920Y36850D02*X1170Y37100D01*
Y37250D02*Y37100D01*
X920Y37250D02*X1170D01*
X1600Y37500D02*Y37150D01*
X1650Y37100D01*
X1750D01*
X1800Y37150D01*
Y37500D02*Y37150D01*
X1920Y37450D02*X1970Y37500D01*
X2070D01*
X2120Y37450D01*
Y37150D01*
X2070Y37100D02*X2120Y37150D01*
X1970Y37100D02*X2070D01*
X1920Y37150D02*X1970Y37100D01*
Y37300D02*X2120D01*
X2100Y39700D02*X2300D01*
X2350Y39650D01*
Y39550D01*
X2300Y39500D02*X2350Y39550D01*
X2150Y39500D02*X2300D01*
X2150Y39700D02*Y39300D01*
Y39500D02*X2350Y39300D01*
X2470Y39650D02*X2520Y39700D01*
X2620D01*
X2670Y39650D01*
Y39350D01*
X2620Y39300D02*X2670Y39350D01*
X2520Y39300D02*X2620D01*
X2470Y39350D02*X2520Y39300D01*
Y39500D02*X2670D01*
X9950Y44894D02*X10062D01*
X10006D02*Y44670D01*
X10157Y44894D02*Y44670D01*
X10129Y44894D02*X10241D01*
X10269Y44866D01*
Y44810D01*
X10241Y44782D02*X10269Y44810D01*
X10157Y44782D02*X10241D01*
X10336Y44670D02*X10448Y44782D01*
Y44866D02*Y44782D01*
X10420Y44894D02*X10448Y44866D01*
X10364Y44894D02*X10420D01*
X10336Y44866D02*X10364Y44894D01*
X10336Y44866D02*Y44810D01*
X10364Y44782D01*
X10448D01*
X9450Y42850D02*Y42450D01*
X9650D01*
X9820Y42850D02*Y42450D01*
X9970Y42850D02*X10020Y42800D01*
Y42500D01*
X9970Y42450D02*X10020Y42500D01*
X9770Y42450D02*X9970D01*
X9770Y42850D02*X9970D01*
X10140Y42800D02*X10190Y42850D01*
X10340D01*
X10390Y42800D01*
Y42700D01*
X10140Y42450D02*X10390Y42700D01*
X10140Y42450D02*X10390D01*
X7700Y42800D02*Y42450D01*
X7750Y42400D01*
X7850D01*
X7900Y42450D01*
Y42800D02*Y42450D01*
X8020Y42750D02*X8070Y42800D01*
X8220D01*
X8270Y42750D01*
Y42650D01*
X8020Y42400D02*X8270Y42650D01*
X8020Y42400D02*X8270D01*
X9950Y46844D02*X10062D01*
X10006D02*Y46620D01*
X10157Y46844D02*Y46620D01*
X10129Y46844D02*X10241D01*
X10269Y46816D01*
Y46760D01*
X10241Y46732D02*X10269Y46760D01*
X10157Y46732D02*X10241D01*
X10336Y46648D02*X10364Y46620D01*
X10336Y46704D02*Y46648D01*
Y46704D02*X10364Y46732D01*
X10420D01*
X10448Y46704D01*
Y46648D01*
X10420Y46620D02*X10448Y46648D01*
X10364Y46620D02*X10420D01*
X10336Y46760D02*X10364Y46732D01*
X10336Y46816D02*Y46760D01*
Y46816D02*X10364Y46844D01*
X10420D01*
X10448Y46816D01*
Y46760D01*
X10420Y46732D02*X10448Y46760D01*
X9350Y47200D02*X9500D01*
X9300Y47250D02*X9350Y47200D01*
X9300Y47550D02*Y47250D01*
Y47550D02*X9350Y47600D01*
X9500D01*
X9620D02*Y47200D01*
Y47600D02*Y47550D01*
X9870Y47300D01*
Y47600D02*Y47200D01*
X9990Y47550D02*X10040Y47600D01*
X10140D01*
X10190Y47550D01*
Y47250D01*
X10140Y47200D02*X10190Y47250D01*
X10040Y47200D02*X10140D01*
X9990Y47250D02*X10040Y47200D01*
Y47400D02*X10190D01*
X2850Y32161D02*X3028D01*
X3072Y32116D01*
Y32027D01*
X3028Y31983D02*X3072Y32027D01*
X2894Y31983D02*X3028D01*
X2894Y32161D02*Y31805D01*
Y31983D02*X3072Y31805D01*
X3223D02*X3312D01*
X3268Y32161D02*Y31805D01*
X3179Y32072D02*X3268Y32161D01*
X3419Y31805D02*X3597Y31983D01*
Y32116D02*Y31983D01*
X3553Y32161D02*X3597Y32116D01*
X3464Y32161D02*X3553D01*
X3419Y32116D02*X3464Y32161D01*
X3419Y32116D02*Y32027D01*
X3464Y31983D01*
X3597D01*
X650Y32161D02*X828D01*
X872Y32116D01*
Y32027D01*
X828Y31983D02*X872Y32027D01*
X694Y31983D02*X828D01*
X694Y32161D02*Y31805D01*
Y31983D02*X872Y31805D01*
X1023D02*X1112D01*
X1068Y32161D02*Y31805D01*
X979Y32072D02*X1068Y32161D01*
X1264Y31805D02*X1353D01*
X1308Y32161D02*Y31805D01*
X1219Y32072D02*X1308Y32161D01*
X4500Y35161D02*X4678D01*
X4722Y35116D01*
Y35027D01*
X4678Y34983D02*X4722Y35027D01*
X4544Y34983D02*X4678D01*
X4544Y35161D02*Y34805D01*
Y34983D02*X4722Y34805D01*
X4829Y35116D02*X4873Y35161D01*
X5007D01*
X5051Y35116D01*
Y35027D01*
X4829Y34805D02*X5051Y35027D01*
X4829Y34805D02*X5051D01*
X4500Y33761D02*X4678D01*
X4722Y33716D01*
Y33627D01*
X4678Y33583D02*X4722Y33627D01*
X4544Y33583D02*X4678D01*
X4544Y33761D02*Y33405D01*
Y33583D02*X4722Y33405D01*
X4873D02*X4962D01*
X4918Y33761D02*Y33405D01*
X4829Y33672D02*X4918Y33761D01*
X650Y33661D02*X828D01*
X872Y33616D01*
Y33527D01*
X828Y33483D02*X872Y33527D01*
X694Y33483D02*X828D01*
X694Y33661D02*Y33305D01*
Y33483D02*X872Y33305D01*
X979Y33483D02*X1157Y33661D01*
X979Y33483D02*X1201D01*
X1157Y33661D02*Y33305D01*
X2850Y33661D02*X3028D01*
X3072Y33616D01*
Y33527D01*
X3028Y33483D02*X3072Y33527D01*
X2894Y33483D02*X3028D01*
X2894Y33661D02*Y33305D01*
Y33483D02*X3072Y33305D01*
X3179Y33661D02*X3357D01*
X3179D02*Y33483D01*
X3223Y33527D01*
X3312D01*
X3357Y33483D01*
Y33349D01*
X3312Y33305D02*X3357Y33349D01*
X3223Y33305D02*X3312D01*
X3179Y33349D02*X3223Y33305D01*
X4500Y43900D02*Y43500D01*
X4700D01*
X4870Y43900D02*Y43500D01*
X5020Y43900D02*X5070Y43850D01*
Y43550D01*
X5020Y43500D02*X5070Y43550D01*
X4820Y43500D02*X5020D01*
X4820Y43900D02*X5020D01*
X5240Y43500D02*X5340D01*
X5290Y43900D02*Y43500D01*
X5190Y43800D02*X5290Y43900D01*
X5550Y41950D02*X5700D01*
X5500Y42000D02*X5550Y41950D01*
X5500Y42300D02*Y42000D01*
Y42300D02*X5550Y42350D01*
X5700D01*
X5820Y42000D02*X5870Y41950D01*
X5820Y42100D02*Y42000D01*
Y42100D02*X5870Y42150D01*
X5970D01*
X6020Y42100D01*
Y42000D01*
X5970Y41950D02*X6020Y42000D01*
X5870Y41950D02*X5970D01*
X5820Y42200D02*X5870Y42150D01*
X5820Y42300D02*Y42200D01*
Y42300D02*X5870Y42350D01*
X5970D01*
X6020Y42300D01*
Y42200D01*
X5970Y42150D02*X6020Y42200D01*
X5400Y39950D02*X5550D01*
X5350Y40000D02*X5400Y39950D01*
X5350Y40300D02*Y40000D01*
Y40300D02*X5400Y40350D01*
X5550D01*
X5670Y39950D02*X5870Y40150D01*
Y40300D02*Y40150D01*
X5820Y40350D02*X5870Y40300D01*
X5720Y40350D02*X5820D01*
X5670Y40300D02*X5720Y40350D01*
X5670Y40300D02*Y40200D01*
X5720Y40150D01*
X5870D01*
X7000Y33200D02*X7150D01*
X6950Y33250D02*X7000Y33200D01*
X6950Y33550D02*Y33250D01*
Y33550D02*X7000Y33600D01*
X7150D01*
X7270D02*X7470D01*
X7270D02*Y33400D01*
X7320Y33450D01*
X7420D01*
X7470Y33400D01*
Y33250D01*
X7420Y33200D02*X7470Y33250D01*
X7320Y33200D02*X7420D01*
X7270Y33250D02*X7320Y33200D01*
X7600Y33900D02*X7750D01*
X7550Y33950D02*X7600Y33900D01*
X7550Y34250D02*Y33950D01*
Y34250D02*X7600Y34300D01*
X7750D01*
X7870D02*Y33900D01*
Y34300D02*Y34250D01*
X8120Y34000D01*
Y34300D02*Y33900D01*
X8290D02*X8390D01*
X8340Y34300D02*Y33900D01*
X8240Y34200D02*X8340Y34300D01*
X9500Y28444D02*X9612D01*
X9556D02*Y28220D01*
X9707Y28444D02*Y28220D01*
X9679Y28444D02*X9791D01*
X9819Y28416D01*
Y28360D01*
X9791Y28332D02*X9819Y28360D01*
X9707Y28332D02*X9791D01*
X9914Y28220D02*X9970D01*
X9942Y28444D02*Y28220D01*
X9886Y28388D02*X9942Y28444D01*
X7744Y27655D02*X7878D01*
X7700Y27699D02*X7744Y27655D01*
X7700Y27966D02*Y27699D01*
Y27966D02*X7744Y28011D01*
X7878D01*
X8029Y27655D02*X8118D01*
X8073Y28011D02*Y27655D01*
X7984Y27922D02*X8073Y28011D01*
X5344Y27655D02*X5478D01*
X5300Y27699D02*X5344Y27655D01*
X5300Y27966D02*Y27699D01*
Y27966D02*X5344Y28011D01*
X5478D01*
X5584Y27966D02*X5629Y28011D01*
X5718D01*
X5762Y27966D01*
Y27699D01*
X5718Y27655D02*X5762Y27699D01*
X5629Y27655D02*X5718D01*
X5584Y27699D02*X5629Y27655D01*
Y27833D02*X5762D01*
X6544Y27655D02*X6678D01*
X6500Y27699D02*X6544Y27655D01*
X6500Y27966D02*Y27699D01*
Y27966D02*X6544Y28011D01*
X6678D01*
X6784Y27966D02*X6829Y28011D01*
X6962D01*
X7007Y27966D01*
Y27877D01*
X6784Y27655D02*X7007Y27877D01*
X6784Y27655D02*X7007D01*
X650Y30661D02*X828D01*
X872Y30616D01*
Y30527D01*
X828Y30483D02*X872Y30527D01*
X694Y30483D02*X828D01*
X694Y30661D02*Y30305D01*
Y30483D02*X872Y30305D01*
X1023D02*X1112D01*
X1068Y30661D02*Y30305D01*
X979Y30572D02*X1068Y30661D01*
X1219Y30616D02*X1264Y30661D01*
X1397D01*
X1442Y30616D01*
Y30527D01*
X1219Y30305D02*X1442Y30527D01*
X1219Y30305D02*X1442D01*
X2850Y30661D02*X3028D01*
X3072Y30616D01*
Y30527D01*
X3028Y30483D02*X3072Y30527D01*
X2894Y30483D02*X3028D01*
X2894Y30661D02*Y30305D01*
Y30483D02*X3072Y30305D01*
X3179Y30616D02*X3223Y30661D01*
X3357D01*
X3401Y30616D01*
Y30527D01*
X3179Y30305D02*X3401Y30527D01*
X3179Y30305D02*X3401D01*
X3508Y30349D02*X3553Y30305D01*
X3508Y30616D02*Y30349D01*
Y30616D02*X3553Y30661D01*
X3642D01*
X3686Y30616D01*
Y30349D01*
X3642Y30305D02*X3686Y30349D01*
X3553Y30305D02*X3642D01*
X3508Y30394D02*X3686Y30572D01*
X4600Y29444D02*X4712D01*
X4656D02*Y29220D01*
X4807Y29444D02*Y29220D01*
X4779Y29444D02*X4891D01*
X4919Y29416D01*
Y29360D01*
X4891Y29332D02*X4919Y29360D01*
X4807Y29332D02*X4891D01*
X4986Y29220D02*X5126Y29360D01*
Y29444D02*Y29360D01*
X4986Y29444D02*X5126D01*
X5900Y32000D02*Y31650D01*
X5950Y31600D01*
X6050D01*
X6100Y31650D01*
Y32000D02*Y31650D01*
X6270Y31600D02*X6370D01*
X6320Y32000D02*Y31600D01*
X6220Y31900D02*X6320Y32000D01*
X10300Y31094D02*X10412D01*
X10356D02*Y30870D01*
X10507Y31094D02*Y30870D01*
X10479Y31094D02*X10591D01*
X10619Y31066D01*
Y31010D01*
X10591Y30982D02*X10619Y31010D01*
X10507Y30982D02*X10591D01*
X10686Y31094D02*X10798D01*
X10686D02*Y30982D01*
X10714Y31010D01*
X10770D01*
X10798Y30982D01*
Y30898D01*
X10770Y30870D02*X10798Y30898D01*
X10714Y30870D02*X10770D01*
X10686Y30898D02*X10714Y30870D01*
X10200Y29144D02*X10312D01*
X10256D02*Y28920D01*
X10407Y29144D02*Y28920D01*
X10379Y29144D02*X10491D01*
X10519Y29116D01*
Y29060D01*
X10491Y29032D02*X10519Y29060D01*
X10407Y29032D02*X10491D01*
X10586Y29116D02*X10614Y29144D01*
X10670D01*
X10698Y29116D01*
Y28948D01*
X10670Y28920D02*X10698Y28948D01*
X10614Y28920D02*X10670D01*
X10586Y28948D02*X10614Y28920D01*
Y29032D02*X10698D01*
X10550Y29444D02*X10662D01*
X10606D02*Y29220D01*
X10757Y29444D02*Y29220D01*
X10729Y29444D02*X10841D01*
X10869Y29416D01*
Y29360D01*
X10841Y29332D02*X10869Y29360D01*
X10757Y29332D02*X10841D01*
X10936D02*X11048Y29444D01*
X10936Y29332D02*X11076D01*
X11048Y29444D02*Y29220D01*
M02*
