M48
INCH
T11C0.050
T29C0.030
T30C0.095
T31C0.045
T32C0.130
T33C0.025
T48C0.051
%
T33
X011200Y013600
X007400Y013900
X004500Y022900
X003800Y014400
X007300Y004600
X007800Y004000
X003600Y005800
X011100Y012800
X002000Y029800
T29
X005500Y017200
X005500Y016200
X005500Y015200
X001900Y024200
X001900Y025200
X003500Y020300
X003500Y024300
X001900Y023200
X001900Y022200
X001900Y021200
X007500Y021600
X006500Y021600
X001900Y020200
X005500Y020200
X005500Y019200
X008500Y019200
X008500Y020200
X001900Y026200
X005600Y004400
X005600Y003400
X005600Y002400
X001900Y027200
X005600Y001400
X008600Y001400
X008600Y002400
X008600Y003400
X008600Y004400
X010200Y003600
X010200Y002600
X013000Y032300
X012000Y032300
X013000Y029500
X012000Y029500
X005500Y014200
X005500Y013200
X008500Y014200
X008500Y013200
X010800Y016100
X010200Y017500
X008500Y015200
X008500Y016200
X008500Y017200
X008500Y018200
X010200Y018500
X005500Y018200
T31
X010300Y034500
X011300Y034500
T11
X002831Y031178
X004800Y030194
X004800Y032163
X006768Y031178
X007752Y032163
X003815Y036100
X005784Y036100
X012600Y018500
X011600Y018500
X013600Y018500
X001847Y032163
T48
X002500Y001900
X002500Y013468
X002500Y011500
X002500Y008668
X013000Y001894
X013000Y003863
X013000Y005831
X013000Y007800
X013000Y014531
X002500Y003868
X002500Y006700
X013000Y010594
X013000Y012563
X013000Y016500
X002500Y018268
X002500Y016300
T30
X007752Y034131
X001847Y034131
T32
X012600Y025200
X007750Y009800
X007750Y026050
M30
