G04 start of page 5 for group -4062 idx -4062 *
G04 Title: (unknown), soldermask *
G04 Creator: pcb 1.99x *
G04 CreationDate: Sun Mar 21 05:59:03 2010 UTC *
G04 For: davidellsworth *
G04 Format: Gerber/RS-274X *
G04 PCB-Dimensions: 155000 370000 *
G04 PCB-Coordinate-Origin: lower left *
%MOIN*%
%FSLAX24Y24*%
%LNBACKMASK*%
%ADD12C,0.0200*%
%ADD21C,0.0860*%
%ADD24C,0.0700*%
%ADD38C,0.0872*%
%ADD39C,0.0660*%
%ADD40C,0.0710*%
%ADD41C,0.0920*%
%ADD42C,0.1170*%
%ADD43C,0.1820*%
%ADD44C,0.0760*%
%ADD45C,0.2450*%
%ADD46C,0.3760*%
%ADD47C,0.3720*%
G54D38*X13000Y14531D03*
Y12563D03*
Y10594D03*
G54D12*G36*
X12564Y8235D02*Y7364D01*
X13435D01*
Y8235D01*
X12564D01*
G37*
G54D38*X13000Y5831D03*
Y3863D03*
Y1894D03*
G54D12*G36*
X2064Y16735D02*Y15864D01*
X2935D01*
Y16735D01*
X2064D01*
G37*
G54D38*X2500Y18268D03*
G54D12*G36*
X12564Y16935D02*Y16064D01*
X13435D01*
Y16935D01*
X12564D01*
G37*
G54D21*X13600Y18500D03*
G54D39*X10200Y17500D03*
X8500Y15200D03*
Y16200D03*
Y17200D03*
Y18200D03*
X10200Y18500D03*
X5500Y18200D03*
Y17200D03*
Y16200D03*
Y15200D03*
G54D21*X11600Y18500D03*
X12600D03*
G54D24*X3500Y20300D03*
Y24300D03*
G54D40*X1900Y23200D03*
Y22200D03*
Y21200D03*
G54D39*X7500Y21600D03*
X6500D03*
G54D40*X1900Y20200D03*
G54D12*G36*
X5170Y20530D02*Y19870D01*
X5830D01*
Y20530D01*
X5170D01*
G37*
G54D39*X5500Y19200D03*
X8500D03*
Y20200D03*
G54D12*G36*
X2064Y7135D02*Y6264D01*
X2935D01*
Y7135D01*
X2064D01*
G37*
G36*
X5270Y4730D02*Y4070D01*
X5930D01*
Y4730D01*
X5270D01*
G37*
G54D39*X5600Y3400D03*
Y2400D03*
G54D38*X2500Y3868D03*
G54D39*X5600Y1400D03*
X8600D03*
Y2400D03*
Y3400D03*
Y4400D03*
X10200Y3600D03*
Y2600D03*
G54D38*X2500Y8668D03*
G54D12*G36*
X2064Y11935D02*Y11064D01*
X2935D01*
Y11935D01*
X2064D01*
G37*
G54D38*X2500Y13468D03*
G54D12*G36*
X2064Y2335D02*Y1464D01*
X2935D01*
Y2335D01*
X2064D01*
G37*
G54D39*X5500Y14200D03*
Y13200D03*
X8500D03*
Y14200D03*
G54D41*X1847Y32163D03*
X2831Y31178D03*
X4800Y30194D03*
Y32163D03*
X6768Y31178D03*
X7752Y32163D03*
G54D42*X3815Y36100D03*
X5784D03*
G54D43*X1847Y34131D03*
X7752D03*
G54D12*G36*
X9920Y34880D02*Y34120D01*
X10680D01*
Y34880D01*
X9920D01*
G37*
G54D44*X11300Y34500D03*
G54D12*G36*
X11670Y29830D02*Y29170D01*
X12330D01*
Y29830D01*
X11670D01*
G37*
G54D39*X13000Y29500D03*
G54D12*G36*
X11670Y32630D02*Y31970D01*
X12330D01*
Y32630D01*
X11670D01*
G37*
G54D39*X13000Y32300D03*
G54D45*X12600Y25200D03*
G54D40*X1900Y27200D03*
Y26200D03*
Y25200D03*
Y24200D03*
G54D46*X7750Y26050D03*
G54D47*Y9800D03*
M02*
