G04 ================== begin FILE IDENTIFICATION RECORD ==================*
G04 Layout Name:  C:/cygwin/home/konkers/play/flg/usb485/worklib/toplevel/physical/usb485.brd*
G04 Film Name:    BOTTOM*
G04 File Format:  Gerber RS274X*
G04 File Origin:  15.7-p007*
G04 Origin Date:  Sun Jun 28 12:37:36 2009*
G04 *
G04 Layer:  ETCH/BOTTOM*
G04 Layer:  PIN/BOTTOM*
G04 Layer:  VIA CLASS/BOTTOM*
G04 *
G04 Offset:    (0 0)*
G04 Mirror:    No*
G04 Mode:      Positive*
G04 Rotation:  0*
G04 FullContactRelief:  No*
G04 UndefLineWidth:     5*
G04 ================== end FILE IDENTIFICATION RECORD ====================*
%FSLAX54Y54*MOIN*%
%IR0*IPPOS*OFA0.00000B0.00000*MIA0B0*SFA1.00000B1.00000*%
%ADD11C,.03*%
%ADD14C,.06*%
%ADD12C,.063*%
%ADD15R,.06X.06*%
%ADD13R,.063X.063*%
%ADD10C,.25*%
%ADD16C,.125*%
%ADD17C,.01*%
%ADD18C,.084*%
%ADD21C,.086*%
%ADD22C,.148*%
%ADD20R,.082X.082*%
%ADD19R,.086X.086*%
G75*
%LPD*%
G75*
G36*
G01X39250Y101750D02*
Y132250D01*
X50500D01*
Y101750D01*
X39250D01*
G37*
G36*
G01X78750D02*
X52500D01*
Y132250D01*
X78750D01*
Y101750D01*
G37*
%LPC*%
G75*
G36*
G01X60170Y114210D02*
G02X59830I-170J-210D01*
G01X59840Y114220D01*
Y121030D01*
X59830Y121040D01*
G02X60170I170J210D01*
G01X60160Y121030D01*
Y114220D01*
X60170Y114210D01*
G37*
G36*
G01X58170Y115210D02*
G02X57830I-170J-210D01*
G01X57840Y115220D01*
Y130280D01*
X57830Y130290D01*
G02X58170I170J210D01*
G01X58160Y130280D01*
Y115220D01*
X58170Y115210D01*
G37*
G36*
G01X57020Y115530D02*
G02X56780Y115770I-269J-29D01*
G01X56790D01*
X56840Y115820D01*
Y122530D01*
X56830Y122540D01*
G02X57170I170J210D01*
G01X57160Y122530D01*
Y115680D01*
X57020Y115540D01*
Y115530D01*
G37*
G36*
G01X57670Y115940D02*
G02X57330I-170J-210D01*
G01X57340Y115950D01*
Y121530D01*
X57330Y121540D01*
G02X57670I170J210D01*
G01X57660Y121530D01*
Y115950D01*
X57670Y115940D01*
G37*
G36*
G01X73860Y118310D02*
G02Y118730I-361J210D01*
G03X73930I35J32D01*
G02Y118310I361J-210D01*
G03X73860I-35J-32D01*
G37*
G36*
G01X58900Y119270D02*
G02X58630Y119030I0J-272D01*
G01Y119040D01*
X58540Y119130D01*
Y124580D01*
Y124590D01*
G02X58870Y124510I214J161D01*
G01X58860Y124500D01*
Y119310D01*
G03X58900Y119270I40J0D01*
G37*
G36*
G01X73980Y119780D02*
G02Y119220I311J-280D01*
G03X73910Y119190I-29J-30D01*
G01Y119090D01*
X73090D01*
Y119910D01*
X73910D01*
Y119810D01*
G03X73980Y119780I41J0D01*
G37*
G54D18*
X50000Y131500D03*
Y130500D03*
Y129500D03*
Y127750D03*
Y126750D03*
Y125750D03*
Y123000D03*
Y122000D03*
Y120250D03*
Y119250D03*
Y118250D03*
Y116500D03*
Y115500D03*
Y114500D03*
Y112750D03*
Y111750D03*
Y110750D03*
Y108000D03*
Y107000D03*
Y105250D03*
Y103250D03*
X53000Y105250D03*
Y107000D03*
Y108000D03*
Y109000D03*
Y111750D03*
Y112750D03*
Y115500D03*
Y116500D03*
Y119250D03*
Y120250D03*
Y122000D03*
Y123000D03*
Y124000D03*
Y126750D03*
Y127750D03*
Y130500D03*
Y131500D03*
G54D21*
X43000Y123500D03*
Y122120D03*
Y110500D03*
Y109120D03*
G54D22*
X75350Y116640D03*
X77320D03*
X75350Y121380D03*
X77320D03*
G54D20*
X50000Y124000D03*
Y109000D03*
X53000Y102250D03*
Y110750D03*
Y114500D03*
Y118250D03*
Y125750D03*
Y129500D03*
G54D19*
X43000Y124880D03*
Y111880D03*
%LPD*%
G75*
G54D10*
X41500Y99250D03*
Y134250D03*
X56500Y99250D03*
Y134250D03*
X61500Y99250D03*
Y134250D03*
X76500Y99250D03*
Y134250D03*
G54D11*
X41500Y107750D03*
X41750Y120500D03*
X42000Y128250D03*
X42190Y115190D03*
X56750Y115500D03*
X57000Y122750D03*
X60000Y114000D03*
X58000Y115000D03*
X57500Y115730D03*
X58900Y119000D03*
X57500Y121750D03*
X60000Y121250D03*
X58750Y124750D03*
X58000Y130500D03*
X61810Y117810D03*
X61830Y119580D03*
X64500Y111500D03*
X63500D03*
X65000Y114000D03*
X63500D03*
X65500Y116000D03*
X64490Y116010D03*
X64000Y120750D03*
X66250Y119750D03*
X68500Y117250D03*
Y118000D03*
Y119000D03*
X70250Y116000D03*
Y120250D03*
G54D12*
X43000Y110500D03*
Y109120D03*
Y122120D03*
Y123500D03*
G54D13*
Y111880D03*
Y124880D03*
G54D14*
X50000Y103250D03*
Y105250D03*
Y107000D03*
Y108000D03*
Y110750D03*
Y112750D03*
Y111750D03*
Y116500D03*
Y115500D03*
Y114500D03*
Y120250D03*
Y119250D03*
Y118250D03*
Y122000D03*
Y123000D03*
Y125750D03*
Y127750D03*
Y126750D03*
Y131500D03*
Y130500D03*
Y129500D03*
X53000Y105250D03*
Y107000D03*
Y108000D03*
Y109000D03*
Y112750D03*
Y111750D03*
Y116500D03*
Y115500D03*
Y120250D03*
Y119250D03*
Y122000D03*
Y123000D03*
Y124000D03*
Y127750D03*
Y126750D03*
Y131500D03*
Y130500D03*
X73500Y118520D03*
X74290D03*
Y119500D03*
G54D15*
X50000Y109000D03*
Y124000D03*
X53000Y102250D03*
Y110750D03*
Y114500D03*
Y118250D03*
Y125750D03*
Y129500D03*
X73500Y119500D03*
G54D16*
X75350Y116640D03*
Y121380D03*
X77320Y116640D03*
Y121380D03*
G54D17*
G01X50000Y103250D02*
X50420D01*
G01X49580D02*
X50000D01*
G01D02*
Y103670D01*
G01Y102830D02*
Y103250D01*
G01Y111750D02*
X50420D01*
G01X49580D02*
X50000D01*
G01D02*
Y112170D01*
G01Y111330D02*
Y111750D01*
G01Y115500D02*
X50420D01*
G01X49580D02*
X50000D01*
G01D02*
Y115920D01*
G01Y115080D02*
Y115500D01*
G01Y119250D02*
X50420D01*
G01X49580D02*
X50000D01*
G01D02*
Y119670D01*
G01Y118830D02*
Y119250D01*
G01Y126750D02*
X50420D01*
G01X49580D02*
X50000D01*
G01D02*
Y127170D01*
G01Y126330D02*
Y126750D01*
G01Y130500D02*
X50420D01*
G01X49580D02*
X50000D01*
G01D02*
Y130920D01*
G01Y130080D02*
Y130500D01*
G01X53000Y101830D02*
Y102250D01*
G01D02*
X53420D01*
G01X52580D02*
X53000D01*
G01D02*
Y102670D01*
G01Y108000D02*
X53420D01*
G01X52580D02*
X53000D01*
G01D02*
Y108420D01*
G01Y107580D02*
Y108000D01*
G01Y123000D02*
X53420D01*
G01X52580D02*
X53000D01*
G01D02*
Y123420D01*
G01Y122580D02*
Y123000D01*
G01X57000Y122750D02*
Y115750D01*
X56750Y115500D01*
G01X60000Y121250D02*
Y114000D01*
G01X58000Y115000D02*
Y130500D01*
G01X57500Y115730D02*
Y121750D01*
G01X58900Y119000D02*
X58700Y119200D01*
Y124700D01*
X58750Y124750D01*
G01X74600Y116640D02*
X75350D01*
G01X74290Y119500D02*
X74710D01*
G01X74290D02*
Y119920D01*
G01Y119080D02*
Y119500D01*
G01X74600Y121380D02*
X75350D01*
G01Y116640D02*
X76100D01*
G01X75350D02*
Y117390D01*
G01Y115890D02*
Y116640D01*
G01X77320D02*
X78070D01*
G01X76570D02*
X77320D01*
G01D02*
Y117390D01*
G01Y115890D02*
Y116640D01*
G01X75350Y121380D02*
X76100D01*
G01X75350D02*
Y122130D01*
G01Y120630D02*
Y121380D01*
G01X77320D02*
X78070D01*
G01X76570D02*
X77320D01*
G01D02*
Y122130D01*
G01Y120630D02*
Y121380D01*
M02*
