G04 ================== begin FILE IDENTIFICATION RECORD ==================*
G04 Layout Name:  C:/cygwin/home/konkers/play/flg/usb485/worklib/toplevel/physical/usb485.brd*
G04 Film Name:    TOPSILK*
G04 File Format:  Gerber RS274X*
G04 File Origin:  15.7-p007*
G04 Origin Date:  Sun Jun 28 12:37:36 2009*
G04 *
G04 Layer:  MANUFACTURING/AUTOSILK_TOP*
G04 Layer:  BOARD GEOMETRY/SILKSCREEN_TOP*
G04 *
G04 Offset:    (0 0)*
G04 Mirror:    No*
G04 Mode:      Positive*
G04 Rotation:  0*
G04 FullContactRelief:  No*
G04 UndefLineWidth:     5*
G04 ================== end FILE IDENTIFICATION RECORD ====================*
%FSLAX54Y54*MOIN*%
%IR0*IPPOS*OFA0.00000B0.00000*MIA0B0*SFA1.00000B1.00000*%
%ADD10C,.005*%
%ADD11C,.004*%
%ADD12C,.006*%
%ADD13C,.008*%
G75*
%LPD*%
G75*
G54D10*
G01X39100Y108430D02*
X44610D01*
Y112570D01*
X39100D01*
Y108430D01*
G01Y121430D02*
X44610D01*
Y125570D01*
X39100D01*
Y121430D01*
G01X44000Y114940D02*
X42500D01*
Y113060D01*
X44000D01*
Y114940D01*
G01Y127940D02*
X42500D01*
Y126060D01*
X44000D01*
Y127940D01*
G01X52600Y101750D02*
X52000D01*
X51750Y102000D01*
X51250D01*
X51000Y101750D01*
X50400D01*
Y105750D01*
X52600D01*
Y101750D01*
G01X50400Y109750D02*
X51000D01*
X51250Y109500D01*
X51750D01*
X52000Y109750D01*
X52600D01*
Y106250D01*
X50400D01*
Y109750D01*
G01X52600Y110000D02*
X52000D01*
X51750Y110250D01*
X51250D01*
X51000Y110000D01*
X50400D01*
Y113500D01*
X52600D01*
Y110000D01*
G01Y113750D02*
X52000D01*
X51750Y114000D01*
X51250D01*
X51000Y113750D01*
X50400D01*
Y117250D01*
X52600D01*
Y113750D01*
G01Y117500D02*
X52000D01*
X51750Y117750D01*
X51250D01*
X51000Y117500D01*
X50400D01*
Y121000D01*
X52600D01*
Y117500D01*
G01X50400Y124750D02*
X51000D01*
X51250Y124500D01*
X51750D01*
X52000Y124750D01*
X52600D01*
Y121250D01*
X50400D01*
Y124750D01*
G01X52600Y125000D02*
X52000D01*
X51750Y125250D01*
X51250D01*
X51000Y125000D01*
X50400D01*
Y128500D01*
X52600D01*
Y125000D01*
G01Y128750D02*
X52000D01*
X51750Y129000D01*
X51250D01*
X51000Y128750D01*
X50400D01*
Y132250D01*
X52600D01*
Y128750D01*
G01X61820Y112780D02*
Y112060D01*
X66180D01*
Y112780D01*
G01X63370Y113940D02*
X61820D01*
Y113230D01*
G01X65380Y119880D02*
X62620D01*
Y117120D01*
X65380D01*
Y119880D01*
G01X64870Y113940D02*
X63630D01*
G01X66180D02*
X65130D01*
G01X66180Y113230D02*
Y113940D01*
G01X70440Y114750D02*
Y116250D01*
X68560D01*
Y114750D01*
X70440D01*
G54D11*
G01X41510Y113550D02*
X41550D01*
G01X40950D02*
X40990D01*
G01X40950Y114450D02*
Y113550D01*
G01X41550Y114450D02*
Y113550D01*
G01X40520Y113930D02*
X40510Y113910D01*
X40500Y113900D01*
Y113880D01*
X40510Y113850D01*
X40530Y113840D01*
X40560Y113820D01*
X40600Y113810D01*
X40640D01*
X40680Y113820D01*
X40700D01*
X40730Y113840D01*
X40740Y113860D01*
X40750Y113870D01*
Y113890D01*
X40740Y113910D01*
X40730Y113930D01*
X40710Y113940D01*
G01X40720Y114080D02*
X40740Y114100D01*
X40750Y114120D01*
X40740Y114140D01*
X40720Y114160D01*
X40680Y114170D01*
X40640Y114180D01*
X40600D01*
X40560Y114170D01*
X40530Y114160D01*
X40510Y114140D01*
X40500Y114120D01*
X40510Y114100D01*
X40530Y114090D01*
X40550Y114080D01*
X40580Y114070D01*
X40610Y114080D01*
X40640Y114090D01*
X40660Y114110D01*
Y114120D01*
X40650Y114140D01*
X40630Y114160D01*
X40600Y114180D01*
G01X41510Y114450D02*
X41550D01*
G01X40950D02*
X40990D01*
G01X41510Y126550D02*
X41550D01*
G01X40950D02*
X40990D01*
G01X41510Y127450D02*
X41550D01*
G01X40950D02*
X40990D01*
G01X40950D02*
Y126550D01*
G01X41550Y127450D02*
Y126550D01*
G01X40520Y126800D02*
X40510Y126780D01*
X40500Y126770D01*
Y126750D01*
X40510Y126720D01*
X40530Y126710D01*
X40560Y126690D01*
X40600Y126680D01*
X40640D01*
X40680Y126690D01*
X40700D01*
X40730Y126710D01*
X40740Y126730D01*
X40750Y126740D01*
Y126760D01*
X40740Y126780D01*
X40730Y126800D01*
X40710Y126810D01*
G01X40750Y126990D02*
X40500D01*
X40550Y126960D01*
G01X40750D02*
Y127020D01*
G01X40500Y127240D02*
X40510Y127220D01*
X40530Y127210D01*
X40550Y127200D01*
X40590Y127190D01*
X40630D01*
X40660D01*
X40700Y127200D01*
X40720Y127210D01*
X40740Y127220D01*
X40750Y127240D01*
X40740Y127260D01*
X40720Y127280D01*
X40700Y127290D01*
X40660Y127300D01*
X40630D01*
X40590D01*
X40550Y127290D01*
X40530Y127280D01*
X40510Y127260D01*
X40500Y127240D01*
G01X42440Y107000D02*
Y107250D01*
X42510D01*
X42530Y107240D01*
X42540Y107220D01*
X42550Y107190D01*
X42540Y107150D01*
X42530Y107130D01*
X42510Y107120D01*
X42440D01*
G01X42510D02*
X42550Y107000D01*
G01X42740D02*
Y107250D01*
X42710Y107200D01*
G01Y107000D02*
X42770D01*
G01X42990D02*
Y107050D01*
X43000Y107100D01*
X43010Y107140D01*
X43030Y107190D01*
X43050Y107250D01*
X42940D01*
G01X45020Y108800D02*
X45040Y108770D01*
X45050Y108760D01*
X45070Y108750D01*
X45090Y108760D01*
X45110Y108770D01*
X45120Y108800D01*
X45130Y108830D01*
Y109000D01*
G01X45280Y108960D02*
X45290Y108980D01*
X45310Y109000D01*
X45330D01*
X45360Y108990D01*
X45370Y108970D01*
X45380Y108950D01*
Y108920D01*
X45360Y108900D01*
X45310Y108860D01*
X45290Y108830D01*
X45280Y108790D01*
X45270Y108750D01*
X45380D01*
G01X43020Y115500D02*
Y115320D01*
X43030Y115280D01*
X43050Y115260D01*
X43070Y115250D01*
X43100Y115260D01*
X43120Y115280D01*
X43130Y115320D01*
Y115500D01*
G01X43320Y115250D02*
Y115500D01*
X43290Y115450D01*
G01Y115250D02*
X43350D01*
G01X43530Y115460D02*
X43540Y115480D01*
X43560Y115500D01*
X43580D01*
X43610Y115490D01*
X43620Y115470D01*
X43630Y115450D01*
Y115420D01*
X43610Y115400D01*
X43560Y115360D01*
X43540Y115330D01*
X43530Y115290D01*
X43520Y115250D01*
X43630D01*
G01X45020Y121550D02*
X45040Y121520D01*
X45050Y121510D01*
X45070Y121500D01*
X45090Y121510D01*
X45110Y121520D01*
X45120Y121550D01*
X45130Y121580D01*
Y121750D01*
G01X45320Y121500D02*
Y121750D01*
X45290Y121700D01*
G01Y121500D02*
X45350D01*
G01X42440Y121000D02*
Y121250D01*
X42510D01*
X42530Y121240D01*
X42540Y121220D01*
X42550Y121190D01*
X42540Y121150D01*
X42530Y121130D01*
X42510Y121120D01*
X42440D01*
G01X42510D02*
X42550Y121000D01*
G01X42740D02*
Y121250D01*
X42710Y121200D01*
G01Y121000D02*
X42770D01*
G01X42950Y121100D02*
X42960Y121130D01*
X42980Y121150D01*
X43000Y121160D01*
X43020Y121150D01*
X43030Y121130D01*
X43040Y121110D01*
Y121080D01*
Y121050D01*
X43030Y121030D01*
X43010Y121010D01*
X43000Y121000D01*
X42980Y121010D01*
X42960Y121030D01*
X42950Y121070D01*
Y121110D01*
Y121170D01*
X42960Y121200D01*
X42970Y121220D01*
X42990Y121250D01*
X43010D01*
X43030Y121240D01*
X43040Y121220D01*
G01X43020Y128500D02*
Y128320D01*
X43030Y128280D01*
X43050Y128260D01*
X43070Y128250D01*
X43100Y128260D01*
X43120Y128280D01*
X43130Y128320D01*
Y128500D01*
G01X43320Y128250D02*
Y128500D01*
X43290Y128450D01*
G01Y128250D02*
X43350D01*
G01X43520Y128300D02*
X43530Y128270D01*
X43550Y128250D01*
X43580D01*
X43600D01*
X43620Y128270D01*
X43630Y128300D01*
Y128320D01*
Y128350D01*
X43610Y128370D01*
X43590Y128380D01*
X43570D01*
G01X43590D02*
X43610Y128400D01*
X43620Y128420D01*
X43630Y128440D01*
X43620Y128470D01*
X43610Y128490D01*
X43590Y128500D01*
X43560D01*
X43540Y128480D01*
G01X46690Y112750D02*
Y113000D01*
X46760D01*
X46780Y112990D01*
X46790Y112970D01*
X46800Y112940D01*
X46790Y112900D01*
X46780Y112880D01*
X46760Y112870D01*
X46690D01*
G01X46760D02*
X46800Y112750D01*
G01X46990D02*
Y113000D01*
X46960Y112950D01*
G01Y112750D02*
X47020D01*
G01X47280D02*
Y113000D01*
X47180Y112820D01*
X47310D01*
G01X46190Y127000D02*
Y127250D01*
X46260D01*
X46280Y127240D01*
X46290Y127220D01*
X46300Y127190D01*
X46290Y127150D01*
X46280Y127130D01*
X46260Y127120D01*
X46190D01*
G01X46260D02*
X46300Y127000D01*
G01X46490D02*
Y127250D01*
X46460Y127200D01*
G01Y127000D02*
X46520D01*
G01X46690Y127040D02*
X46700Y127020D01*
X46720Y127000D01*
X46740D01*
X46770Y127010D01*
X46780Y127020D01*
X46800Y127050D01*
Y127090D01*
Y127120D01*
X46780Y127140D01*
X46760Y127160D01*
X46750D01*
X46730D01*
X46710Y127140D01*
Y127250D01*
X46780D01*
G01X49070Y106500D02*
Y106320D01*
X49080Y106280D01*
X49100Y106260D01*
X49120Y106250D01*
X49150Y106260D01*
X49170Y106280D01*
X49180Y106320D01*
Y106500D01*
G01X49320Y106290D02*
X49330Y106270D01*
X49350Y106250D01*
X49370D01*
X49400Y106260D01*
X49410Y106270D01*
X49430Y106300D01*
Y106340D01*
Y106370D01*
X49410Y106390D01*
X49390Y106410D01*
X49380D01*
X49360D01*
X49340Y106390D01*
Y106500D01*
X49410D01*
G01X48690Y110500D02*
Y110320D01*
X48700Y110280D01*
X48720Y110260D01*
X48740Y110250D01*
X48770Y110260D01*
X48790Y110280D01*
X48800Y110320D01*
Y110500D01*
G01X48990Y110250D02*
Y110500D01*
X48960Y110450D01*
G01Y110250D02*
X49020D01*
G01X49240Y110500D02*
X49220Y110490D01*
X49210Y110470D01*
X49200Y110450D01*
X49190Y110410D01*
Y110370D01*
Y110340D01*
X49200Y110300D01*
X49210Y110280D01*
X49220Y110260D01*
X49240Y110250D01*
X49260Y110260D01*
X49280Y110280D01*
X49290Y110300D01*
X49300Y110340D01*
Y110370D01*
Y110410D01*
X49290Y110450D01*
X49280Y110470D01*
X49260Y110490D01*
X49240Y110500D01*
G01X49070Y114250D02*
Y114070D01*
X49080Y114030D01*
X49100Y114010D01*
X49120Y114000D01*
X49150Y114010D01*
X49170Y114030D01*
X49180Y114070D01*
Y114250D01*
G01X49330Y114100D02*
X49340Y114130D01*
X49360Y114150D01*
X49380Y114160D01*
X49400Y114150D01*
X49410Y114130D01*
X49420Y114110D01*
Y114080D01*
Y114050D01*
X49410Y114030D01*
X49390Y114010D01*
X49380Y114000D01*
X49360Y114010D01*
X49340Y114030D01*
X49330Y114070D01*
Y114110D01*
Y114170D01*
X49340Y114200D01*
X49350Y114220D01*
X49370Y114250D01*
X49390D01*
X49410Y114240D01*
X49420Y114220D01*
G01X49070Y117750D02*
Y117570D01*
X49080Y117530D01*
X49100Y117510D01*
X49120Y117500D01*
X49150Y117510D01*
X49170Y117530D01*
X49180Y117570D01*
Y117750D01*
G01X49410Y117500D02*
Y117750D01*
X49310Y117570D01*
X49440D01*
G01X49070Y121500D02*
Y121320D01*
X49080Y121280D01*
X49100Y121260D01*
X49120Y121250D01*
X49150Y121260D01*
X49170Y121280D01*
X49180Y121320D01*
Y121500D01*
G01X49370Y121250D02*
X49390D01*
X49410Y121270D01*
X49430Y121290D01*
Y121320D01*
Y121350D01*
X49410Y121370D01*
X49390Y121380D01*
X49360D01*
X49350Y121390D01*
X49330Y121410D01*
Y121440D01*
X49340Y121470D01*
X49350Y121490D01*
X49370Y121500D01*
X49390Y121490D01*
X49410Y121470D01*
X49420Y121440D01*
X49410Y121410D01*
X49400Y121390D01*
X49390Y121380D01*
X49360D01*
X49340Y121370D01*
X49320Y121350D01*
Y121320D01*
Y121290D01*
X49340Y121270D01*
X49360Y121250D01*
X49370D01*
G01X49070Y125250D02*
Y125070D01*
X49080Y125030D01*
X49100Y125010D01*
X49120Y125000D01*
X49150Y125010D01*
X49170Y125030D01*
X49180Y125070D01*
Y125250D01*
G01X49330Y125030D02*
X49350Y125010D01*
X49370Y125000D01*
X49390Y125010D01*
X49410Y125030D01*
X49420Y125070D01*
X49430Y125110D01*
Y125150D01*
X49420Y125190D01*
X49410Y125220D01*
X49390Y125240D01*
X49370Y125250D01*
X49350Y125240D01*
X49340Y125220D01*
X49330Y125200D01*
X49320Y125170D01*
X49330Y125140D01*
X49340Y125110D01*
X49360Y125090D01*
X49370D01*
X49390Y125100D01*
X49410Y125120D01*
X49430Y125150D01*
G01X49070Y129000D02*
Y128820D01*
X49080Y128780D01*
X49100Y128760D01*
X49120Y128750D01*
X49150Y128760D01*
X49170Y128780D01*
X49180Y128820D01*
Y129000D01*
G01X49370Y128750D02*
Y128800D01*
X49380Y128850D01*
X49390Y128890D01*
X49410Y128940D01*
X49430Y129000D01*
X49320D01*
G01X51190Y101500D02*
Y101320D01*
X51200Y101280D01*
X51220Y101260D01*
X51240Y101250D01*
X51270Y101260D01*
X51290Y101280D01*
X51300Y101320D01*
Y101500D01*
G01X51490Y101250D02*
Y101500D01*
X51460Y101450D01*
G01Y101250D02*
X51520D01*
G01X51740D02*
Y101500D01*
X51710Y101450D01*
G01Y101250D02*
X51770D01*
G01X54070Y107500D02*
Y107750D01*
X54140D01*
X54160Y107740D01*
X54170Y107720D01*
X54180Y107690D01*
X54170Y107650D01*
X54160Y107630D01*
X54140Y107620D01*
X54070D01*
G01X54140D02*
X54180Y107500D01*
G01X54370D02*
X54390D01*
X54410Y107520D01*
X54430Y107540D01*
Y107570D01*
Y107600D01*
X54410Y107620D01*
X54390Y107630D01*
X54360D01*
X54350Y107640D01*
X54330Y107660D01*
Y107690D01*
X54340Y107720D01*
X54350Y107740D01*
X54370Y107750D01*
X54390Y107740D01*
X54410Y107720D01*
X54420Y107690D01*
X54410Y107660D01*
X54400Y107640D01*
X54390Y107630D01*
X54360D01*
X54340Y107620D01*
X54320Y107600D01*
Y107570D01*
Y107540D01*
X54340Y107520D01*
X54360Y107500D01*
X54370D01*
G01X54190Y112250D02*
Y112500D01*
X54260D01*
X54280Y112490D01*
X54290Y112470D01*
X54300Y112440D01*
X54290Y112400D01*
X54280Y112380D01*
X54260Y112370D01*
X54190D01*
G01X54260D02*
X54300Y112250D01*
G01X54490D02*
Y112500D01*
X54460Y112450D01*
G01Y112250D02*
X54520D01*
G01X54690Y112300D02*
X54700Y112270D01*
X54720Y112250D01*
X54750D01*
X54770D01*
X54790Y112270D01*
X54800Y112300D01*
Y112320D01*
Y112350D01*
X54780Y112370D01*
X54760Y112380D01*
X54740D01*
G01X54760D02*
X54780Y112400D01*
X54790Y112420D01*
X54800Y112440D01*
X54790Y112470D01*
X54780Y112490D01*
X54760Y112500D01*
X54730D01*
X54710Y112480D01*
G01X54320Y116000D02*
Y116250D01*
X54390D01*
X54410Y116240D01*
X54420Y116220D01*
X54430Y116190D01*
X54420Y116150D01*
X54410Y116130D01*
X54390Y116120D01*
X54320D01*
G01X54390D02*
X54430Y116000D01*
G01X54580Y116030D02*
X54600Y116010D01*
X54620Y116000D01*
X54640Y116010D01*
X54660Y116030D01*
X54670Y116070D01*
X54680Y116110D01*
Y116150D01*
X54670Y116190D01*
X54660Y116220D01*
X54640Y116240D01*
X54620Y116250D01*
X54600Y116240D01*
X54590Y116220D01*
X54580Y116200D01*
X54570Y116170D01*
X54580Y116140D01*
X54590Y116110D01*
X54610Y116090D01*
X54620D01*
X54640Y116100D01*
X54660Y116120D01*
X54680Y116150D01*
G01X54320Y119750D02*
Y120000D01*
X54390D01*
X54410Y119990D01*
X54420Y119970D01*
X54430Y119940D01*
X54420Y119900D01*
X54410Y119880D01*
X54390Y119870D01*
X54320D01*
G01X54390D02*
X54430Y119750D01*
G01X54620D02*
Y119800D01*
X54630Y119850D01*
X54640Y119890D01*
X54660Y119940D01*
X54680Y120000D01*
X54570D01*
G01X54190Y122500D02*
Y122750D01*
X54260D01*
X54280Y122740D01*
X54290Y122720D01*
X54300Y122690D01*
X54290Y122650D01*
X54280Y122630D01*
X54260Y122620D01*
X54190D01*
G01X54260D02*
X54300Y122500D01*
G01X54490D02*
Y122750D01*
X54460Y122700D01*
G01Y122500D02*
X54520D01*
G01X54740D02*
Y122750D01*
X54710Y122700D01*
G01Y122500D02*
X54770D01*
G01X54190Y127250D02*
Y127500D01*
X54260D01*
X54280Y127490D01*
X54290Y127470D01*
X54300Y127440D01*
X54290Y127400D01*
X54280Y127380D01*
X54260Y127370D01*
X54190D01*
G01X54260D02*
X54300Y127250D01*
G01X54490D02*
Y127500D01*
X54460Y127450D01*
G01Y127250D02*
X54520D01*
G01X54700Y127460D02*
X54710Y127480D01*
X54730Y127500D01*
X54750D01*
X54780Y127490D01*
X54790Y127470D01*
X54800Y127450D01*
Y127420D01*
X54780Y127400D01*
X54730Y127360D01*
X54710Y127330D01*
X54700Y127290D01*
X54690Y127250D01*
X54800D01*
G01X54190Y131000D02*
Y131250D01*
X54260D01*
X54280Y131240D01*
X54290Y131220D01*
X54300Y131190D01*
X54290Y131150D01*
X54280Y131130D01*
X54260Y131120D01*
X54190D01*
G01X54260D02*
X54300Y131000D01*
G01X54490D02*
Y131250D01*
X54460Y131200D01*
G01Y131000D02*
X54520D01*
G01X54740Y131250D02*
X54720Y131240D01*
X54710Y131220D01*
X54700Y131200D01*
X54690Y131160D01*
Y131120D01*
Y131090D01*
X54700Y131050D01*
X54710Y131030D01*
X54720Y131010D01*
X54740Y131000D01*
X54760Y131010D01*
X54780Y131030D01*
X54790Y131050D01*
X54800Y131090D01*
Y131120D01*
Y131160D01*
X54790Y131200D01*
X54780Y131220D01*
X54760Y131240D01*
X54740Y131250D01*
G01X62430Y110980D02*
X62410Y110990D01*
X62400Y111000D01*
X62380D01*
X62350Y110990D01*
X62340Y110970D01*
X62320Y110940D01*
X62310Y110900D01*
Y110860D01*
X62320Y110820D01*
Y110800D01*
X62340Y110770D01*
X62360Y110760D01*
X62370Y110750D01*
X62390D01*
X62410Y110760D01*
X62430Y110770D01*
X62440Y110790D01*
G01X62620Y110750D02*
Y111000D01*
X62590Y110950D01*
G01Y110750D02*
X62650D01*
G01X62050Y111240D02*
Y111200D01*
G01Y111800D02*
Y111760D01*
G01X62950Y111240D02*
Y111200D01*
G01Y111800D02*
Y111760D01*
G01Y111800D02*
X62050D01*
G01X62950Y111200D02*
X62050D01*
G01X62520Y114930D02*
X62510Y114910D01*
X62500Y114900D01*
Y114880D01*
X62510Y114850D01*
X62530Y114840D01*
X62560Y114820D01*
X62600Y114810D01*
X62640D01*
X62680Y114820D01*
X62700D01*
X62730Y114840D01*
X62740Y114860D01*
X62750Y114870D01*
Y114890D01*
X62740Y114910D01*
X62730Y114930D01*
X62710Y114940D01*
G01X62650Y115080D02*
X62620Y115090D01*
X62600Y115110D01*
X62590Y115130D01*
X62600Y115150D01*
X62620Y115160D01*
X62640Y115170D01*
X62670D01*
X62700D01*
X62720Y115160D01*
X62740Y115140D01*
X62750Y115130D01*
X62740Y115110D01*
X62720Y115090D01*
X62680Y115080D01*
X62640D01*
X62580D01*
X62550Y115090D01*
X62530Y115100D01*
X62500Y115120D01*
Y115140D01*
X62510Y115160D01*
X62530Y115170D01*
G01X62020Y120500D02*
Y120320D01*
X62030Y120280D01*
X62050Y120260D01*
X62070Y120250D01*
X62100Y120260D01*
X62120Y120280D01*
X62130Y120320D01*
Y120500D01*
G01X62280Y120460D02*
X62290Y120480D01*
X62310Y120500D01*
X62330D01*
X62360Y120490D01*
X62370Y120470D01*
X62380Y120450D01*
Y120420D01*
X62360Y120400D01*
X62310Y120360D01*
X62290Y120330D01*
X62280Y120290D01*
X62270Y120250D01*
X62380D01*
G01X65430Y110980D02*
X65410Y110990D01*
X65400Y111000D01*
X65380D01*
X65350Y110990D01*
X65340Y110970D01*
X65320Y110940D01*
X65310Y110900D01*
Y110860D01*
X65320Y110820D01*
Y110800D01*
X65340Y110770D01*
X65360Y110760D01*
X65370Y110750D01*
X65390D01*
X65410Y110760D01*
X65430Y110770D01*
X65440Y110790D01*
G01X65580Y110960D02*
X65590Y110980D01*
X65610Y111000D01*
X65630D01*
X65660Y110990D01*
X65670Y110970D01*
X65680Y110950D01*
Y110920D01*
X65660Y110900D01*
X65610Y110860D01*
X65590Y110830D01*
X65580Y110790D01*
X65570Y110750D01*
X65680D01*
G01X65950Y111760D02*
Y111800D01*
G01Y111200D02*
Y111240D01*
G01X65050Y111760D02*
Y111800D01*
G01Y111200D02*
Y111240D01*
G01Y111200D02*
X65950D01*
G01X65050Y111800D02*
X65950D01*
G01X63240Y115450D02*
X63200D01*
G01X63800D02*
X63760D01*
G01X63240Y114550D02*
X63200D01*
G01X63800D02*
X63760D01*
G01X63800D02*
Y115450D01*
G01X63200Y114550D02*
Y115450D01*
G01X64740D02*
X64700D01*
G01X65300D02*
X65260D01*
G01X64740Y114550D02*
X64700D01*
G01X65300D02*
X65260D01*
G01X65300D02*
Y115450D01*
G01X64700Y114550D02*
Y115450D01*
G01X64270Y114930D02*
X64260Y114910D01*
X64250Y114900D01*
Y114880D01*
X64260Y114850D01*
X64280Y114840D01*
X64310Y114820D01*
X64350Y114810D01*
X64390D01*
X64430Y114820D01*
X64450D01*
X64480Y114840D01*
X64490Y114860D01*
X64500Y114870D01*
Y114890D01*
X64490Y114910D01*
X64480Y114930D01*
X64460Y114940D01*
G01X64500Y115160D02*
X64250D01*
X64430Y115060D01*
Y115190D01*
G01X66320Y112250D02*
Y112360D01*
X66270Y112500D01*
G01X66380D02*
X66320Y112360D01*
G01X66570Y112250D02*
Y112500D01*
X66540Y112450D01*
G01Y112250D02*
X66600D01*
G01X67050Y116740D02*
Y116700D01*
G01X67950Y116740D02*
Y116700D01*
G01D02*
X67050D01*
G01X67430Y116480D02*
X67410Y116490D01*
X67400Y116500D01*
X67380D01*
X67350Y116490D01*
X67340Y116470D01*
X67320Y116440D01*
X67310Y116400D01*
Y116360D01*
X67320Y116320D01*
Y116300D01*
X67340Y116270D01*
X67360Y116260D01*
X67370Y116250D01*
X67390D01*
X67410Y116260D01*
X67430Y116270D01*
X67440Y116290D01*
G01X67620Y116250D02*
X67640D01*
X67660Y116270D01*
X67680Y116290D01*
Y116320D01*
Y116350D01*
X67660Y116370D01*
X67640Y116380D01*
X67610D01*
X67600Y116390D01*
X67580Y116410D01*
Y116440D01*
X67590Y116470D01*
X67600Y116490D01*
X67620Y116500D01*
X67640Y116490D01*
X67660Y116470D01*
X67670Y116440D01*
X67660Y116410D01*
X67650Y116390D01*
X67640Y116380D01*
X67610D01*
X67590Y116370D01*
X67570Y116350D01*
Y116320D01*
Y116290D01*
X67590Y116270D01*
X67610Y116250D01*
X67620D01*
G01X66070Y115750D02*
Y116000D01*
X66140D01*
X66160Y115990D01*
X66170Y115970D01*
X66180Y115940D01*
X66170Y115900D01*
X66160Y115880D01*
X66140Y115870D01*
X66070D01*
G01X66140D02*
X66180Y115750D01*
G01X66410D02*
Y116000D01*
X66310Y115820D01*
X66440D01*
G01X67050Y117300D02*
Y117260D01*
G01X67950Y117300D02*
Y117260D01*
G01Y117300D02*
X67050D01*
G01Y117740D02*
Y117700D01*
G01Y118300D02*
Y118260D01*
G01X67950Y117740D02*
Y117700D01*
G01Y118300D02*
Y118260D01*
G01Y118300D02*
X67050D01*
G01X67950Y117700D02*
X67050D01*
G01X68890Y118150D02*
X68900Y118170D01*
X68910Y118180D01*
Y118200D01*
X68900Y118230D01*
X68880Y118240D01*
X68850Y118260D01*
X68810Y118270D01*
X68770D01*
X68730Y118260D01*
X68710D01*
X68680Y118240D01*
X68670Y118220D01*
X68660Y118210D01*
Y118190D01*
X68670Y118170D01*
X68680Y118150D01*
X68700Y118140D01*
G01X68660Y117960D02*
X68710D01*
X68760Y117950D01*
X68800Y117940D01*
X68850Y117920D01*
X68910Y117900D01*
Y118010D01*
G01X67050Y118740D02*
Y118700D01*
G01Y119300D02*
Y119260D01*
G01X67950Y118740D02*
Y118700D01*
G01Y119300D02*
Y119260D01*
G01Y119300D02*
X67050D01*
G01X67950Y118700D02*
X67050D01*
G01X68890Y119150D02*
X68900Y119170D01*
X68910Y119180D01*
Y119200D01*
X68900Y119230D01*
X68880Y119240D01*
X68850Y119260D01*
X68810Y119270D01*
X68770D01*
X68730Y119260D01*
X68710D01*
X68680Y119240D01*
X68670Y119220D01*
X68660Y119210D01*
Y119190D01*
X68670Y119170D01*
X68680Y119150D01*
X68700Y119140D01*
G01X68710Y119010D02*
X68680Y119000D01*
X68660Y118980D01*
Y118950D01*
Y118930D01*
X68680Y118910D01*
X68710Y118900D01*
X68730D01*
X68760D01*
X68780Y118920D01*
X68790Y118940D01*
Y118960D01*
G01Y118940D02*
X68810Y118920D01*
X68830Y118910D01*
X68850Y118900D01*
X68880Y118910D01*
X68900Y118920D01*
X68910Y118940D01*
Y118970D01*
X68890Y118990D01*
G01X70730Y113700D02*
Y113950D01*
X70800D01*
X70820Y113940D01*
X70830Y113920D01*
X70840Y113890D01*
X70830Y113850D01*
X70820Y113830D01*
X70800Y113820D01*
X70730D01*
G01X70800D02*
X70840Y113700D01*
G01X70990Y113800D02*
X71000Y113830D01*
X71020Y113850D01*
X71040Y113860D01*
X71060Y113850D01*
X71070Y113830D01*
X71080Y113810D01*
Y113780D01*
Y113750D01*
X71070Y113730D01*
X71050Y113710D01*
X71040Y113700D01*
X71020Y113710D01*
X71000Y113730D01*
X70990Y113770D01*
Y113810D01*
Y113870D01*
X71000Y113900D01*
X71010Y113920D01*
X71030Y113950D01*
X71050D01*
X71070Y113940D01*
X71080Y113920D01*
G01X69130Y113700D02*
Y113950D01*
X69200D01*
X69220Y113940D01*
X69230Y113920D01*
X69240Y113890D01*
X69230Y113850D01*
X69220Y113830D01*
X69200Y113820D01*
X69130D01*
G01X69200D02*
X69240Y113700D01*
G01X69380Y113740D02*
X69390Y113720D01*
X69410Y113700D01*
X69430D01*
X69460Y113710D01*
X69470Y113720D01*
X69490Y113750D01*
Y113790D01*
Y113820D01*
X69470Y113840D01*
X69450Y113860D01*
X69440D01*
X69420D01*
X69400Y113840D01*
Y113950D01*
X69470D01*
G01X70770Y115750D02*
Y115570D01*
X70780Y115530D01*
X70800Y115510D01*
X70820Y115500D01*
X70850Y115510D01*
X70870Y115530D01*
X70880Y115570D01*
Y115750D01*
G01X71020Y115550D02*
X71030Y115520D01*
X71050Y115500D01*
X71080D01*
X71100D01*
X71120Y115520D01*
X71130Y115550D01*
Y115570D01*
Y115600D01*
X71110Y115620D01*
X71090Y115630D01*
X71070D01*
G01X71090D02*
X71110Y115650D01*
X71120Y115670D01*
X71130Y115690D01*
X71120Y115720D01*
X71110Y115740D01*
X71090Y115750D01*
X71060D01*
X71040Y115730D01*
G01X71700Y119700D02*
Y119740D01*
G01X70800Y119700D02*
Y119740D01*
G01Y119700D02*
X71700D01*
G01X70140Y120150D02*
X70150Y120170D01*
X70160Y120180D01*
Y120200D01*
X70150Y120230D01*
X70130Y120240D01*
X70100Y120260D01*
X70060Y120270D01*
X70020D01*
X69980Y120260D01*
X69960D01*
X69930Y120240D01*
X69920Y120220D01*
X69910Y120210D01*
Y120190D01*
X69920Y120170D01*
X69930Y120150D01*
X69950Y120140D01*
G01Y120010D02*
X69930Y120000D01*
X69910Y119980D01*
Y119960D01*
X69920Y119930D01*
X69930Y119920D01*
X69960Y119900D01*
X70000D01*
X70030D01*
X70050Y119920D01*
X70070Y119940D01*
Y119950D01*
Y119970D01*
X70050Y119990D01*
X70160D01*
Y119920D01*
G01X69320Y117750D02*
Y118000D01*
X69390D01*
X69410Y117990D01*
X69420Y117970D01*
X69430Y117940D01*
X69420Y117900D01*
X69410Y117880D01*
X69390Y117870D01*
X69320D01*
G01X69390D02*
X69430Y117750D01*
G01X69570Y117800D02*
X69580Y117770D01*
X69600Y117750D01*
X69630D01*
X69650D01*
X69670Y117770D01*
X69680Y117800D01*
Y117820D01*
Y117850D01*
X69660Y117870D01*
X69640Y117880D01*
X69620D01*
G01X69640D02*
X69660Y117900D01*
X69670Y117920D01*
X69680Y117940D01*
X69670Y117970D01*
X69660Y117990D01*
X69640Y118000D01*
X69610D01*
X69590Y117980D01*
G01X69820Y119250D02*
Y119500D01*
X69890D01*
X69910Y119490D01*
X69920Y119470D01*
X69930Y119440D01*
X69920Y119400D01*
X69910Y119380D01*
X69890Y119370D01*
X69820D01*
G01X69890D02*
X69930Y119250D01*
G01X70080Y119460D02*
X70090Y119480D01*
X70110Y119500D01*
X70130D01*
X70160Y119490D01*
X70170Y119470D01*
X70180Y119450D01*
Y119420D01*
X70160Y119400D01*
X70110Y119360D01*
X70090Y119330D01*
X70080Y119290D01*
X70070Y119250D01*
X70180D01*
G01X69820Y118500D02*
Y118750D01*
X69890D01*
X69910Y118740D01*
X69920Y118720D01*
X69930Y118690D01*
X69920Y118650D01*
X69910Y118630D01*
X69890Y118620D01*
X69820D01*
G01X69890D02*
X69930Y118500D01*
G01X70120D02*
Y118750D01*
X70090Y118700D01*
G01Y118500D02*
X70150D01*
G01X71700Y120260D02*
Y120300D01*
G01X70800Y120260D02*
Y120300D01*
G01D02*
X71700D01*
G01X72000Y120700D02*
X71750D01*
Y120790D01*
G01X71870Y120760D02*
Y120700D01*
G01Y121010D02*
X71850Y121030D01*
X71830D01*
X71800Y121040D01*
X71780Y121030D01*
X71760Y121020D01*
X71750Y121010D01*
Y120940D01*
X72000D01*
Y121020D01*
X71980Y121040D01*
X71960Y121050D01*
X71930D01*
X71900D01*
X71880Y121030D01*
X71870Y121010D01*
Y120940D01*
G01X72000Y121240D02*
X71750D01*
X71800Y121210D01*
G01X72000D02*
Y121270D01*
G01X74500Y121380D02*
X73110D01*
Y116640D01*
G01Y116630D02*
X74500D01*
G01X73070Y116050D02*
X73090Y116020D01*
X73100Y116010D01*
X73120Y116000D01*
X73140Y116010D01*
X73160Y116020D01*
X73170Y116050D01*
X73180Y116080D01*
Y116250D01*
G01X73320Y116050D02*
X73330Y116020D01*
X73350Y116000D01*
X73380D01*
X73400D01*
X73420Y116020D01*
X73430Y116050D01*
Y116070D01*
Y116100D01*
X73410Y116120D01*
X73390Y116130D01*
X73370D01*
G01X73390D02*
X73410Y116150D01*
X73420Y116170D01*
X73430Y116190D01*
X73420Y116220D01*
X73410Y116240D01*
X73390Y116250D01*
X73360D01*
X73340Y116230D01*
G01X76200Y116630D02*
X76500D01*
G01Y121380D02*
X76200D01*
G01X78200Y116630D02*
X79210D01*
Y121380D01*
X78200D01*
G54D12*
G01X60050Y104500D02*
Y104000D01*
G01Y104070D02*
X60030Y104030D01*
X59990Y104010D01*
X59950Y104000D01*
X59900Y104020D01*
X59860Y104060D01*
X59830Y104110D01*
Y104170D01*
Y104220D01*
X59860Y104280D01*
X59900Y104320D01*
X59950Y104330D01*
X59990Y104320D01*
X60020Y104310D01*
X60050Y104280D01*
G01X60340Y104330D02*
Y104100D01*
X60370Y104040D01*
X60410Y104010D01*
X60450Y104000D01*
X60490Y104010D01*
X60530Y104040D01*
X60560Y104100D01*
G01Y104000D02*
Y104330D01*
G01X61070Y104000D02*
Y104330D01*
G01Y104280D02*
X61050Y104310D01*
X61010Y104320D01*
X60970Y104330D01*
X60920Y104320D01*
X60880Y104280D01*
X60860Y104230D01*
X60850Y104170D01*
X60860Y104100D01*
X60880Y104050D01*
X60920Y104020D01*
X60970Y104000D01*
X61010Y104010D01*
X61050Y104030D01*
X61070Y104070D01*
G01X61470Y104000D02*
Y104500D01*
G01X62490Y104000D02*
X62450Y104010D01*
X62410Y104040D01*
X62390Y104100D01*
X62380Y104170D01*
X62390Y104230D01*
X62410Y104290D01*
X62450Y104320D01*
X62490Y104330D01*
X62530Y104320D01*
X62570Y104290D01*
X62590Y104230D01*
X62600Y104170D01*
X62590Y104100D01*
X62570Y104040D01*
X62530Y104010D01*
X62490Y104000D01*
G01X62890Y103830D02*
Y104330D01*
G01Y104260D02*
X62920Y104300D01*
X62950Y104320D01*
X63000Y104330D01*
X63040Y104320D01*
X63090Y104280D01*
X63110Y104220D01*
Y104170D01*
Y104110D01*
X63090Y104050D01*
X63050Y104020D01*
X63000Y104000D01*
X62960Y104010D01*
X62910Y104030D01*
X62890Y104070D01*
G01X63510Y104500D02*
Y104000D01*
G01X63420Y104330D02*
X63600D01*
G01X64020Y104000D02*
X63980Y104010D01*
X63940Y104040D01*
X63920Y104100D01*
X63910Y104170D01*
X63920Y104230D01*
X63940Y104290D01*
X63980Y104320D01*
X64020Y104330D01*
X64060Y104320D01*
X64100Y104290D01*
X64120Y104230D01*
X64130Y104170D01*
X64120Y104100D01*
X64100Y104040D01*
X64060Y104010D01*
X64020Y104000D01*
G01X65040Y104330D02*
Y104000D01*
G01Y104470D02*
X65030D01*
Y104490D01*
X65040Y104500D01*
X65050Y104490D01*
Y104470D01*
X65040D01*
G01X65460Y104060D02*
X65490Y104020D01*
X65530Y104000D01*
X65570D01*
X65610Y104020D01*
X65630Y104040D01*
X65640Y104070D01*
Y104130D01*
X65610Y104150D01*
X65500Y104200D01*
X65470Y104260D01*
X65490Y104300D01*
X65510Y104320D01*
X65550Y104330D01*
X65590Y104320D01*
X65630Y104300D01*
G01X66060Y104000D02*
X66020Y104010D01*
X65980Y104040D01*
X65960Y104100D01*
X65950Y104170D01*
X65960Y104230D01*
X65980Y104290D01*
X66020Y104320D01*
X66060Y104330D01*
X66100Y104320D01*
X66140Y104290D01*
X66160Y104230D01*
X66170Y104170D01*
X66160Y104100D01*
X66140Y104040D01*
X66100Y104010D01*
X66060Y104000D01*
G01X66570D02*
Y104500D01*
G01X67190Y104000D02*
Y104330D01*
G01Y104280D02*
X67170Y104310D01*
X67130Y104320D01*
X67090Y104330D01*
X67040Y104320D01*
X67000Y104280D01*
X66980Y104230D01*
X66970Y104170D01*
X66980Y104100D01*
X67000Y104050D01*
X67040Y104020D01*
X67090Y104000D01*
X67130Y104010D01*
X67170Y104030D01*
X67190Y104070D01*
G01X67590Y104500D02*
Y104000D01*
G01X67500Y104330D02*
X67680D01*
G01X68010Y104220D02*
X68210D01*
X68190Y104280D01*
X68160Y104320D01*
X68110Y104330D01*
X68070Y104320D01*
X68030Y104300D01*
X68010Y104240D01*
X67990Y104190D01*
Y104140D01*
X68010Y104090D01*
X68040Y104040D01*
X68070Y104010D01*
X68120Y104000D01*
X68160Y104020D01*
X68210Y104070D01*
G01X68720Y104500D02*
Y104000D01*
G01Y104070D02*
X68700Y104030D01*
X68660Y104010D01*
X68620Y104000D01*
X68570Y104020D01*
X68530Y104060D01*
X68500Y104110D01*
Y104170D01*
Y104220D01*
X68530Y104280D01*
X68570Y104320D01*
X68620Y104330D01*
X68660Y104320D01*
X68690Y104310D01*
X68720Y104280D01*
G01X69520Y104330D02*
Y104100D01*
X69550Y104040D01*
X69590Y104010D01*
X69630Y104000D01*
X69670Y104010D01*
X69710Y104040D01*
X69740Y104100D01*
G01Y104000D02*
Y104330D01*
G01X70050Y104060D02*
X70080Y104020D01*
X70120Y104000D01*
X70160D01*
X70200Y104020D01*
X70220Y104040D01*
X70230Y104070D01*
Y104130D01*
X70200Y104150D01*
X70090Y104200D01*
X70060Y104260D01*
X70080Y104300D01*
X70100Y104320D01*
X70140Y104330D01*
X70180Y104320D01*
X70220Y104300D01*
G01X70540Y104000D02*
Y104500D01*
G01Y104250D02*
X70570Y104300D01*
X70610Y104320D01*
X70640Y104330D01*
X70700Y104320D01*
X70740Y104280D01*
X70760Y104220D01*
Y104160D01*
X70750Y104090D01*
X70730Y104040D01*
X70680Y104010D01*
X70640Y104000D01*
X70610Y104010D01*
X70570Y104030D01*
X70540Y104070D01*
G01X71050Y103980D02*
X71270Y104500D01*
G01X71580Y104000D02*
Y104330D01*
G01Y104270D02*
X71610Y104300D01*
X71640Y104320D01*
X71690Y104330D01*
X71720Y104320D01*
X71760Y104300D01*
G01X72090Y104060D02*
X72120Y104020D01*
X72160Y104000D01*
X72200D01*
X72240Y104020D01*
X72260Y104040D01*
X72270Y104070D01*
Y104130D01*
X72240Y104150D01*
X72130Y104200D01*
X72100Y104260D01*
X72120Y104300D01*
X72140Y104320D01*
X72180Y104330D01*
X72220Y104320D01*
X72260Y104300D01*
G01X72770Y104000D02*
Y104500D01*
X72530Y104140D01*
X72850D01*
G01X73200Y104000D02*
X73240Y104010D01*
X73290Y104030D01*
X73330Y104070D01*
X73340Y104130D01*
X73330Y104190D01*
X73290Y104240D01*
X73230Y104270D01*
X73170D01*
X73130Y104280D01*
X73100Y104320D01*
X73090Y104380D01*
X73110Y104440D01*
X73150Y104480D01*
X73200Y104500D01*
X73250Y104480D01*
X73290Y104440D01*
X73310Y104380D01*
X73300Y104320D01*
X73270Y104280D01*
X73230Y104270D01*
X73170D01*
X73110Y104240D01*
X73070Y104190D01*
X73060Y104130D01*
X73070Y104070D01*
X73110Y104030D01*
X73160Y104010D01*
X73200Y104000D01*
G01X73570Y104070D02*
X73610Y104030D01*
X73650Y104010D01*
X73710Y104000D01*
X73770Y104020D01*
X73810Y104050D01*
X73840Y104110D01*
X73850Y104170D01*
X73840Y104240D01*
X73800Y104280D01*
X73760Y104320D01*
X73720D01*
X73670D01*
X73620Y104280D01*
X73630Y104500D01*
X73800D01*
G01X74640Y104000D02*
Y104330D01*
G01Y104270D02*
X74670Y104300D01*
X74700Y104320D01*
X74750Y104330D01*
X74780Y104320D01*
X74820Y104300D01*
G01X75150Y104220D02*
X75350D01*
X75330Y104280D01*
X75300Y104320D01*
X75250Y104330D01*
X75210Y104320D01*
X75170Y104300D01*
X75150Y104240D01*
X75130Y104190D01*
Y104140D01*
X75150Y104090D01*
X75180Y104040D01*
X75210Y104010D01*
X75260Y104000D01*
X75300Y104020D01*
X75350Y104070D01*
G01X75640Y104330D02*
X75750Y104000D01*
X75860Y104330D01*
G01X76770Y104500D02*
X76720Y104480D01*
X76680Y104440D01*
X76660Y104390D01*
X76640Y104320D01*
X76630Y104250D01*
X76640Y104170D01*
X76660Y104110D01*
X76680Y104060D01*
X76720Y104020D01*
X76770Y104000D01*
X76820Y104020D01*
X76860Y104060D01*
X76880Y104110D01*
X76900Y104170D01*
X76910Y104250D01*
X76900Y104320D01*
X76880Y104390D01*
X76860Y104440D01*
X76820Y104480D01*
X76770Y104500D01*
G01X59910Y102580D02*
X59850Y102670D01*
X59810Y102750D01*
Y103080D01*
X59850Y103170D01*
X59910Y103250D01*
G01X60590Y103210D02*
X60550Y103230D01*
X60510Y103250D01*
X60460D01*
X60400Y103220D01*
X60360Y103180D01*
X60320Y103130D01*
X60300Y103050D01*
X60290Y102970D01*
X60300Y102900D01*
X60320Y102850D01*
X60360Y102800D01*
X60410Y102770D01*
X60450Y102750D01*
X60490D01*
X60540Y102770D01*
X60580Y102790D01*
X60610Y102820D01*
G01X60990Y102580D02*
X61050Y102670D01*
X61090Y102750D01*
Y103080D01*
X61050Y103170D01*
X60990Y103250D01*
G01X61860Y103170D02*
X61900Y103220D01*
X61940Y103240D01*
X61990Y103250D01*
X62060Y103230D01*
X62100Y103190D01*
X62110Y103140D01*
Y103090D01*
X62080Y103050D01*
X61950Y102970D01*
X61900Y102910D01*
X61860Y102820D01*
X61850Y102750D01*
X62110D01*
G01X62490Y103250D02*
X62440Y103230D01*
X62400Y103190D01*
X62380Y103140D01*
X62360Y103070D01*
X62350Y103000D01*
X62360Y102920D01*
X62380Y102860D01*
X62400Y102810D01*
X62440Y102770D01*
X62490Y102750D01*
X62540Y102770D01*
X62580Y102810D01*
X62600Y102860D01*
X62620Y102920D01*
X62630Y103000D01*
X62620Y103070D01*
X62600Y103140D01*
X62580Y103190D01*
X62540Y103230D01*
X62490Y103250D01*
G01X63000D02*
X62950Y103230D01*
X62910Y103190D01*
X62890Y103140D01*
X62870Y103070D01*
X62860Y103000D01*
X62870Y102920D01*
X62890Y102860D01*
X62910Y102810D01*
X62950Y102770D01*
X63000Y102750D01*
X63050Y102770D01*
X63090Y102810D01*
X63110Y102860D01*
X63130Y102920D01*
X63140Y103000D01*
X63130Y103070D01*
X63110Y103140D01*
X63090Y103190D01*
X63050Y103230D01*
X63000Y103250D01*
G01X63400Y102810D02*
X63450Y102770D01*
X63500Y102750D01*
X63550Y102770D01*
X63590Y102820D01*
X63620Y102890D01*
X63640Y102970D01*
Y103060D01*
X63620Y103130D01*
X63590Y103200D01*
X63550Y103230D01*
X63510Y103250D01*
X63460Y103230D01*
X63420Y103200D01*
X63400Y103150D01*
X63380Y103080D01*
X63400Y103030D01*
X63430Y102970D01*
X63470Y102930D01*
X63510Y102920D01*
X63560Y102940D01*
X63600Y102980D01*
X63640Y103060D01*
G01X64660Y102750D02*
X64400D01*
Y103250D01*
X64660D01*
G01X64560Y103010D02*
X64400D01*
G01X64950Y102750D02*
Y103080D01*
G01Y103020D02*
X64980Y103050D01*
X65010Y103070D01*
X65060Y103080D01*
X65090Y103070D01*
X65130Y103050D01*
G01X65550Y103080D02*
Y102750D01*
G01Y103220D02*
X65540D01*
Y103240D01*
X65550Y103250D01*
X65560Y103240D01*
Y103220D01*
X65550D01*
G01X65950Y102750D02*
Y103250D01*
G01X66150Y103080D02*
X65950Y102890D01*
G01X66030Y102970D02*
X66170Y102750D01*
G01X67120Y103000D02*
X67240D01*
Y102850D01*
X67210Y102800D01*
X67160Y102770D01*
X67100Y102750D01*
X67040Y102770D01*
X66990Y102800D01*
X66950Y102850D01*
X66930Y102910D01*
X66920Y102970D01*
Y103030D01*
X66930Y103080D01*
X66950Y103140D01*
X66990Y103190D01*
X67030Y103220D01*
X67080Y103250D01*
X67120D01*
X67170Y103230D01*
X67210Y103200D01*
G01X67590Y103080D02*
Y102750D01*
G01Y103220D02*
X67580D01*
Y103240D01*
X67590Y103250D01*
X67600Y103240D01*
Y103220D01*
X67590D01*
G01X68100Y102750D02*
Y103250D01*
G01X68610Y102750D02*
Y103250D01*
G01X69120Y103080D02*
Y102750D01*
G01Y103220D02*
X69110D01*
Y103240D01*
X69120Y103250D01*
X69130Y103240D01*
Y103220D01*
X69120D01*
G01X69520Y102750D02*
Y103080D01*
G01Y103000D02*
X69550Y103040D01*
X69590Y103070D01*
X69640Y103080D01*
X69680Y103070D01*
X69720Y103040D01*
X69740Y102980D01*
Y102750D01*
G01X70050Y102620D02*
X70100Y102590D01*
X70150Y102580D01*
X70190Y102590D01*
X70230Y102630D01*
X70250Y102690D01*
Y103080D01*
G01Y103020D02*
X70230Y103050D01*
X70190Y103070D01*
X70150Y103080D01*
X70100Y103070D01*
X70060Y103030D01*
X70040Y102970D01*
X70030Y102920D01*
Y102870D01*
X70060Y102810D01*
X70100Y102770D01*
X70150Y102750D01*
X70180Y102760D01*
X70230Y102790D01*
X70250Y102820D01*
G01X59910Y102580D02*
X59850Y102670D01*
X59810Y102750D01*
Y103080D01*
X59850Y103170D01*
X59910Y103250D01*
G01X60590Y103210D02*
X60550Y103230D01*
X60510Y103250D01*
X60460D01*
X60400Y103220D01*
X60360Y103180D01*
X60320Y103130D01*
X60300Y103050D01*
X60290Y102970D01*
X60300Y102900D01*
X60320Y102850D01*
X60360Y102800D01*
X60410Y102770D01*
X60450Y102750D01*
X60490D01*
X60540Y102770D01*
X60580Y102790D01*
X60610Y102820D01*
G01X60990Y102580D02*
X61050Y102670D01*
X61090Y102750D01*
Y103080D01*
X61050Y103170D01*
X60990Y103250D01*
G01X61860Y103170D02*
X61900Y103220D01*
X61940Y103240D01*
X61990Y103250D01*
X62060Y103230D01*
X62100Y103190D01*
X62110Y103140D01*
Y103090D01*
X62080Y103050D01*
X61950Y102970D01*
X61900Y102910D01*
X61860Y102820D01*
X61850Y102750D01*
X62110D01*
G01X62490Y103250D02*
X62440Y103230D01*
X62400Y103190D01*
X62380Y103140D01*
X62360Y103070D01*
X62350Y103000D01*
X62360Y102920D01*
X62380Y102860D01*
X62400Y102810D01*
X62440Y102770D01*
X62490Y102750D01*
X62540Y102770D01*
X62580Y102810D01*
X62600Y102860D01*
X62620Y102920D01*
X62630Y103000D01*
X62620Y103070D01*
X62600Y103140D01*
X62580Y103190D01*
X62540Y103230D01*
X62490Y103250D01*
G01X63000D02*
X62950Y103230D01*
X62910Y103190D01*
X62890Y103140D01*
X62870Y103070D01*
X62860Y103000D01*
X62870Y102920D01*
X62890Y102860D01*
X62910Y102810D01*
X62950Y102770D01*
X63000Y102750D01*
X63050Y102770D01*
X63090Y102810D01*
X63110Y102860D01*
X63130Y102920D01*
X63140Y103000D01*
X63130Y103070D01*
X63110Y103140D01*
X63090Y103190D01*
X63050Y103230D01*
X63000Y103250D01*
G01X63400Y102810D02*
X63450Y102770D01*
X63500Y102750D01*
X63550Y102770D01*
X63590Y102820D01*
X63620Y102890D01*
X63640Y102970D01*
Y103060D01*
X63620Y103130D01*
X63590Y103200D01*
X63550Y103230D01*
X63510Y103250D01*
X63460Y103230D01*
X63420Y103200D01*
X63400Y103150D01*
X63380Y103080D01*
X63400Y103030D01*
X63430Y102970D01*
X63470Y102930D01*
X63510Y102920D01*
X63560Y102940D01*
X63600Y102980D01*
X63640Y103060D01*
G01X64660Y102750D02*
X64400D01*
Y103250D01*
X64660D01*
G01X64560Y103010D02*
X64400D01*
G01X64950Y102750D02*
Y103080D01*
G01Y103020D02*
X64980Y103050D01*
X65010Y103070D01*
X65060Y103080D01*
X65090Y103070D01*
X65130Y103050D01*
G01X65550Y103080D02*
Y102750D01*
G01Y103220D02*
X65540D01*
Y103240D01*
X65550Y103250D01*
X65560Y103240D01*
Y103220D01*
X65550D01*
G01X65950Y102750D02*
Y103250D01*
G01X66150Y103080D02*
X65950Y102890D01*
G01X66030Y102970D02*
X66170Y102750D01*
G01X67120Y103000D02*
X67240D01*
Y102850D01*
X67210Y102800D01*
X67160Y102770D01*
X67100Y102750D01*
X67040Y102770D01*
X66990Y102800D01*
X66950Y102850D01*
X66930Y102910D01*
X66920Y102970D01*
Y103030D01*
X66930Y103080D01*
X66950Y103140D01*
X66990Y103190D01*
X67030Y103220D01*
X67080Y103250D01*
X67120D01*
X67170Y103230D01*
X67210Y103200D01*
G01X67590Y103080D02*
Y102750D01*
G01Y103220D02*
X67580D01*
Y103240D01*
X67590Y103250D01*
X67600Y103240D01*
Y103220D01*
X67590D01*
G01X68100Y102750D02*
Y103250D01*
G01X68610Y102750D02*
Y103250D01*
G01X69120Y103080D02*
Y102750D01*
G01Y103220D02*
X69110D01*
Y103240D01*
X69120Y103250D01*
X69130Y103240D01*
Y103220D01*
X69120D01*
G01X69520Y102750D02*
Y103080D01*
G01Y103000D02*
X69550Y103040D01*
X69590Y103070D01*
X69640Y103080D01*
X69680Y103070D01*
X69720Y103040D01*
X69740Y102980D01*
Y102750D01*
G01X70050Y102620D02*
X70100Y102590D01*
X70150Y102580D01*
X70190Y102590D01*
X70230Y102630D01*
X70250Y102690D01*
Y103080D01*
G01Y103020D02*
X70230Y103050D01*
X70190Y103070D01*
X70150Y103080D01*
X70100Y103070D01*
X70060Y103030D01*
X70040Y102970D01*
X70030Y102920D01*
Y102870D01*
X70060Y102810D01*
X70100Y102770D01*
X70150Y102750D01*
X70180Y102760D01*
X70230Y102790D01*
X70250Y102820D01*
G01X60050Y104500D02*
Y104000D01*
G01Y104070D02*
X60030Y104030D01*
X59990Y104010D01*
X59950Y104000D01*
X59900Y104020D01*
X59860Y104060D01*
X59830Y104110D01*
Y104170D01*
Y104220D01*
X59860Y104280D01*
X59900Y104320D01*
X59950Y104330D01*
X59990Y104320D01*
X60020Y104310D01*
X60050Y104280D01*
G01X60340Y104330D02*
Y104100D01*
X60370Y104040D01*
X60410Y104010D01*
X60450Y104000D01*
X60490Y104010D01*
X60530Y104040D01*
X60560Y104100D01*
G01Y104000D02*
Y104330D01*
G01X61070Y104000D02*
Y104330D01*
G01Y104280D02*
X61050Y104310D01*
X61010Y104320D01*
X60970Y104330D01*
X60920Y104320D01*
X60880Y104280D01*
X60860Y104230D01*
X60850Y104170D01*
X60860Y104100D01*
X60880Y104050D01*
X60920Y104020D01*
X60970Y104000D01*
X61010Y104010D01*
X61050Y104030D01*
X61070Y104070D01*
G01X61470Y104000D02*
Y104500D01*
G01X62490Y104000D02*
X62450Y104010D01*
X62410Y104040D01*
X62390Y104100D01*
X62380Y104170D01*
X62390Y104230D01*
X62410Y104290D01*
X62450Y104320D01*
X62490Y104330D01*
X62530Y104320D01*
X62570Y104290D01*
X62590Y104230D01*
X62600Y104170D01*
X62590Y104100D01*
X62570Y104040D01*
X62530Y104010D01*
X62490Y104000D01*
G01X62890Y103830D02*
Y104330D01*
G01Y104260D02*
X62920Y104300D01*
X62950Y104320D01*
X63000Y104330D01*
X63040Y104320D01*
X63090Y104280D01*
X63110Y104220D01*
Y104170D01*
Y104110D01*
X63090Y104050D01*
X63050Y104020D01*
X63000Y104000D01*
X62960Y104010D01*
X62910Y104030D01*
X62890Y104070D01*
G01X63510Y104500D02*
Y104000D01*
G01X63420Y104330D02*
X63600D01*
G01X64020Y104000D02*
X63980Y104010D01*
X63940Y104040D01*
X63920Y104100D01*
X63910Y104170D01*
X63920Y104230D01*
X63940Y104290D01*
X63980Y104320D01*
X64020Y104330D01*
X64060Y104320D01*
X64100Y104290D01*
X64120Y104230D01*
X64130Y104170D01*
X64120Y104100D01*
X64100Y104040D01*
X64060Y104010D01*
X64020Y104000D01*
G01X65040Y104330D02*
Y104000D01*
G01Y104470D02*
X65030D01*
Y104490D01*
X65040Y104500D01*
X65050Y104490D01*
Y104470D01*
X65040D01*
G01X65460Y104060D02*
X65490Y104020D01*
X65530Y104000D01*
X65570D01*
X65610Y104020D01*
X65630Y104040D01*
X65640Y104070D01*
Y104130D01*
X65610Y104150D01*
X65500Y104200D01*
X65470Y104260D01*
X65490Y104300D01*
X65510Y104320D01*
X65550Y104330D01*
X65590Y104320D01*
X65630Y104300D01*
G01X66060Y104000D02*
X66020Y104010D01*
X65980Y104040D01*
X65960Y104100D01*
X65950Y104170D01*
X65960Y104230D01*
X65980Y104290D01*
X66020Y104320D01*
X66060Y104330D01*
X66100Y104320D01*
X66140Y104290D01*
X66160Y104230D01*
X66170Y104170D01*
X66160Y104100D01*
X66140Y104040D01*
X66100Y104010D01*
X66060Y104000D01*
G01X66570D02*
Y104500D01*
G01X67190Y104000D02*
Y104330D01*
G01Y104280D02*
X67170Y104310D01*
X67130Y104320D01*
X67090Y104330D01*
X67040Y104320D01*
X67000Y104280D01*
X66980Y104230D01*
X66970Y104170D01*
X66980Y104100D01*
X67000Y104050D01*
X67040Y104020D01*
X67090Y104000D01*
X67130Y104010D01*
X67170Y104030D01*
X67190Y104070D01*
G01X67590Y104500D02*
Y104000D01*
G01X67500Y104330D02*
X67680D01*
G01X68010Y104220D02*
X68210D01*
X68190Y104280D01*
X68160Y104320D01*
X68110Y104330D01*
X68070Y104320D01*
X68030Y104300D01*
X68010Y104240D01*
X67990Y104190D01*
Y104140D01*
X68010Y104090D01*
X68040Y104040D01*
X68070Y104010D01*
X68120Y104000D01*
X68160Y104020D01*
X68210Y104070D01*
G01X68720Y104500D02*
Y104000D01*
G01Y104070D02*
X68700Y104030D01*
X68660Y104010D01*
X68620Y104000D01*
X68570Y104020D01*
X68530Y104060D01*
X68500Y104110D01*
Y104170D01*
Y104220D01*
X68530Y104280D01*
X68570Y104320D01*
X68620Y104330D01*
X68660Y104320D01*
X68690Y104310D01*
X68720Y104280D01*
G01X69520Y104330D02*
Y104100D01*
X69550Y104040D01*
X69590Y104010D01*
X69630Y104000D01*
X69670Y104010D01*
X69710Y104040D01*
X69740Y104100D01*
G01Y104000D02*
Y104330D01*
G01X70050Y104060D02*
X70080Y104020D01*
X70120Y104000D01*
X70160D01*
X70200Y104020D01*
X70220Y104040D01*
X70230Y104070D01*
Y104130D01*
X70200Y104150D01*
X70090Y104200D01*
X70060Y104260D01*
X70080Y104300D01*
X70100Y104320D01*
X70140Y104330D01*
X70180Y104320D01*
X70220Y104300D01*
G01X70540Y104000D02*
Y104500D01*
G01Y104250D02*
X70570Y104300D01*
X70610Y104320D01*
X70640Y104330D01*
X70700Y104320D01*
X70740Y104280D01*
X70760Y104220D01*
Y104160D01*
X70750Y104090D01*
X70730Y104040D01*
X70680Y104010D01*
X70640Y104000D01*
X70610Y104010D01*
X70570Y104030D01*
X70540Y104070D01*
G01X71050Y103980D02*
X71270Y104500D01*
G01X71580Y104000D02*
Y104330D01*
G01Y104270D02*
X71610Y104300D01*
X71640Y104320D01*
X71690Y104330D01*
X71720Y104320D01*
X71760Y104300D01*
G01X72090Y104060D02*
X72120Y104020D01*
X72160Y104000D01*
X72200D01*
X72240Y104020D01*
X72260Y104040D01*
X72270Y104070D01*
Y104130D01*
X72240Y104150D01*
X72130Y104200D01*
X72100Y104260D01*
X72120Y104300D01*
X72140Y104320D01*
X72180Y104330D01*
X72220Y104320D01*
X72260Y104300D01*
G01X72770Y104000D02*
Y104500D01*
X72530Y104140D01*
X72850D01*
G01X73200Y104000D02*
X73240Y104010D01*
X73290Y104030D01*
X73330Y104070D01*
X73340Y104130D01*
X73330Y104190D01*
X73290Y104240D01*
X73230Y104270D01*
X73170D01*
X73130Y104280D01*
X73100Y104320D01*
X73090Y104380D01*
X73110Y104440D01*
X73150Y104480D01*
X73200Y104500D01*
X73250Y104480D01*
X73290Y104440D01*
X73310Y104380D01*
X73300Y104320D01*
X73270Y104280D01*
X73230Y104270D01*
X73170D01*
X73110Y104240D01*
X73070Y104190D01*
X73060Y104130D01*
X73070Y104070D01*
X73110Y104030D01*
X73160Y104010D01*
X73200Y104000D01*
G01X73570Y104070D02*
X73610Y104030D01*
X73650Y104010D01*
X73710Y104000D01*
X73770Y104020D01*
X73810Y104050D01*
X73840Y104110D01*
X73850Y104170D01*
X73840Y104240D01*
X73800Y104280D01*
X73760Y104320D01*
X73720D01*
X73670D01*
X73620Y104280D01*
X73630Y104500D01*
X73800D01*
G01X74640Y104000D02*
Y104330D01*
G01Y104270D02*
X74670Y104300D01*
X74700Y104320D01*
X74750Y104330D01*
X74780Y104320D01*
X74820Y104300D01*
G01X75150Y104220D02*
X75350D01*
X75330Y104280D01*
X75300Y104320D01*
X75250Y104330D01*
X75210Y104320D01*
X75170Y104300D01*
X75150Y104240D01*
X75130Y104190D01*
Y104140D01*
X75150Y104090D01*
X75180Y104040D01*
X75210Y104010D01*
X75260Y104000D01*
X75300Y104020D01*
X75350Y104070D01*
G01X75640Y104330D02*
X75750Y104000D01*
X75860Y104330D01*
G01X76770Y104500D02*
X76720Y104480D01*
X76680Y104440D01*
X76660Y104390D01*
X76640Y104320D01*
X76630Y104250D01*
X76640Y104170D01*
X76660Y104110D01*
X76680Y104060D01*
X76720Y104020D01*
X76770Y104000D01*
X76820Y104020D01*
X76860Y104060D01*
X76880Y104110D01*
X76900Y104170D01*
X76910Y104250D01*
X76900Y104320D01*
X76880Y104390D01*
X76860Y104440D01*
X76820Y104480D01*
X76770Y104500D01*
G54D13*
G01X43200Y108030D02*
Y108050D01*
G01Y107450D02*
Y107470D01*
G01X42300Y108030D02*
Y108050D01*
G01Y107450D02*
Y107470D01*
G01Y107450D02*
X43200D01*
G01X42300Y108050D02*
X43200D01*
G01Y120780D02*
Y120800D01*
G01Y120200D02*
Y120220D01*
G01X42300Y120780D02*
Y120800D01*
G01Y120200D02*
Y120220D01*
G01Y120200D02*
X43200D01*
G01X42300Y120800D02*
X43200D01*
G01X46550Y111970D02*
Y111950D01*
G01Y112550D02*
Y112530D01*
G01X47450Y111970D02*
Y111950D01*
G01Y112550D02*
Y112530D01*
G01Y112550D02*
X46550D01*
G01X47450Y111950D02*
X46550D01*
G01X46050Y126220D02*
Y126200D01*
G01Y126800D02*
Y126780D01*
G01X46950Y126220D02*
Y126200D01*
G01Y126800D02*
Y126780D01*
G01Y126800D02*
X46050D01*
G01X46950Y126200D02*
X46050D01*
G01X53800Y106720D02*
Y106700D01*
G01Y107300D02*
Y107280D01*
G01X54700Y107300D02*
X53800D01*
G01X54700Y106700D02*
X53800D01*
G01X54700Y106720D02*
Y106700D01*
G01Y107300D02*
Y107280D01*
G01X54050Y111470D02*
Y111450D01*
G01Y112050D02*
Y112030D01*
G01X54950Y111470D02*
Y111450D01*
G01Y112050D02*
Y112030D01*
G01Y112050D02*
X54050D01*
G01X54950Y111450D02*
X54050D01*
G01Y115220D02*
Y115200D01*
G01Y115800D02*
Y115780D01*
G01X54950Y115220D02*
Y115200D01*
G01Y115800D02*
Y115780D01*
G01Y115800D02*
X54050D01*
G01X54950Y115200D02*
X54050D01*
G01Y118970D02*
Y118950D01*
G01Y119550D02*
Y119530D01*
G01X54950Y118970D02*
Y118950D01*
G01Y119550D02*
Y119530D01*
G01Y119550D02*
X54050D01*
G01X54950Y118950D02*
X54050D01*
G01Y121720D02*
Y121700D01*
G01Y122300D02*
Y122280D01*
G01X54950Y121720D02*
Y121700D01*
G01Y122300D02*
Y122280D01*
G01Y122300D02*
X54050D01*
G01X54950Y121700D02*
X54050D01*
G01Y126470D02*
Y126450D01*
G01Y127050D02*
Y127030D01*
G01X54950Y126470D02*
Y126450D01*
G01Y127050D02*
Y127030D01*
G01Y127050D02*
X54050D01*
G01X54950Y126450D02*
X54050D01*
G01Y130220D02*
Y130200D01*
G01Y130800D02*
Y130780D01*
G01X54950Y130220D02*
Y130200D01*
G01Y130800D02*
Y130780D01*
G01Y130800D02*
X54050D01*
G01X54950Y130200D02*
X54050D01*
G01X65800Y115530D02*
Y115550D01*
G01Y114950D02*
Y114970D01*
G01Y114950D02*
X66700D01*
G01X65800Y115550D02*
X66700D01*
G01X68860Y113480D02*
Y113500D01*
G01Y112900D02*
Y112920D01*
G01Y112900D02*
X69760D01*
G01X68860Y113500D02*
X69760D01*
G01X66700Y115530D02*
Y115550D01*
G01Y114950D02*
Y114970D01*
G01X71360Y113480D02*
Y113500D01*
G01Y112900D02*
Y112920D01*
G01X70460Y113480D02*
Y113500D01*
G01Y112900D02*
Y112920D01*
G01Y112900D02*
X71360D01*
G01X70460Y113500D02*
X71360D01*
G01X69760Y113480D02*
Y113500D01*
G01Y112900D02*
Y112920D01*
G01X70050Y117470D02*
Y117450D01*
G01Y118050D02*
Y118030D01*
G01X70950Y117470D02*
Y117450D01*
G01Y118050D02*
Y118030D01*
G01Y118050D02*
X70050D01*
G01X70950Y117450D02*
X70050D01*
G01X70800Y118970D02*
Y118950D01*
G01Y119550D02*
Y119530D01*
G01X71700Y118970D02*
Y118950D01*
G01Y119550D02*
Y119530D01*
G01Y119550D02*
X70800D01*
G01X71700Y118950D02*
X70800D01*
G01Y118220D02*
Y118200D01*
G01Y118800D02*
Y118780D01*
G01X71700Y118220D02*
Y118200D01*
G01Y118800D02*
Y118780D01*
G01Y118800D02*
X70800D01*
G01X71700Y118200D02*
X70800D01*
G01X72220Y121450D02*
X72200D01*
G01X72800D02*
X72780D01*
G01X72220Y120550D02*
X72200D01*
G01X72800D02*
X72780D01*
G01X72800D02*
Y121450D01*
G01X72200Y120550D02*
Y121450D01*
M02*
