%
M48
M72
T01C0.015000
T02C0.036000
T03C0.040000
T04C0.051000
T05C0.091000
T06C0.125000
%
T01
X000041500Y000107750
X000042190Y000115190
X000042000Y000128250
X000041750Y000120500
X000058000Y000115000
X000058900Y000119000
X000056750Y000115500
X000057500Y000115730
X000060000Y000114000
X000064500Y000111500
X000063500Y000111500
X000065000Y000114000
X000063500Y000114000
X000065500Y000116000
X000064490Y000116010
X000061810Y000117810
X000058750Y000124750
X000057000Y000122750
X000057500Y000121750
X000060000Y000121250
X000061830Y000119580
X000064000Y000120750
X000066250Y000119750
X000058000Y000130500
X000070250Y000120250
X000070250Y000116000
X000068500Y000117250
X000068500Y000118000
X000068500Y000119000
T02
X000050000Y000131500
X000050000Y000130500
X000050000Y000129500
X000053000Y000131500
X000053000Y000130500
X000053000Y000129500
X000053000Y000122000
X000053000Y000123000
X000053000Y000124000
X000050000Y000122000
X000050000Y000123000
X000050000Y000124000
X000050000Y000127750
X000050000Y000126750
X000050000Y000125750
X000053000Y000127750
X000053000Y000126750
X000053000Y000125750
X000050000Y000120250
X000053000Y000120250
X000050000Y000116500
X000050000Y000115500
X000050000Y000114500
X000053000Y000116500
X000053000Y000115500
X000053000Y000114500
X000050000Y000112750
X000050000Y000111750
X000050000Y000110750
X000053000Y000112750
X000053000Y000111750
X000053000Y000110750
X000050000Y000119250
X000050000Y000118250
X000053000Y000119250
X000053000Y000118250
X000053000Y000102250
X000053000Y000105250
X000050000Y000103250
X000050000Y000105250
X000053000Y000107000
X000053000Y000108000
X000053000Y000109000
X000050000Y000107000
X000050000Y000108000
X000050000Y000109000
T03
X000073500Y000119500
X000074290Y000119500
X000073500Y000118520
X000074290Y000118520
T04
X000043000Y000109120
X000043000Y000111880
X000043000Y000110500
X000043000Y000124880
X000043000Y000123500
X000043000Y000122120
T05
X000075350Y000121380
X000075350Y000116640
X000077320Y000116640
X000077320Y000121380
T06
X000041500Y000099250
X000041500Y000134250
X000061500Y000099250
X000056500Y000099250
X000061500Y000134250
X000056500Y000134250
X000076500Y000099250
X000076500Y000134250
M30
