G04 start of page 2 for group 0 idx 0 *
G04 Title: LED driver v. 0.1, back *
G04 Creator: pcb 1.99x *
G04 CreationDate: Sun Jul 26 20:33:58 2009 UTC *
G04 For: davidellsworth *
G04 Format: Gerber/RS-274X *
G04 PCB-Dimensions: 113000 481000 *
G04 PCB-Coordinate-Origin: lower left *
%MOIN*%
%FSLAX24Y24*%
%LNBACK*%
%ADD11C,0.0200*%
%ADD12C,0.0300*%
%ADD13C,0.0800*%
%ADD14C,0.0600*%
%ADD15C,0.0400*%
%ADD16C,0.0100*%
%ADD17C,0.0812*%
%ADD18C,0.0500*%
%ADD19C,0.2500*%
%ADD20C,0.0450*%
%ADD21C,0.0512*%
%ADD22C,0.0250*%
%ADD23C,0.1250*%
G54D11*X2200Y18200D02*X7500D01*
X7700Y29600D02*X8900D01*
G54D12*X7300Y32800D02*X8800Y31300D01*
Y30900D01*
G54D11*G36*
X3700Y3300D02*Y7087D01*
X4249Y6538D01*
Y3300D01*
X3700D01*
G37*
G36*
X300Y500D02*Y3800D01*
X4249D01*
Y2762D01*
X4037Y2550D01*
X2800D01*
X2794Y2549D01*
X2786D01*
X2779Y2548D01*
X2774Y2547D01*
X2768Y2546D01*
X2761Y2544D01*
X2755Y2542D01*
X2748Y2541D01*
X2743Y2538D01*
X2736Y2536D01*
X2730Y2532D01*
X2725Y2529D01*
X2720Y2526D01*
X2713Y2522D01*
X2708Y2518D01*
X2703Y2514D01*
X2699Y2510D01*
X2693Y2506D01*
X2593Y2405D01*
X2506Y2398D01*
X2421Y2375D01*
X2341Y2338D01*
X2269Y2287D01*
X2207Y2225D01*
X2156Y2153D01*
X2119Y2073D01*
X2096Y1987D01*
X2088Y1900D01*
X2096Y1812D01*
X2119Y1727D01*
X2156Y1647D01*
X2207Y1574D01*
X2269Y1512D01*
X2341Y1461D01*
X2421Y1424D01*
X2506Y1401D01*
X2594Y1394D01*
X2682Y1401D01*
X2767Y1424D01*
X2847Y1461D01*
X2919Y1512D01*
X2982Y1574D01*
X3032Y1647D01*
X3069Y1727D01*
X3092Y1812D01*
X3100Y1900D01*
X3092Y1987D01*
X3069Y2073D01*
X3032Y2153D01*
X2982Y2225D01*
X2957Y2250D01*
X4100D01*
X4107Y2250D01*
X4113D01*
X4118Y2251D01*
X4126Y2252D01*
X4133Y2254D01*
X4138Y2255D01*
X4143Y2257D01*
X4151Y2259D01*
X4157Y2262D01*
X4163Y2264D01*
X4168Y2267D01*
X4175Y2270D01*
X4181Y2274D01*
X4186Y2277D01*
X4190Y2280D01*
X4196Y2285D01*
X4201Y2290D01*
X4206Y2294D01*
X4449Y2537D01*
Y2391D01*
X4390Y2375D01*
X4310Y2338D01*
X4237Y2287D01*
X4175Y2225D01*
X4124Y2153D01*
X4087Y2073D01*
X4064Y1987D01*
X4057Y1900D01*
X4064Y1812D01*
X4087Y1727D01*
X4124Y1647D01*
X4175Y1574D01*
X4237Y1512D01*
X4310Y1461D01*
X4390Y1424D01*
X4475Y1401D01*
X4563Y1394D01*
X4650Y1401D01*
X4736Y1424D01*
X4816Y1461D01*
X4888Y1512D01*
X4950Y1574D01*
X5001Y1647D01*
X5038Y1727D01*
X5061Y1812D01*
X5068Y1900D01*
X5061Y1987D01*
X5038Y2073D01*
X5001Y2153D01*
X4950Y2225D01*
X4888Y2287D01*
X4816Y2338D01*
X4750Y2368D01*
Y3800D01*
X6531D01*
Y2405D01*
X6443Y2398D01*
X6358Y2375D01*
X6278Y2338D01*
X6206Y2287D01*
X6144Y2225D01*
X6093Y2153D01*
X6056Y2073D01*
X6033Y1987D01*
X6025Y1900D01*
X6033Y1812D01*
X6056Y1727D01*
X6093Y1647D01*
X6144Y1574D01*
X6206Y1512D01*
X6278Y1461D01*
X6358Y1424D01*
X6443Y1401D01*
X6531Y1394D01*
Y500D01*
X300D01*
G37*
G36*
X6531Y3800D02*X7800D01*
Y500D01*
X6531D01*
Y1394D01*
X6619Y1401D01*
X6704Y1424D01*
X6784Y1461D01*
X6856Y1512D01*
X6919Y1574D01*
X6969Y1647D01*
X7006Y1727D01*
X7029Y1812D01*
X7037Y1900D01*
X7029Y1987D01*
X7006Y2073D01*
X6969Y2153D01*
X6919Y2225D01*
X6856Y2287D01*
X6784Y2338D01*
X6704Y2375D01*
X6619Y2398D01*
X6531Y2405D01*
Y3800D01*
G37*
G36*
X4800Y1200D02*Y1454D01*
X4816Y1461D01*
X4888Y1512D01*
X4950Y1574D01*
X5001Y1647D01*
X5038Y1727D01*
X5061Y1812D01*
X5068Y1900D01*
X5061Y1987D01*
X5038Y2073D01*
X5001Y2153D01*
X4950Y2225D01*
X4888Y2287D01*
X4816Y2338D01*
X4800Y2345D01*
Y2700D01*
X6531D01*
Y2405D01*
X6443Y2398D01*
X6358Y2375D01*
X6278Y2338D01*
X6206Y2287D01*
X6144Y2225D01*
X6093Y2153D01*
X6056Y2073D01*
X6033Y1987D01*
X6025Y1900D01*
X6033Y1812D01*
X6056Y1727D01*
X6093Y1647D01*
X6144Y1574D01*
X6206Y1512D01*
X6278Y1461D01*
X6358Y1424D01*
X6443Y1401D01*
X6531Y1394D01*
Y1200D01*
X4800D01*
G37*
G36*
X6531Y2700D02*X7600D01*
Y1200D01*
X6531D01*
Y1394D01*
X6619Y1401D01*
X6704Y1424D01*
X6784Y1461D01*
X6856Y1512D01*
X6919Y1574D01*
X6969Y1647D01*
X7006Y1727D01*
X7029Y1812D01*
X7037Y1900D01*
X7029Y1987D01*
X7006Y2073D01*
X6969Y2153D01*
X6919Y2225D01*
X6856Y2287D01*
X6784Y2338D01*
X6704Y2375D01*
X6619Y2398D01*
X6531Y2405D01*
Y2700D01*
G37*
G36*
X4750Y5900D02*X9900D01*
Y2700D01*
X4750D01*
Y5900D01*
G37*
G36*
X4679Y20400D02*X6517D01*
X6600Y20317D01*
Y19900D01*
X6600Y19892D01*
Y19882D01*
X6602Y19873D01*
X6603Y19865D01*
X6605Y19856D01*
X6606Y19848D01*
X6609Y19839D01*
X6612Y19831D01*
X6615Y19824D01*
X6618Y19815D01*
X6623Y19807D01*
X6626Y19800D01*
X6631Y19793D01*
X6636Y19785D01*
X6642Y19778D01*
X6646Y19771D01*
X6652Y19765D01*
X6658Y19758D01*
X7150Y19267D01*
Y18400D01*
X4650D01*
Y19785D01*
X4675Y19796D01*
X4725Y19831D01*
X4768Y19875D01*
X4803Y19924D01*
X4829Y19980D01*
X4844Y20039D01*
X4850Y20100D01*
X4844Y20160D01*
X4829Y20219D01*
X4803Y20275D01*
X4768Y20325D01*
X4725Y20368D01*
X4679Y20400D01*
G37*
G36*
X1950Y13862D02*Y14200D01*
X2500D01*
Y13312D01*
X1950Y13862D01*
G37*
G36*
Y17956D02*X1975Y17931D01*
X2024Y17896D01*
X2080Y17871D01*
X2139Y17855D01*
X2200Y17849D01*
X2260Y17855D01*
X2319Y17871D01*
X2375Y17896D01*
X2425Y17931D01*
X2468Y17975D01*
X2485Y18000D01*
X3914D01*
X3931Y17975D01*
X3975Y17931D01*
X4024Y17896D01*
X4080Y17871D01*
X4139Y17855D01*
X4200Y17849D01*
X4260Y17855D01*
X4319Y17871D01*
X4375Y17896D01*
X4425Y17931D01*
X4468Y17975D01*
X4485Y18000D01*
X7214D01*
X7231Y17975D01*
X7275Y17931D01*
X7324Y17896D01*
X7380Y17871D01*
X7439Y17855D01*
X7500Y17849D01*
X7560Y17855D01*
X7619Y17871D01*
X7675Y17896D01*
X7725Y17931D01*
X7768Y17975D01*
X7803Y18024D01*
X7829Y18080D01*
X7844Y18139D01*
X7850Y18200D01*
X7844Y18260D01*
X7834Y18300D01*
X9900D01*
Y14000D01*
X1950D01*
Y17956D01*
G37*
G36*
X7900Y38800D02*Y41800D01*
X9900D01*
Y38800D01*
X7900D01*
G37*
G36*
X6300Y42500D02*X7000D01*
Y41150D01*
X6300D01*
Y42500D01*
G37*
G36*
X7800Y41950D02*X9900D01*
Y41200D01*
X7800D01*
Y41950D01*
G37*
G36*
X6950Y41300D02*X8000D01*
Y41150D01*
X6950D01*
Y41300D01*
G37*
G36*
X6300Y38800D02*Y41300D01*
X8000D01*
Y38800D01*
X6300D01*
G37*
G36*
X6000Y34600D02*Y38900D01*
X9400D01*
Y34600D01*
X6000D01*
G37*
G54D13*X9500Y3800D02*Y14300D01*
Y13800D02*X2900D01*
G54D14*X5600Y15700D02*Y14100D01*
G54D11*X7200Y18700D02*X6700Y19200D01*
G54D14*X9100Y14100D02*Y18200D01*
X9300Y18400D01*
G54D11*X8800Y18200D02*X8200D01*
X7700Y18700D01*
X7200D01*
G54D14*X2300Y14200D02*X2700Y13800D01*
X2300Y15500D02*Y14200D01*
G54D13*X9500Y3800D02*X8800Y3100D01*
X6900D01*
X6531Y2731D01*
Y1900D01*
X3800Y4200D02*X2900Y3300D01*
G54D14*X9600Y40600D02*Y22900D01*
G54D12*X5800Y39400D02*Y40300D01*
X6200Y40700D01*
X9700Y40600D01*
G54D11*X9400Y30300D02*X8300D01*
G54D12*X5200Y38800D02*X5800Y39400D01*
G54D11*G36*
X6550Y47750D02*X10800D01*
Y43200D01*
X6550D01*
Y47750D01*
G37*
G36*
X9050Y43300D02*X10200D01*
Y42556D01*
X10150Y42533D01*
X10078Y42483D01*
X10017Y42421D01*
X9967Y42350D01*
X9943Y42300D01*
X9050D01*
Y43300D01*
G37*
G36*
X9800Y42200D02*Y43400D01*
X10800D01*
Y42397D01*
X10783Y42421D01*
X10721Y42483D01*
X10650Y42533D01*
X10571Y42569D01*
X10486Y42592D01*
X10400Y42600D01*
X10313Y42592D01*
X10229Y42569D01*
X10150Y42533D01*
X10078Y42483D01*
X10017Y42421D01*
X9967Y42350D01*
X9930Y42271D01*
X9911Y42200D01*
X9800D01*
G37*
G36*
X7400Y6100D02*Y13200D01*
X8900D01*
Y6100D01*
X7400D01*
G37*
G36*
X4000Y7612D02*Y13200D01*
X7200D01*
Y6100D01*
X4750D01*
Y6800D01*
X4750D01*
X4749Y6807D01*
Y6813D01*
X4748Y6818D01*
X4747Y6826D01*
X4745Y6833D01*
X4744Y6838D01*
X4743Y6843D01*
X4741Y6851D01*
X4737Y6858D01*
X4735Y6863D01*
X4733Y6867D01*
X4730Y6875D01*
X4725Y6882D01*
X4722Y6886D01*
X4719Y6889D01*
X4715Y6896D01*
X4709Y6902D01*
X4706Y6906D01*
X4000Y7612D01*
G37*
G36*
X300Y12800D02*X630D01*
Y12000D01*
X634Y11953D01*
X646Y11907D01*
X666Y11865D01*
X693Y11826D01*
X694Y11824D01*
X716Y11759D01*
X714Y11750D01*
X710Y11700D01*
X714Y11649D01*
X727Y11600D01*
X748Y11555D01*
X777Y11513D01*
X813Y11477D01*
X855Y11448D01*
X900Y11427D01*
X949Y11414D01*
X1000Y11410D01*
X1271D01*
X1315Y11379D01*
X1373Y11352D01*
X1435Y11335D01*
X1500Y11330D01*
X1564Y11335D01*
X1626Y11352D01*
X1685Y11379D01*
X1737Y11416D01*
X1783Y11462D01*
X1820Y11515D01*
X1847Y11573D01*
X1864Y11635D01*
X1870Y11700D01*
X1864Y11764D01*
X1856Y11793D01*
X1900Y11790D01*
X1971Y11796D01*
X2040Y11814D01*
X2105Y11844D01*
X2163Y11885D01*
X2214Y11936D01*
X2255Y11995D01*
X2285Y12059D01*
X2303Y12128D01*
X2310Y12200D01*
X2303Y12271D01*
X2285Y12340D01*
X2255Y12405D01*
X2214Y12463D01*
X2163Y12514D01*
X2150Y12523D01*
Y12592D01*
X2181Y12637D01*
X2205Y12688D01*
X2220Y12743D01*
X2225Y12800D01*
X2287D01*
X3400Y11687D01*
Y7200D01*
X300D01*
Y12800D01*
G37*
G54D12*X4800Y43900D02*X5300Y44400D01*
X6200D01*
G54D15*X10100Y42900D02*Y42300D01*
G54D12*X7400Y42200D02*X10100D01*
G54D16*X8400Y42900D02*X8600Y42800D01*
G54D12*X7400Y42200D02*Y41700D01*
G54D16*X6000Y41200D02*Y42500D01*
X6400Y42900D01*
G54D12*X1700Y43900D02*X4800D01*
G54D16*X3200Y29800D02*Y31500D01*
X2500Y32200D02*X3200Y31500D01*
X2400Y30400D02*X2500Y30500D01*
Y31100D01*
X4700Y33700D02*X4100D01*
X1800Y34100D02*X3550Y35850D01*
X4900Y34200D02*X4400Y34700D01*
X1600Y34500D02*X2950Y35850D01*
X3550Y37650D02*X3450Y37750D01*
X2950Y35850D02*Y37550D01*
X2800Y37700D01*
X3550Y35850D02*Y37650D01*
X4600Y32700D02*Y31900D01*
X4700Y31800D01*
Y30800D01*
X4400Y34700D02*Y39100D01*
X5600Y36400D02*X4700Y37300D01*
Y39100D01*
X5200Y39900D02*X4400Y39100D01*
X4700D02*X5400Y39800D01*
Y40600D01*
X6000Y41200D01*
X5200Y41100D02*Y39900D01*
X5500Y41400D02*X5200Y41100D01*
X8000Y34300D02*X8900D01*
X5800Y32200D02*X6300Y32700D01*
G54D12*X1300Y13300D02*Y43500D01*
X900Y12000D02*Y44000D01*
X1400Y44500D01*
G54D16*X1600Y13700D02*Y34500D01*
X1800Y34100D02*Y13800D01*
X3200Y20000D02*X3500D01*
X2200Y23900D02*X2000Y24100D01*
X2200Y21000D02*Y23100D01*
X2700Y23600D01*
Y24400D01*
X2300Y24800D01*
X2900Y24900D02*Y29500D01*
X2300Y26100D02*X2600Y26400D01*
Y28000D01*
X2900Y29500D02*X3200Y29800D01*
X2300Y24800D02*Y26100D01*
X2200Y27100D02*X2000Y26900D01*
X3700Y27300D02*X3600Y27200D01*
X5200Y28300D02*X4200Y27300D01*
X3700D01*
G54D12*X500Y10800D02*Y46000D01*
G54D16*X4400Y2700D02*Y6600D01*
X3600Y11700D02*Y7400D01*
X1800Y13800D02*X3800Y11800D01*
X1600Y13700D02*X3600Y11700D01*
Y7400D02*X4400Y6600D01*
X3800Y7600D02*Y11800D01*
X4600Y6800D02*X3800Y7600D01*
X4600Y1900D02*Y6800D01*
G54D12*X1000Y11700D02*X900Y12000D01*
X1000Y11700D02*X1500D01*
G54D16*X4400Y2700D02*X4100Y2400D01*
X2800D01*
X2600Y2200D01*
G54D13*X10400Y2400D02*X9900Y1900D01*
X8500D01*
G54D16*X2600Y2200D02*Y1900D01*
G54D12*X1300Y13300D02*X1900Y12800D01*
G54D11*X3500Y20600D02*X6600D01*
G54D12*X1900Y12300D02*Y12200D01*
Y12800D02*Y12300D01*
G54D11*X8800Y18700D02*X9300Y19200D01*
X10300D01*
X8300Y18700D02*X8800D01*
G54D16*X2200Y23900D02*X2000Y23700D01*
Y26900D02*Y18900D01*
X2300Y18600D01*
X4400D01*
X4500Y18700D01*
G54D11*X6600Y20600D02*X6800Y20400D01*
Y19900D01*
X7600Y19100D01*
G54D16*X6400Y42900D02*X8400D01*
G54D11*X7600Y19100D02*X7900D01*
X8300Y18700D01*
G54D16*X6800Y33100D02*X8000Y34300D01*
X2600Y28000D02*X2400Y28200D01*
Y30400D01*
X2500Y32200D02*Y33300D01*
G54D13*X10400Y2400D02*Y42100D01*
G54D16*X5300Y33100D02*X4700Y33700D01*
G54D15*X10600Y42800D02*Y41900D01*
X10400Y43100D02*Y42100D01*
G54D16*X4500Y18700D02*Y20100D01*
X3200Y20000D02*X2200Y21000D01*
X5800Y28800D02*Y32200D01*
X5300Y29700D02*Y33100D01*
X7200Y30700D02*Y31400D01*
X6300Y32700D02*Y32800D01*
X7200Y31400D02*X6800Y31800D01*
Y33100D01*
G54D12*X1400Y44500D02*X4300D01*
X1300Y43500D02*X1700Y43900D01*
G54D11*G36*
X8094Y2305D02*Y1494D01*
X8905D01*
Y2305D01*
X8094D01*
G37*
G54D17*X6531Y1900D03*
X4563D03*
X2594D03*
G54D18*X9400Y4900D03*
Y4300D03*
X7700Y11800D03*
X8400D03*
X9600Y22700D03*
Y23300D03*
X6600Y19200D03*
X9000Y15100D03*
X7500Y18200D03*
X9000Y15700D03*
X5600D03*
Y15100D03*
X2200Y15700D03*
Y15100D03*
G54D19*X8500Y20700D03*
G54D18*X4200Y18200D03*
X2200D03*
G54D20*X3500Y20600D03*
Y20000D03*
G54D18*X4500Y20100D03*
X9500Y18200D03*
X8300Y30300D03*
X7700Y29600D03*
X8900D03*
X5800Y28800D03*
X5300Y29700D03*
X5200Y28300D03*
X2200Y23900D03*
X2400Y28900D03*
X2200Y27100D03*
X2400Y26200D03*
X2900Y24900D03*
X3600Y27300D03*
X7200Y30700D03*
X4700Y30800D03*
X2500Y31100D03*
X8800Y30900D03*
X500Y11300D03*
Y10700D03*
Y10100D03*
Y9500D03*
G54D20*X1900Y12800D03*
G54D18*X1500Y11700D03*
X1900Y12200D03*
X500Y8900D03*
Y8300D03*
G54D19*X2000Y5500D03*
G54D18*X2300Y7700D03*
X1700D03*
X1100D03*
X500D03*
X4700D03*
X5300D03*
Y7100D03*
X5900D03*
X6500D03*
X7800D03*
X8400D03*
X5900Y7700D03*
X6500D03*
X7800D03*
X8400D03*
X10400Y45400D03*
Y46100D03*
X500Y45400D03*
Y46000D03*
G54D19*X2900Y42100D03*
G54D18*X4300Y44500D03*
X3700D03*
X8900Y40700D03*
X9500D03*
X8300D03*
X7700D03*
X5500Y44400D03*
X8600Y42800D03*
X6100Y44400D03*
X7400Y42400D03*
Y41700D03*
X5500Y41400D03*
G54D20*X8900Y34250D03*
G54D18*X6300Y32800D03*
X7300D03*
X2500Y33300D03*
X4600Y32700D03*
X4900Y34200D03*
X4100Y33700D03*
X2750Y37750D03*
X5200Y38800D03*
X5600Y36400D03*
X3450Y37750D03*
G54D21*G54D22*G54D23*G54D22*G54D11*G54D22*G54D11*G54D22*G54D23*G54D22*G54D23*G54D22*G54D11*G54D22*M02*
