G04 start of page 10 for group -3984 idx -3984 *
G04 Title: LED driver v. 0.1, fab *
G04 Creator: pcb 1.99x *
G04 CreationDate: Sun Jul 26 20:33:58 2009 UTC *
G04 For: davidellsworth *
G04 Format: Gerber/RS-274X *
G04 PCB-Dimensions: 113000 481000 *
G04 PCB-Coordinate-Origin: lower left *
%MOIN*%
%FSLAX24Y24*%
%LNFAB*%
%ADD16C,0.0100*%
%ADD47C,0.0080*%
%ADD48C,0.0060*%
G54D47*X1920Y5500D02*G75*G03X2080Y5500I80J0D01*G01*
G75*G03X1920Y5500I-80J0D01*G01*
X2820Y42100D02*G75*G03X2980Y42100I80J0D01*G01*
G75*G03X2820Y42100I-80J0D01*G01*
X8420Y20700D02*G75*G03X8580Y20700I80J0D01*G01*
G75*G03X8420Y20700I-80J0D01*G01*
X1420Y49225D02*G75*G03X1580Y49225I80J0D01*G01*
G75*G03X1420Y49225I-80J0D01*G01*
G54D48*X13500Y49450D02*Y49375D01*
X13650Y49225D01*
X13800Y49375D01*
Y49450D02*Y49375D01*
X13650Y49225D02*Y48850D01*
X13980Y49150D02*X14205D01*
X13980Y48850D02*X14280D01*
X13980Y49450D02*Y48850D01*
Y49450D02*X14280D01*
X14760D02*X14835Y49375D01*
X14535Y49450D02*X14760D01*
X14460Y49375D02*X14535Y49450D01*
X14460Y49375D02*Y49225D01*
X14535Y49150D01*
X14760D01*
X14835Y49075D01*
Y48925D01*
X14760Y48850D02*X14835Y48925D01*
X14535Y48850D02*X14760D01*
X14460Y48925D02*X14535Y48850D01*
X13500Y48524D02*X15015D01*
X9800Y49375D02*X9875Y49450D01*
X10025D01*
X10100Y49375D01*
Y48925D01*
X10025Y48850D02*X10100Y48925D01*
X9875Y48850D02*X10025D01*
X9800Y48925D02*X9875Y48850D01*
Y49150D02*X10100D01*
X9800Y48524D02*X10280D01*
X4500Y48925D02*X4575Y48850D01*
X4500Y49375D02*Y48925D01*
Y49375D02*X4575Y49450D01*
X4725D01*
X4800Y49375D01*
Y48925D01*
X4725Y48850D02*X4800Y48925D01*
X4575Y48850D02*X4725D01*
X4500Y49000D02*X4800Y49300D01*
X4980Y48850D02*X5055D01*
X5310D02*X5460D01*
X5385Y49450D02*Y48850D01*
X5235Y49300D02*X5385Y49450D01*
X5640Y49375D02*X5715Y49450D01*
X5940D01*
X6015Y49375D01*
Y49225D01*
X5640Y48850D02*X6015Y49225D01*
X5640Y48850D02*X6015D01*
X6195Y49450D02*X6495D01*
X6195D02*Y49150D01*
X6270Y49225D01*
X6420D01*
X6495Y49150D01*
Y48925D01*
X6420Y48850D02*X6495Y48925D01*
X6270Y48850D02*X6420D01*
X6195Y48925D02*X6270Y48850D01*
X4500Y48524D02*X6675D01*
X8380Y2020D02*X8620Y1780D01*
X8380D02*X8620Y2020D01*
X6411D02*X6651Y1780D01*
X6411D02*X6651Y2020D01*
X4443D02*X4683Y1780D01*
X4443D02*X4683Y2020D01*
X2474D02*X2714Y1780D01*
X2474D02*X2714Y2020D01*
X1380Y50845D02*X1620Y50605D01*
X1380D02*X1620Y50845D01*
X13500Y50950D02*Y50875D01*
X13650Y50725D01*
X13800Y50875D01*
Y50950D02*Y50875D01*
X13650Y50725D02*Y50350D01*
X13980Y50650D02*X14205D01*
X13980Y50350D02*X14280D01*
X13980Y50950D02*Y50350D01*
Y50950D02*X14280D01*
X14760D02*X14835Y50875D01*
X14535Y50950D02*X14760D01*
X14460Y50875D02*X14535Y50950D01*
X14460Y50875D02*Y50725D01*
X14535Y50650D01*
X14760D01*
X14835Y50575D01*
Y50425D01*
X14760Y50350D02*X14835Y50425D01*
X14535Y50350D02*X14760D01*
X14460Y50425D02*X14535Y50350D01*
X13500Y50024D02*X15015D01*
X9800Y50650D02*X10100Y50950D01*
X9800Y50650D02*X10175D01*
X10100Y50950D02*Y50350D01*
X9800Y50024D02*X10355D01*
X4500Y50425D02*X4575Y50350D01*
X4500Y50875D02*Y50425D01*
Y50875D02*X4575Y50950D01*
X4725D01*
X4800Y50875D01*
Y50425D01*
X4725Y50350D02*X4800Y50425D01*
X4575Y50350D02*X4725D01*
X4500Y50500D02*X4800Y50800D01*
X4980Y50350D02*X5055D01*
X5235Y50425D02*X5310Y50350D01*
X5235Y50875D02*Y50425D01*
Y50875D02*X5310Y50950D01*
X5460D01*
X5535Y50875D01*
Y50425D01*
X5460Y50350D02*X5535Y50425D01*
X5310Y50350D02*X5460D01*
X5235Y50500D02*X5535Y50800D01*
X5715Y50950D02*X6015D01*
X5715D02*Y50650D01*
X5790Y50725D01*
X5940D01*
X6015Y50650D01*
Y50425D01*
X5940Y50350D02*X6015Y50425D01*
X5790Y50350D02*X5940D01*
X5715Y50425D02*X5790Y50350D01*
X6270D02*X6420D01*
X6345Y50950D02*Y50350D01*
X6195Y50800D02*X6345Y50950D01*
X4500Y50024D02*X6600D01*
X6600Y19360D02*Y19040D01*
X6440Y19200D02*X6760D01*
X9400Y5060D02*Y4740D01*
X9240Y4900D02*X9560D01*
X9000Y15260D02*Y14940D01*
X8840Y15100D02*X9160D01*
X9600Y22860D02*Y22540D01*
X9440Y22700D02*X9760D01*
X9600Y23460D02*Y23140D01*
X9440Y23300D02*X9760D01*
X1500Y11860D02*Y11540D01*
X1340Y11700D02*X1660D01*
X1900Y12360D02*Y12040D01*
X1740Y12200D02*X2060D01*
X500Y11460D02*Y11140D01*
X340Y11300D02*X660D01*
X500Y10860D02*Y10540D01*
X340Y10700D02*X660D01*
X10400Y45560D02*Y45240D01*
X10240Y45400D02*X10560D01*
X10400Y46260D02*Y45940D01*
X10240Y46100D02*X10560D01*
X5500Y44560D02*Y44240D01*
X5340Y44400D02*X5660D01*
X5600Y15860D02*Y15540D01*
X5440Y15700D02*X5760D01*
X5600Y15260D02*Y14940D01*
X5440Y15100D02*X5760D01*
X9400Y4460D02*Y4140D01*
X9240Y4300D02*X9560D01*
X4200Y18360D02*Y18040D01*
X4040Y18200D02*X4360D01*
X2200Y15860D02*Y15540D01*
X2040Y15700D02*X2360D01*
X2200Y15260D02*Y14940D01*
X2040Y15100D02*X2360D01*
X7500Y18360D02*Y18040D01*
X7340Y18200D02*X7660D01*
X2200Y18360D02*Y18040D01*
X2040Y18200D02*X2360D01*
X9000Y15860D02*Y15540D01*
X8840Y15700D02*X9160D01*
X4500Y20260D02*Y19940D01*
X4340Y20100D02*X4660D01*
X2200Y24060D02*Y23740D01*
X2040Y23900D02*X2360D01*
X2400Y29060D02*Y28740D01*
X2240Y28900D02*X2560D01*
X8300Y30460D02*Y30140D01*
X8140Y30300D02*X8460D01*
X2200Y27260D02*Y26940D01*
X2040Y27100D02*X2360D01*
X2400Y26360D02*Y26040D01*
X2240Y26200D02*X2560D01*
X2900Y25060D02*Y24740D01*
X2740Y24900D02*X3060D01*
X7200Y30860D02*Y30540D01*
X7040Y30700D02*X7360D01*
X3600Y27460D02*Y27140D01*
X3440Y27300D02*X3760D01*
X7700Y29760D02*Y29440D01*
X7540Y29600D02*X7860D01*
X8900Y29760D02*Y29440D01*
X8740Y29600D02*X9060D01*
X4700Y30960D02*Y30640D01*
X4540Y30800D02*X4860D01*
X5800Y28960D02*Y28640D01*
X5640Y28800D02*X5960D01*
X5300Y29860D02*Y29540D01*
X5140Y29700D02*X5460D01*
X5200Y28460D02*Y28140D01*
X5040Y28300D02*X5360D01*
X2500Y31260D02*Y30940D01*
X2340Y31100D02*X2660D01*
X2500Y33460D02*Y33140D01*
X2340Y33300D02*X2660D01*
X4600Y32860D02*Y32540D01*
X4440Y32700D02*X4760D01*
X4300Y44660D02*Y44340D01*
X4140Y44500D02*X4460D01*
X500Y45560D02*Y45240D01*
X340Y45400D02*X660D01*
X8600Y42960D02*Y42640D01*
X8440Y42800D02*X8760D01*
X6100Y44560D02*Y44240D01*
X5940Y44400D02*X6260D01*
X4900Y34360D02*Y34040D01*
X4740Y34200D02*X5060D01*
X500Y46160D02*Y45840D01*
X340Y46000D02*X660D01*
X3700Y44660D02*Y44340D01*
X3540Y44500D02*X3860D01*
X8900Y40860D02*Y40540D01*
X8740Y40700D02*X9060D01*
X6300Y32960D02*Y32640D01*
X6140Y32800D02*X6460D01*
X7300Y32960D02*Y32640D01*
X7140Y32800D02*X7460D01*
X8800Y31060D02*Y30740D01*
X8640Y30900D02*X8960D01*
X4100Y33860D02*Y33540D01*
X3940Y33700D02*X4260D01*
X9500Y18360D02*Y18040D01*
X9340Y18200D02*X9660D01*
X2750Y37910D02*Y37590D01*
X2590Y37750D02*X2910D01*
X8300Y40860D02*Y40540D01*
X8140Y40700D02*X8460D01*
X7400Y42560D02*Y42240D01*
X7240Y42400D02*X7560D01*
X7400Y41860D02*Y41540D01*
X7240Y41700D02*X7560D01*
X5200Y38960D02*Y38640D01*
X5040Y38800D02*X5360D01*
X5600Y36560D02*Y36240D01*
X5440Y36400D02*X5760D01*
X5500Y41560D02*Y41240D01*
X5340Y41400D02*X5660D01*
X3450Y37910D02*Y37590D01*
X3290Y37750D02*X3610D01*
X500Y10260D02*Y9940D01*
X340Y10100D02*X660D01*
X500Y9660D02*Y9340D01*
X340Y9500D02*X660D01*
X500Y9060D02*Y8740D01*
X340Y8900D02*X660D01*
X500Y8460D02*Y8140D01*
X340Y8300D02*X660D01*
X2300Y7860D02*Y7540D01*
X2140Y7700D02*X2460D01*
X1700Y7860D02*Y7540D01*
X1540Y7700D02*X1860D01*
X1100Y7860D02*Y7540D01*
X940Y7700D02*X1260D01*
X500Y7860D02*Y7540D01*
X340Y7700D02*X660D01*
X4700Y7860D02*Y7540D01*
X4540Y7700D02*X4860D01*
X5300Y7860D02*Y7540D01*
X5140Y7700D02*X5460D01*
X5900Y7860D02*Y7540D01*
X5740Y7700D02*X6060D01*
X6500Y7860D02*Y7540D01*
X6340Y7700D02*X6660D01*
X5300Y7260D02*Y6940D01*
X5140Y7100D02*X5460D01*
X5900Y7260D02*Y6940D01*
X5740Y7100D02*X6060D01*
X6500Y7260D02*Y6940D01*
X6340Y7100D02*X6660D01*
X7800Y7860D02*Y7540D01*
X7640Y7700D02*X7960D01*
X8400Y7860D02*Y7540D01*
X8240Y7700D02*X8560D01*
X7800Y7260D02*Y6940D01*
X7640Y7100D02*X7960D01*
X8400Y7260D02*Y6940D01*
X8240Y7100D02*X8560D01*
X7700Y11960D02*Y11640D01*
X7540Y11800D02*X7860D01*
X8400Y11960D02*Y11640D01*
X8240Y11800D02*X8560D01*
X7700Y40860D02*Y40540D01*
X7540Y40700D02*X7860D01*
X9500Y40860D02*Y40540D01*
X9340Y40700D02*X9660D01*
X1500Y52385D02*Y52065D01*
X1340Y52225D02*X1660D01*
X13500Y52450D02*Y52375D01*
X13650Y52225D01*
X13800Y52375D01*
Y52450D02*Y52375D01*
X13650Y52225D02*Y51850D01*
X13980Y52150D02*X14205D01*
X13980Y51850D02*X14280D01*
X13980Y52450D02*Y51850D01*
Y52450D02*X14280D01*
X14760D02*X14835Y52375D01*
X14535Y52450D02*X14760D01*
X14460Y52375D02*X14535Y52450D01*
X14460Y52375D02*Y52225D01*
X14535Y52150D01*
X14760D01*
X14835Y52075D01*
Y51925D01*
X14760Y51850D02*X14835Y51925D01*
X14535Y51850D02*X14760D01*
X14460Y51925D02*X14535Y51850D01*
X13500Y51524D02*X15015D01*
X9800Y51925D02*X9875Y51850D01*
X9800Y52075D02*Y51925D01*
Y52075D02*X9875Y52150D01*
X10025D01*
X10100Y52075D01*
Y51925D01*
X10025Y51850D02*X10100Y51925D01*
X9875Y51850D02*X10025D01*
X9800Y52225D02*X9875Y52150D01*
X9800Y52375D02*Y52225D01*
Y52375D02*X9875Y52450D01*
X10025D01*
X10100Y52375D01*
Y52225D01*
X10025Y52150D02*X10100Y52225D01*
X10280Y52375D02*X10355Y52450D01*
X10505D01*
X10580Y52375D01*
Y51925D01*
X10505Y51850D02*X10580Y51925D01*
X10355Y51850D02*X10505D01*
X10280Y51925D02*X10355Y51850D01*
Y52150D02*X10580D01*
X9800Y51524D02*X10760D01*
X4500Y51925D02*X4575Y51850D01*
X4500Y52375D02*Y51925D01*
Y52375D02*X4575Y52450D01*
X4725D01*
X4800Y52375D01*
Y51925D01*
X4725Y51850D02*X4800Y51925D01*
X4575Y51850D02*X4725D01*
X4500Y52000D02*X4800Y52300D01*
X4980Y51850D02*X5055D01*
X5235Y51925D02*X5310Y51850D01*
X5235Y52375D02*Y51925D01*
Y52375D02*X5310Y52450D01*
X5460D01*
X5535Y52375D01*
Y51925D01*
X5460Y51850D02*X5535Y51925D01*
X5310Y51850D02*X5460D01*
X5235Y52000D02*X5535Y52300D01*
X5715Y52375D02*X5790Y52450D01*
X6015D01*
X6090Y52375D01*
Y52225D01*
X5715Y51850D02*X6090Y52225D01*
X5715Y51850D02*X6090D01*
X6270Y52450D02*X6570D01*
X6270D02*Y52150D01*
X6345Y52225D01*
X6495D01*
X6570Y52150D01*
Y51925D01*
X6495Y51850D02*X6570Y51925D01*
X6345Y51850D02*X6495D01*
X6270Y51925D02*X6345Y51850D01*
X4500Y51524D02*X6750D01*
X1900Y12800D02*Y12640D01*
Y12800D02*X2038Y12880D01*
X1900Y12800D02*X1761Y12880D01*
X8900Y34250D02*Y34090D01*
Y34250D02*X9038Y34330D01*
X8900Y34250D02*X8761Y34330D01*
X3500Y20600D02*Y20440D01*
Y20600D02*X3638Y20680D01*
X3500Y20600D02*X3361Y20680D01*
X3500Y20000D02*Y19840D01*
Y20000D02*X3638Y20080D01*
X3500Y20000D02*X3361Y20080D01*
X1500Y53725D02*Y53565D01*
Y53725D02*X1638Y53805D01*
X1500Y53725D02*X1361Y53805D01*
X13500Y53950D02*Y53875D01*
X13650Y53725D01*
X13800Y53875D01*
Y53950D02*Y53875D01*
X13650Y53725D02*Y53350D01*
X13980Y53650D02*X14205D01*
X13980Y53350D02*X14280D01*
X13980Y53950D02*Y53350D01*
Y53950D02*X14280D01*
X14760D02*X14835Y53875D01*
X14535Y53950D02*X14760D01*
X14460Y53875D02*X14535Y53950D01*
X14460Y53875D02*Y53725D01*
X14535Y53650D01*
X14760D01*
X14835Y53575D01*
Y53425D01*
X14760Y53350D02*X14835Y53425D01*
X14535Y53350D02*X14760D01*
X14460Y53425D02*X14535Y53350D01*
X13500Y53024D02*X15015D01*
X9800Y53650D02*X10100Y53950D01*
X9800Y53650D02*X10175D01*
X10100Y53950D02*Y53350D01*
X9800Y53024D02*X10355D01*
X4500Y53425D02*X4575Y53350D01*
X4500Y53875D02*Y53425D01*
Y53875D02*X4575Y53950D01*
X4725D01*
X4800Y53875D01*
Y53425D01*
X4725Y53350D02*X4800Y53425D01*
X4575Y53350D02*X4725D01*
X4500Y53500D02*X4800Y53800D01*
X4980Y53350D02*X5055D01*
X5235Y53425D02*X5310Y53350D01*
X5235Y53875D02*Y53425D01*
Y53875D02*X5310Y53950D01*
X5460D01*
X5535Y53875D01*
Y53425D01*
X5460Y53350D02*X5535Y53425D01*
X5310Y53350D02*X5460D01*
X5235Y53500D02*X5535Y53800D01*
X5715Y53875D02*X5790Y53950D01*
X6015D01*
X6090Y53875D01*
Y53725D01*
X5715Y53350D02*X6090Y53725D01*
X5715Y53350D02*X6090D01*
X6270Y53425D02*X6345Y53350D01*
X6270Y53875D02*Y53425D01*
Y53875D02*X6345Y53950D01*
X6495D01*
X6570Y53875D01*
Y53425D01*
X6495Y53350D02*X6570Y53425D01*
X6345Y53350D02*X6495D01*
X6270Y53500D02*X6570Y53800D01*
X4500Y53024D02*X6750D01*
X300Y55450D02*X375Y55375D01*
X75Y55450D02*X300D01*
X0Y55375D02*X75Y55450D01*
X0Y55375D02*Y55225D01*
X75Y55150D01*
X300D01*
X375Y55075D01*
Y54925D01*
X300Y54850D02*X375Y54925D01*
X75Y54850D02*X300D01*
X0Y54925D02*X75Y54850D01*
X555Y55150D02*Y54925D01*
X630Y54850D01*
X855Y55150D02*Y54700D01*
X780Y54625D02*X855Y54700D01*
X630Y54625D02*X780D01*
X555Y54700D02*X630Y54625D01*
Y54850D02*X780D01*
X855Y54925D01*
X1110Y55075D02*Y54850D01*
Y55075D02*X1185Y55150D01*
X1260D01*
X1335Y55075D01*
Y54850D01*
Y55075D02*X1410Y55150D01*
X1485D01*
X1560Y55075D01*
Y54850D01*
X1035Y55150D02*X1110Y55075D01*
X1740Y55450D02*Y54850D01*
Y54925D02*X1815Y54850D01*
X1965D01*
X2040Y54925D01*
Y55075D02*Y54925D01*
X1965Y55150D02*X2040Y55075D01*
X1815Y55150D02*X1965D01*
X1740Y55075D02*X1815Y55150D01*
X2220Y55075D02*Y54925D01*
Y55075D02*X2295Y55150D01*
X2445D01*
X2520Y55075D01*
Y54925D01*
X2445Y54850D02*X2520Y54925D01*
X2295Y54850D02*X2445D01*
X2220Y54925D02*X2295Y54850D01*
X2700Y55450D02*Y54925D01*
X2775Y54850D01*
X4175Y55450D02*Y54850D01*
X4400Y55450D02*X4475Y55375D01*
Y54925D01*
X4400Y54850D02*X4475Y54925D01*
X4100Y54850D02*X4400D01*
X4100Y55450D02*X4400D01*
X4655Y55300D02*Y55225D01*
Y55075D02*Y54850D01*
X5030Y55150D02*X5105Y55075D01*
X4880Y55150D02*X5030D01*
X4805Y55075D02*X4880Y55150D01*
X4805Y55075D02*Y54925D01*
X4880Y54850D01*
X5105Y55150D02*Y54925D01*
X5180Y54850D01*
X4880D02*X5030D01*
X5105Y54925D01*
X5435Y55075D02*Y54850D01*
Y55075D02*X5510Y55150D01*
X5585D01*
X5660Y55075D01*
Y54850D01*
Y55075D02*X5735Y55150D01*
X5810D01*
X5885Y55075D01*
Y54850D01*
X5360Y55150D02*X5435Y55075D01*
X6065Y54850D02*X6140D01*
X6590Y54925D02*X6665Y54850D01*
X6590Y55375D02*X6665Y55450D01*
X6590Y55375D02*Y54925D01*
X6845Y55450D02*X6995D01*
X6920D02*Y54850D01*
X6845D02*X6995D01*
X7251Y55075D02*Y54850D01*
Y55075D02*X7326Y55150D01*
X7401D01*
X7476Y55075D01*
Y54850D01*
X7176Y55150D02*X7251Y55075D01*
X7731Y55150D02*X7956D01*
X7656Y55075D02*X7731Y55150D01*
X7656Y55075D02*Y54925D01*
X7731Y54850D01*
X7956D01*
X8136Y55450D02*Y54850D01*
Y55075D02*X8211Y55150D01*
X8361D01*
X8436Y55075D01*
Y54850D01*
X8616Y55450D02*X8691Y55375D01*
Y54925D01*
X8616Y54850D02*X8691Y54925D01*
X9575Y54850D02*X9800D01*
X9500Y54925D02*X9575Y54850D01*
X9500Y55375D02*Y54925D01*
Y55375D02*X9575Y55450D01*
X9800D01*
X9980Y55075D02*Y54925D01*
Y55075D02*X10055Y55150D01*
X10205D01*
X10280Y55075D01*
Y54925D01*
X10205Y54850D02*X10280Y54925D01*
X10055Y54850D02*X10205D01*
X9980Y54925D02*X10055Y54850D01*
X10460Y55150D02*Y54925D01*
X10535Y54850D01*
X10685D01*
X10760Y54925D01*
Y55150D02*Y54925D01*
X11015Y55075D02*Y54850D01*
Y55075D02*X11090Y55150D01*
X11165D01*
X11240Y55075D01*
Y54850D01*
X10940Y55150D02*X11015Y55075D01*
X11495Y55450D02*Y54925D01*
X11570Y54850D01*
X11420Y55225D02*X11570D01*
X13075Y55450D02*Y54850D01*
X13000Y55450D02*X13300D01*
X13375Y55375D01*
Y55225D01*
X13300Y55150D02*X13375Y55225D01*
X13075Y55150D02*X13300D01*
X13555Y55450D02*Y54925D01*
X13630Y54850D01*
X14005Y55150D02*X14080Y55075D01*
X13855Y55150D02*X14005D01*
X13780Y55075D02*X13855Y55150D01*
X13780Y55075D02*Y54925D01*
X13855Y54850D01*
X14080Y55150D02*Y54925D01*
X14155Y54850D01*
X13855D02*X14005D01*
X14080Y54925D01*
X14410Y55450D02*Y54925D01*
X14485Y54850D01*
X14335Y55225D02*X14485D01*
X14710Y54850D02*X14935D01*
X14635Y54925D02*X14710Y54850D01*
X14635Y55075D02*Y54925D01*
Y55075D02*X14710Y55150D01*
X14860D01*
X14935Y55075D01*
X14635Y55000D02*X14935D01*
Y55075D02*Y55000D01*
X15415Y55450D02*Y54850D01*
X15340D02*X15415Y54925D01*
X15190Y54850D02*X15340D01*
X15115Y54925D02*X15190Y54850D01*
X15115Y55075D02*Y54925D01*
Y55075D02*X15190Y55150D01*
X15340D01*
X15415Y55075D01*
X15745Y55150D02*Y55075D01*
Y54925D02*Y54850D01*
X15595Y55375D02*Y55300D01*
Y55375D02*X15670Y55450D01*
X15820D01*
X15895Y55375D01*
Y55300D01*
X15745Y55150D02*X15895Y55300D01*
X0Y56950D02*X300D01*
X150D02*Y56350D01*
X480Y56950D02*Y56350D01*
Y56575D02*X555Y56650D01*
X705D01*
X780Y56575D01*
Y56350D01*
X1035D02*X1260D01*
X960Y56425D02*X1035Y56350D01*
X960Y56575D02*Y56425D01*
Y56575D02*X1035Y56650D01*
X1185D01*
X1260Y56575D01*
X960Y56500D02*X1260D01*
Y56575D02*Y56500D01*
X1515Y56575D02*Y56350D01*
Y56575D02*X1590Y56650D01*
X1740D01*
X1440D02*X1515Y56575D01*
X1995Y56350D02*X2220D01*
X1920Y56425D02*X1995Y56350D01*
X1920Y56575D02*Y56425D01*
Y56575D02*X1995Y56650D01*
X2145D01*
X2220Y56575D01*
X1920Y56500D02*X2220D01*
Y56575D02*Y56500D01*
X2895Y56650D02*X2970Y56575D01*
X2745Y56650D02*X2895D01*
X2670Y56575D02*X2745Y56650D01*
X2670Y56575D02*Y56425D01*
X2745Y56350D01*
X2970Y56650D02*Y56425D01*
X3045Y56350D01*
X2745D02*X2895D01*
X2970Y56425D01*
X3300Y56575D02*Y56350D01*
Y56575D02*X3375Y56650D01*
X3525D01*
X3225D02*X3300Y56575D01*
X3781Y56350D02*X4006D01*
X3706Y56425D02*X3781Y56350D01*
X3706Y56575D02*Y56425D01*
Y56575D02*X3781Y56650D01*
X3931D01*
X4006Y56575D01*
X3706Y56500D02*X4006D01*
Y56575D02*Y56500D01*
X4456Y56650D02*X4756Y56950D01*
X4456Y56650D02*X4831D01*
X4756Y56950D02*Y56350D01*
X5581Y56950D02*Y56350D01*
X5506D02*X5581Y56425D01*
X5356Y56350D02*X5506D01*
X5281Y56425D02*X5356Y56350D01*
X5281Y56575D02*Y56425D01*
Y56575D02*X5356Y56650D01*
X5506D01*
X5581Y56575D01*
X5761Y56800D02*Y56725D01*
Y56575D02*Y56350D01*
X5986Y56875D02*Y56350D01*
Y56875D02*X6061Y56950D01*
X6136D01*
X5911Y56650D02*X6061D01*
X6361Y56875D02*Y56350D01*
Y56875D02*X6436Y56950D01*
X6511D01*
X6286Y56650D02*X6436D01*
X6736Y56350D02*X6961D01*
X6661Y56425D02*X6736Y56350D01*
X6661Y56575D02*Y56425D01*
Y56575D02*X6736Y56650D01*
X6886D01*
X6961Y56575D01*
X6661Y56500D02*X6961D01*
Y56575D02*Y56500D01*
X7217Y56575D02*Y56350D01*
Y56575D02*X7292Y56650D01*
X7442D01*
X7142D02*X7217Y56575D01*
X7697Y56350D02*X7922D01*
X7622Y56425D02*X7697Y56350D01*
X7622Y56575D02*Y56425D01*
Y56575D02*X7697Y56650D01*
X7847D01*
X7922Y56575D01*
X7622Y56500D02*X7922D01*
Y56575D02*Y56500D01*
X8177Y56575D02*Y56350D01*
Y56575D02*X8252Y56650D01*
X8327D01*
X8402Y56575D01*
Y56350D01*
X8102Y56650D02*X8177Y56575D01*
X8657Y56950D02*Y56425D01*
X8732Y56350D01*
X8582Y56725D02*X8732D01*
X9452Y56950D02*Y56350D01*
X9377D02*X9452Y56425D01*
X9227Y56350D02*X9377D01*
X9152Y56425D02*X9227Y56350D01*
X9152Y56575D02*Y56425D01*
Y56575D02*X9227Y56650D01*
X9377D01*
X9452Y56575D01*
X9707D02*Y56350D01*
Y56575D02*X9782Y56650D01*
X9932D01*
X9632D02*X9707Y56575D01*
X10113Y56800D02*Y56725D01*
Y56575D02*Y56350D01*
X10263Y56950D02*Y56425D01*
X10338Y56350D01*
X10488Y56950D02*Y56425D01*
X10563Y56350D01*
X11058D02*X11283D01*
X11358Y56425D01*
X11283Y56500D02*X11358Y56425D01*
X11058Y56500D02*X11283D01*
X10983Y56575D02*X11058Y56500D01*
X10983Y56575D02*X11058Y56650D01*
X11283D01*
X11358Y56575D01*
X10983Y56425D02*X11058Y56350D01*
X11538Y56800D02*Y56725D01*
Y56575D02*Y56350D01*
X11688Y56650D02*X11988D01*
X11688Y56350D02*X11988Y56650D01*
X11688Y56350D02*X11988D01*
X12243D02*X12468D01*
X12168Y56425D02*X12243Y56350D01*
X12168Y56575D02*Y56425D01*
Y56575D02*X12243Y56650D01*
X12393D01*
X12468Y56575D01*
X12168Y56500D02*X12468D01*
Y56575D02*Y56500D01*
X12724Y56350D02*X12949D01*
X13024Y56425D01*
X12949Y56500D02*X13024Y56425D01*
X12724Y56500D02*X12949D01*
X12649Y56575D02*X12724Y56500D01*
X12649Y56575D02*X12724Y56650D01*
X12949D01*
X13024Y56575D01*
X12649Y56425D02*X12724Y56350D01*
X13474Y56650D02*Y56425D01*
X13549Y56350D01*
X13699D01*
X13774Y56425D01*
Y56650D02*Y56425D01*
X14029Y56350D02*X14254D01*
X14329Y56425D01*
X14254Y56500D02*X14329Y56425D01*
X14029Y56500D02*X14254D01*
X13954Y56575D02*X14029Y56500D01*
X13954Y56575D02*X14029Y56650D01*
X14254D01*
X14329Y56575D01*
X13954Y56425D02*X14029Y56350D01*
X14584D02*X14809D01*
X14509Y56425D02*X14584Y56350D01*
X14509Y56575D02*Y56425D01*
Y56575D02*X14584Y56650D01*
X14734D01*
X14809Y56575D01*
X14509Y56500D02*X14809D01*
Y56575D02*Y56500D01*
X15289Y56950D02*Y56350D01*
X15214D02*X15289Y56425D01*
X15064Y56350D02*X15214D01*
X14989Y56425D02*X15064Y56350D01*
X14989Y56575D02*Y56425D01*
Y56575D02*X15064Y56650D01*
X15214D01*
X15289Y56575D01*
X15739Y56800D02*Y56725D01*
Y56575D02*Y56350D01*
X15964Y56575D02*Y56350D01*
Y56575D02*X16039Y56650D01*
X16114D01*
X16189Y56575D01*
Y56350D01*
X15889Y56650D02*X15964Y56575D01*
X16715Y56950D02*Y56425D01*
X16790Y56350D01*
X16640Y56725D02*X16790D01*
X16940Y56950D02*Y56350D01*
Y56575D02*X17015Y56650D01*
X17165D01*
X17240Y56575D01*
Y56350D01*
X17420Y56800D02*Y56725D01*
Y56575D02*Y56350D01*
X17645D02*X17870D01*
X17945Y56425D01*
X17870Y56500D02*X17945Y56425D01*
X17645Y56500D02*X17870D01*
X17570Y56575D02*X17645Y56500D01*
X17570Y56575D02*X17645Y56650D01*
X17870D01*
X17945Y56575D01*
X17570Y56425D02*X17645Y56350D01*
X18395Y56950D02*Y56425D01*
X18470Y56350D01*
X18845Y56650D02*X18920Y56575D01*
X18695Y56650D02*X18845D01*
X18620Y56575D02*X18695Y56650D01*
X18620Y56575D02*Y56425D01*
X18695Y56350D01*
X18920Y56650D02*Y56425D01*
X18995Y56350D01*
X18695D02*X18845D01*
X18920Y56425D01*
X19176Y56650D02*Y56425D01*
X19251Y56350D01*
X19476Y56650D02*Y56200D01*
X19401Y56125D02*X19476Y56200D01*
X19251Y56125D02*X19401D01*
X19176Y56200D02*X19251Y56125D01*
Y56350D02*X19401D01*
X19476Y56425D01*
X19656Y56575D02*Y56425D01*
Y56575D02*X19731Y56650D01*
X19881D01*
X19956Y56575D01*
Y56425D01*
X19881Y56350D02*X19956Y56425D01*
X19731Y56350D02*X19881D01*
X19656Y56425D02*X19731Y56350D01*
X20136Y56650D02*Y56425D01*
X20211Y56350D01*
X20361D01*
X20436Y56425D01*
Y56650D02*Y56425D01*
X20691Y56950D02*Y56425D01*
X20766Y56350D01*
X20616Y56725D02*X20766D01*
X20916Y56200D02*X21066Y56350D01*
X21516D02*X21816Y56650D01*
Y56875D02*Y56650D01*
X21741Y56950D02*X21816Y56875D01*
X21591Y56950D02*X21741D01*
X21516Y56875D02*X21591Y56950D01*
X21516Y56875D02*Y56725D01*
X21591Y56650D01*
X21816D01*
X21996D02*X22296Y56950D01*
X21996Y56650D02*X22371D01*
X22296Y56950D02*Y56350D01*
X22822Y56950D02*Y56350D01*
Y56575D02*X22897Y56650D01*
X23047D01*
X23122Y56575D01*
Y56350D01*
X23302Y56575D02*Y56425D01*
Y56575D02*X23377Y56650D01*
X23527D01*
X23602Y56575D01*
Y56425D01*
X23527Y56350D02*X23602Y56425D01*
X23377Y56350D02*X23527D01*
X23302Y56425D02*X23377Y56350D01*
X23782Y56950D02*Y56425D01*
X23857Y56350D01*
X24082D02*X24307D01*
X24007Y56425D02*X24082Y56350D01*
X24007Y56575D02*Y56425D01*
Y56575D02*X24082Y56650D01*
X24232D01*
X24307Y56575D01*
X24007Y56500D02*X24307D01*
Y56575D02*Y56500D01*
X24562Y56350D02*X24787D01*
X24862Y56425D01*
X24787Y56500D02*X24862Y56425D01*
X24562Y56500D02*X24787D01*
X24487Y56575D02*X24562Y56500D01*
X24487Y56575D02*X24562Y56650D01*
X24787D01*
X24862Y56575D01*
X24487Y56425D02*X24562Y56350D01*
X25387Y56950D02*Y56425D01*
X25462Y56350D01*
X25312Y56725D02*X25462D01*
X25612Y56575D02*Y56425D01*
Y56575D02*X25687Y56650D01*
X25837D01*
X25912Y56575D01*
Y56425D01*
X25837Y56350D02*X25912Y56425D01*
X25687Y56350D02*X25837D01*
X25612Y56425D02*X25687Y56350D01*
X26168Y56950D02*Y56425D01*
X26243Y56350D01*
X26093Y56725D02*X26243D01*
X26618Y56650D02*X26693Y56575D01*
X26468Y56650D02*X26618D01*
X26393Y56575D02*X26468Y56650D01*
X26393Y56575D02*Y56425D01*
X26468Y56350D01*
X26693Y56650D02*Y56425D01*
X26768Y56350D01*
X26468D02*X26618D01*
X26693Y56425D01*
X26948Y56950D02*Y56425D01*
X27023Y56350D01*
G54D16*X0Y0D02*X11300D01*
X0Y48100D02*X11300D01*
Y0D01*
X0Y48100D02*Y0D01*
G54D48*Y-950D02*X300D01*
X375Y-875D01*
Y-725D02*Y-875D01*
X300Y-650D02*X375Y-725D01*
X75Y-650D02*X300D01*
X75Y-350D02*Y-950D01*
X0Y-350D02*X300D01*
X375Y-425D01*
Y-575D01*
X300Y-650D02*X375Y-575D01*
X555Y-725D02*Y-875D01*
Y-725D02*X630Y-650D01*
X780D01*
X855Y-725D01*
Y-875D01*
X780Y-950D02*X855Y-875D01*
X630Y-950D02*X780D01*
X555Y-875D02*X630Y-950D01*
X1260Y-650D02*X1335Y-725D01*
X1110Y-650D02*X1260D01*
X1035Y-725D02*X1110Y-650D01*
X1035Y-725D02*Y-875D01*
X1110Y-950D01*
X1335Y-650D02*Y-875D01*
X1410Y-950D01*
X1110D02*X1260D01*
X1335Y-875D01*
X1665Y-725D02*Y-950D01*
Y-725D02*X1740Y-650D01*
X1890D01*
X1590D02*X1665Y-725D01*
X2370Y-350D02*Y-950D01*
X2295D02*X2370Y-875D01*
X2145Y-950D02*X2295D01*
X2070Y-875D02*X2145Y-950D01*
X2070Y-725D02*Y-875D01*
Y-725D02*X2145Y-650D01*
X2295D01*
X2370Y-725D01*
X2820D02*Y-875D01*
Y-725D02*X2895Y-650D01*
X3045D01*
X3120Y-725D01*
Y-875D01*
X3045Y-950D02*X3120Y-875D01*
X2895Y-950D02*X3045D01*
X2820Y-875D02*X2895Y-950D01*
X3300Y-650D02*Y-875D01*
X3375Y-950D01*
X3525D01*
X3600Y-875D01*
Y-650D02*Y-875D01*
X3856Y-350D02*Y-875D01*
X3931Y-950D01*
X3781Y-575D02*X3931D01*
X4081Y-350D02*Y-875D01*
X4156Y-950D01*
X4306Y-500D02*Y-575D01*
Y-725D02*Y-950D01*
X4531Y-725D02*Y-950D01*
Y-725D02*X4606Y-650D01*
X4681D01*
X4756Y-725D01*
Y-950D01*
X4456Y-650D02*X4531Y-725D01*
X5011Y-950D02*X5236D01*
X4936Y-875D02*X5011Y-950D01*
X4936Y-725D02*Y-875D01*
Y-725D02*X5011Y-650D01*
X5161D01*
X5236Y-725D01*
X4936Y-800D02*X5236D01*
Y-725D02*Y-800D01*
X5686Y-500D02*Y-575D01*
Y-725D02*Y-950D01*
X5911D02*X6136D01*
X6211Y-875D01*
X6136Y-800D02*X6211Y-875D01*
X5911Y-800D02*X6136D01*
X5836Y-725D02*X5911Y-800D01*
X5836Y-725D02*X5911Y-650D01*
X6136D01*
X6211Y-725D01*
X5836Y-875D02*X5911Y-950D01*
X6737Y-350D02*Y-875D01*
X6812Y-950D01*
X6662Y-575D02*X6812D01*
X6962Y-350D02*Y-950D01*
Y-725D02*X7037Y-650D01*
X7187D01*
X7262Y-725D01*
Y-950D01*
X7517D02*X7742D01*
X7442Y-875D02*X7517Y-950D01*
X7442Y-725D02*Y-875D01*
Y-725D02*X7517Y-650D01*
X7667D01*
X7742Y-725D01*
X7442Y-800D02*X7742D01*
Y-725D02*Y-800D01*
X8267Y-650D02*X8492D01*
X8192Y-725D02*X8267Y-650D01*
X8192Y-725D02*Y-875D01*
X8267Y-950D01*
X8492D01*
X8747D02*X8972D01*
X8672Y-875D02*X8747Y-950D01*
X8672Y-725D02*Y-875D01*
Y-725D02*X8747Y-650D01*
X8897D01*
X8972Y-725D01*
X8672Y-800D02*X8972D01*
Y-725D02*Y-800D01*
X9227Y-725D02*Y-950D01*
Y-725D02*X9302Y-650D01*
X9377D01*
X9452Y-725D01*
Y-950D01*
X9152Y-650D02*X9227Y-725D01*
X9708Y-350D02*Y-875D01*
X9783Y-950D01*
X9633Y-575D02*X9783D01*
X10008Y-950D02*X10233D01*
X9933Y-875D02*X10008Y-950D01*
X9933Y-725D02*Y-875D01*
Y-725D02*X10008Y-650D01*
X10158D01*
X10233Y-725D01*
X9933Y-800D02*X10233D01*
Y-725D02*Y-800D01*
X10488Y-725D02*Y-950D01*
Y-725D02*X10563Y-650D01*
X10713D01*
X10413D02*X10488Y-725D01*
X10893Y-350D02*Y-875D01*
X10968Y-950D01*
X11118Y-500D02*Y-575D01*
Y-725D02*Y-950D01*
X11343Y-725D02*Y-950D01*
Y-725D02*X11418Y-650D01*
X11493D01*
X11568Y-725D01*
Y-950D01*
X11268Y-650D02*X11343Y-725D01*
X11823Y-950D02*X12048D01*
X11748Y-875D02*X11823Y-950D01*
X11748Y-725D02*Y-875D01*
Y-725D02*X11823Y-650D01*
X11973D01*
X12048Y-725D01*
X11748Y-800D02*X12048D01*
Y-725D02*Y-800D01*
X12499Y-725D02*Y-875D01*
Y-725D02*X12574Y-650D01*
X12724D01*
X12799Y-725D01*
Y-875D01*
X12724Y-950D02*X12799Y-875D01*
X12574Y-950D02*X12724D01*
X12499Y-875D02*X12574Y-950D01*
X13054Y-425D02*Y-950D01*
Y-425D02*X13129Y-350D01*
X13204D01*
X12979Y-650D02*X13129D01*
X13699Y-350D02*Y-875D01*
X13774Y-950D01*
X13624Y-575D02*X13774D01*
X13924Y-350D02*Y-950D01*
Y-725D02*X13999Y-650D01*
X14149D01*
X14224Y-725D01*
Y-950D01*
X14404Y-500D02*Y-575D01*
Y-725D02*Y-950D01*
X14629D02*X14854D01*
X14929Y-875D01*
X14854Y-800D02*X14929Y-875D01*
X14629Y-800D02*X14854D01*
X14554Y-725D02*X14629Y-800D01*
X14554Y-725D02*X14629Y-650D01*
X14854D01*
X14929Y-725D01*
X14554Y-875D02*X14629Y-950D01*
X15454Y-725D02*Y-1175D01*
X15379Y-650D02*X15454Y-725D01*
X15529Y-650D01*
X15679D01*
X15754Y-725D01*
Y-875D01*
X15679Y-950D02*X15754Y-875D01*
X15529Y-950D02*X15679D01*
X15454Y-875D02*X15529Y-950D01*
X16160Y-650D02*X16235Y-725D01*
X16010Y-650D02*X16160D01*
X15935Y-725D02*X16010Y-650D01*
X15935Y-725D02*Y-875D01*
X16010Y-950D01*
X16235Y-650D02*Y-875D01*
X16310Y-950D01*
X16010D02*X16160D01*
X16235Y-875D01*
X16565Y-350D02*Y-875D01*
X16640Y-950D01*
X16490Y-575D02*X16640D01*
X16790Y-350D02*Y-950D01*
Y-725D02*X16865Y-650D01*
X17015D01*
X17090Y-725D01*
Y-950D01*
X20075Y50950D02*Y50350D01*
X20300Y50950D02*X20375Y50875D01*
Y50425D01*
X20300Y50350D02*X20375Y50425D01*
X20000Y50350D02*X20300D01*
X20000Y50950D02*X20300D01*
X20780Y50650D02*X20855Y50575D01*
X20630Y50650D02*X20780D01*
X20555Y50575D02*X20630Y50650D01*
X20555Y50575D02*Y50425D01*
X20630Y50350D01*
X20855Y50650D02*Y50425D01*
X20930Y50350D01*
X20630D02*X20780D01*
X20855Y50425D01*
X21185Y50950D02*Y50425D01*
X21260Y50350D01*
X21110Y50725D02*X21260D01*
X21485Y50350D02*X21710D01*
X21410Y50425D02*X21485Y50350D01*
X21410Y50575D02*Y50425D01*
Y50575D02*X21485Y50650D01*
X21635D01*
X21710Y50575D01*
X21410Y50500D02*X21710D01*
Y50575D02*Y50500D01*
X21890Y50725D02*X21965D01*
X21890Y50575D02*X21965D01*
X22715Y50950D02*X22790Y50875D01*
X22490Y50950D02*X22715D01*
X22415Y50875D02*X22490Y50950D01*
X22415Y50875D02*Y50725D01*
X22490Y50650D01*
X22715D01*
X22790Y50575D01*
Y50425D01*
X22715Y50350D02*X22790Y50425D01*
X22490Y50350D02*X22715D01*
X22415Y50425D02*X22490Y50350D01*
X22970Y50650D02*Y50425D01*
X23045Y50350D01*
X23195D01*
X23270Y50425D01*
Y50650D02*Y50425D01*
X23526Y50575D02*Y50350D01*
Y50575D02*X23601Y50650D01*
X23676D01*
X23751Y50575D01*
Y50350D01*
X23451Y50650D02*X23526Y50575D01*
X24201Y50950D02*X24426D01*
Y50425D01*
X24351Y50350D02*X24426Y50425D01*
X24276Y50350D02*X24351D01*
X24201Y50425D02*X24276Y50350D01*
X24606Y50650D02*Y50425D01*
X24681Y50350D01*
X24831D01*
X24906Y50425D01*
Y50650D02*Y50425D01*
X25086Y50950D02*Y50425D01*
X25161Y50350D01*
X25581Y50875D02*X25656Y50950D01*
X25881D01*
X25956Y50875D01*
Y50725D01*
X25581Y50350D02*X25956Y50725D01*
X25581Y50350D02*X25956D01*
X26361Y50950D02*X26436Y50875D01*
X26211Y50950D02*X26361D01*
X26136Y50875D02*X26211Y50950D01*
X26136Y50875D02*Y50425D01*
X26211Y50350D01*
X26361Y50650D02*X26436Y50575D01*
X26136Y50650D02*X26361D01*
X26211Y50350D02*X26361D01*
X26436Y50425D01*
Y50575D02*Y50425D01*
X26886Y50875D02*X26961Y50950D01*
X27186D01*
X27261Y50875D01*
Y50725D01*
X26886Y50350D02*X27261Y50725D01*
X26886Y50350D02*X27261D01*
X27442Y50425D02*X27517Y50350D01*
X27442Y50875D02*Y50425D01*
Y50875D02*X27517Y50950D01*
X27667D01*
X27742Y50875D01*
Y50425D01*
X27667Y50350D02*X27742Y50425D01*
X27517Y50350D02*X27667D01*
X27442Y50500D02*X27742Y50800D01*
X27922Y50725D02*X27997D01*
X27922Y50575D02*X27997D01*
X28177Y50875D02*X28252Y50950D01*
X28402D01*
X28477Y50875D01*
Y50425D01*
X28402Y50350D02*X28477Y50425D01*
X28252Y50350D02*X28402D01*
X28177Y50425D02*X28252Y50350D01*
Y50650D02*X28477D01*
X28657Y50875D02*X28732Y50950D01*
X28882D01*
X28957Y50875D01*
Y50425D01*
X28882Y50350D02*X28957Y50425D01*
X28732Y50350D02*X28882D01*
X28657Y50425D02*X28732Y50350D01*
Y50650D02*X28957D01*
X29137Y50725D02*X29212D01*
X29137Y50575D02*X29212D01*
X29392Y50950D02*X29692D01*
X29392D02*Y50650D01*
X29467Y50725D01*
X29617D01*
X29692Y50650D01*
Y50425D01*
X29617Y50350D02*X29692Y50425D01*
X29467Y50350D02*X29617D01*
X29392Y50425D02*X29467Y50350D01*
X29873Y50425D02*X29948Y50350D01*
X29873Y50575D02*Y50425D01*
Y50575D02*X29948Y50650D01*
X30098D01*
X30173Y50575D01*
Y50425D01*
X30098Y50350D02*X30173Y50425D01*
X29948Y50350D02*X30098D01*
X29873Y50725D02*X29948Y50650D01*
X29873Y50875D02*Y50725D01*
Y50875D02*X29948Y50950D01*
X30098D01*
X30173Y50875D01*
Y50725D01*
X30098Y50650D02*X30173Y50725D01*
X30623Y50875D02*X30698Y50950D01*
X30923D01*
X30998Y50875D01*
Y50725D01*
X30623Y50350D02*X30998Y50725D01*
X30623Y50350D02*X30998D01*
X31178Y50425D02*X31253Y50350D01*
X31178Y50875D02*Y50425D01*
Y50875D02*X31253Y50950D01*
X31403D01*
X31478Y50875D01*
Y50425D01*
X31403Y50350D02*X31478Y50425D01*
X31253Y50350D02*X31403D01*
X31178Y50500D02*X31478Y50800D01*
X31658Y50425D02*X31733Y50350D01*
X31658Y50875D02*Y50425D01*
Y50875D02*X31733Y50950D01*
X31883D01*
X31958Y50875D01*
Y50425D01*
X31883Y50350D02*X31958Y50425D01*
X31733Y50350D02*X31883D01*
X31658Y50500D02*X31958Y50800D01*
X32138Y50350D02*X32438Y50650D01*
Y50875D02*Y50650D01*
X32363Y50950D02*X32438Y50875D01*
X32213Y50950D02*X32363D01*
X32138Y50875D02*X32213Y50950D01*
X32138Y50875D02*Y50725D01*
X32213Y50650D01*
X32438D01*
X32888Y50950D02*Y50425D01*
X32963Y50350D01*
X33113D01*
X33188Y50425D01*
Y50950D02*Y50425D01*
X33368Y50950D02*X33668D01*
X33518D02*Y50350D01*
X33924D02*X34149D01*
X33849Y50425D02*X33924Y50350D01*
X33849Y50875D02*Y50425D01*
Y50875D02*X33924Y50950D01*
X34149D01*
X20000Y52375D02*Y51850D01*
Y52375D02*X20075Y52450D01*
X20300D01*
X20375Y52375D01*
Y51850D01*
X20000Y52150D02*X20375D01*
X20555D02*Y51925D01*
X20630Y51850D01*
X20780D01*
X20855Y51925D01*
Y52150D02*Y51925D01*
X21110Y52450D02*Y51925D01*
X21185Y51850D01*
X21035Y52225D02*X21185D01*
X21335Y52450D02*Y51850D01*
Y52075D02*X21410Y52150D01*
X21560D01*
X21635Y52075D01*
Y51850D01*
X21815Y52075D02*Y51925D01*
Y52075D02*X21890Y52150D01*
X22040D01*
X22115Y52075D01*
Y51925D01*
X22040Y51850D02*X22115Y51925D01*
X21890Y51850D02*X22040D01*
X21815Y51925D02*X21890Y51850D01*
X22370Y52075D02*Y51850D01*
Y52075D02*X22445Y52150D01*
X22595D01*
X22295D02*X22370Y52075D01*
X22775Y52225D02*X22850D01*
X22775Y52075D02*X22850D01*
X23376Y52450D02*Y51850D01*
X23601Y52450D02*X23676Y52375D01*
Y51925D01*
X23601Y51850D02*X23676Y51925D01*
X23301Y51850D02*X23601D01*
X23301Y52450D02*X23601D01*
X24081Y52150D02*X24156Y52075D01*
X23931Y52150D02*X24081D01*
X23856Y52075D02*X23931Y52150D01*
X23856Y52075D02*Y51925D01*
X23931Y51850D01*
X24156Y52150D02*Y51925D01*
X24231Y51850D01*
X23931D02*X24081D01*
X24156Y51925D01*
X24411Y52150D02*Y52000D01*
X24561Y51850D01*
X24711Y52000D01*
Y52150D02*Y52000D01*
X24891Y52300D02*Y52225D01*
Y52075D02*Y51850D01*
X25341Y52450D02*Y51850D01*
X25266D02*X25341Y51925D01*
X25116Y51850D02*X25266D01*
X25041Y51925D02*X25116Y51850D01*
X25041Y52075D02*Y51925D01*
Y52075D02*X25116Y52150D01*
X25266D01*
X25341Y52075D01*
X25791Y52150D02*X26016D01*
X25791Y51850D02*X26091D01*
X25791Y52450D02*Y51850D01*
Y52450D02*X26091D01*
X26271D02*Y51925D01*
X26346Y51850D01*
X26497Y52450D02*Y51925D01*
X26572Y51850D01*
X26797D02*X27022D01*
X27097Y51925D01*
X27022Y52000D02*X27097Y51925D01*
X26797Y52000D02*X27022D01*
X26722Y52075D02*X26797Y52000D01*
X26722Y52075D02*X26797Y52150D01*
X27022D01*
X27097Y52075D01*
X26722Y51925D02*X26797Y51850D01*
X27277Y52150D02*Y51925D01*
X27352Y51850D01*
X27427D01*
X27502Y51925D01*
Y52150D02*Y51925D01*
X27577Y51850D01*
X27652D01*
X27727Y51925D01*
Y52150D02*Y51925D01*
X27907Y52075D02*Y51925D01*
Y52075D02*X27982Y52150D01*
X28132D01*
X28207Y52075D01*
Y51925D01*
X28132Y51850D02*X28207Y51925D01*
X27982Y51850D02*X28132D01*
X27907Y51925D02*X27982Y51850D01*
X28462Y52075D02*Y51850D01*
Y52075D02*X28537Y52150D01*
X28687D01*
X28387D02*X28462Y52075D01*
X28942Y52450D02*Y51925D01*
X29017Y51850D01*
X28867Y52225D02*X29017D01*
X29168Y52450D02*Y51850D01*
Y52075D02*X29243Y52150D01*
X29393D01*
X29468Y52075D01*
Y51850D01*
X20000Y53950D02*X20300D01*
X20150D02*Y53350D01*
X20480Y53800D02*Y53725D01*
Y53575D02*Y53350D01*
X20705Y53950D02*Y53425D01*
X20780Y53350D01*
X20630Y53725D02*X20780D01*
X20930Y53950D02*Y53425D01*
X21005Y53350D01*
X21230D02*X21455D01*
X21155Y53425D02*X21230Y53350D01*
X21155Y53575D02*Y53425D01*
Y53575D02*X21230Y53650D01*
X21380D01*
X21455Y53575D01*
X21155Y53500D02*X21455D01*
Y53575D02*Y53500D01*
X21635Y53725D02*X21710D01*
X21635Y53575D02*X21710D01*
X22160Y53950D02*Y53350D01*
X22460D01*
X22641Y53650D02*X22866D01*
X22641Y53350D02*X22941D01*
X22641Y53950D02*Y53350D01*
Y53950D02*X22941D01*
X23196D02*Y53350D01*
X23421Y53950D02*X23496Y53875D01*
Y53425D01*
X23421Y53350D02*X23496Y53425D01*
X23121Y53350D02*X23421D01*
X23121Y53950D02*X23421D01*
X24246D02*Y53350D01*
X24171D02*X24246Y53425D01*
X24021Y53350D02*X24171D01*
X23946Y53425D02*X24021Y53350D01*
X23946Y53575D02*Y53425D01*
Y53575D02*X24021Y53650D01*
X24171D01*
X24246Y53575D01*
X24501D02*Y53350D01*
Y53575D02*X24576Y53650D01*
X24726D01*
X24426D02*X24501Y53575D01*
X24906Y53800D02*Y53725D01*
Y53575D02*Y53350D01*
X25056Y53650D02*Y53500D01*
X25206Y53350D01*
X25356Y53500D01*
Y53650D02*Y53500D01*
X25611Y53350D02*X25836D01*
X25536Y53425D02*X25611Y53350D01*
X25536Y53575D02*Y53425D01*
Y53575D02*X25611Y53650D01*
X25761D01*
X25836Y53575D01*
X25536Y53500D02*X25836D01*
Y53575D02*Y53500D01*
X26092Y53575D02*Y53350D01*
Y53575D02*X26167Y53650D01*
X26317D01*
X26017D02*X26092Y53575D01*
X26767Y53650D02*Y53500D01*
X26917Y53350D01*
X27067Y53500D01*
Y53650D02*Y53500D01*
X27247Y53350D02*X27322D01*
X27772Y53425D02*X27847Y53350D01*
X27772Y53875D02*Y53425D01*
Y53875D02*X27847Y53950D01*
X27997D01*
X28072Y53875D01*
Y53425D01*
X27997Y53350D02*X28072Y53425D01*
X27847Y53350D02*X27997D01*
X27772Y53500D02*X28072Y53800D01*
X28252Y53350D02*X28327D01*
X28582D02*X28732D01*
X28657Y53950D02*Y53350D01*
X28507Y53800D02*X28657Y53950D01*
X29183Y53650D02*X29483D01*
X29933Y53950D02*Y53350D01*
Y53950D02*X30233D01*
X29933Y53650D02*X30158D01*
X30638D02*X30713Y53575D01*
X30488Y53650D02*X30638D01*
X30413Y53575D02*X30488Y53650D01*
X30413Y53575D02*Y53425D01*
X30488Y53350D01*
X30713Y53650D02*Y53425D01*
X30788Y53350D01*
X30488D02*X30638D01*
X30713Y53425D01*
X30968Y53950D02*Y53350D01*
Y53425D02*X31043Y53350D01*
X31193D01*
X31268Y53425D01*
Y53575D02*Y53425D01*
X31193Y53650D02*X31268Y53575D01*
X31043Y53650D02*X31193D01*
X30968Y53575D02*X31043Y53650D01*
X31523Y53575D02*Y53350D01*
Y53575D02*X31598Y53650D01*
X31748D01*
X31448D02*X31523Y53575D01*
X31928Y53800D02*Y53725D01*
Y53575D02*Y53350D01*
X32153Y53650D02*X32378D01*
X32078Y53575D02*X32153Y53650D01*
X32078Y53575D02*Y53425D01*
X32153Y53350D01*
X32378D01*
X32784Y53650D02*X32859Y53575D01*
X32634Y53650D02*X32784D01*
X32559Y53575D02*X32634Y53650D01*
X32559Y53575D02*Y53425D01*
X32634Y53350D01*
X32859Y53650D02*Y53425D01*
X32934Y53350D01*
X32634D02*X32784D01*
X32859Y53425D01*
X33189Y53950D02*Y53425D01*
X33264Y53350D01*
X33114Y53725D02*X33264D01*
X33414Y53800D02*Y53725D01*
Y53575D02*Y53350D01*
X33564Y53575D02*Y53425D01*
Y53575D02*X33639Y53650D01*
X33789D01*
X33864Y53575D01*
Y53425D01*
X33789Y53350D02*X33864Y53425D01*
X33639Y53350D02*X33789D01*
X33564Y53425D02*X33639Y53350D01*
X34119Y53575D02*Y53350D01*
Y53575D02*X34194Y53650D01*
X34269D01*
X34344Y53575D01*
Y53350D01*
X34044Y53650D02*X34119Y53575D01*
X34869Y53950D02*Y53350D01*
X35094Y53950D02*X35169Y53875D01*
Y53425D01*
X35094Y53350D02*X35169Y53425D01*
X34794Y53350D02*X35094D01*
X34794Y53950D02*X35094D01*
X35424Y53575D02*Y53350D01*
Y53575D02*X35499Y53650D01*
X35649D01*
X35349D02*X35424Y53575D01*
X36055Y53650D02*X36130Y53575D01*
X35905Y53650D02*X36055D01*
X35830Y53575D02*X35905Y53650D01*
X35830Y53575D02*Y53425D01*
X35905Y53350D01*
X36130Y53650D02*Y53425D01*
X36205Y53350D01*
X35905D02*X36055D01*
X36130Y53425D01*
X36385Y53650D02*Y53425D01*
X36460Y53350D01*
X36535D01*
X36610Y53425D01*
Y53650D02*Y53425D01*
X36685Y53350D01*
X36760D01*
X36835Y53425D01*
Y53650D02*Y53425D01*
X37015Y53800D02*Y53725D01*
Y53575D02*Y53350D01*
X37240Y53575D02*Y53350D01*
Y53575D02*X37315Y53650D01*
X37390D01*
X37465Y53575D01*
Y53350D01*
X37165Y53650D02*X37240Y53575D01*
X37870Y53650D02*X37945Y53575D01*
X37720Y53650D02*X37870D01*
X37645Y53575D02*X37720Y53650D01*
X37645Y53575D02*Y53425D01*
X37720Y53350D01*
X37870D01*
X37945Y53425D01*
X37645Y53200D02*X37720Y53125D01*
X37870D01*
X37945Y53200D01*
Y53650D02*Y53200D01*
M02*
