M48
INCH
T11C0.020
T22C0.025
T23C0.125
T44C0.051
%
T11
X001900Y012800
X003500Y020600
X003500Y020000
X008900Y034250
T22
X008400Y011800
X009600Y022700
X009600Y023300
X006600Y019200
X009000Y015100
X007500Y018200
X009000Y015700
X005600Y015700
X005600Y015100
X002200Y015700
X002200Y015100
X004200Y018200
X002200Y018200
X003450Y037750
X009400Y004900
X009400Y004300
X007700Y011800
X002500Y033300
X004600Y032700
X004900Y034200
X004100Y033700
X002750Y037750
X005200Y038800
X005600Y036400
X004500Y020100
X009500Y018200
X008300Y030300
X007700Y029600
X008900Y029600
X005800Y028800
X005300Y029700
X005200Y028300
X002200Y023900
X002400Y028900
X002200Y027100
X002400Y026200
X002900Y024900
X003600Y027300
X007200Y030700
X004700Y030800
X002500Y031100
X008800Y030900
X000500Y011300
X000500Y010700
X000500Y010100
X000500Y009500
X001500Y011700
X001900Y012200
X000500Y008900
X000500Y008300
X002300Y007700
X001700Y007700
X001100Y007700
X000500Y007700
X004700Y007700
X005300Y007700
X005300Y007100
X005900Y007100
X006500Y007100
X007800Y007100
X008400Y007100
X005900Y007700
X006500Y007700
X007800Y007700
X008400Y007700
X010400Y045400
X010400Y046100
X000500Y045400
X000500Y046000
X004300Y044500
X003700Y044500
X008900Y040700
X009500Y040700
X008300Y040700
X007700Y040700
X005500Y044400
X008600Y042800
X006100Y044400
X007400Y042400
X007400Y041700
X005500Y041400
X006300Y032800
X007300Y032800
T44
X006531Y001900
X002594Y001900
X004563Y001900
X008500Y001900
T23
X002000Y005500
X002900Y042100
X008500Y020700
M30
